<?xml version="1.0" encoding="utf-8" standalone="no"?>
<!DOCTYPE svg PUBLIC "-//W3C//DTD SVG 1.1//EN"
  "http://www.w3.org/Graphics/SVG/1.1/DTD/svg11.dtd">
<svg xmlns:xlink="http://www.w3.org/1999/xlink" width="408.10125pt" height="325.986375pt" viewBox="0 0 408.10125 325.986375" xmlns="http://www.w3.org/2000/svg" version="1.1">
 <metadata>
  <rdf:RDF xmlns:dc="http://purl.org/dc/elements/1.1/" xmlns:cc="http://creativecommons.org/ns#" xmlns:rdf="http://www.w3.org/1999/02/22-rdf-syntax-ns#">
   <cc:Work>
    <dc:type rdf:resource="http://purl.org/dc/dcmitype/StillImage"/>
    <dc:date>2024-03-08T16:37:52.471122</dc:date>
    <dc:format>image/svg+xml</dc:format>
    <dc:creator>
     <cc:Agent>
      <dc:title>Matplotlib v3.8.0, https://matplotlib.org/</dc:title>
     </cc:Agent>
    </dc:creator>
   </cc:Work>
  </rdf:RDF>
 </metadata>
 <defs>
  <style type="text/css">*{stroke-linejoin: round; stroke-linecap: butt}</style>
 </defs>
 <g id="figure_1">
  <g id="patch_1">
   <path d="M 0 325.986375 
L 408.10125 325.986375 
L 408.10125 0 
L 0 0 
L 0 325.986375 
z
" style="fill: none"/>
  </g>
  <g id="axes_1">
   <g id="patch_2">
    <path d="M 43.78125 288.430125 
L 400.90125 288.430125 
L 400.90125 22.318125 
L 43.78125 22.318125 
L 43.78125 288.430125 
z
" style="fill: none"/>
   </g>
   <g id="matplotlib.axis_1">
    <g id="xtick_1">
     <g id="line2d_1">
      <defs>
       <path id="ma63a0419cb" d="M 0 0 
L 0 3.5 
" style="stroke: #000000; stroke-width: 0.8"/>
      </defs>
      <g>
       <use xlink:href="#ma63a0419cb" x="60.013977" y="288.430125" style="stroke: #000000; stroke-width: 0.8"/>
      </g>
     </g>
     <g id="text_1">
      <!-- 0.0 -->
      <g transform="translate(52.062415 303.028562) scale(0.1 -0.1)">
       <defs>
        <path id="DejaVuSans-30" d="M 2034 4250 
Q 1547 4250 1301 3770 
Q 1056 3291 1056 2328 
Q 1056 1369 1301 889 
Q 1547 409 2034 409 
Q 2525 409 2770 889 
Q 3016 1369 3016 2328 
Q 3016 3291 2770 3770 
Q 2525 4250 2034 4250 
z
M 2034 4750 
Q 2819 4750 3233 4129 
Q 3647 3509 3647 2328 
Q 3647 1150 3233 529 
Q 2819 -91 2034 -91 
Q 1250 -91 836 529 
Q 422 1150 422 2328 
Q 422 3509 836 4129 
Q 1250 4750 2034 4750 
z
" transform="scale(0.015625)"/>
        <path id="DejaVuSans-2e" d="M 684 794 
L 1344 794 
L 1344 0 
L 684 0 
L 684 794 
z
" transform="scale(0.015625)"/>
       </defs>
       <use xlink:href="#DejaVuSans-30"/>
       <use xlink:href="#DejaVuSans-2e" x="63.623047"/>
       <use xlink:href="#DejaVuSans-30" x="95.410156"/>
      </g>
     </g>
    </g>
    <g id="xtick_2">
     <g id="line2d_2">
      <g>
       <use xlink:href="#ma63a0419cb" x="124.944886" y="288.430125" style="stroke: #000000; stroke-width: 0.8"/>
      </g>
     </g>
     <g id="text_2">
      <!-- 0.2 -->
      <g transform="translate(116.993324 303.028562) scale(0.1 -0.1)">
       <defs>
        <path id="DejaVuSans-32" d="M 1228 531 
L 3431 531 
L 3431 0 
L 469 0 
L 469 531 
Q 828 903 1448 1529 
Q 2069 2156 2228 2338 
Q 2531 2678 2651 2914 
Q 2772 3150 2772 3378 
Q 2772 3750 2511 3984 
Q 2250 4219 1831 4219 
Q 1534 4219 1204 4116 
Q 875 4013 500 3803 
L 500 4441 
Q 881 4594 1212 4672 
Q 1544 4750 1819 4750 
Q 2544 4750 2975 4387 
Q 3406 4025 3406 3419 
Q 3406 3131 3298 2873 
Q 3191 2616 2906 2266 
Q 2828 2175 2409 1742 
Q 1991 1309 1228 531 
z
" transform="scale(0.015625)"/>
       </defs>
       <use xlink:href="#DejaVuSans-30"/>
       <use xlink:href="#DejaVuSans-2e" x="63.623047"/>
       <use xlink:href="#DejaVuSans-32" x="95.410156"/>
      </g>
     </g>
    </g>
    <g id="xtick_3">
     <g id="line2d_3">
      <g>
       <use xlink:href="#ma63a0419cb" x="189.875795" y="288.430125" style="stroke: #000000; stroke-width: 0.8"/>
      </g>
     </g>
     <g id="text_3">
      <!-- 0.4 -->
      <g transform="translate(181.924233 303.028562) scale(0.1 -0.1)">
       <defs>
        <path id="DejaVuSans-34" d="M 2419 4116 
L 825 1625 
L 2419 1625 
L 2419 4116 
z
M 2253 4666 
L 3047 4666 
L 3047 1625 
L 3713 1625 
L 3713 1100 
L 3047 1100 
L 3047 0 
L 2419 0 
L 2419 1100 
L 313 1100 
L 313 1709 
L 2253 4666 
z
" transform="scale(0.015625)"/>
       </defs>
       <use xlink:href="#DejaVuSans-30"/>
       <use xlink:href="#DejaVuSans-2e" x="63.623047"/>
       <use xlink:href="#DejaVuSans-34" x="95.410156"/>
      </g>
     </g>
    </g>
    <g id="xtick_4">
     <g id="line2d_4">
      <g>
       <use xlink:href="#ma63a0419cb" x="254.806705" y="288.430125" style="stroke: #000000; stroke-width: 0.8"/>
      </g>
     </g>
     <g id="text_4">
      <!-- 0.6 -->
      <g transform="translate(246.855142 303.028562) scale(0.1 -0.1)">
       <defs>
        <path id="DejaVuSans-36" d="M 2113 2584 
Q 1688 2584 1439 2293 
Q 1191 2003 1191 1497 
Q 1191 994 1439 701 
Q 1688 409 2113 409 
Q 2538 409 2786 701 
Q 3034 994 3034 1497 
Q 3034 2003 2786 2293 
Q 2538 2584 2113 2584 
z
M 3366 4563 
L 3366 3988 
Q 3128 4100 2886 4159 
Q 2644 4219 2406 4219 
Q 1781 4219 1451 3797 
Q 1122 3375 1075 2522 
Q 1259 2794 1537 2939 
Q 1816 3084 2150 3084 
Q 2853 3084 3261 2657 
Q 3669 2231 3669 1497 
Q 3669 778 3244 343 
Q 2819 -91 2113 -91 
Q 1303 -91 875 529 
Q 447 1150 447 2328 
Q 447 3434 972 4092 
Q 1497 4750 2381 4750 
Q 2619 4750 2861 4703 
Q 3103 4656 3366 4563 
z
" transform="scale(0.015625)"/>
       </defs>
       <use xlink:href="#DejaVuSans-30"/>
       <use xlink:href="#DejaVuSans-2e" x="63.623047"/>
       <use xlink:href="#DejaVuSans-36" x="95.410156"/>
      </g>
     </g>
    </g>
    <g id="xtick_5">
     <g id="line2d_5">
      <g>
       <use xlink:href="#ma63a0419cb" x="319.737614" y="288.430125" style="stroke: #000000; stroke-width: 0.8"/>
      </g>
     </g>
     <g id="text_5">
      <!-- 0.8 -->
      <g transform="translate(311.786051 303.028562) scale(0.1 -0.1)">
       <defs>
        <path id="DejaVuSans-38" d="M 2034 2216 
Q 1584 2216 1326 1975 
Q 1069 1734 1069 1313 
Q 1069 891 1326 650 
Q 1584 409 2034 409 
Q 2484 409 2743 651 
Q 3003 894 3003 1313 
Q 3003 1734 2745 1975 
Q 2488 2216 2034 2216 
z
M 1403 2484 
Q 997 2584 770 2862 
Q 544 3141 544 3541 
Q 544 4100 942 4425 
Q 1341 4750 2034 4750 
Q 2731 4750 3128 4425 
Q 3525 4100 3525 3541 
Q 3525 3141 3298 2862 
Q 3072 2584 2669 2484 
Q 3125 2378 3379 2068 
Q 3634 1759 3634 1313 
Q 3634 634 3220 271 
Q 2806 -91 2034 -91 
Q 1263 -91 848 271 
Q 434 634 434 1313 
Q 434 1759 690 2068 
Q 947 2378 1403 2484 
z
M 1172 3481 
Q 1172 3119 1398 2916 
Q 1625 2713 2034 2713 
Q 2441 2713 2670 2916 
Q 2900 3119 2900 3481 
Q 2900 3844 2670 4047 
Q 2441 4250 2034 4250 
Q 1625 4250 1398 4047 
Q 1172 3844 1172 3481 
z
" transform="scale(0.015625)"/>
       </defs>
       <use xlink:href="#DejaVuSans-30"/>
       <use xlink:href="#DejaVuSans-2e" x="63.623047"/>
       <use xlink:href="#DejaVuSans-38" x="95.410156"/>
      </g>
     </g>
    </g>
    <g id="xtick_6">
     <g id="line2d_6">
      <g>
       <use xlink:href="#ma63a0419cb" x="384.668523" y="288.430125" style="stroke: #000000; stroke-width: 0.8"/>
      </g>
     </g>
     <g id="text_6">
      <!-- 1.0 -->
      <g transform="translate(376.71696 303.028562) scale(0.1 -0.1)">
       <defs>
        <path id="DejaVuSans-31" d="M 794 531 
L 1825 531 
L 1825 4091 
L 703 3866 
L 703 4441 
L 1819 4666 
L 2450 4666 
L 2450 531 
L 3481 531 
L 3481 0 
L 794 0 
L 794 531 
z
" transform="scale(0.015625)"/>
       </defs>
       <use xlink:href="#DejaVuSans-31"/>
       <use xlink:href="#DejaVuSans-2e" x="63.623047"/>
       <use xlink:href="#DejaVuSans-30" x="95.410156"/>
      </g>
     </g>
    </g>
    <g id="text_7">
     <!-- False positive rate -->
     <g transform="translate(176.840469 316.706687) scale(0.1 -0.1)">
      <defs>
       <path id="DejaVuSans-46" d="M 628 4666 
L 3309 4666 
L 3309 4134 
L 1259 4134 
L 1259 2759 
L 3109 2759 
L 3109 2228 
L 1259 2228 
L 1259 0 
L 628 0 
L 628 4666 
z
" transform="scale(0.015625)"/>
       <path id="DejaVuSans-61" d="M 2194 1759 
Q 1497 1759 1228 1600 
Q 959 1441 959 1056 
Q 959 750 1161 570 
Q 1363 391 1709 391 
Q 2188 391 2477 730 
Q 2766 1069 2766 1631 
L 2766 1759 
L 2194 1759 
z
M 3341 1997 
L 3341 0 
L 2766 0 
L 2766 531 
Q 2569 213 2275 61 
Q 1981 -91 1556 -91 
Q 1019 -91 701 211 
Q 384 513 384 1019 
Q 384 1609 779 1909 
Q 1175 2209 1959 2209 
L 2766 2209 
L 2766 2266 
Q 2766 2663 2505 2880 
Q 2244 3097 1772 3097 
Q 1472 3097 1187 3025 
Q 903 2953 641 2809 
L 641 3341 
Q 956 3463 1253 3523 
Q 1550 3584 1831 3584 
Q 2591 3584 2966 3190 
Q 3341 2797 3341 1997 
z
" transform="scale(0.015625)"/>
       <path id="DejaVuSans-6c" d="M 603 4863 
L 1178 4863 
L 1178 0 
L 603 0 
L 603 4863 
z
" transform="scale(0.015625)"/>
       <path id="DejaVuSans-73" d="M 2834 3397 
L 2834 2853 
Q 2591 2978 2328 3040 
Q 2066 3103 1784 3103 
Q 1356 3103 1142 2972 
Q 928 2841 928 2578 
Q 928 2378 1081 2264 
Q 1234 2150 1697 2047 
L 1894 2003 
Q 2506 1872 2764 1633 
Q 3022 1394 3022 966 
Q 3022 478 2636 193 
Q 2250 -91 1575 -91 
Q 1294 -91 989 -36 
Q 684 19 347 128 
L 347 722 
Q 666 556 975 473 
Q 1284 391 1588 391 
Q 1994 391 2212 530 
Q 2431 669 2431 922 
Q 2431 1156 2273 1281 
Q 2116 1406 1581 1522 
L 1381 1569 
Q 847 1681 609 1914 
Q 372 2147 372 2553 
Q 372 3047 722 3315 
Q 1072 3584 1716 3584 
Q 2034 3584 2315 3537 
Q 2597 3491 2834 3397 
z
" transform="scale(0.015625)"/>
       <path id="DejaVuSans-65" d="M 3597 1894 
L 3597 1613 
L 953 1613 
Q 991 1019 1311 708 
Q 1631 397 2203 397 
Q 2534 397 2845 478 
Q 3156 559 3463 722 
L 3463 178 
Q 3153 47 2828 -22 
Q 2503 -91 2169 -91 
Q 1331 -91 842 396 
Q 353 884 353 1716 
Q 353 2575 817 3079 
Q 1281 3584 2069 3584 
Q 2775 3584 3186 3129 
Q 3597 2675 3597 1894 
z
M 3022 2063 
Q 3016 2534 2758 2815 
Q 2500 3097 2075 3097 
Q 1594 3097 1305 2825 
Q 1016 2553 972 2059 
L 3022 2063 
z
" transform="scale(0.015625)"/>
       <path id="DejaVuSans-20" transform="scale(0.015625)"/>
       <path id="DejaVuSans-70" d="M 1159 525 
L 1159 -1331 
L 581 -1331 
L 581 3500 
L 1159 3500 
L 1159 2969 
Q 1341 3281 1617 3432 
Q 1894 3584 2278 3584 
Q 2916 3584 3314 3078 
Q 3713 2572 3713 1747 
Q 3713 922 3314 415 
Q 2916 -91 2278 -91 
Q 1894 -91 1617 61 
Q 1341 213 1159 525 
z
M 3116 1747 
Q 3116 2381 2855 2742 
Q 2594 3103 2138 3103 
Q 1681 3103 1420 2742 
Q 1159 2381 1159 1747 
Q 1159 1113 1420 752 
Q 1681 391 2138 391 
Q 2594 391 2855 752 
Q 3116 1113 3116 1747 
z
" transform="scale(0.015625)"/>
       <path id="DejaVuSans-6f" d="M 1959 3097 
Q 1497 3097 1228 2736 
Q 959 2375 959 1747 
Q 959 1119 1226 758 
Q 1494 397 1959 397 
Q 2419 397 2687 759 
Q 2956 1122 2956 1747 
Q 2956 2369 2687 2733 
Q 2419 3097 1959 3097 
z
M 1959 3584 
Q 2709 3584 3137 3096 
Q 3566 2609 3566 1747 
Q 3566 888 3137 398 
Q 2709 -91 1959 -91 
Q 1206 -91 779 398 
Q 353 888 353 1747 
Q 353 2609 779 3096 
Q 1206 3584 1959 3584 
z
" transform="scale(0.015625)"/>
       <path id="DejaVuSans-69" d="M 603 3500 
L 1178 3500 
L 1178 0 
L 603 0 
L 603 3500 
z
M 603 4863 
L 1178 4863 
L 1178 4134 
L 603 4134 
L 603 4863 
z
" transform="scale(0.015625)"/>
       <path id="DejaVuSans-74" d="M 1172 4494 
L 1172 3500 
L 2356 3500 
L 2356 3053 
L 1172 3053 
L 1172 1153 
Q 1172 725 1289 603 
Q 1406 481 1766 481 
L 2356 481 
L 2356 0 
L 1766 0 
Q 1100 0 847 248 
Q 594 497 594 1153 
L 594 3053 
L 172 3053 
L 172 3500 
L 594 3500 
L 594 4494 
L 1172 4494 
z
" transform="scale(0.015625)"/>
       <path id="DejaVuSans-76" d="M 191 3500 
L 800 3500 
L 1894 563 
L 2988 3500 
L 3597 3500 
L 2284 0 
L 1503 0 
L 191 3500 
z
" transform="scale(0.015625)"/>
       <path id="DejaVuSans-72" d="M 2631 2963 
Q 2534 3019 2420 3045 
Q 2306 3072 2169 3072 
Q 1681 3072 1420 2755 
Q 1159 2438 1159 1844 
L 1159 0 
L 581 0 
L 581 3500 
L 1159 3500 
L 1159 2956 
Q 1341 3275 1631 3429 
Q 1922 3584 2338 3584 
Q 2397 3584 2469 3576 
Q 2541 3569 2628 3553 
L 2631 2963 
z
" transform="scale(0.015625)"/>
      </defs>
      <use xlink:href="#DejaVuSans-46"/>
      <use xlink:href="#DejaVuSans-61" x="48.394531"/>
      <use xlink:href="#DejaVuSans-6c" x="109.673828"/>
      <use xlink:href="#DejaVuSans-73" x="137.457031"/>
      <use xlink:href="#DejaVuSans-65" x="189.556641"/>
      <use xlink:href="#DejaVuSans-20" x="251.080078"/>
      <use xlink:href="#DejaVuSans-70" x="282.867188"/>
      <use xlink:href="#DejaVuSans-6f" x="346.34375"/>
      <use xlink:href="#DejaVuSans-73" x="407.525391"/>
      <use xlink:href="#DejaVuSans-69" x="459.625"/>
      <use xlink:href="#DejaVuSans-74" x="487.408203"/>
      <use xlink:href="#DejaVuSans-69" x="526.617188"/>
      <use xlink:href="#DejaVuSans-76" x="554.400391"/>
      <use xlink:href="#DejaVuSans-65" x="613.580078"/>
      <use xlink:href="#DejaVuSans-20" x="675.103516"/>
      <use xlink:href="#DejaVuSans-72" x="706.890625"/>
      <use xlink:href="#DejaVuSans-61" x="748.003906"/>
      <use xlink:href="#DejaVuSans-74" x="809.283203"/>
      <use xlink:href="#DejaVuSans-65" x="848.492188"/>
     </g>
    </g>
   </g>
   <g id="matplotlib.axis_2">
    <g id="ytick_1">
     <g id="line2d_7">
      <defs>
       <path id="m60342b4395" d="M 0 0 
L -3.5 0 
" style="stroke: #000000; stroke-width: 0.8"/>
      </defs>
      <g>
       <use xlink:href="#m60342b4395" x="43.78125" y="276.334125" style="stroke: #000000; stroke-width: 0.8"/>
      </g>
     </g>
     <g id="text_8">
      <!-- 0.0 -->
      <g transform="translate(20.878125 280.133344) scale(0.1 -0.1)">
       <use xlink:href="#DejaVuSans-30"/>
       <use xlink:href="#DejaVuSans-2e" x="63.623047"/>
       <use xlink:href="#DejaVuSans-30" x="95.410156"/>
      </g>
     </g>
    </g>
    <g id="ytick_2">
     <g id="line2d_8">
      <g>
       <use xlink:href="#m60342b4395" x="43.78125" y="227.950125" style="stroke: #000000; stroke-width: 0.8"/>
      </g>
     </g>
     <g id="text_9">
      <!-- 0.2 -->
      <g transform="translate(20.878125 231.749344) scale(0.1 -0.1)">
       <use xlink:href="#DejaVuSans-30"/>
       <use xlink:href="#DejaVuSans-2e" x="63.623047"/>
       <use xlink:href="#DejaVuSans-32" x="95.410156"/>
      </g>
     </g>
    </g>
    <g id="ytick_3">
     <g id="line2d_9">
      <g>
       <use xlink:href="#m60342b4395" x="43.78125" y="179.566125" style="stroke: #000000; stroke-width: 0.8"/>
      </g>
     </g>
     <g id="text_10">
      <!-- 0.4 -->
      <g transform="translate(20.878125 183.365344) scale(0.1 -0.1)">
       <use xlink:href="#DejaVuSans-30"/>
       <use xlink:href="#DejaVuSans-2e" x="63.623047"/>
       <use xlink:href="#DejaVuSans-34" x="95.410156"/>
      </g>
     </g>
    </g>
    <g id="ytick_4">
     <g id="line2d_10">
      <g>
       <use xlink:href="#m60342b4395" x="43.78125" y="131.182125" style="stroke: #000000; stroke-width: 0.8"/>
      </g>
     </g>
     <g id="text_11">
      <!-- 0.6 -->
      <g transform="translate(20.878125 134.981344) scale(0.1 -0.1)">
       <use xlink:href="#DejaVuSans-30"/>
       <use xlink:href="#DejaVuSans-2e" x="63.623047"/>
       <use xlink:href="#DejaVuSans-36" x="95.410156"/>
      </g>
     </g>
    </g>
    <g id="ytick_5">
     <g id="line2d_11">
      <g>
       <use xlink:href="#m60342b4395" x="43.78125" y="82.798125" style="stroke: #000000; stroke-width: 0.8"/>
      </g>
     </g>
     <g id="text_12">
      <!-- 0.8 -->
      <g transform="translate(20.878125 86.597344) scale(0.1 -0.1)">
       <use xlink:href="#DejaVuSans-30"/>
       <use xlink:href="#DejaVuSans-2e" x="63.623047"/>
       <use xlink:href="#DejaVuSans-38" x="95.410156"/>
      </g>
     </g>
    </g>
    <g id="ytick_6">
     <g id="line2d_12">
      <g>
       <use xlink:href="#m60342b4395" x="43.78125" y="34.414125" style="stroke: #000000; stroke-width: 0.8"/>
      </g>
     </g>
     <g id="text_13">
      <!-- 1.0 -->
      <g transform="translate(20.878125 38.213344) scale(0.1 -0.1)">
       <use xlink:href="#DejaVuSans-31"/>
       <use xlink:href="#DejaVuSans-2e" x="63.623047"/>
       <use xlink:href="#DejaVuSans-30" x="95.410156"/>
      </g>
     </g>
    </g>
    <g id="text_14">
     <!-- True positive rate -->
     <g transform="translate(14.798438 198.938187) rotate(-90) scale(0.1 -0.1)">
      <defs>
       <path id="DejaVuSans-54" d="M -19 4666 
L 3928 4666 
L 3928 4134 
L 2272 4134 
L 2272 0 
L 1638 0 
L 1638 4134 
L -19 4134 
L -19 4666 
z
" transform="scale(0.015625)"/>
       <path id="DejaVuSans-75" d="M 544 1381 
L 544 3500 
L 1119 3500 
L 1119 1403 
Q 1119 906 1312 657 
Q 1506 409 1894 409 
Q 2359 409 2629 706 
Q 2900 1003 2900 1516 
L 2900 3500 
L 3475 3500 
L 3475 0 
L 2900 0 
L 2900 538 
Q 2691 219 2414 64 
Q 2138 -91 1772 -91 
Q 1169 -91 856 284 
Q 544 659 544 1381 
z
M 1991 3584 
L 1991 3584 
z
" transform="scale(0.015625)"/>
      </defs>
      <use xlink:href="#DejaVuSans-54"/>
      <use xlink:href="#DejaVuSans-72" x="46.333984"/>
      <use xlink:href="#DejaVuSans-75" x="87.447266"/>
      <use xlink:href="#DejaVuSans-65" x="150.826172"/>
      <use xlink:href="#DejaVuSans-20" x="212.349609"/>
      <use xlink:href="#DejaVuSans-70" x="244.136719"/>
      <use xlink:href="#DejaVuSans-6f" x="307.613281"/>
      <use xlink:href="#DejaVuSans-73" x="368.794922"/>
      <use xlink:href="#DejaVuSans-69" x="420.894531"/>
      <use xlink:href="#DejaVuSans-74" x="448.677734"/>
      <use xlink:href="#DejaVuSans-69" x="487.886719"/>
      <use xlink:href="#DejaVuSans-76" x="515.669922"/>
      <use xlink:href="#DejaVuSans-65" x="574.849609"/>
      <use xlink:href="#DejaVuSans-20" x="636.373047"/>
      <use xlink:href="#DejaVuSans-72" x="668.160156"/>
      <use xlink:href="#DejaVuSans-61" x="709.273438"/>
      <use xlink:href="#DejaVuSans-74" x="770.552734"/>
      <use xlink:href="#DejaVuSans-65" x="809.761719"/>
     </g>
    </g>
   </g>
   <g id="line2d_13">
    <path d="M 60.013977 276.334125 
L 60.124627 275.593136 
L 60.143461 275.486227 
L 60.250579 274.804222 
L 60.276476 274.704687 
L 60.387126 274.159083 
L 60.4142 274.063233 
L 60.524849 273.43284 
L 60.547215 273.325931 
L 60.657865 272.813506 
L 60.676699 272.71397 
L 60.787348 272.264215 
L 60.809714 272.15362 
L 60.920363 271.725985 
L 60.949791 271.637508 
L 61.060441 271.047666 
L 61.087515 270.937071 
L 61.196988 270.505749 
L 61.232301 270.395154 
L 61.342951 269.99701 
L 61.361785 269.893788 
L 61.472435 269.491958 
L 61.4948 269.385049 
L 61.60545 268.909489 
L 61.645472 268.798894 
L 61.754945 268.275409 
L 61.783196 268.172187 
L 61.893846 267.799849 
L 61.927982 267.69294 
L 62.038632 267.235813 
L 62.066883 267.14365 
L 62.177533 266.704955 
L 62.217555 266.594359 
L 62.328205 266.240454 
L 62.357633 266.137232 
L 62.468282 265.742775 
L 62.503596 265.63218 
L 62.609537 265.278274 
L 62.650737 265.167679 
L 62.760209 264.75479 
L 62.78846 264.644194 
L 62.89911 264.286603 
L 62.928538 264.18338 
L 63.039188 263.766804 
L 63.089804 263.656209 
L 63.200454 263.213828 
L 63.244008 263.103232 
L 63.354657 262.760387 
L 63.391148 262.649791 
L 63.501798 262.233215 
L 63.521809 262.129993 
L 63.632459 261.724477 
L 63.684252 261.613881 
L 63.794902 261.300528 
L 63.843164 261.193619 
L 63.952637 260.821281 
L 64.000899 260.718059 
L 64.108017 260.271991 
L 64.152748 260.165082 
L 64.263398 259.741133 
L 64.290472 259.630538 
L 64.401121 259.295065 
L 64.437612 259.18447 
L 64.545908 258.826878 
L 64.589461 258.719969 
L 64.698934 258.406615 
L 64.743665 258.303393 
L 64.854314 257.875758 
L 64.895514 257.768849 
L 65.006163 257.444436 
L 65.063843 257.3449 
L 65.174492 256.957816 
L 65.222754 256.850907 
L 65.329873 256.463823 
L 65.361655 256.353228 
L 65.472305 256.058307 
L 65.517036 255.947712 
L 65.627685 255.66385 
L 65.685364 255.560628 
L 65.796014 255.243588 
L 65.81838 255.136679 
L 65.929029 254.841758 
L 65.994948 254.731163 
L 66.104421 254.340392 
L 66.147974 254.233483 
L 66.255093 253.916443 
L 66.291584 253.809535 
L 66.402233 253.536733 
L 66.434016 253.426137 
L 66.536426 253.179141 
L 66.575271 253.075919 
L 66.685921 252.736759 
L 66.744777 252.629851 
L 66.855426 252.349676 
L 66.910751 252.246453 
L 67.01787 251.918354 
L 67.055538 251.811445 
L 67.166187 251.461226 
L 67.202678 251.354317 
L 67.312151 251.004099 
L 67.374539 250.893503 
L 67.485188 250.639134 
L 67.529919 250.528539 
L 67.640569 250.226245 
L 67.67706 250.115649 
L 67.780647 249.876026 
L 67.853628 249.76543 
L 67.961924 249.466823 
L 68.018426 249.359914 
L 68.127898 249.061307 
L 68.167921 248.954398 
L 68.27857 248.66685 
L 68.318593 248.563627 
L 68.429242 248.268706 
L 68.464556 248.158111 
L 68.575206 247.87425 
L 68.619937 247.771027 
L 68.730586 247.450301 
L 68.783557 247.343392 
L 68.894207 247.037411 
L 68.951886 246.934189 
L 69.062535 246.606089 
L 69.106089 246.506554 
L 69.215562 246.178454 
L 69.262647 246.067859 
L 69.372119 245.80243 
L 69.423913 245.691834 
L 69.534562 245.404286 
L 69.569876 245.293691 
L 69.679349 244.995084 
L 69.713485 244.891861 
L 69.821781 244.619059 
L 69.855918 244.51215 
L 69.96539 244.268841 
L 70.016007 244.158245 
L 70.126656 243.844892 
L 70.183158 243.734296 
L 70.291454 243.450435 
L 70.34207 243.343526 
L 70.450366 243.052291 
L 70.491565 242.956442 
L 70.59986 242.639402 
L 70.639883 242.532493 
L 70.750532 242.163842 
L 70.799972 242.056933 
L 70.90709 241.813623 
L 70.949466 241.703028 
L 71.058939 241.389674 
L 71.113087 241.279079 
L 71.221382 240.962039 
L 71.280239 240.851444 
L 71.389711 240.637626 
L 71.429733 240.527031 
L 71.538029 240.276348 
L 71.601594 240.173125 
L 71.712243 239.900323 
L 71.764037 239.793415 
L 71.874687 239.387898 
L 71.932366 239.277303 
L 72.043015 238.95289 
L 72.099517 238.845981 
L 72.210167 238.587925 
L 72.256075 238.47733 
L 72.365548 238.156603 
L 72.407924 238.046008 
L 72.51622 237.765833 
L 72.573899 237.655237 
L 72.682194 237.312392 
L 72.738696 237.201796 
L 72.845814 236.936368 
L 72.892899 236.825772 
L 73.002372 236.589835 
L 73.057697 236.482926 
L 73.168347 236.188005 
L 73.2119 236.07741 
L 73.32255 235.859906 
L 73.383761 235.756684 
L 73.493233 235.557612 
L 73.552089 235.447017 
L 73.662739 235.185274 
L 73.702761 235.074679 
L 73.808703 234.857175 
L 73.849902 234.746579 
L 73.960552 234.488523 
L 74.021762 234.377928 
L 74.132412 234.105126 
L 74.175965 233.994531 
L 74.283084 233.710669 
L 74.349003 233.600074 
L 74.459653 233.356764 
L 74.514977 233.246169 
L 74.62445 232.988113 
L 74.664472 232.877517 
L 74.773945 232.660013 
L 74.817498 232.549418 
L 74.919908 232.331914 
L 74.995244 232.221318 
L 75.101186 231.974322 
L 75.15651 231.863727 
L 75.26716 231.61673 
L 75.351913 231.509821 
L 75.459031 231.277571 
L 75.520242 231.170662 
L 75.630892 230.894174 
L 75.714468 230.783578 
L 75.810992 230.49603 
L 75.882796 230.385435 
L 75.988738 230.167931 
L 76.078199 230.057335 
L 76.187672 229.843518 
L 76.222985 229.732922 
L 76.333635 229.48224 
L 76.408971 229.375331 
L 76.518444 229.132021 
L 76.578477 229.021425 
L 76.686773 228.741251 
L 76.74916 228.630655 
L 76.855101 228.409464 
L 76.916312 228.306242 
L 77.019899 228.099797 
L 77.090526 227.989202 
L 77.197645 227.709027 
L 77.258855 227.598432 
L 77.369505 227.39936 
L 77.437778 227.288765 
L 77.547251 227.015963 
L 77.607284 226.905367 
L 77.716757 226.665744 
L 77.772082 226.555149 
L 77.880377 226.341331 
L 77.943942 226.230736 
L 78.054592 226.039037 
L 78.113448 225.928442 
L 78.22292 225.71831 
L 78.266474 225.607715 
L 78.373592 225.342286 
L 78.459523 225.231691 
L 78.566641 225.025246 
L 78.644331 224.918337 
L 78.75145 224.686087 
L 78.813837 224.575492 
L 78.922133 224.339555 
L 78.997469 224.228959 
L 79.104587 223.941411 
L 79.169329 223.830816 
L 79.278801 223.609625 
L 79.360023 223.49903 
L 79.469496 223.281526 
L 79.543654 223.17093 
L 79.65195 223.005037 
L 79.686087 222.894442 
L 79.794382 222.658505 
L 79.860301 222.54791 
L 79.967419 222.348838 
L 80.032161 222.238243 
L 80.141634 222.039171 
L 80.228741 221.928576 
L 80.339391 221.677893 
L 80.426498 221.567298 
L 80.533616 221.35348 
L 80.600713 221.246571 
L 80.711362 221.040126 
L 80.78199 220.929531 
L 80.892639 220.7194 
L 80.964444 220.62355 
L 81.070385 220.406046 
L 81.143367 220.295451 
L 81.254017 220.052141 
L 81.343478 219.945232 
L 81.451774 219.753533 
L 81.516516 219.646625 
L 81.625988 219.414374 
L 81.713095 219.303779 
L 81.819037 219.134199 
L 81.91203 219.023604 
L 82.021502 218.79504 
L 82.116849 218.684445 
L 82.223968 218.511179 
L 82.292241 218.400583 
L 82.400536 218.223631 
L 82.479404 218.113035 
L 82.588876 217.880785 
L 82.664212 217.773876 
L 82.774862 217.51582 
L 82.879626 217.405225 
L 82.986744 217.202467 
L 83.06208 217.091872 
L 83.17273 216.914919 
L 83.252775 216.804324 
L 83.363424 216.64949 
L 83.436406 216.538895 
L 83.537639 216.402494 
L 83.612975 216.291898 
L 83.718916 216.103886 
L 83.809555 215.993291 
L 83.920204 215.838457 
L 83.957872 215.742608 
L 84.063814 215.525104 
L 84.12267 215.425568 
L 84.232142 215.21175 
L 84.283936 215.101155 
L 84.389877 214.902083 
L 84.444025 214.791488 
L 84.553498 214.540805 
L 84.61 214.43021 
L 84.717118 214.17584 
L 84.803048 214.065245 
L 84.911343 213.851427 
L 84.97844 213.744518 
L 85.087912 213.490149 
L 85.144414 213.379554 
L 85.255064 213.180482 
L 85.318629 213.069887 
L 85.422216 212.889247 
L 85.519917 212.778652 
L 85.630567 212.586953 
L 85.701194 212.476358 
L 85.807135 212.292032 
L 85.881294 212.181437 
L 85.991944 212.026604 
L 86.063749 211.916008 
L 86.173221 211.669012 
L 86.260328 211.558416 
L 86.370978 211.304047 
L 86.46044 211.193452 
L 86.569912 211.016499 
L 86.660551 210.905904 
L 86.771201 210.703146 
L 86.827703 210.59255 
L 86.933644 210.411911 
L 87.007803 210.301316 
L 87.118452 210.124363 
L 87.18084 210.017454 
L 87.29149 209.752025 
L 87.337398 209.64143 
L 87.443339 209.420239 
L 87.526915 209.309644 
L 87.631679 209.121632 
L 87.67641 209.011036 
L 87.787059 208.786159 
L 87.857687 208.675564 
L 87.965982 208.469119 
L 88.040141 208.358524 
L 88.149614 208.155766 
L 88.228481 208.04517 
L 88.337954 207.820293 
L 88.400341 207.717071 
L 88.510991 207.551178 
L 88.588681 207.444269 
L 88.699331 207.311554 
L 88.793501 207.200959 
L 88.900619 207.031379 
L 89.011269 206.920784 
L 89.119565 206.773323 
L 89.181952 206.666415 
L 89.284362 206.493149 
L 89.373824 206.382553 
L 89.482119 206.231406 
L 89.564518 206.128184 
L 89.67399 205.895934 
L 89.752858 205.785338 
L 89.86233 205.604699 
L 89.917655 205.49779 
L 90.027128 205.328211 
L 90.120121 205.217615 
L 90.227239 205.014857 
L 90.320232 204.904262 
L 90.430882 204.775234 
L 90.509749 204.668325 
L 90.618044 204.425015 
L 90.687495 204.31442 
L 90.798144 204.122721 
L 90.866418 204.015812 
L 90.966473 203.872038 
L 91.066529 203.761443 
L 91.177179 203.573431 
L 91.254869 203.462835 
L 91.361987 203.249018 
L 91.453803 203.142109 
L 91.563276 202.891426 
L 91.670394 202.780831 
L 91.775158 202.578072 
L 91.857557 202.467477 
L 91.968207 202.30527 
L 92.043543 202.202048 
L 92.149484 201.977171 
L 92.228351 201.866576 
L 92.335469 201.626952 
L 92.403743 201.516357 
L 92.513215 201.313599 
L 92.581489 201.210376 
L 92.692138 201.051856 
L 92.742755 200.941261 
L 92.852227 200.823293 
L 92.951106 200.72007 
L 93.060578 200.509939 
L 93.159457 200.40303 
L 93.268929 200.233451 
L 93.316014 200.122855 
L 93.41607 199.93853 
L 93.490229 199.831621 
L 93.600879 199.639922 
L 93.675037 199.529327 
L 93.78451 199.396612 
L 93.863377 199.286017 
L 93.97285 199.083259 
L 94.059957 198.97635 
L 94.168253 198.795711 
L 94.225932 198.685115 
L 94.335404 198.478671 
L 94.431929 198.379135 
L 94.541401 198.17269 
L 94.626154 198.062095 
L 94.73445 197.888829 
L 94.826265 197.778233 
L 94.935738 197.634459 
L 95.004011 197.52755 
L 95.11113 197.350598 
L 95.1641 197.251062 
L 95.272396 197.055677 
L 95.354795 196.948768 
L 95.465444 196.812367 
L 95.561968 196.701772 
L 95.670264 196.510073 
L 95.765611 196.399478 
L 95.872729 196.248331 
L 95.964545 196.141422 
L 96.075195 195.975529 
L 96.144645 195.864933 
L 96.255295 195.687981 
L 96.336517 195.584758 
L 96.447166 195.370941 
L 96.529565 195.264032 
L 96.634329 195.046528 
L 96.713197 194.939619 
L 96.819138 194.74792 
L 96.894474 194.644698 
L 97.000415 194.526729 
L 97.096939 194.416134 
L 97.20288 194.287106 
L 97.267622 194.176511 
L 97.378272 194.003245 
L 97.498339 193.896336 
L 97.60428 193.71201 
L 97.678439 193.605101 
L 97.785557 193.439208 
L 97.863247 193.328613 
L 97.971543 193.199585 
L 98.057473 193.08899 
L 98.168123 192.882545 
L 98.254053 192.77195 
L 98.361171 192.61343 
L 98.447101 192.506521 
L 98.55422 192.35906 
L 98.64839 192.248465 
L 98.753154 192.086258 
L 98.842615 191.975663 
L 98.952088 191.831889 
L 99.075686 191.721294 
L 99.183981 191.522222 
L 99.272266 191.415313 
L 99.374676 191.242047 
L 99.468846 191.131452 
L 99.579495 190.965558 
L 99.661894 190.854963 
L 99.771367 190.674324 
L 99.858474 190.563729 
L 99.967947 190.375717 
L 100.056231 190.272494 
L 100.165703 190.13978 
L 100.275176 190.029184 
L 100.384649 189.859605 
L 100.454099 189.760069 
L 100.561217 189.542565 
L 100.682461 189.435656 
L 100.791934 189.328747 
L 100.886104 189.218152 
L 100.996754 189.067005 
L 101.060318 188.967469 
L 101.168614 188.78683 
L 101.24395 188.676234 
L 101.348714 188.536147 
L 101.406393 188.429238 
L 101.517043 188.230166 
L 101.593556 188.119571 
L 101.704206 187.957364 
L 101.797198 187.846769 
L 101.905494 187.691936 
L 101.982007 187.585027 
L 102.092657 187.419134 
L 102.180941 187.312225 
L 102.289237 187.135272 
L 102.361041 187.024677 
L 102.471691 186.840351 
L 102.548204 186.737129 
L 102.658854 186.600728 
L 102.74243 186.490132 
L 102.853079 186.346359 
L 102.913113 186.235763 
L 103.022585 186.044065 
L 103.104984 185.937156 
L 103.21328 185.771263 
L 103.316867 185.660667 
L 103.420454 185.465282 
L 103.520509 185.354687 
L 103.631159 185.199853 
L 103.707672 185.089258 
L 103.813613 184.96023 
L 103.879532 184.853321 
L 103.989005 184.698487 
L 104.058455 184.591579 
L 104.159688 184.440432 
L 104.278577 184.329836 
L 104.386873 184.119705 
L 104.452792 184.00911 
L 104.563442 183.795292 
L 104.658789 183.684697 
L 104.767084 183.445073 
L 104.845952 183.334478 
L 104.956601 183.12066 
L 105.020166 183.013751 
L 105.127284 182.858918 
L 105.209683 182.748322 
L 105.314447 182.6451 
L 105.392138 182.534505 
L 105.500433 182.398104 
L 105.572238 182.287508 
L 105.68171 182.106869 
L 105.77588 181.996274 
L 105.88653 181.823008 
L 105.981877 181.716099 
L 106.088995 181.587071 
L 106.165508 181.476476 
L 106.276158 181.321642 
L 106.369151 181.21842 
L 106.479801 181.037781 
L 106.54572 180.927185 
L 106.651661 180.764979 
L 106.765842 180.654383 
L 106.870606 180.532729 
L 106.96713 180.422133 
L 107.076603 180.274673 
L 107.150762 180.164077 
L 107.259057 179.961319 
L 107.340279 179.850724 
L 107.449752 179.692204 
L 107.520379 179.581608 
L 107.629852 179.37885 
L 107.700479 179.268255 
L 107.809952 179.039691 
L 107.885288 178.929096 
L 107.990052 178.789008 
L 108.08893 178.678413 
L 108.193694 178.508833 
L 108.278447 178.398238 
L 108.389097 178.254464 
L 108.478559 178.143869 
L 108.588031 178.0259 
L 108.665722 177.915305 
L 108.771663 177.786277 
L 108.865833 177.679368 
L 108.976482 177.517161 
L 109.050641 177.406566 
L 109.158937 177.214867 
L 109.266055 177.104272 
L 109.376705 176.964185 
L 109.456749 176.857276 
L 109.567399 176.713502 
L 109.683934 176.602906 
L 109.794584 176.42964 
L 109.929954 176.322731 
L 110.039426 176.193704 
L 110.143013 176.086795 
L 110.253663 175.931961 
L 110.328999 175.821366 
L 110.439649 175.673905 
L 110.503213 175.56331 
L 110.613863 175.415849 
L 110.71745 175.305254 
L 110.8281 175.080377 
L 110.92227 174.969781 
L 111.032919 174.814948 
L 111.098838 174.704353 
L 111.207134 174.560579 
L 111.29895 174.45367 
L 111.408422 174.343074 
L 111.524958 174.232479 
L 111.633253 174.085018 
L 111.746257 173.974423 
L 111.852198 173.767978 
L 111.961671 173.66107 
L 112.072321 173.506236 
L 112.181793 173.395641 
L 112.287734 173.262926 
L 112.390144 173.152331 
L 112.500794 173.008557 
L 112.565536 172.901648 
L 112.669123 172.765247 
L 112.77271 172.658338 
L 112.881005 172.562489 
L 113.001072 172.45558 
L 113.102305 172.315493 
L 113.24356 172.208584 
L 113.348324 172.020572 
L 113.447202 171.913663 
L 113.555498 171.766202 
L 113.635542 171.655607 
L 113.745015 171.530265 
L 113.81682 171.41967 
L 113.925115 171.26115 
L 114.012222 171.150555 
L 114.120518 171.01784 
L 114.237053 170.907245 
L 114.347703 170.763471 
L 114.447758 170.656562 
L 114.554877 170.505415 
L 114.617264 170.39482 
L 114.727914 170.243673 
L 114.829147 170.136764 
L 114.935088 169.967184 
L 115.023372 169.860275 
L 115.129314 169.701755 
L 115.224661 169.594846 
L 115.334133 169.436326 
L 115.420064 169.325731 
L 115.529536 169.204076 
L 115.697865 169.097167 
L 115.80616 168.94602 
L 115.906216 168.835425 
L 116.008626 168.717456 
L 116.092202 168.606861 
L 116.201674 168.496266 
L 116.329981 168.38567 
L 116.439454 168.23821 
L 116.535978 168.127614 
L 116.644273 168.013333 
L 116.732558 167.902737 
L 116.840853 167.777396 
L 116.953857 167.670487 
L 117.06333 167.50828 
L 117.123363 167.416118 
L 117.22695 167.224419 
L 117.371736 167.11751 
L 117.482386 166.973736 
L 117.542419 166.863141 
L 117.651892 166.759918 
L 117.729582 166.649323 
L 117.830815 166.516609 
L 117.908505 166.406013 
L 118.019155 166.254866 
L 118.102731 166.144271 
L 118.209849 165.99681 
L 118.295779 165.886215 
L 118.401721 165.794052 
L 118.513547 165.683457 
L 118.624197 165.558115 
L 118.721899 165.454893 
L 118.832548 165.274254 
L 118.937312 165.163659 
L 119.047962 165.030944 
L 119.128007 164.924035 
L 119.237479 164.761829 
L 119.309284 164.658606 
L 119.415225 164.511146 
L 119.518812 164.40055 
L 119.628285 164.278896 
L 119.724809 164.1683 
L 119.835459 164.035586 
L 119.94964 163.92499 
L 120.060289 163.751724 
L 120.163876 163.641129 
L 120.273349 163.537907 
L 120.361633 163.434684 
L 120.472283 163.265105 
L 120.569984 163.154509 
L 120.675926 163.051287 
L 120.763033 162.948065 
L 120.870151 162.785858 
L 120.980801 162.675263 
L 121.091451 162.535175 
L 121.200923 162.428266 
L 121.311573 162.302925 
L 121.411629 162.19233 
L 121.50933 162.055929 
L 121.642345 161.945333 
L 121.751818 161.801559 
L 121.825977 161.690964 
L 121.935449 161.576682 
L 122.042568 161.469773 
L 122.153217 161.30388 
L 122.249741 161.196971 
L 122.359214 161.112181 
L 122.461624 161.005273 
L 122.572274 160.843066 
L 122.684101 160.732471 
L 122.793573 160.607129 
L 122.901869 160.496534 
L 123.010164 160.374879 
L 123.11846 160.264284 
L 123.225578 160.150002 
L 123.337405 160.039406 
L 123.448054 159.899319 
L 123.559881 159.788724 
L 123.665823 159.652323 
L 123.802369 159.541727 
L 123.909487 159.412699 
L 124.003657 159.302104 
L 124.114307 159.169389 
L 124.208477 159.058794 
L 124.314418 158.955572 
L 124.400348 158.844976 
L 124.500404 158.734381 
L 124.612231 158.623786 
L 124.719349 158.483698 
L 124.818228 158.373103 
L 124.928877 158.236702 
L 125.01363 158.126106 
L 125.12428 157.982332 
L 125.203148 157.871737 
L 125.313797 157.724277 
L 125.418561 157.613681 
L 125.519794 157.514145 
L 125.683414 157.40355 
L 125.785824 157.270836 
L 125.876463 157.167613 
L 125.984758 157.005407 
L 126.169567 156.894811 
L 126.276685 156.776843 
L 126.408523 156.669934 
L 126.505048 156.53722 
L 126.648657 156.433997 
L 126.755775 156.345521 
L 126.826403 156.234926 
L 126.933521 156.091152 
L 127.050056 155.980556 
L 127.160706 155.873647 
L 127.259585 155.766739 
L 127.369057 155.626651 
L 127.480884 155.519742 
L 127.591534 155.40546 
L 127.729257 155.302238 
L 127.839907 155.176897 
L 127.972922 155.069988 
L 128.075332 154.974138 
L 128.176565 154.870916 
L 128.280152 154.749261 
L 128.46496 154.638666 
L 128.568547 154.531757 
L 128.662717 154.421162 
L 128.769836 154.30688 
L 128.905205 154.199971 
L 129.0135 154.093062 
L 129.111202 153.982467 
L 129.21832 153.875558 
L 129.361929 153.764962 
L 129.467871 153.624875 
L 129.583229 153.51428 
L 129.686816 153.392625 
L 129.792757 153.285716 
L 129.899875 153.116136 
L 130.025828 153.005541 
L 130.136477 152.86914 
L 130.220053 152.762231 
L 130.327172 152.592651 
L 130.447238 152.482056 
L 130.557888 152.345655 
L 130.668538 152.23506 
L 130.779188 152.091286 
L 130.900431 151.98069 
L 131.002841 151.881155 
L 131.113491 151.770559 
L 131.222964 151.564114 
L 131.332436 151.453519 
L 131.438377 151.368729 
L 131.536079 151.258134 
L 131.640843 151.173344 
L 131.757378 151.066435 
L 131.86332 150.930034 
L 131.961021 150.819439 
L 132.071671 150.719903 
L 132.163486 150.609308 
L 132.26825 150.495026 
L 132.413037 150.384431 
L 132.516624 150.284895 
L 132.637868 150.174299 
L 132.748517 150.045271 
L 132.892127 149.934676 
L 133.002776 149.864632 
L 133.105186 149.754037 
L 133.214659 149.661874 
L 133.395936 149.551279 
L 133.505409 149.418564 
L 133.630184 149.307969 
L 133.732594 149.182628 
L 133.830295 149.079405 
L 133.940945 148.95775 
L 134.050417 148.850841 
L 134.158713 148.71444 
L 134.255237 148.603845 
L 134.363533 148.500623 
L 134.455348 148.393714 
L 134.56129 148.294178 
L 134.702545 148.183583 
L 134.800246 148.08036 
L 134.933261 147.977138 
L 135.040379 147.888662 
L 135.161623 147.781753 
L 135.26521 147.671157 
L 135.405288 147.560562 
L 135.505344 147.442594 
L 135.632473 147.331998 
L 135.738414 147.225089 
L 135.886732 147.114494 
L 135.992673 147.022331 
L 136.157471 146.911736 
L 136.263412 146.771648 
L 136.41173 146.66474 
L 136.522379 146.509906 
L 136.635383 146.399311 
L 136.731908 146.303461 
L 136.856683 146.192866 
L 136.962624 146.089644 
L 137.081514 145.986421 
L 137.190986 145.86108 
L 137.333418 145.750485 
L 137.444068 145.643576 
L 137.519404 145.536667 
L 137.617105 145.407639 
L 137.740704 145.297043 
L 137.851353 145.201194 
L 137.994963 145.090599 
L 138.102081 144.961571 
L 138.232742 144.850975 
L 138.33986 144.744067 
L 138.435207 144.633471 
L 138.545857 144.530249 
L 138.665924 144.42334 
L 138.758916 144.323804 
L 138.8884 144.213209 
L 138.99905 144.084181 
L 139.132065 143.973586 
L 139.235652 143.896169 
L 139.354542 143.785573 
L 139.460483 143.645486 
L 139.592321 143.534891 
L 139.702971 143.394803 
L 139.817152 143.30264 
L 139.926624 143.162553 
L 140.053754 143.051957 
L 140.164403 142.945049 
L 140.275053 142.83814 
L 140.375109 142.723858 
L 140.490467 142.613262 
L 140.601117 142.495294 
L 140.709412 142.388385 
L 140.818885 142.263044 
L 140.928357 142.152448 
L 141.034299 142.012361 
L 141.161428 141.901766 
L 141.266192 141.805916 
L 141.402739 141.695321 
L 141.513388 141.581039 
L 141.629924 141.470444 
L 141.740574 141.32667 
L 141.858286 141.223447 
L 141.967759 141.127598 
L 142.076054 141.017003 
L 142.18435 140.865856 
L 142.342084 140.758947 
L 142.445671 140.677844 
L 142.591635 140.567248 
L 142.697576 140.497204 
L 142.808226 140.386609 
L 142.914167 140.316565 
L 142.996566 140.20597 
L 143.103684 140.106434 
L 143.214334 139.995839 
L 143.323806 139.848378 
L 143.434456 139.737783 
L 143.542752 139.616128 
L 143.646339 139.505533 
L 143.75228 139.409683 
L 143.85469 139.302774 
L 143.962985 139.159 
L 144.10424 139.048405 
L 144.209004 138.948869 
L 144.329071 138.838274 
L 144.439721 138.735052 
L 144.517411 138.624456 
L 144.624529 138.510174 
L 144.77167 138.406952 
L 144.881142 138.266864 
L 145.025929 138.156269 
L 145.134224 138.053047 
L 145.261354 137.942451 
L 145.367295 137.835542 
L 145.529738 137.724947 
L 145.632148 137.621725 
L 145.747506 137.511129 
L 145.858156 137.422653 
L 146.006474 137.312058 
L 146.114769 137.223581 
L 146.224242 137.120359 
L 146.333714 136.983958 
L 146.445541 136.873363 
L 146.550305 136.766454 
L 146.690383 136.655859 
L 146.798679 136.552636 
L 146.958768 136.442041 
L 147.064709 136.320386 
L 147.169473 136.213477 
L 147.275414 136.13606 
L 147.455514 136.025465 
L 147.562633 135.889064 
L 147.686231 135.778469 
L 147.789818 135.6605 
L 147.976981 135.549905 
L 148.086453 135.439309 
L 148.195926 135.328714 
L 148.305398 135.232865 
L 148.476082 135.122269 
L 148.584377 135.000614 
L 148.706798 134.890019 
L 148.795082 134.816289 
L 148.91868 134.705694 
L 149.024622 134.613531 
L 149.158814 134.502935 
L 149.262401 134.362848 
L 149.408364 134.252252 
L 149.517837 134.141657 
L 149.620247 134.031062 
L 149.728542 133.938899 
L 149.880391 133.828304 
L 149.98751 133.736141 
L 150.133473 133.625545 
L 150.238237 133.533383 
L 150.398326 133.422787 
L 150.506622 133.34537 
L 150.633751 133.234775 
L 150.742047 133.138926 
L 150.833862 133.02833 
L 150.938627 132.943541 
L 151.05987 132.832945 
L 151.148155 132.740782 
L 151.338849 132.630187 
L 151.448322 132.501159 
L 151.533075 132.390564 
L 151.640193 132.32052 
L 151.788511 132.209925 
L 151.895629 132.07721 
L 152.058072 131.970301 
L 152.167545 131.830214 
L 152.297029 131.719619 
L 152.407678 131.645888 
L 152.518328 131.535293 
L 152.626624 131.413638 
L 152.712554 131.303043 
L 152.818495 131.232999 
L 152.922082 131.122403 
L 153.031554 130.982316 
L 153.196352 130.871721 
L 153.302293 130.775871 
L 153.449434 130.665276 
L 153.557729 130.517815 
L 153.706047 130.40722 
L 153.810811 130.32243 
L 153.98738 130.211835 
L 154.094498 130.108613 
L 154.260473 129.998017 
L 154.366414 129.883735 
L 154.492366 129.77314 
L 154.600662 129.673604 
L 154.692478 129.563009 
L 154.797242 129.481906 
L 154.936142 129.37131 
L 155.024427 129.319699 
L 155.202173 129.209104 
L 155.302228 129.124314 
L 155.449369 129.013718 
L 155.558841 128.892064 
L 155.662428 128.781468 
L 155.763661 128.689305 
L 155.859008 128.582396 
L 155.966127 128.471801 
L 156.090902 128.361206 
L 156.190957 128.26167 
L 156.336921 128.151075 
L 156.446393 128.055225 
L 156.553512 127.94463 
L 156.662984 127.856154 
L 156.78776 127.745558 
L 156.898409 127.623903 
L 157.010236 127.513308 
L 157.118532 127.421145 
L 157.245661 127.31055 
L 157.356311 127.192581 
L 157.456366 127.081986 
L 157.564662 127.000883 
L 157.710625 126.890287 
L 157.813035 126.790751 
L 157.988427 126.680156 
L 158.083774 126.599053 
L 158.196778 126.488457 
L 158.300365 126.385235 
L 158.451037 126.278326 
L 158.555801 126.175104 
L 158.720599 126.064509 
L 158.812414 125.931794 
L 158.930127 125.821199 
L 159.037245 125.754842 
L 159.192626 125.647933 
L 159.300921 125.541024 
L 159.415102 125.434115 
L 159.524575 125.319833 
L 159.651704 125.209238 
L 159.762354 125.106015 
L 159.930683 124.99542 
L 160.041333 124.862706 
L 160.156691 124.75211 
L 160.26734 124.682066 
L 160.423898 124.575158 
L 160.534548 124.482995 
L 160.687574 124.372399 
L 160.794692 124.313415 
L 160.905342 124.20282 
L 161.008929 124.114344 
L 161.196092 124.003748 
L 161.302033 123.911585 
L 161.447997 123.80099 
L 161.557469 123.686708 
L 161.662233 123.583486 
L 161.766997 123.487636 
L 161.898835 123.377041 
L 161.993005 123.24064 
L 162.123666 123.130045 
L 162.223722 123.060001 
L 162.392051 122.949406 
L 162.499169 122.864616 
L 162.673384 122.75402 
L 162.781679 122.672917 
L 162.918225 122.562322 
L 163.020635 122.484905 
L 163.201913 122.37431 
L 163.312562 122.285833 
L 163.418503 122.175238 
L 163.524445 122.086762 
L 163.684534 121.976166 
L 163.795183 121.884004 
L 164.010597 121.773408 
L 164.118893 121.681245 
L 164.23072 121.57065 
L 164.335484 121.482174 
L 164.432008 121.371578 
L 164.541481 121.272042 
L 164.720403 121.161447 
L 164.826345 121.08403 
L 164.925223 120.973435 
L 165.022925 120.873899 
L 165.20891 120.76699 
L 165.310143 120.660081 
L 165.450221 120.549486 
L 165.552631 120.475756 
L 165.719782 120.36516 
L 165.830432 120.258252 
L 165.966979 120.147656 
L 166.075274 120.014942 
L 166.201226 119.904346 
L 166.310699 119.760572 
L 166.448423 119.649977 
L 166.555541 119.561501 
L 166.694442 119.450905 
L 166.805091 119.321877 
L 166.929867 119.211282 
L 167.032277 119.130179 
L 167.158229 119.019583 
L 167.266524 118.894242 
L 167.456041 118.783647 
L 167.566691 118.698857 
L 167.750323 118.588262 
L 167.842138 118.518218 
L 168.041073 118.407622 
L 168.148191 118.297027 
L 168.27532 118.186432 
L 168.380084 118.094269 
L 168.500151 117.983673 
L 168.606092 117.884138 
L 168.747347 117.773542 
L 168.853289 117.666633 
L 168.989835 117.559725 
L 169.092245 117.460189 
L 169.184061 117.349593 
L 169.290002 117.272177 
L 169.43008 117.161581 
L 169.536021 117.058359 
L 169.697287 116.955137 
L 169.79852 116.881406 
L 170.025705 116.770811 
L 170.130469 116.63441 
L 170.279964 116.523815 
L 170.375311 116.413219 
L 170.533046 116.302624 
L 170.640164 116.236267 
L 170.757876 116.125671 
L 170.866172 116.040881 
L 171.016844 115.930286 
L 171.126317 115.852869 
L 171.304062 115.742274 
L 171.412358 115.675917 
L 171.552436 115.565321 
L 171.661908 115.484218 
L 171.761964 115.373623 
L 171.865551 115.2704 
L 172.00092 115.159805 
L 172.11157 115.100821 
L 172.263419 114.990225 
L 172.371715 114.898063 
L 172.495313 114.787467 
L 172.593014 114.710051 
L 172.757811 114.599455 
L 172.868461 114.510979 
L 172.980288 114.400383 
L 173.089761 114.315594 
L 173.300466 114.204998 
L 173.411116 114.123895 
L 173.542954 114.0133 
L 173.650072 113.891645 
L 173.830172 113.781049 
L 173.940822 113.707319 
L 174.18331 113.60041 
L 174.293959 113.478755 
L 174.44934 113.36816 
L 174.555281 113.29443 
L 174.687119 113.183834 
L 174.797769 113.091672 
L 174.948441 112.981076 
L 175.053205 112.877854 
L 175.2027 112.767259 
L 175.301578 112.700901 
L 175.472261 112.590306 
L 175.580557 112.509203 
L 175.75124 112.40598 
L 175.854827 112.288012 
L 175.99255 112.177417 
L 176.100846 112.096313 
L 176.240924 111.985718 
L 176.350396 111.889869 
L 176.491651 111.779273 
L 176.602301 111.657618 
L 176.771807 111.547023 
L 176.871863 111.480666 
L 177.042546 111.37007 
L 177.148487 111.29634 
L 177.314462 111.185745 
L 177.412163 111.130447 
L 177.552241 111.019852 
L 177.66289 110.938748 
L 177.811208 110.828153 
L 177.920681 110.74705 
L 178.057227 110.636454 
L 178.165523 110.562724 
L 178.283235 110.455815 
L 178.393885 110.326787 
L 178.53514 110.216192 
L 178.642258 110.146148 
L 178.79293 110.035553 
L 178.902403 109.947077 
L 179.02247 109.836481 
L 179.128411 109.740632 
L 179.316751 109.63741 
L 179.417983 109.548933 
L 179.595729 109.438338 
L 179.704025 109.360921 
L 179.857051 109.250326 
L 179.965347 109.143417 
L 180.131321 109.043881 
L 180.238439 108.903794 
L 180.404414 108.793198 
L 180.515064 108.697349 
L 180.66809 108.59044 
L 180.772854 108.50565 
L 180.971788 108.398741 
L 181.070667 108.34713 
L 181.22487 108.236535 
L 181.322571 108.148059 
L 181.489723 108.044836 
L 181.600373 107.967419 
L 181.745159 107.856824 
L 181.853455 107.760975 
L 182.062983 107.654066 
L 182.168924 107.550844 
L 182.367858 107.443935 
L 182.477331 107.366518 
L 182.611523 107.263296 
L 182.705693 107.167446 
L 182.91993 107.056851 
L 183.024694 106.957315 
L 183.163595 106.84672 
L 183.273067 106.765616 
L 183.401374 106.655021 
L 183.506138 106.566545 
L 183.646216 106.455949 
L 183.755688 106.404338 
L 183.871047 106.297429 
L 183.980519 106.197893 
L 184.133545 106.087298 
L 184.244195 105.980389 
L 184.37721 105.87348 
L 184.48786 105.818183 
L 184.671491 105.707587 
L 184.773901 105.630171 
L 184.910448 105.519575 
L 185.017566 105.416353 
L 185.198843 105.305758 
L 185.309493 105.217281 
L 185.436622 105.110372 
L 185.546095 105.025583 
L 185.721487 104.914987 
L 185.830959 104.815451 
L 186.006351 104.704856 
L 186.104052 104.634812 
L 186.259433 104.527903 
L 186.359488 104.417308 
L 186.566662 104.310399 
L 186.664364 104.232982 
L 186.842109 104.122387 
L 186.943342 104.048657 
L 187.09166 103.945434 
L 187.20231 103.845899 
L 187.368284 103.742676 
L 187.465986 103.650513 
L 187.600178 103.539918 
L 187.699056 103.451442 
L 187.829717 103.340846 
L 187.936836 103.25237 
L 188.140478 103.145461 
L 188.245242 103.082791 
L 188.408863 102.972195 
L 188.51245 102.898465 
L 188.698435 102.78787 
L 188.805554 102.710453 
L 188.97506 102.603544 
L 189.081001 102.504008 
L 189.24109 102.393413 
L 189.342323 102.327056 
L 189.510651 102.21646 
L 189.614238 102.135357 
L 189.761379 102.024762 
L 189.864966 101.962091 
L 190.033295 101.851495 
L 190.129819 101.796198 
L 190.327576 101.685602 
L 190.434694 101.600813 
L 190.575949 101.490217 
L 190.674828 101.420173 
L 190.83374 101.313265 
L 190.943212 101.213729 
L 191.089176 101.103133 
L 191.196294 101.018344 
L 191.34108 100.907748 
L 191.448199 100.841391 
L 191.643601 100.734482 
L 191.740126 100.657065 
L 191.896683 100.54647 
L 192.002625 100.47274 
L 192.214507 100.362144 
L 192.300437 100.295787 
L 192.461703 100.185192 
L 192.562936 100.074596 
L 192.712431 99.964001 
L 192.818372 99.890271 
L 193.007889 99.779675 
L 193.117362 99.705945 
L 193.337484 99.59535 
L 193.446957 99.536366 
L 193.631765 99.42577 
L 193.731821 99.337294 
L 193.904858 99.226699 
L 194.014331 99.156655 
L 194.186191 99.049746 
L 194.288601 99.012881 
L 194.458107 98.905972 
L 194.567579 98.810123 
L 194.711189 98.699527 
L 194.820661 98.64423 
L 194.96427 98.533634 
L 195.071389 98.426725 
L 195.252666 98.31613 
L 195.360962 98.257146 
L 195.509279 98.146551 
L 195.614043 98.080193 
L 195.792966 97.969598 
L 195.898908 97.910614 
L 196.074299 97.800018 
L 196.182595 97.748407 
L 196.374466 97.637812 
L 196.482761 97.549336 
L 196.671101 97.43874 
L 196.76998 97.376069 
L 197.043073 97.265474 
L 197.151368 97.188057 
L 197.278498 97.077462 
L 197.378553 97.022164 
L 197.557476 96.911569 
L 197.663418 96.852585 
L 197.837632 96.745676 
L 197.945928 96.675632 
L 198.215489 96.565037 
L 198.312013 96.513426 
L 198.525073 96.40283 
L 198.633368 96.340159 
L 198.82524 96.229564 
L 198.925295 96.166893 
L 199.114812 96.056298 
L 199.224285 95.949389 
L 199.437345 95.838794 
L 199.54564 95.76875 
L 199.779888 95.658155 
L 199.889361 95.558619 
L 200.074169 95.448023 
L 200.17187 95.385353 
L 200.322542 95.278444 
L 200.414358 95.204714 
L 200.66744 95.094118 
L 200.776913 94.990896 
L 200.951127 94.880301 
L 201.0606 94.825003 
L 201.258357 94.714408 
L 201.353704 94.629618 
L 201.543221 94.519022 
L 201.635037 94.474784 
L 201.765697 94.364189 
L 201.87517 94.305205 
L 202.069396 94.194609 
L 202.175337 94.117193 
L 202.341311 94.01397 
L 202.444898 93.925494 
L 202.607342 93.814899 
L 202.717991 93.748541 
L 202.912217 93.637946 
L 203.004033 93.593708 
L 203.205321 93.483112 
L 203.312439 93.365144 
L 203.527853 93.254549 
L 203.637326 93.155013 
L 203.82802 93.044417 
L 203.935138 92.974374 
L 204.121124 92.863778 
L 204.230597 92.74581 
L 204.437771 92.635215 
L 204.541358 92.572544 
L 204.708509 92.461948 
L 204.819159 92.402964 
L 204.983957 92.292369 
L 205.094606 92.203893 
L 205.249987 92.093297 
L 205.354751 92.045373 
L 205.61725 91.934777 
L 205.725545 91.87948 
L 205.949199 91.768884 
L 206.053963 91.684094 
L 206.289388 91.577186 
L 206.394152 91.46659 
L 206.548355 91.363368 
L 206.65312 91.267518 
L 206.826157 91.156923 
L 206.922681 91.101625 
L 207.142803 90.99103 
L 207.242859 90.924673 
L 207.39 90.814077 
L 207.499472 90.721915 
L 207.674864 90.611319 
L 207.771388 90.537589 
L 207.923237 90.43068 
L 208.03271 90.323771 
L 208.199861 90.213176 
L 208.305803 90.176311 
L 208.483549 90.065715 
L 208.590667 89.991985 
L 208.770767 89.88139 
L 208.88024 89.7966 
L 209.081528 89.686005 
L 209.192178 89.604901 
L 209.407591 89.494306 
L 209.500584 89.439008 
L 209.680684 89.328413 
L 209.790157 89.280488 
L 209.986737 89.169893 
L 210.084438 89.110909 
L 210.284549 89.000313 
L 210.389314 88.93027 
L 210.601196 88.819674 
L 210.709491 88.738571 
L 210.889592 88.627976 
L 210.999064 88.572678 
L 211.146205 88.462083 
L 211.249792 88.366233 
L 211.415766 88.255638 
L 211.52053 88.152416 
L 211.757133 88.045507 
L 211.858365 87.96809 
L 212.031403 87.861181 
L 212.137344 87.783764 
L 212.286839 87.673169 
L 212.39278 87.595752 
L 212.577589 87.485157 
L 212.688238 87.411427 
L 212.851859 87.300831 
L 212.962508 87.216041 
L 213.170859 87.105446 
L 213.275624 87.050148 
L 213.527528 86.939553 
L 213.635824 86.902688 
L 213.853592 86.795779 
L 213.96071 86.718362 
L 214.133747 86.607767 
L 214.239689 86.570902 
L 214.36211 86.460306 
L 214.459811 86.386576 
L 214.641088 86.275981 
L 214.751738 86.21331 
L 215.014237 86.102715 
L 215.103698 86.069536 
L 215.30381 85.958941 
L 215.396802 85.914703 
L 215.601622 85.804107 
L 215.709918 85.73775 
L 215.867652 85.627155 
L 215.966531 85.564484 
L 216.160756 85.453888 
L 216.251395 85.387531 
L 216.45386 85.276936 
L 216.56451 85.217952 
L 216.765798 85.111043 
L 216.874094 85.040999 
L 217.022412 84.930404 
L 217.116582 84.830868 
L 217.283733 84.723959 
L 217.393206 84.646542 
L 217.626277 84.535947 
L 217.729864 84.443784 
L 218.004134 84.333189 
L 218.088887 84.274205 
L 218.247799 84.167296 
L 218.349031 84.100938 
L 218.545611 83.990343 
L 218.651552 83.912926 
L 218.884623 83.802331 
L 218.995273 83.747033 
L 219.188321 83.636438 
L 219.296617 83.566394 
L 219.439049 83.459485 
L 219.535573 83.385755 
L 219.787478 83.27516 
L 219.894596 83.219862 
L 220.075873 83.109267 
L 220.177106 83.057655 
L 220.363092 82.94706 
L 220.472564 82.869643 
L 220.660904 82.759048 
L 220.771554 82.655826 
L 221.061127 82.54523 
L 221.165891 82.489933 
L 221.384836 82.383024 
L 221.495486 82.327726 
L 221.726202 82.217131 
L 221.835675 82.113908 
L 222.03814 82.003313 
L 222.14879 81.936956 
L 222.398341 81.82636 
L 222.491333 81.785809 
L 222.707924 81.675213 
L 222.802094 81.634662 
L 223.009268 81.524066 
L 223.117564 81.457709 
L 223.314144 81.347114 
L 223.424793 81.299189 
L 223.649624 81.188594 
L 223.759097 81.10749 
L 223.933311 80.996895 
L 224.038075 80.930538 
L 224.247604 80.819942 
L 224.350013 80.775704 
L 224.620752 80.665109 
L 224.705505 80.635617 
L 224.92445 80.525021 
L 225.023329 80.451291 
L 225.202252 80.340696 
L 225.304662 80.266966 
L 225.508304 80.160057 
L 225.617777 80.090013 
L 225.769626 79.979418 
L 225.875567 79.898314 
L 226.073324 79.787719 
L 226.178088 79.725048 
L 226.326406 79.614453 
L 226.42293 79.559155 
L 226.678366 79.44856 
L 226.784307 79.385889 
L 226.969116 79.275294 
L 227.077412 79.201564 
L 227.309305 79.094655 
L 227.415246 78.973 
L 227.711882 78.862404 
L 227.815469 78.784988 
L 227.989683 78.674392 
L 228.09327 78.596976 
L 228.338112 78.48638 
L 228.448762 78.420023 
L 228.708906 78.309428 
L 228.803076 78.246757 
L 229.054981 78.136161 
L 229.150328 78.073491 
L 229.382222 77.962895 
L 229.492872 77.892852 
L 229.724765 77.782256 
L 229.834238 77.723272 
L 230.049652 77.612677 
L 230.14853 77.53526 
L 230.385132 77.424665 
L 230.481656 77.384113 
L 230.740624 77.273518 
L 230.850096 77.188728 
L 231.105533 77.081819 
L 231.205588 77.022835 
L 231.395105 76.915926 
L 231.503401 76.842196 
L 231.752951 76.7316 
L 231.853007 76.683676 
L 232.057826 76.57308 
L 232.154351 76.514096 
L 232.362702 76.403501 
L 232.466289 76.34083 
L 232.652275 76.230235 
L 232.762924 76.17125 
L 232.911242 76.060655 
L 232.997172 76.020103 
L 233.299693 75.909508 
L 233.405634 75.846837 
L 233.748178 75.736242 
L 233.856473 75.677258 
L 234.063647 75.566662 
L 234.160171 75.529797 
L 234.43915 75.419202 
L 234.538028 75.367591 
L 234.804059 75.256995 
L 234.912354 75.179579 
L 235.137185 75.068983 
L 235.240772 75.021059 
L 235.546824 74.910463 
L 235.653943 74.858852 
L 235.910556 74.748257 
L 236.017674 74.704018 
L 236.231911 74.593423 
L 236.340206 74.523379 
L 236.614477 74.412784 
L 236.719241 74.34274 
L 236.968791 74.232145 
L 237.074732 74.173161 
L 237.288969 74.062565 
L 237.380785 74.014641 
L 237.627981 73.904045 
L 237.725682 73.841375 
L 237.965816 73.730779 
L 238.074111 73.657049 
L 238.254211 73.546454 
L 238.364861 73.483783 
L 238.687393 73.373188 
L 238.78274 73.325263 
L 239.046416 73.214667 
L 239.155889 73.166743 
L 239.436045 73.056147 
L 239.54434 72.986104 
L 239.879821 72.875508 
L 239.966928 72.83127 
L 240.298877 72.720675 
L 240.40835 72.643258 
L 240.662609 72.536349 
L 240.773258 72.447873 
L 241.038111 72.337278 
L 241.140521 72.27092 
L 241.383009 72.160325 
L 241.48071 72.093968 
L 241.759689 71.987059 
L 241.867984 71.917015 
L 242.104586 71.80642 
L 242.184631 71.773241 
L 242.469495 71.662646 
L 242.575436 71.596289 
L 242.803799 71.485693 
L 242.907386 71.423022 
L 243.165176 71.312427 
L 243.272294 71.227637 
L 243.581878 71.117042 
L 243.690174 71.046998 
L 244.029185 70.936403 
L 244.129241 70.877419 
L 244.382323 70.766823 
L 244.484733 70.707839 
L 244.7437 70.597244 
L 244.848464 70.549319 
L 245.16158 70.438724 
L 245.241624 70.405545 
L 245.545322 70.29495 
L 245.641846 70.247025 
L 245.889043 70.13643 
L 245.999692 70.088505 
L 246.273962 69.97791 
L 246.384612 69.918925 
L 246.563535 69.80833 
L 246.671831 69.738286 
L 246.937861 69.627691 
L 247.035562 69.572393 
L 247.301592 69.461798 
L 247.400471 69.421246 
L 247.589988 69.310651 
L 247.699461 69.24798 
L 247.946657 69.141071 
L 248.049067 69.08946 
L 248.455175 68.978865 
L 248.562293 68.93094 
L 248.754164 68.820345 
L 248.853043 68.78348 
L 249.084936 68.676571 
L 249.167335 68.621273 
L 249.479273 68.510678 
L 249.581683 68.448007 
L 249.810045 68.337412 
L 249.907747 68.2858 
L 250.238519 68.178892 
L 250.346814 68.108848 
L 250.615199 67.998253 
L 250.723494 67.935582 
L 251.009535 67.824986 
L 251.113122 67.754943 
L 251.420352 67.644347 
L 251.525116 67.581677 
L 251.828814 67.471081 
L 251.935933 67.426843 
L 252.206671 67.316248 
L 252.306727 67.257264 
L 252.531558 67.146668 
L 252.639853 67.11349 
L 252.827016 67.002894 
L 252.93178 66.903358 
L 253.256667 66.792763 
L 253.362608 66.726406 
L 253.578022 66.61581 
L 253.679254 66.549453 
L 253.964119 66.442544 
L 254.074768 66.39462 
L 254.260754 66.284024 
L 254.36905 66.239786 
L 254.651559 66.129191 
L 254.761032 66.06652 
L 255.047073 65.955925 
L 255.154192 65.908 
L 255.473193 65.797405 
L 255.559123 65.778972 
L 255.836924 65.668377 
L 255.944043 65.616766 
L 256.188884 65.50617 
L 256.299534 65.450872 
L 256.702111 65.340277 
L 256.812761 65.255487 
L 257.092916 65.144892 
L 257.201212 65.074848 
L 257.48843 64.964253 
L 257.589663 64.931074 
L 257.752106 64.824165 
L 257.850985 64.790987 
L 258.1641 64.680391 
L 258.27475 64.617721 
L 258.71264 64.507125 
L 258.813873 64.451828 
L 259.016338 64.341232 
L 259.124634 64.308054 
L 259.443634 64.197458 
L 259.554284 64.127415 
L 259.803835 64.016819 
L 259.91213 63.961521 
L 260.16992 63.850926 
L 260.28057 63.788255 
L 260.566612 63.67766 
L 260.677261 63.626049 
L 260.985668 63.515453 
L 261.095141 63.460156 
L 261.256407 63.34956 
L 261.345868 63.316382 
L 261.733142 63.205786 
L 261.840261 63.135743 
L 262.118062 63.025147 
L 262.22518 62.995655 
L 262.603037 62.88506 
L 262.705447 62.844508 
L 262.971477 62.733913 
L 263.082127 62.693361 
L 263.357574 62.582766 
L 263.468224 62.545901 
L 263.829601 62.435305 
L 263.937897 62.372635 
L 264.174499 62.262039 
L 264.283972 62.199369 
L 264.521751 62.088773 
L 264.630046 62.048222 
L 264.847814 61.941313 
L 264.93963 61.882329 
L 265.257454 61.771733 
L 265.348092 61.738555 
L 265.555266 61.627959 
L 265.658853 61.561602 
L 265.910758 61.451007 
L 266.015522 61.403082 
L 266.302741 61.292487 
L 266.387494 61.229816 
L 266.72886 61.11922 
L 266.785362 61.071296 
L 267.076112 60.964387 
L 267.17499 60.923835 
L 267.450437 60.816926 
L 267.531659 60.772688 
L 267.867139 60.662093 
L 267.968372 60.614168 
L 268.277956 60.503573 
L 268.378012 60.466708 
L 268.748806 60.356112 
L 268.846507 60.308188 
L 269.181988 60.197592 
L 269.289106 60.149668 
L 269.609284 60.039072 
L 269.716402 59.980088 
L 269.934171 59.869493 
L 270.041289 59.825255 
L 270.344987 59.714659 
L 270.449751 59.663048 
L 270.735792 59.552453 
L 270.846442 59.497155 
L 271.100701 59.38656 
L 271.211351 59.327575 
L 271.557426 59.21698 
L 271.663367 59.157996 
L 271.889375 59.047401 
L 271.998847 58.995789 
L 272.324911 58.885194 
L 272.412018 58.844642 
L 272.8452 58.734047 
L 272.932307 58.697182 
L 273.208932 58.590273 
L 273.305456 58.557094 
L 273.789254 58.446499 
L 273.886956 58.394888 
L 274.283647 58.284292 
L 274.386056 58.240054 
L 274.683869 58.129459 
L 274.785102 58.088907 
L 275.137062 57.978312 
L 275.226524 57.945133 
L 275.478428 57.834538 
L 275.585547 57.797673 
L 275.925736 57.687077 
L 276.029323 57.63178 
L 276.364803 57.521184 
L 276.475453 57.476946 
L 276.745014 57.366351 
L 276.852133 57.322113 
L 277.187613 57.211517 
L 277.287669 57.148847 
L 277.714965 57.038251 
L 277.813844 56.982954 
L 278.059863 56.876045 
L 278.162273 56.820747 
L 278.591923 56.710152 
L 278.689625 56.651168 
L 278.968603 56.540572 
L 279.068659 56.507394 
L 279.504195 56.396798 
L 279.613668 56.337814 
L 279.853801 56.227219 
L 279.940908 56.201413 
L 280.381153 56.090818 
L 280.4765 56.061326 
L 280.847294 55.95073 
L 280.956767 55.910179 
L 281.367583 55.799583 
L 281.47117 55.770091 
L 281.75368 55.659496 
L 281.859622 55.611571 
L 282.215113 55.500976 
L 282.324586 55.460424 
L 282.735402 55.349829 
L 282.841344 55.298217 
L 283.193304 55.187622 
L 283.298068 55.15813 
L 283.584109 55.047535 
L 283.692405 55.014356 
L 284.070262 54.903761 
L 284.180912 54.855836 
L 284.412805 54.745241 
L 284.496381 54.730495 
L 284.946043 54.619899 
L 285.04963 54.560915 
L 285.382756 54.45032 
L 285.48752 54.402395 
L 285.738248 54.295486 
L 285.843012 54.243875 
L 286.150241 54.13328 
L 286.260891 54.092728 
L 286.491608 53.982133 
L 286.583423 53.9637 
L 286.874173 53.853105 
L 286.983646 53.827299 
L 287.336783 53.72039 
L 287.445079 53.672466 
L 287.838238 53.56187 
L 287.945357 53.513945 
L 288.364413 53.40335 
L 288.457406 53.373858 
L 288.830555 53.263263 
L 288.941204 53.211651 
L 289.201349 53.101056 
L 289.308467 53.064191 
L 289.70869 52.953596 
L 289.819339 52.91673 
L 290.095964 52.806135 
L 290.198374 52.754524 
L 290.52326 52.643929 
L 290.626847 52.61075 
L 290.96939 52.500155 
L 291.076509 52.459603 
L 291.452011 52.349008 
L 291.553244 52.304769 
L 291.845171 52.194174 
L 291.938164 52.160995 
L 292.30425 52.0504 
L 292.409014 52.020908 
L 292.678575 51.910313 
L 292.788048 51.851328 
L 293.130591 51.740733 
L 293.241241 51.692808 
L 293.592024 51.582213 
L 293.669715 51.560094 
L 293.998132 51.449499 
L 294.100542 51.420006 
L 294.460742 51.309411 
L 294.563152 51.254113 
L 294.836245 51.143518 
L 294.920998 51.09928 
L 295.361243 50.988685 
L 295.458944 50.959192 
L 295.823853 50.852284 
L 295.933326 50.811732 
L 296.180522 50.701137 
L 296.286463 50.675331 
L 296.638423 50.564736 
L 296.747896 50.516811 
L 296.973904 50.406216 
L 297.081022 50.347231 
L 297.440045 50.236636 
L 297.549518 50.196084 
L 298.018013 50.085489 
L 298.103944 50.067056 
L 298.546543 49.956461 
L 298.63365 49.90485 
L 299.016215 49.794255 
L 299.118625 49.761076 
L 299.467054 49.650481 
L 299.563578 49.624675 
L 299.98852 49.51408 
L 300.07445 49.484587 
L 300.621813 49.373992 
L 300.720692 49.348187 
L 301.127977 49.237591 
L 301.208022 49.211786 
L 301.71654 49.10119 
L 301.809532 49.075385 
L 302.122648 48.964789 
L 302.226235 48.927924 
L 302.536996 48.817329 
L 302.6088 48.787837 
L 302.984303 48.677241 
L 303.090244 48.633003 
L 303.411599 48.529781 
L 303.515186 48.496602 
L 303.84125 48.386007 
L 303.942483 48.341769 
L 304.297974 48.231173 
L 304.396853 48.194308 
L 304.792367 48.083713 
L 304.890068 48.057907 
L 305.216132 47.947312 
L 305.31501 47.928879 
L 305.772912 47.818284 
L 305.882384 47.7593 
L 306.287315 47.652391 
L 306.387371 47.608153 
L 306.767582 47.497557 
L 306.877055 47.479125 
L 307.270214 47.368529 
L 307.37851 47.316918 
L 307.82464 47.206323 
L 307.934113 47.165771 
L 308.469704 47.055176 
L 308.572114 47.025684 
L 308.934669 46.915088 
L 309.044141 46.874537 
L 309.411404 46.763941 
L 309.512637 46.741822 
L 309.968184 46.631227 
L 310.070594 46.609108 
L 310.351927 46.498512 
L 310.446097 46.487453 
L 310.875747 46.376858 
L 310.913415 46.347365 
L 311.394859 46.23677 
L 311.498446 46.203591 
L 311.919857 46.096683 
L 312.025798 46.045071 
L 312.603767 45.934476 
L 312.700291 45.904984 
L 313.092273 45.801762 
L 313.192329 45.739091 
L 313.617271 45.628496 
L 313.709087 45.580571 
L 314.45303 45.469976 
L 314.5472 45.44417 
L 314.982736 45.333575 
L 315.080437 45.289336 
L 315.565413 45.178741 
L 315.646634 45.167682 
L 316.163392 45.057086 
L 316.261093 45.031281 
L 316.799039 44.920685 
L 316.897918 44.88382 
L 317.20397 44.773225 
L 317.29814 44.751106 
L 317.732499 44.64051 
L 317.836086 44.611018 
L 318.173921 44.504109 
L 318.276331 44.459871 
L 318.742472 44.349276 
L 318.837819 44.330843 
L 319.276887 44.220248 
L 319.37812 44.194442 
L 319.790113 44.083847 
L 319.891346 44.046982 
L 320.536411 43.936386 
L 320.628226 43.906894 
L 321.196778 43.796299 
L 321.270936 43.777866 
L 321.741786 43.667271 
L 321.834779 43.652525 
L 322.318577 43.54193 
L 322.42805 43.505064 
L 322.89066 43.394469 
L 322.978944 43.36129 
L 323.379167 43.250695 
L 323.459211 43.228576 
L 323.974792 43.117981 
L 324.070139 43.088489 
L 324.570417 42.977893 
L 324.65517 42.952088 
L 325.316714 42.841492 
L 325.389696 42.826746 
L 325.832295 42.716151 
L 325.941767 42.675599 
L 326.410263 42.56869 
L 326.520913 42.539198 
L 326.934084 42.428603 
L 327.010597 42.41017 
L 327.532063 42.299575 
L 327.634473 42.266396 
L 328.135928 42.155801 
L 328.238338 42.115249 
L 328.717428 42.004654 
L 328.825723 41.975162 
L 329.331887 41.864566 
L 329.442537 41.824015 
L 329.961649 41.713419 
L 330.014619 41.698673 
L 330.602004 41.591765 
L 330.686757 41.562272 
L 331.365958 41.451677 
L 331.461306 41.414812 
L 331.866237 41.304217 
L 331.955698 41.289471 
L 332.534843 41.178875 
L 332.623128 41.167816 
L 333.10104 41.05722 
L 333.21169 41.024042 
L 333.681363 40.913446 
L 333.786127 40.880268 
L 334.369981 40.769672 
L 334.478276 40.743867 
L 335.007983 40.633271 
L 335.059776 40.625898 
L 335.776645 40.515303 
L 335.887295 40.49687 
L 336.540599 40.386275 
L 336.631238 40.360469 
L 337.220977 40.249874 
L 337.329273 40.224068 
L 338.154437 40.113473 
L 338.261555 40.095041 
L 339.023155 39.984445 
L 339.126742 39.943894 
L 339.629374 39.833298 
L 339.703533 39.811179 
L 340.327409 39.700584 
L 340.438059 39.674778 
L 341.057227 39.564183 
L 341.149043 39.54575 
L 341.606944 39.435155 
L 341.69876 39.39829 
L 342.260248 39.287694 
L 342.34147 39.261889 
L 343.20548 39.151293 
L 343.312598 39.118115 
L 344.088323 39.007519 
L 344.193087 38.981714 
L 345.030023 38.871118 
L 345.138318 38.834253 
L 345.806925 38.723658 
L 345.898741 38.697852 
L 346.475532 38.587257 
L 346.5132 38.561451 
L 347.265383 38.450856 
L 347.353667 38.43611 
L 347.846883 38.325515 
L 347.936344 38.307082 
L 348.65439 38.196487 
L 348.76504 38.166995 
L 349.268849 38.056399 
L 349.37479 38.023221 
L 350.13639 37.912625 
L 350.243509 37.894193 
L 350.952138 37.783597 
L 351.042776 37.754105 
L 352.048041 37.64351 
L 352.156336 37.614018 
L 352.864965 37.503422 
L 352.949718 37.48499 
L 353.592429 37.374394 
L 353.679536 37.355962 
L 354.454084 37.245366 
L 354.555317 37.208501 
L 355.522913 37.097906 
L 355.624146 37.068414 
L 356.384569 36.957819 
L 356.485801 36.943072 
L 357.220327 36.832477 
L 357.325091 36.817731 
L 358.229123 36.707136 
L 358.339773 36.688703 
L 359.167292 36.578108 
L 359.272056 36.567048 
L 360.185504 36.456453 
L 360.290269 36.415901 
L 361.167227 36.305306 
L 361.214312 36.283187 
L 362.339643 36.172591 
L 362.425573 36.154159 
L 363.068283 36.043563 
L 363.177756 36.021444 
L 364.333692 35.910849 
L 364.434925 35.892416 
L 365.305997 35.781821 
L 365.403699 35.767075 
L 366.616137 35.65648 
L 366.703244 35.641734 
L 368.128742 35.531138 
L 368.222912 35.520079 
L 369.093985 35.409483 
L 369.201103 35.391051 
L 370.525369 35.280455 
L 370.563036 35.273082 
L 371.757818 35.162487 
L 371.83904 35.147741 
L 373.378719 35.037146 
L 373.442284 35.0224 
L 375.664695 34.915491 
L 375.771814 34.897058 
L 377.295013 34.786463 
L 377.331504 34.771717 
L 378.952405 34.661121 
L 378.952405 34.657435 
L 380.880535 34.546839 
L 380.980591 34.532093 
L 384.12116 34.421498 
L 384.12116 34.417812 
L 384.668523 34.414125 
L 384.668523 34.414125 
" clip-path="url(#p2779695faa)" style="fill: none; stroke: #0000ff; stroke-width: 1.5; stroke-linecap: square"/>
   </g>
   <g id="line2d_14">
    <path d="M 60.013977 276.334125 
L 384.668523 34.414125 
" clip-path="url(#p2779695faa)" style="fill: none; stroke-dasharray: 5.55,2.4; stroke-dashoffset: 0; stroke: #ff0000; stroke-width: 1.5"/>
   </g>
   <g id="patch_3">
    <path d="M 43.78125 288.430125 
L 43.78125 22.318125 
" style="fill: none; stroke: #000000; stroke-width: 0.8; stroke-linejoin: miter; stroke-linecap: square"/>
   </g>
   <g id="patch_4">
    <path d="M 400.90125 288.430125 
L 400.90125 22.318125 
" style="fill: none; stroke: #000000; stroke-width: 0.8; stroke-linejoin: miter; stroke-linecap: square"/>
   </g>
   <g id="patch_5">
    <path d="M 43.78125 288.430125 
L 400.90125 288.430125 
" style="fill: none; stroke: #000000; stroke-width: 0.8; stroke-linejoin: miter; stroke-linecap: square"/>
   </g>
   <g id="patch_6">
    <path d="M 43.78125 22.318125 
L 400.90125 22.318125 
" style="fill: none; stroke: #000000; stroke-width: 0.8; stroke-linejoin: miter; stroke-linecap: square"/>
   </g>
   <g id="text_15">
    <!-- BART -->
    <g transform="translate(206.721563 16.318125) scale(0.12 -0.12)">
     <defs>
      <path id="DejaVuSans-42" d="M 1259 2228 
L 1259 519 
L 2272 519 
Q 2781 519 3026 730 
Q 3272 941 3272 1375 
Q 3272 1813 3026 2020 
Q 2781 2228 2272 2228 
L 1259 2228 
z
M 1259 4147 
L 1259 2741 
L 2194 2741 
Q 2656 2741 2882 2914 
Q 3109 3088 3109 3444 
Q 3109 3797 2882 3972 
Q 2656 4147 2194 4147 
L 1259 4147 
z
M 628 4666 
L 2241 4666 
Q 2963 4666 3353 4366 
Q 3744 4066 3744 3513 
Q 3744 3084 3544 2831 
Q 3344 2578 2956 2516 
Q 3422 2416 3680 2098 
Q 3938 1781 3938 1306 
Q 3938 681 3513 340 
Q 3088 0 2303 0 
L 628 0 
L 628 4666 
z
" transform="scale(0.015625)"/>
      <path id="DejaVuSans-41" d="M 2188 4044 
L 1331 1722 
L 3047 1722 
L 2188 4044 
z
M 1831 4666 
L 2547 4666 
L 4325 0 
L 3669 0 
L 3244 1197 
L 1141 1197 
L 716 0 
L 50 0 
L 1831 4666 
z
" transform="scale(0.015625)"/>
      <path id="DejaVuSans-52" d="M 2841 2188 
Q 3044 2119 3236 1894 
Q 3428 1669 3622 1275 
L 4263 0 
L 3584 0 
L 2988 1197 
Q 2756 1666 2539 1819 
Q 2322 1972 1947 1972 
L 1259 1972 
L 1259 0 
L 628 0 
L 628 4666 
L 2053 4666 
Q 2853 4666 3247 4331 
Q 3641 3997 3641 3322 
Q 3641 2881 3436 2590 
Q 3231 2300 2841 2188 
z
M 1259 4147 
L 1259 2491 
L 2053 2491 
Q 2509 2491 2742 2702 
Q 2975 2913 2975 3322 
Q 2975 3731 2742 3939 
Q 2509 4147 2053 4147 
L 1259 4147 
z
" transform="scale(0.015625)"/>
     </defs>
     <use xlink:href="#DejaVuSans-42"/>
     <use xlink:href="#DejaVuSans-41" x="68.603516"/>
     <use xlink:href="#DejaVuSans-52" x="137.011719"/>
     <use xlink:href="#DejaVuSans-54" x="199.244141"/>
    </g>
   </g>
   <g id="legend_1">
    <g id="patch_7">
     <path d="M 50.78125 44.99625 
L 160.0125 44.99625 
Q 162.0125 44.99625 162.0125 42.99625 
L 162.0125 29.318125 
Q 162.0125 27.318125 160.0125 27.318125 
L 50.78125 27.318125 
Q 48.78125 27.318125 48.78125 29.318125 
L 48.78125 42.99625 
Q 48.78125 44.99625 50.78125 44.99625 
z
" style="fill: #ffffff; opacity: 0.8; stroke: #cccccc; stroke-linejoin: miter"/>
    </g>
    <g id="line2d_15">
     <path d="M 52.78125 35.416562 
L 62.78125 35.416562 
L 72.78125 35.416562 
" style="fill: none; stroke: #0000ff; stroke-width: 1.5; stroke-linecap: square"/>
    </g>
    <g id="text_16">
     <!-- AUC = 0.72175 -->
     <g transform="translate(80.78125 38.916562) scale(0.1 -0.1)">
      <defs>
       <path id="DejaVuSans-55" d="M 556 4666 
L 1191 4666 
L 1191 1831 
Q 1191 1081 1462 751 
Q 1734 422 2344 422 
Q 2950 422 3222 751 
Q 3494 1081 3494 1831 
L 3494 4666 
L 4128 4666 
L 4128 1753 
Q 4128 841 3676 375 
Q 3225 -91 2344 -91 
Q 1459 -91 1007 375 
Q 556 841 556 1753 
L 556 4666 
z
" transform="scale(0.015625)"/>
       <path id="DejaVuSans-43" d="M 4122 4306 
L 4122 3641 
Q 3803 3938 3442 4084 
Q 3081 4231 2675 4231 
Q 1875 4231 1450 3742 
Q 1025 3253 1025 2328 
Q 1025 1406 1450 917 
Q 1875 428 2675 428 
Q 3081 428 3442 575 
Q 3803 722 4122 1019 
L 4122 359 
Q 3791 134 3420 21 
Q 3050 -91 2638 -91 
Q 1578 -91 968 557 
Q 359 1206 359 2328 
Q 359 3453 968 4101 
Q 1578 4750 2638 4750 
Q 3056 4750 3426 4639 
Q 3797 4528 4122 4306 
z
" transform="scale(0.015625)"/>
       <path id="DejaVuSans-3d" d="M 678 2906 
L 4684 2906 
L 4684 2381 
L 678 2381 
L 678 2906 
z
M 678 1631 
L 4684 1631 
L 4684 1100 
L 678 1100 
L 678 1631 
z
" transform="scale(0.015625)"/>
       <path id="DejaVuSans-37" d="M 525 4666 
L 3525 4666 
L 3525 4397 
L 1831 0 
L 1172 0 
L 2766 4134 
L 525 4134 
L 525 4666 
z
" transform="scale(0.015625)"/>
       <path id="DejaVuSans-35" d="M 691 4666 
L 3169 4666 
L 3169 4134 
L 1269 4134 
L 1269 2991 
Q 1406 3038 1543 3061 
Q 1681 3084 1819 3084 
Q 2600 3084 3056 2656 
Q 3513 2228 3513 1497 
Q 3513 744 3044 326 
Q 2575 -91 1722 -91 
Q 1428 -91 1123 -41 
Q 819 9 494 109 
L 494 744 
Q 775 591 1075 516 
Q 1375 441 1709 441 
Q 2250 441 2565 725 
Q 2881 1009 2881 1497 
Q 2881 1984 2565 2268 
Q 2250 2553 1709 2553 
Q 1456 2553 1204 2497 
Q 953 2441 691 2322 
L 691 4666 
z
" transform="scale(0.015625)"/>
      </defs>
      <use xlink:href="#DejaVuSans-41"/>
      <use xlink:href="#DejaVuSans-55" x="68.408203"/>
      <use xlink:href="#DejaVuSans-43" x="141.601562"/>
      <use xlink:href="#DejaVuSans-20" x="211.425781"/>
      <use xlink:href="#DejaVuSans-3d" x="243.212891"/>
      <use xlink:href="#DejaVuSans-20" x="327.001953"/>
      <use xlink:href="#DejaVuSans-30" x="358.789062"/>
      <use xlink:href="#DejaVuSans-2e" x="422.412109"/>
      <use xlink:href="#DejaVuSans-37" x="454.199219"/>
      <use xlink:href="#DejaVuSans-32" x="517.822266"/>
      <use xlink:href="#DejaVuSans-31" x="581.445312"/>
      <use xlink:href="#DejaVuSans-37" x="645.068359"/>
      <use xlink:href="#DejaVuSans-35" x="708.691406"/>
     </g>
    </g>
   </g>
  </g>
 </g>
 <defs>
  <clipPath id="p2779695faa">
   <rect x="43.78125" y="22.318125" width="357.12" height="266.112"/>
  </clipPath>
 </defs>
</svg>
