<?xml version="1.0" encoding="utf-8" standalone="no"?>
<!DOCTYPE svg PUBLIC "-//W3C//DTD SVG 1.1//EN"
  "http://www.w3.org/Graphics/SVG/1.1/DTD/svg11.dtd">
<svg xmlns:xlink="http://www.w3.org/1999/xlink" width="408.10125pt" height="325.986375pt" viewBox="0 0 408.10125 325.986375" xmlns="http://www.w3.org/2000/svg" version="1.1">
 <metadata>
  <rdf:RDF xmlns:dc="http://purl.org/dc/elements/1.1/" xmlns:cc="http://creativecommons.org/ns#" xmlns:rdf="http://www.w3.org/1999/02/22-rdf-syntax-ns#">
   <cc:Work>
    <dc:type rdf:resource="http://purl.org/dc/dcmitype/StillImage"/>
    <dc:date>2024-03-10T13:32:42.217772</dc:date>
    <dc:format>image/svg+xml</dc:format>
    <dc:creator>
     <cc:Agent>
      <dc:title>Matplotlib v3.8.0, https://matplotlib.org/</dc:title>
     </cc:Agent>
    </dc:creator>
   </cc:Work>
  </rdf:RDF>
 </metadata>
 <defs>
  <style type="text/css">*{stroke-linejoin: round; stroke-linecap: butt}</style>
 </defs>
 <g id="figure_1">
  <g id="patch_1">
   <path d="M 0 325.986375 
L 408.10125 325.986375 
L 408.10125 0 
L 0 0 
L 0 325.986375 
z
" style="fill: none"/>
  </g>
  <g id="axes_1">
   <g id="patch_2">
    <path d="M 43.78125 288.430125 
L 400.90125 288.430125 
L 400.90125 22.318125 
L 43.78125 22.318125 
L 43.78125 288.430125 
z
" style="fill: none"/>
   </g>
   <g id="matplotlib.axis_1">
    <g id="xtick_1">
     <g id="line2d_1">
      <defs>
       <path id="mc163286fa4" d="M 0 0 
L 0 3.5 
" style="stroke: #000000; stroke-width: 0.8"/>
      </defs>
      <g>
       <use xlink:href="#mc163286fa4" x="60.013977" y="288.430125" style="stroke: #000000; stroke-width: 0.8"/>
      </g>
     </g>
     <g id="text_1">
      <!-- 0.0 -->
      <g transform="translate(52.062415 303.028562) scale(0.1 -0.1)">
       <defs>
        <path id="DejaVuSans-30" d="M 2034 4250 
Q 1547 4250 1301 3770 
Q 1056 3291 1056 2328 
Q 1056 1369 1301 889 
Q 1547 409 2034 409 
Q 2525 409 2770 889 
Q 3016 1369 3016 2328 
Q 3016 3291 2770 3770 
Q 2525 4250 2034 4250 
z
M 2034 4750 
Q 2819 4750 3233 4129 
Q 3647 3509 3647 2328 
Q 3647 1150 3233 529 
Q 2819 -91 2034 -91 
Q 1250 -91 836 529 
Q 422 1150 422 2328 
Q 422 3509 836 4129 
Q 1250 4750 2034 4750 
z
" transform="scale(0.015625)"/>
        <path id="DejaVuSans-2e" d="M 684 794 
L 1344 794 
L 1344 0 
L 684 0 
L 684 794 
z
" transform="scale(0.015625)"/>
       </defs>
       <use xlink:href="#DejaVuSans-30"/>
       <use xlink:href="#DejaVuSans-2e" x="63.623047"/>
       <use xlink:href="#DejaVuSans-30" x="95.410156"/>
      </g>
     </g>
    </g>
    <g id="xtick_2">
     <g id="line2d_2">
      <g>
       <use xlink:href="#mc163286fa4" x="124.944886" y="288.430125" style="stroke: #000000; stroke-width: 0.8"/>
      </g>
     </g>
     <g id="text_2">
      <!-- 0.2 -->
      <g transform="translate(116.993324 303.028562) scale(0.1 -0.1)">
       <defs>
        <path id="DejaVuSans-32" d="M 1228 531 
L 3431 531 
L 3431 0 
L 469 0 
L 469 531 
Q 828 903 1448 1529 
Q 2069 2156 2228 2338 
Q 2531 2678 2651 2914 
Q 2772 3150 2772 3378 
Q 2772 3750 2511 3984 
Q 2250 4219 1831 4219 
Q 1534 4219 1204 4116 
Q 875 4013 500 3803 
L 500 4441 
Q 881 4594 1212 4672 
Q 1544 4750 1819 4750 
Q 2544 4750 2975 4387 
Q 3406 4025 3406 3419 
Q 3406 3131 3298 2873 
Q 3191 2616 2906 2266 
Q 2828 2175 2409 1742 
Q 1991 1309 1228 531 
z
" transform="scale(0.015625)"/>
       </defs>
       <use xlink:href="#DejaVuSans-30"/>
       <use xlink:href="#DejaVuSans-2e" x="63.623047"/>
       <use xlink:href="#DejaVuSans-32" x="95.410156"/>
      </g>
     </g>
    </g>
    <g id="xtick_3">
     <g id="line2d_3">
      <g>
       <use xlink:href="#mc163286fa4" x="189.875795" y="288.430125" style="stroke: #000000; stroke-width: 0.8"/>
      </g>
     </g>
     <g id="text_3">
      <!-- 0.4 -->
      <g transform="translate(181.924233 303.028562) scale(0.1 -0.1)">
       <defs>
        <path id="DejaVuSans-34" d="M 2419 4116 
L 825 1625 
L 2419 1625 
L 2419 4116 
z
M 2253 4666 
L 3047 4666 
L 3047 1625 
L 3713 1625 
L 3713 1100 
L 3047 1100 
L 3047 0 
L 2419 0 
L 2419 1100 
L 313 1100 
L 313 1709 
L 2253 4666 
z
" transform="scale(0.015625)"/>
       </defs>
       <use xlink:href="#DejaVuSans-30"/>
       <use xlink:href="#DejaVuSans-2e" x="63.623047"/>
       <use xlink:href="#DejaVuSans-34" x="95.410156"/>
      </g>
     </g>
    </g>
    <g id="xtick_4">
     <g id="line2d_4">
      <g>
       <use xlink:href="#mc163286fa4" x="254.806705" y="288.430125" style="stroke: #000000; stroke-width: 0.8"/>
      </g>
     </g>
     <g id="text_4">
      <!-- 0.6 -->
      <g transform="translate(246.855142 303.028562) scale(0.1 -0.1)">
       <defs>
        <path id="DejaVuSans-36" d="M 2113 2584 
Q 1688 2584 1439 2293 
Q 1191 2003 1191 1497 
Q 1191 994 1439 701 
Q 1688 409 2113 409 
Q 2538 409 2786 701 
Q 3034 994 3034 1497 
Q 3034 2003 2786 2293 
Q 2538 2584 2113 2584 
z
M 3366 4563 
L 3366 3988 
Q 3128 4100 2886 4159 
Q 2644 4219 2406 4219 
Q 1781 4219 1451 3797 
Q 1122 3375 1075 2522 
Q 1259 2794 1537 2939 
Q 1816 3084 2150 3084 
Q 2853 3084 3261 2657 
Q 3669 2231 3669 1497 
Q 3669 778 3244 343 
Q 2819 -91 2113 -91 
Q 1303 -91 875 529 
Q 447 1150 447 2328 
Q 447 3434 972 4092 
Q 1497 4750 2381 4750 
Q 2619 4750 2861 4703 
Q 3103 4656 3366 4563 
z
" transform="scale(0.015625)"/>
       </defs>
       <use xlink:href="#DejaVuSans-30"/>
       <use xlink:href="#DejaVuSans-2e" x="63.623047"/>
       <use xlink:href="#DejaVuSans-36" x="95.410156"/>
      </g>
     </g>
    </g>
    <g id="xtick_5">
     <g id="line2d_5">
      <g>
       <use xlink:href="#mc163286fa4" x="319.737614" y="288.430125" style="stroke: #000000; stroke-width: 0.8"/>
      </g>
     </g>
     <g id="text_5">
      <!-- 0.8 -->
      <g transform="translate(311.786051 303.028562) scale(0.1 -0.1)">
       <defs>
        <path id="DejaVuSans-38" d="M 2034 2216 
Q 1584 2216 1326 1975 
Q 1069 1734 1069 1313 
Q 1069 891 1326 650 
Q 1584 409 2034 409 
Q 2484 409 2743 651 
Q 3003 894 3003 1313 
Q 3003 1734 2745 1975 
Q 2488 2216 2034 2216 
z
M 1403 2484 
Q 997 2584 770 2862 
Q 544 3141 544 3541 
Q 544 4100 942 4425 
Q 1341 4750 2034 4750 
Q 2731 4750 3128 4425 
Q 3525 4100 3525 3541 
Q 3525 3141 3298 2862 
Q 3072 2584 2669 2484 
Q 3125 2378 3379 2068 
Q 3634 1759 3634 1313 
Q 3634 634 3220 271 
Q 2806 -91 2034 -91 
Q 1263 -91 848 271 
Q 434 634 434 1313 
Q 434 1759 690 2068 
Q 947 2378 1403 2484 
z
M 1172 3481 
Q 1172 3119 1398 2916 
Q 1625 2713 2034 2713 
Q 2441 2713 2670 2916 
Q 2900 3119 2900 3481 
Q 2900 3844 2670 4047 
Q 2441 4250 2034 4250 
Q 1625 4250 1398 4047 
Q 1172 3844 1172 3481 
z
" transform="scale(0.015625)"/>
       </defs>
       <use xlink:href="#DejaVuSans-30"/>
       <use xlink:href="#DejaVuSans-2e" x="63.623047"/>
       <use xlink:href="#DejaVuSans-38" x="95.410156"/>
      </g>
     </g>
    </g>
    <g id="xtick_6">
     <g id="line2d_6">
      <g>
       <use xlink:href="#mc163286fa4" x="384.668523" y="288.430125" style="stroke: #000000; stroke-width: 0.8"/>
      </g>
     </g>
     <g id="text_6">
      <!-- 1.0 -->
      <g transform="translate(376.71696 303.028562) scale(0.1 -0.1)">
       <defs>
        <path id="DejaVuSans-31" d="M 794 531 
L 1825 531 
L 1825 4091 
L 703 3866 
L 703 4441 
L 1819 4666 
L 2450 4666 
L 2450 531 
L 3481 531 
L 3481 0 
L 794 0 
L 794 531 
z
" transform="scale(0.015625)"/>
       </defs>
       <use xlink:href="#DejaVuSans-31"/>
       <use xlink:href="#DejaVuSans-2e" x="63.623047"/>
       <use xlink:href="#DejaVuSans-30" x="95.410156"/>
      </g>
     </g>
    </g>
    <g id="text_7">
     <!-- False positive rate -->
     <g transform="translate(176.840469 316.706687) scale(0.1 -0.1)">
      <defs>
       <path id="DejaVuSans-46" d="M 628 4666 
L 3309 4666 
L 3309 4134 
L 1259 4134 
L 1259 2759 
L 3109 2759 
L 3109 2228 
L 1259 2228 
L 1259 0 
L 628 0 
L 628 4666 
z
" transform="scale(0.015625)"/>
       <path id="DejaVuSans-61" d="M 2194 1759 
Q 1497 1759 1228 1600 
Q 959 1441 959 1056 
Q 959 750 1161 570 
Q 1363 391 1709 391 
Q 2188 391 2477 730 
Q 2766 1069 2766 1631 
L 2766 1759 
L 2194 1759 
z
M 3341 1997 
L 3341 0 
L 2766 0 
L 2766 531 
Q 2569 213 2275 61 
Q 1981 -91 1556 -91 
Q 1019 -91 701 211 
Q 384 513 384 1019 
Q 384 1609 779 1909 
Q 1175 2209 1959 2209 
L 2766 2209 
L 2766 2266 
Q 2766 2663 2505 2880 
Q 2244 3097 1772 3097 
Q 1472 3097 1187 3025 
Q 903 2953 641 2809 
L 641 3341 
Q 956 3463 1253 3523 
Q 1550 3584 1831 3584 
Q 2591 3584 2966 3190 
Q 3341 2797 3341 1997 
z
" transform="scale(0.015625)"/>
       <path id="DejaVuSans-6c" d="M 603 4863 
L 1178 4863 
L 1178 0 
L 603 0 
L 603 4863 
z
" transform="scale(0.015625)"/>
       <path id="DejaVuSans-73" d="M 2834 3397 
L 2834 2853 
Q 2591 2978 2328 3040 
Q 2066 3103 1784 3103 
Q 1356 3103 1142 2972 
Q 928 2841 928 2578 
Q 928 2378 1081 2264 
Q 1234 2150 1697 2047 
L 1894 2003 
Q 2506 1872 2764 1633 
Q 3022 1394 3022 966 
Q 3022 478 2636 193 
Q 2250 -91 1575 -91 
Q 1294 -91 989 -36 
Q 684 19 347 128 
L 347 722 
Q 666 556 975 473 
Q 1284 391 1588 391 
Q 1994 391 2212 530 
Q 2431 669 2431 922 
Q 2431 1156 2273 1281 
Q 2116 1406 1581 1522 
L 1381 1569 
Q 847 1681 609 1914 
Q 372 2147 372 2553 
Q 372 3047 722 3315 
Q 1072 3584 1716 3584 
Q 2034 3584 2315 3537 
Q 2597 3491 2834 3397 
z
" transform="scale(0.015625)"/>
       <path id="DejaVuSans-65" d="M 3597 1894 
L 3597 1613 
L 953 1613 
Q 991 1019 1311 708 
Q 1631 397 2203 397 
Q 2534 397 2845 478 
Q 3156 559 3463 722 
L 3463 178 
Q 3153 47 2828 -22 
Q 2503 -91 2169 -91 
Q 1331 -91 842 396 
Q 353 884 353 1716 
Q 353 2575 817 3079 
Q 1281 3584 2069 3584 
Q 2775 3584 3186 3129 
Q 3597 2675 3597 1894 
z
M 3022 2063 
Q 3016 2534 2758 2815 
Q 2500 3097 2075 3097 
Q 1594 3097 1305 2825 
Q 1016 2553 972 2059 
L 3022 2063 
z
" transform="scale(0.015625)"/>
       <path id="DejaVuSans-20" transform="scale(0.015625)"/>
       <path id="DejaVuSans-70" d="M 1159 525 
L 1159 -1331 
L 581 -1331 
L 581 3500 
L 1159 3500 
L 1159 2969 
Q 1341 3281 1617 3432 
Q 1894 3584 2278 3584 
Q 2916 3584 3314 3078 
Q 3713 2572 3713 1747 
Q 3713 922 3314 415 
Q 2916 -91 2278 -91 
Q 1894 -91 1617 61 
Q 1341 213 1159 525 
z
M 3116 1747 
Q 3116 2381 2855 2742 
Q 2594 3103 2138 3103 
Q 1681 3103 1420 2742 
Q 1159 2381 1159 1747 
Q 1159 1113 1420 752 
Q 1681 391 2138 391 
Q 2594 391 2855 752 
Q 3116 1113 3116 1747 
z
" transform="scale(0.015625)"/>
       <path id="DejaVuSans-6f" d="M 1959 3097 
Q 1497 3097 1228 2736 
Q 959 2375 959 1747 
Q 959 1119 1226 758 
Q 1494 397 1959 397 
Q 2419 397 2687 759 
Q 2956 1122 2956 1747 
Q 2956 2369 2687 2733 
Q 2419 3097 1959 3097 
z
M 1959 3584 
Q 2709 3584 3137 3096 
Q 3566 2609 3566 1747 
Q 3566 888 3137 398 
Q 2709 -91 1959 -91 
Q 1206 -91 779 398 
Q 353 888 353 1747 
Q 353 2609 779 3096 
Q 1206 3584 1959 3584 
z
" transform="scale(0.015625)"/>
       <path id="DejaVuSans-69" d="M 603 3500 
L 1178 3500 
L 1178 0 
L 603 0 
L 603 3500 
z
M 603 4863 
L 1178 4863 
L 1178 4134 
L 603 4134 
L 603 4863 
z
" transform="scale(0.015625)"/>
       <path id="DejaVuSans-74" d="M 1172 4494 
L 1172 3500 
L 2356 3500 
L 2356 3053 
L 1172 3053 
L 1172 1153 
Q 1172 725 1289 603 
Q 1406 481 1766 481 
L 2356 481 
L 2356 0 
L 1766 0 
Q 1100 0 847 248 
Q 594 497 594 1153 
L 594 3053 
L 172 3053 
L 172 3500 
L 594 3500 
L 594 4494 
L 1172 4494 
z
" transform="scale(0.015625)"/>
       <path id="DejaVuSans-76" d="M 191 3500 
L 800 3500 
L 1894 563 
L 2988 3500 
L 3597 3500 
L 2284 0 
L 1503 0 
L 191 3500 
z
" transform="scale(0.015625)"/>
       <path id="DejaVuSans-72" d="M 2631 2963 
Q 2534 3019 2420 3045 
Q 2306 3072 2169 3072 
Q 1681 3072 1420 2755 
Q 1159 2438 1159 1844 
L 1159 0 
L 581 0 
L 581 3500 
L 1159 3500 
L 1159 2956 
Q 1341 3275 1631 3429 
Q 1922 3584 2338 3584 
Q 2397 3584 2469 3576 
Q 2541 3569 2628 3553 
L 2631 2963 
z
" transform="scale(0.015625)"/>
      </defs>
      <use xlink:href="#DejaVuSans-46"/>
      <use xlink:href="#DejaVuSans-61" x="48.394531"/>
      <use xlink:href="#DejaVuSans-6c" x="109.673828"/>
      <use xlink:href="#DejaVuSans-73" x="137.457031"/>
      <use xlink:href="#DejaVuSans-65" x="189.556641"/>
      <use xlink:href="#DejaVuSans-20" x="251.080078"/>
      <use xlink:href="#DejaVuSans-70" x="282.867188"/>
      <use xlink:href="#DejaVuSans-6f" x="346.34375"/>
      <use xlink:href="#DejaVuSans-73" x="407.525391"/>
      <use xlink:href="#DejaVuSans-69" x="459.625"/>
      <use xlink:href="#DejaVuSans-74" x="487.408203"/>
      <use xlink:href="#DejaVuSans-69" x="526.617188"/>
      <use xlink:href="#DejaVuSans-76" x="554.400391"/>
      <use xlink:href="#DejaVuSans-65" x="613.580078"/>
      <use xlink:href="#DejaVuSans-20" x="675.103516"/>
      <use xlink:href="#DejaVuSans-72" x="706.890625"/>
      <use xlink:href="#DejaVuSans-61" x="748.003906"/>
      <use xlink:href="#DejaVuSans-74" x="809.283203"/>
      <use xlink:href="#DejaVuSans-65" x="848.492188"/>
     </g>
    </g>
   </g>
   <g id="matplotlib.axis_2">
    <g id="ytick_1">
     <g id="line2d_7">
      <defs>
       <path id="m6e49b5de3c" d="M 0 0 
L -3.5 0 
" style="stroke: #000000; stroke-width: 0.8"/>
      </defs>
      <g>
       <use xlink:href="#m6e49b5de3c" x="43.78125" y="276.334125" style="stroke: #000000; stroke-width: 0.8"/>
      </g>
     </g>
     <g id="text_8">
      <!-- 0.0 -->
      <g transform="translate(20.878125 280.133344) scale(0.1 -0.1)">
       <use xlink:href="#DejaVuSans-30"/>
       <use xlink:href="#DejaVuSans-2e" x="63.623047"/>
       <use xlink:href="#DejaVuSans-30" x="95.410156"/>
      </g>
     </g>
    </g>
    <g id="ytick_2">
     <g id="line2d_8">
      <g>
       <use xlink:href="#m6e49b5de3c" x="43.78125" y="227.950125" style="stroke: #000000; stroke-width: 0.8"/>
      </g>
     </g>
     <g id="text_9">
      <!-- 0.2 -->
      <g transform="translate(20.878125 231.749344) scale(0.1 -0.1)">
       <use xlink:href="#DejaVuSans-30"/>
       <use xlink:href="#DejaVuSans-2e" x="63.623047"/>
       <use xlink:href="#DejaVuSans-32" x="95.410156"/>
      </g>
     </g>
    </g>
    <g id="ytick_3">
     <g id="line2d_9">
      <g>
       <use xlink:href="#m6e49b5de3c" x="43.78125" y="179.566125" style="stroke: #000000; stroke-width: 0.8"/>
      </g>
     </g>
     <g id="text_10">
      <!-- 0.4 -->
      <g transform="translate(20.878125 183.365344) scale(0.1 -0.1)">
       <use xlink:href="#DejaVuSans-30"/>
       <use xlink:href="#DejaVuSans-2e" x="63.623047"/>
       <use xlink:href="#DejaVuSans-34" x="95.410156"/>
      </g>
     </g>
    </g>
    <g id="ytick_4">
     <g id="line2d_10">
      <g>
       <use xlink:href="#m6e49b5de3c" x="43.78125" y="131.182125" style="stroke: #000000; stroke-width: 0.8"/>
      </g>
     </g>
     <g id="text_11">
      <!-- 0.6 -->
      <g transform="translate(20.878125 134.981344) scale(0.1 -0.1)">
       <use xlink:href="#DejaVuSans-30"/>
       <use xlink:href="#DejaVuSans-2e" x="63.623047"/>
       <use xlink:href="#DejaVuSans-36" x="95.410156"/>
      </g>
     </g>
    </g>
    <g id="ytick_5">
     <g id="line2d_11">
      <g>
       <use xlink:href="#m6e49b5de3c" x="43.78125" y="82.798125" style="stroke: #000000; stroke-width: 0.8"/>
      </g>
     </g>
     <g id="text_12">
      <!-- 0.8 -->
      <g transform="translate(20.878125 86.597344) scale(0.1 -0.1)">
       <use xlink:href="#DejaVuSans-30"/>
       <use xlink:href="#DejaVuSans-2e" x="63.623047"/>
       <use xlink:href="#DejaVuSans-38" x="95.410156"/>
      </g>
     </g>
    </g>
    <g id="ytick_6">
     <g id="line2d_12">
      <g>
       <use xlink:href="#m6e49b5de3c" x="43.78125" y="34.414125" style="stroke: #000000; stroke-width: 0.8"/>
      </g>
     </g>
     <g id="text_13">
      <!-- 1.0 -->
      <g transform="translate(20.878125 38.213344) scale(0.1 -0.1)">
       <use xlink:href="#DejaVuSans-31"/>
       <use xlink:href="#DejaVuSans-2e" x="63.623047"/>
       <use xlink:href="#DejaVuSans-30" x="95.410156"/>
      </g>
     </g>
    </g>
    <g id="text_14">
     <!-- True positive rate -->
     <g transform="translate(14.798438 198.938187) rotate(-90) scale(0.1 -0.1)">
      <defs>
       <path id="DejaVuSans-54" d="M -19 4666 
L 3928 4666 
L 3928 4134 
L 2272 4134 
L 2272 0 
L 1638 0 
L 1638 4134 
L -19 4134 
L -19 4666 
z
" transform="scale(0.015625)"/>
       <path id="DejaVuSans-75" d="M 544 1381 
L 544 3500 
L 1119 3500 
L 1119 1403 
Q 1119 906 1312 657 
Q 1506 409 1894 409 
Q 2359 409 2629 706 
Q 2900 1003 2900 1516 
L 2900 3500 
L 3475 3500 
L 3475 0 
L 2900 0 
L 2900 538 
Q 2691 219 2414 64 
Q 2138 -91 1772 -91 
Q 1169 -91 856 284 
Q 544 659 544 1381 
z
M 1991 3584 
L 1991 3584 
z
" transform="scale(0.015625)"/>
      </defs>
      <use xlink:href="#DejaVuSans-54"/>
      <use xlink:href="#DejaVuSans-72" x="46.333984"/>
      <use xlink:href="#DejaVuSans-75" x="87.447266"/>
      <use xlink:href="#DejaVuSans-65" x="150.826172"/>
      <use xlink:href="#DejaVuSans-20" x="212.349609"/>
      <use xlink:href="#DejaVuSans-70" x="244.136719"/>
      <use xlink:href="#DejaVuSans-6f" x="307.613281"/>
      <use xlink:href="#DejaVuSans-73" x="368.794922"/>
      <use xlink:href="#DejaVuSans-69" x="420.894531"/>
      <use xlink:href="#DejaVuSans-74" x="448.677734"/>
      <use xlink:href="#DejaVuSans-69" x="487.886719"/>
      <use xlink:href="#DejaVuSans-76" x="515.669922"/>
      <use xlink:href="#DejaVuSans-65" x="574.849609"/>
      <use xlink:href="#DejaVuSans-20" x="636.373047"/>
      <use xlink:href="#DejaVuSans-72" x="668.160156"/>
      <use xlink:href="#DejaVuSans-61" x="709.273438"/>
      <use xlink:href="#DejaVuSans-74" x="770.552734"/>
      <use xlink:href="#DejaVuSans-65" x="809.761719"/>
     </g>
    </g>
   </g>
   <g id="line2d_13">
    <path d="M 60.013977 276.334125 
L 60.074461 276.224462 
L 60.18553 275.665866 
L 60.215222 275.556203 
L 60.326292 275.014742 
L 60.357084 274.908506 
L 60.468153 274.463 
L 60.497845 274.353337 
L 60.607815 273.924966 
L 60.62871 273.822157 
L 60.739779 273.338954 
L 60.779369 273.229291 
L 60.889339 272.780358 
L 60.927828 272.670695 
L 61.037798 272.232043 
L 61.069689 272.132661 
L 61.180759 271.687155 
L 61.215949 271.580919 
L 61.321521 271.135414 
L 61.354512 271.032604 
L 61.463382 270.659065 
L 61.494174 270.552829 
L 61.605243 270.097042 
L 61.629437 269.990806 
L 61.740506 269.487042 
L 61.771298 269.380806 
L 61.881268 268.911311 
L 61.915359 268.811929 
L 62.025329 268.455524 
L 62.05612 268.349288 
L 62.161691 267.972321 
L 62.211178 267.862658 
L 62.320048 267.54395 
L 62.34974 267.434287 
L 62.46081 267.050467 
L 62.509197 266.944231 
L 62.616967 266.604961 
L 62.662055 266.498725 
L 62.773125 266.14232 
L 62.812714 266.032657 
L 62.919385 265.665972 
L 62.969971 265.559735 
L 63.081041 265.196477 
L 63.110733 265.086814 
L 63.221802 264.726982 
L 63.278987 264.620746 
L 63.388957 264.274622 
L 63.435144 264.164959 
L 63.545114 263.743442 
L 63.592401 263.633779 
L 63.700172 263.284228 
L 63.751858 263.174565 
L 63.861828 262.818161 
L 63.916813 262.708498 
L 64.026783 262.300688 
L 64.07517 262.194452 
L 64.186239 261.913441 
L 64.231327 261.803778 
L 64.342397 261.443946 
L 64.390783 261.334283 
L 64.498554 261.053272 
L 64.542542 260.943609 
L 64.653612 260.515238 
L 64.700899 260.405575 
L 64.811969 260.090293 
L 64.850458 259.98063 
L 64.957129 259.74417 
L 65.018712 259.637934 
L 65.129782 259.319226 
L 65.17487 259.209563 
L 65.28484 258.949113 
L 65.32003 258.83945 
L 65.43 258.537877 
L 65.464091 258.428214 
L 65.57516 258.064955 
L 65.61255 257.955292 
L 65.72362 257.636584 
L 65.757711 257.537202 
L 65.866581 257.249336 
L 65.924865 257.149954 
L 66.035935 256.848381 
L 66.09092 256.745572 
L 66.201989 256.42001 
L 66.249276 256.324055 
L 66.359247 255.977931 
L 66.395537 255.871695 
L 66.506606 255.528998 
L 66.556093 255.419335 
L 66.667163 255.141751 
L 66.705652 255.035515 
L 66.816722 254.641413 
L 66.865109 254.53175 
L 66.972879 254.230177 
L 67.030064 254.120514 
L 67.138934 253.784671 
L 67.185121 253.675008 
L 67.295091 253.424839 
L 67.341279 253.325457 
L 67.452348 253.010176 
L 67.496336 252.90394 
L 67.607406 252.59894 
L 67.660192 252.489277 
L 67.771261 252.143153 
L 67.81305 252.03349 
L 67.92412 251.779894 
L 67.965908 251.673658 
L 68.075878 251.38922 
L 68.123165 251.286411 
L 68.230936 250.957422 
L 68.285921 250.854613 
L 68.395891 250.511916 
L 68.429982 250.402253 
L 68.541051 250.134949 
L 68.601535 250.028713 
L 68.712605 249.733994 
L 68.760991 249.624331 
L 68.872061 249.370735 
L 68.902853 249.264499 
L 69.008424 248.949218 
L 69.054611 248.839555 
L 69.165681 248.572252 
L 69.194273 248.466016 
L 69.305343 248.195285 
L 69.35263 248.085622 
L 69.460401 247.856015 
L 69.526383 247.746352 
L 69.636353 247.42079 
L 69.68254 247.311127 
L 69.79361 247.019835 
L 69.843096 246.917026 
L 69.954166 246.61888 
L 70.015749 246.509217 
L 70.12242 246.238486 
L 70.168607 246.128823 
L 70.278577 245.916351 
L 70.345659 245.810115 
L 70.456729 245.501688 
L 70.496318 245.392025 
L 70.607388 245.162418 
L 70.662373 245.052755 
L 70.773442 244.816294 
L 70.824029 244.706631 
L 70.932899 244.477024 
L 71.00328 244.367361 
L 71.11325 244.113765 
L 71.175933 244.004102 
L 71.287002 243.74708 
L 71.348586 243.637417 
L 71.457456 243.380394 
L 71.504743 243.274158 
L 71.610314 243.000001 
L 71.665299 242.893765 
L 71.775269 242.623034 
L 71.821457 242.513371 
L 71.932526 242.266629 
L 72.012804 242.156966 
L 72.122774 241.954775 
L 72.171161 241.851966 
L 72.280032 241.680618 
L 72.329518 241.574382 
L 72.437289 241.341348 
L 72.498872 241.231685 
L 72.609942 240.960954 
L 72.672624 240.854718 
L 72.781495 240.61483 
L 72.837579 240.508594 
L 72.948649 240.244718 
L 72.997036 240.141909 
L 73.108106 239.898594 
L 73.16639 239.788931 
L 73.277459 239.50792 
L 73.329145 239.398257 
L 73.440215 239.172077 
L 73.506197 239.062414 
L 73.615067 238.808818 
L 73.666753 238.699155 
L 73.775624 238.431851 
L 73.830609 238.322188 
L 73.939479 238.126851 
L 73.995564 238.024042 
L 74.105534 237.725896 
L 74.15612 237.616233 
L 74.26609 237.369491 
L 74.325474 237.266682 
L 74.436543 237.026794 
L 74.490429 236.923985 
L 74.600399 236.666963 
L 74.642187 236.5573 
L 74.749958 236.320839 
L 74.795046 236.211176 
L 74.905016 235.967861 
L 74.976496 235.858198 
L 75.085366 235.625164 
L 75.148049 235.518928 
L 75.252521 235.34758 
L 75.325101 235.241344 
L 75.436171 234.970613 
L 75.495554 234.864377 
L 75.606624 234.624489 
L 75.681404 234.518253 
L 75.789174 234.268084 
L 75.84086 234.158421 
L 75.95193 233.87741 
L 76.000317 233.767747 
L 76.109187 233.510724 
L 76.17077 233.401061 
L 76.28074 233.102915 
L 76.35442 232.993252 
L 76.46439 232.821904 
L 76.535871 232.712241 
L 76.645841 232.496342 
L 76.727218 232.386679 
L 76.837188 232.174207 
L 76.898772 232.067971 
L 77.007642 231.862352 
L 77.060428 231.752689 
L 77.169298 231.52651 
L 77.214386 231.4237 
L 77.323256 231.170105 
L 77.388138 231.060442 
L 77.497009 230.861678 
L 77.567389 230.755442 
L 77.677359 230.539543 
L 77.732344 230.447014 
L 77.840115 230.131733 
L 77.897299 230.025497 
L 78.001771 229.789036 
L 78.07655 229.679373 
L 78.18652 229.436059 
L 78.243705 229.326396 
L 78.349276 229.10707 
L 78.419657 228.997407 
L 78.529627 228.747238 
L 78.589011 228.641002 
L 78.695682 228.425103 
L 78.772661 228.31544 
L 78.880431 228.137237 
L 78.940915 228.027574 
L 79.046486 227.825383 
L 79.097072 227.71572 
L 79.205942 227.554653 
L 79.263127 227.44499 
L 79.369798 227.21881 
L 79.442378 227.112574 
L 79.553448 226.834989 
L 79.577641 226.728753 
L 79.687611 226.499146 
L 79.770088 226.39291 
L 79.881158 226.139315 
L 79.922947 226.029652 
L 80.034016 225.834315 
L 80.076905 225.728079 
L 80.185775 225.474483 
L 80.253957 225.36482 
L 80.362827 225.135213 
L 80.440906 225.035831 
L 80.551975 224.843921 
L 80.60916 224.737685 
L 80.720229 224.514932 
L 80.779613 224.405269 
L 80.887384 224.247628 
L 80.925873 224.137965 
L 81.035843 223.949482 
L 81.088629 223.839819 
L 81.196399 223.658189 
L 81.246986 223.562234 
L 81.358055 223.366897 
L 81.408642 223.260661 
L 81.518612 223.082459 
L 81.610986 222.976223 
L 81.722056 222.83229 
L 81.789138 222.736335 
L 81.900207 222.513582 
L 81.941996 222.403919 
L 82.053066 222.184593 
L 82.11025 222.07493 
L 82.22022 221.900154 
L 82.288402 221.790491 
L 82.397272 221.554031 
L 82.450057 221.444368 
L 82.555629 221.245603 
L 82.611713 221.139367 
L 82.722783 220.916614 
L 82.778868 220.810378 
L 82.889938 220.553356 
L 82.971315 220.443693 
L 83.082385 220.275771 
L 83.167062 220.166108 
L 83.273733 219.926221 
L 83.347413 219.816558 
L 83.455183 219.600659 
L 83.53986 219.490996 
L 83.64983 219.299085 
L 83.720211 219.192849 
L 83.830181 218.983804 
L 83.874169 218.874141 
L 83.98194 218.630826 
L 84.05452 218.531444 
L 84.160091 218.360096 
L 84.249167 218.250433 
L 84.360236 217.996837 
L 84.447113 217.887174 
L 84.558182 217.715826 
L 84.616467 217.613017 
L 84.723137 217.465657 
L 84.78692 217.355994 
L 84.89579 217.112679 
L 84.966171 217.003016 
L 85.077241 216.81796 
L 85.145422 216.708297 
L 85.255392 216.506106 
L 85.329072 216.396443 
L 85.439042 216.187398 
L 85.534716 216.077735 
L 85.644686 215.906386 
L 85.723865 215.80015 
L 85.834934 215.580824 
L 85.897617 215.474588 
L 86.007587 215.306667 
L 86.093364 215.197004 
L 86.198935 214.987959 
L 86.25502 214.878296 
L 86.355092 214.720655 
L 86.446367 214.610992 
L 86.549739 214.446498 
L 86.638815 214.336835 
L 86.745486 214.100374 
L 86.797172 213.990711 
L 86.907142 213.846778 
L 86.994018 213.737115 
L 87.105088 213.552059 
L 87.156774 213.445823 
L 87.263445 213.26762 
L 87.342623 213.157957 
L 87.448194 212.983182 
L 87.527373 212.873519 
L 87.637343 212.654193 
L 87.72092 212.547957 
L 87.83089 212.376609 
L 87.900171 212.270373 
L 88.011241 212.078462 
L 88.08492 211.972226 
L 88.192691 211.759754 
L 88.260872 211.656945 
L 88.371942 211.478743 
L 88.455519 211.372507 
L 88.559991 211.184023 
L 88.631471 211.081214 
L 88.741441 210.906439 
L 88.81952 210.800203 
L 88.93059 210.601439 
L 89.00207 210.495203 
L 89.11204 210.282731 
L 89.171424 210.176495 
L 89.282494 209.97773 
L 89.336379 209.868067 
L 89.447449 209.665876 
L 89.502434 209.556213 
L 89.612404 209.343741 
L 89.688283 209.237505 
L 89.793854 209.038741 
L 89.878531 208.929078 
L 89.986302 208.692617 
L 90.058882 208.589808 
L 90.166653 208.404752 
L 90.24913 208.295089 
L 90.3602 208.147729 
L 90.419584 208.041493 
L 90.530653 207.859864 
L 90.613131 207.753628 
L 90.723101 207.599414 
L 90.793482 207.496605 
L 90.902352 207.314976 
L 90.98263 207.20874 
L 91.0937 207.030537 
L 91.205869 206.920874 
L 91.316939 206.739245 
L 91.377422 206.629582 
L 91.486293 206.49593 
L 91.555574 206.386267 
L 91.661145 206.249189 
L 91.740323 206.149806 
L 91.849194 205.968177 
L 91.915176 205.858514 
L 92.024046 205.741997 
L 92.087829 205.635761 
L 92.197799 205.454132 
L 92.249485 205.347896 
L 92.355056 205.234806 
L 92.477122 205.125143 
L 92.585993 204.940086 
L 92.647576 204.830423 
L 92.754247 204.672783 
L 92.829026 204.566547 
L 92.940096 204.384918 
L 92.990682 204.278682 
L 93.096254 204.121041 
L 93.207323 204.011378 
L 93.318393 203.822895 
L 93.372278 203.713232 
L 93.483348 203.552164 
L 93.564726 203.445928 
L 93.674696 203.264299 
L 93.73078 203.158063 
L 93.84185 203.017557 
L 93.91773 202.911321 
L 94.0277 202.770815 
L 94.102479 202.661152 
L 94.21025 202.476096 
L 94.285029 202.36986 
L 94.396099 202.201939 
L 94.473078 202.092276 
L 94.581948 201.924354 
L 94.661127 201.818118 
L 94.771097 201.660477 
L 94.83378 201.550814 
L 94.944849 201.376039 
L 95.05372 201.266376 
L 95.159291 201.060758 
L 95.238469 200.957949 
L 95.348439 200.807162 
L 95.41772 200.697499 
L 95.524391 200.522724 
L 95.634361 200.413061 
L 95.745431 200.245139 
L 95.820211 200.138903 
L 95.927981 200.001825 
L 96.012658 199.892162 
L 96.123728 199.700251 
L 96.190809 199.594015 
L 96.301879 199.41924 
L 96.375559 199.309577 
L 96.48333 199.162217 
L 96.565807 199.052554 
L 96.675777 198.925756 
L 96.757155 198.816093 
L 96.864926 198.658453 
L 96.955101 198.54879 
L 97.059573 198.387722 
L 97.168443 198.278059 
L 97.271815 198.099857 
L 97.36089 197.990194 
L 97.468661 197.842834 
L 97.542341 197.736598 
L 97.652311 197.558396 
L 97.718293 197.448733 
L 97.829363 197.3048 
L 97.922837 197.195137 
L 98.027309 197.016935 
L 98.133979 196.907272 
L 98.24175 196.766766 
L 98.322028 196.657103 
L 98.431998 196.444631 
L 98.516675 196.334968 
L 98.625545 196.153339 
L 98.724518 196.043676 
L 98.83009 195.906597 
L 98.909268 195.800361 
L 99.014839 195.625586 
L 99.117111 195.515923 
L 99.223782 195.365136 
L 99.333752 195.255473 
L 99.441523 195.118394 
L 99.515203 195.008731 
L 99.626272 194.816821 
L 99.719747 194.707158 
L 99.829717 194.570079 
L 99.934188 194.460416 
L 100.036461 194.319911 
L 100.135434 194.213675 
L 100.239905 194.090304 
L 100.335579 193.980641 
L 100.444449 193.840135 
L 100.536824 193.737326 
L 100.637996 193.586539 
L 100.730371 193.476876 
L 100.840341 193.350078 
L 100.937115 193.240415 
L 101.043786 193.123898 
L 101.126263 193.017662 
L 101.237333 192.836033 
L 101.296717 192.729797 
L 101.407786 192.572157 
L 101.517756 192.462494 
L 101.623328 192.256875 
L 101.731098 192.150639 
L 101.841068 192.013561 
L 101.915848 191.903898 
L 102.024718 191.732549 
L 102.123691 191.626313 
L 102.223764 191.489234 
L 102.31174 191.382998 
L 102.42171 191.218504 
L 102.518484 191.108841 
L 102.628454 190.9512 
L 102.738424 190.841537 
L 102.847294 190.666762 
L 102.945167 190.557099 
L 103.055137 190.389177 
L 103.123319 190.282941 
L 103.234388 190.176705 
L 103.306968 190.067042 
L 103.418038 189.929964 
L 103.508214 189.820301 
L 103.619283 189.659233 
L 103.723755 189.54957 
L 103.833725 189.371368 
L 103.927199 189.261705 
L 104.03277 189.09721 
L 104.120746 188.990974 
L 104.230716 188.82648 
L 104.316493 188.716817 
L 104.424264 188.583165 
L 104.530935 188.473502 
L 104.640905 188.312434 
L 104.720083 188.202771 
L 104.831153 188.055412 
L 104.927926 187.949176 
L 105.038996 187.784681 
L 105.148966 187.675018 
L 105.258936 187.510524 
L 105.342513 187.400861 
L 105.452483 187.239793 
L 105.584447 187.13013 
L 105.694417 186.924512 
L 105.796689 186.814849 
L 105.892363 186.643501 
L 105.997934 186.533838 
L 106.105705 186.400186 
L 106.185983 186.290523 
L 106.284956 186.132882 
L 106.397126 186.023219 
L 106.505996 185.851871 
L 106.597271 185.745635 
L 106.703942 185.553725 
L 106.765525 185.447489 
L 106.876595 185.296702 
L 106.974468 185.190466 
L 107.083338 185.094511 
L 107.160317 184.984848 
L 107.271387 184.77923 
L 107.353865 184.679848 
L 107.455037 184.525634 
L 107.548511 184.415971 
L 107.656282 184.261757 
L 107.734361 184.152094 
L 107.841032 184.004735 
L 107.905914 183.895072 
L 108.015884 183.757993 
L 108.128053 183.64833 
L 108.239123 183.452993 
L 108.3238 183.346757 
L 108.43487 183.165128 
L 108.555837 183.055465 
L 108.665807 182.928667 
L 108.724091 182.819004 
L 108.832961 182.668217 
L 108.919837 182.561981 
L 109.025409 182.414621 
L 109.13098 182.304958 
L 109.23985 182.181587 
L 109.364116 182.071924 
L 109.457591 181.886868 
L 109.521373 181.780632 
L 109.628044 181.619565 
L 109.706123 181.509902 
L 109.817193 181.338553 
L 109.909567 181.22889 
L 110.012939 181.108946 
L 110.081121 180.999283 
L 110.191091 180.872485 
L 110.297762 180.766249 
L 110.408831 180.612036 
L 110.516602 180.502373 
L 110.626572 180.365294 
L 110.74424 180.255631 
L 110.85421 180.118552 
L 110.938887 180.008889 
L 111.045558 179.837541 
L 111.165425 179.734732 
L 111.266597 179.611361 
L 111.393063 179.501698 
L 111.501933 179.357765 
L 111.583311 179.248102 
L 111.689982 179.135012 
L 111.796653 179.025349 
L 111.905523 178.87799 
L 112.011094 178.775181 
L 112.122164 178.665518 
L 112.236533 178.555855 
L 112.347602 178.435911 
L 112.426781 178.336529 
L 112.537851 178.151472 
L 112.624727 178.041809 
L 112.733597 177.918438 
L 112.812776 177.808775 
L 112.922746 177.586022 
L 112.984329 177.476359 
L 113.095398 177.329 
L 113.191072 177.219337 
L 113.293345 177.020573 
L 113.371423 176.91091 
L 113.482493 176.773831 
L 113.559472 176.671022 
L 113.669442 176.533943 
L 113.762916 176.42428 
L 113.873986 176.304336 
L 113.956464 176.194673 
L 114.062035 176.064448 
L 114.161008 175.958212 
L 114.266579 175.841695 
L 114.362253 175.738886 
L 114.470024 175.601808 
L 114.587691 175.492145 
L 114.696562 175.317369 
L 114.802133 175.211133 
L 114.906604 175.10147 
L 115.015475 174.995234 
L 115.125445 174.854728 
L 115.189227 174.745065 
L 115.299197 174.594279 
L 115.423463 174.488043 
L 115.532334 174.34411 
L 115.6577 174.234447 
L 115.768769 174.107649 
L 115.849047 173.997986 
L 115.94912 173.850627 
L 116.056891 173.740964 
L 116.164661 173.597031 
L 116.239441 173.490795 
L 116.349411 173.384559 
L 116.451683 173.274896 
L 116.557254 173.158379 
L 116.632034 173.048716 
L 116.743104 172.877368 
L 116.83108 172.767705 
L 116.94105 172.634053 
L 117.030125 172.527817 
L 117.141195 172.390738 
L 117.247866 172.281075 
L 117.357836 172.15085 
L 117.432615 172.041187 
L 117.540386 171.883547 
L 117.611867 171.773884 
L 117.721837 171.599108 
L 117.826308 171.492872 
L 117.92748 171.410625 
L 118.041849 171.300962 
L 118.14852 171.139894 
L 118.241995 171.030231 
L 118.353064 170.923995 
L 118.491627 170.814332 
L 118.594998 170.680681 
L 118.691772 170.577872 
L 118.797343 170.399669 
L 118.907313 170.290006 
L 119.018383 170.156354 
L 119.108558 170.050118 
L 119.219628 169.943882 
L 119.314202 169.834219 
L 119.419773 169.721129 
L 119.555037 169.611466 
L 119.659508 169.491522 
L 119.767279 169.381859 
L 119.877249 169.217365 
L 119.98282 169.111129 
L 120.09389 168.970623 
L 120.221455 168.86096 
L 120.329225 168.699893 
L 120.408404 168.59023 
L 120.518374 168.47714 
L 120.631643 168.367477 
L 120.740513 168.261241 
L 120.838386 168.151578 
L 120.942858 168.038488 
L 121.037432 167.928825 
L 121.148502 167.774611 
L 121.250774 167.668375 
L 121.359644 167.521015 
L 121.474013 167.411352 
L 121.574086 167.250285 
L 121.680757 167.140622 
L 121.789627 167.034386 
L 121.917192 166.924723 
L 122.026063 166.842476 
L 122.153628 166.732813 
L 122.258099 166.657419 
L 122.338377 166.551183 
L 122.441749 166.431239 
L 122.544021 166.321576 
L 122.648493 166.157082 
L 122.741967 166.050846 
L 122.84314 165.930902 
L 122.930016 165.821239 
L 123.035587 165.708149 
L 123.176349 165.598486 
L 123.287418 165.433992 
L 123.410585 165.324329 
L 123.520555 165.211239 
L 123.637123 165.101576 
L 123.748193 164.937081 
L 123.843867 164.827418 
L 123.947238 164.710901 
L 124.057208 164.601238 
L 124.167178 164.47444 
L 124.266151 164.364777 
L 124.372822 164.220845 
L 124.466297 164.114609 
L 124.56417 164.004946 
L 124.677439 163.895283 
L 124.788509 163.802754 
L 124.889681 163.693091 
L 125.000751 163.518316 
L 125.07773 163.41208 
L 125.185501 163.261293 
L 125.344957 163.15163 
L 125.452728 163.02826 
L 125.582492 162.918597 
L 125.684765 162.784945 
L 125.793635 162.678709 
L 125.903605 162.500506 
L 126.009176 162.390843 
L 126.114747 162.298315 
L 126.253309 162.188652 
L 126.357781 162.068708 
L 126.491944 161.959045 
L 126.600815 161.81854 
L 126.68989 161.708877 
L 126.795462 161.595787 
L 126.891135 161.486124 
L 126.998906 161.352472 
L 127.102278 161.242809 
L 127.213348 161.126292 
L 127.342013 161.023483 
L 127.449783 160.900112 
L 127.53446 160.793876 
L 127.638932 160.670505 
L 127.735705 160.560842 
L 127.841276 160.396348 
L 127.97434 160.286685 
L 128.08541 160.177022 
L 128.176685 160.067359 
L 128.287755 159.954269 
L 128.429616 159.848033 
L 128.536287 159.724662 
L 128.678148 159.618426 
L 128.784819 159.481347 
L 128.877194 159.371684 
L 128.978366 159.258594 
L 129.097134 159.148931 
L 129.207104 159.042695 
L 129.340167 158.933032 
L 129.449038 158.778818 
L 129.596398 158.669155 
L 129.707467 158.562919 
L 129.767951 158.463537 
L 129.875721 158.340166 
L 129.99009 158.230503 
L 130.097861 158.069436 
L 130.204532 157.959773 
L 130.313402 157.81584 
L 130.404677 157.706177 
L 130.515747 157.548537 
L 130.622418 157.438874 
L 130.733487 157.277806 
L 130.846757 157.168143 
L 130.954527 157.075615 
L 131.102987 156.965952 
L 131.214056 156.8323 
L 131.333924 156.726064 
L 131.444993 156.60612 
L 131.542867 156.496457 
L 131.650637 156.410783 
L 131.778202 156.30112 
L 131.884873 156.184603 
L 132.000342 156.07494 
L 132.105913 155.944715 
L 132.253273 155.835052 
L 132.364343 155.687693 
L 132.469914 155.581457 
L 132.578784 155.475221 
L 132.700851 155.365558 
L 132.809721 155.255895 
L 132.965879 155.146232 
L 133.074749 155.05713 
L 133.157226 154.950894 
L 133.261698 154.827523 
L 133.374967 154.71786 
L 133.486037 154.601344 
L 133.592708 154.495108 
L 133.700478 154.388872 
L 133.769759 154.279209 
L 133.87863 154.169546 
L 133.965506 154.063309 
L 134.076576 153.9605 
L 134.172249 153.850837 
L 134.283319 153.72404 
L 134.384492 153.614377 
L 134.495561 153.487579 
L 134.592335 153.377916 
L 134.702305 153.254545 
L 134.804577 153.144882 
L 134.911248 153.031792 
L 135.002523 152.922129 
L 135.113593 152.754207 
L 135.215865 152.644544 
L 135.322536 152.524601 
L 135.450101 152.414938 
L 135.561171 152.250443 
L 135.690935 152.144207 
L 135.796506 152.065387 
L 135.924072 151.955724 
L 136.028543 151.839207 
L 136.156108 151.736398 
L 136.267178 151.630162 
L 136.361752 151.520499 
L 136.472822 151.390274 
L 136.605886 151.280611 
L 136.716955 151.19151 
L 136.867614 151.081847 
L 136.977584 150.999599 
L 137.055663 150.889936 
L 137.164533 150.759712 
L 137.261307 150.653476 
L 137.372377 150.540386 
L 137.499942 150.430723 
L 137.608812 150.273082 
L 137.740776 150.163419 
L 137.848547 150.009206 
L 137.975012 149.906396 
L 138.086082 149.783026 
L 138.198251 149.673363 
L 138.309321 149.536284 
L 138.435787 149.426621 
L 138.545757 149.265553 
L 138.67992 149.15589 
L 138.78989 149.025666 
L 138.897661 148.922856 
L 139.007631 148.768643 
L 139.153891 148.65898 
L 139.256163 148.549317 
L 139.392526 148.439654 
L 139.498097 148.340272 
L 139.615765 148.230609 
L 139.725735 148.090103 
L 139.884091 147.98044 
L 139.992962 147.90162 
L 140.128225 147.791957 
L 140.239295 147.713137 
L 140.352564 147.6069 
L 140.457035 147.507518 
L 140.565905 147.397855 
L 140.675875 147.240215 
L 140.77045 147.130552 
L 140.872722 147.048305 
L 141.005786 146.938642 
L 141.116855 146.822125 
L 141.251019 146.715889 
L 141.359889 146.619934 
L 141.484155 146.510271 
L 141.587527 146.404034 
L 141.701896 146.294371 
L 141.810766 146.208697 
L 141.924035 146.102461 
L 142.034005 145.93454 
L 142.16157 145.824877 
L 142.269341 145.711787 
L 142.409003 145.602124 
L 142.507976 145.468472 
L 142.614647 145.358809 
L 142.723517 145.252573 
L 142.830188 145.14291 
L 142.939058 145.009258 
L 143.033632 144.899595 
L 143.144702 144.76937 
L 143.289862 144.659707 
L 143.398733 144.522629 
L 143.497706 144.412966 
L 143.599978 144.313584 
L 143.715446 144.207348 
L 143.824317 144.049707 
L 143.96068 143.940044 
L 144.071749 143.768696 
L 144.213611 143.66246 
L 144.32468 143.545943 
L 144.421454 143.43628 
L 144.530324 143.350605 
L 144.65459 143.244369 
L 144.76566 143.14156 
L 144.898724 143.031897 
L 145.003195 142.887965 
L 145.153854 142.778302 
L 145.261625 142.6892 
L 145.366096 142.579537 
L 145.477166 142.473301 
L 145.64432 142.363638 
L 145.739994 142.274537 
L 145.871958 142.164874 
L 145.978629 142.062065 
L 146.095197 141.959256 
L 146.205167 141.842739 
L 146.320636 141.733076 
L 146.430606 141.623413 
L 146.532878 141.51375 
L 146.640649 141.414368 
L 146.738522 141.304705 
L 146.849592 141.222458 
L 147.016746 141.112795 
L 147.114619 141.030548 
L 147.252082 140.920885 
L 147.363151 140.783806 
L 147.472022 140.674143 
L 147.581992 140.540491 
L 147.741448 140.430828 
L 147.852518 140.334873 
L 147.984482 140.22521 
L 148.095552 140.098412 
L 148.240712 139.988749 
L 148.349582 139.889367 
L 148.478247 139.779704 
L 148.584918 139.666614 
L 148.68719 139.556951 
L 148.792761 139.430153 
L 148.895034 139.32049 
L 149.005004 139.190265 
L 149.096279 139.080602 
L 149.207348 138.950378 
L 149.31072 138.847569 
L 149.412992 138.758467 
L 149.53176 138.652231 
L 149.64283 138.569984 
L 149.791289 138.460321 
L 149.892462 138.333523 
L 150.022226 138.22386 
L 150.132196 138.069647 
L 150.246565 137.959984 
L 150.354336 137.853748 
L 150.495097 137.744085 
L 150.599569 137.65841 
L 150.737031 137.548747 
L 150.838204 137.463073 
L 150.927279 137.35341 
L 151.03505 137.291725 
L 151.152718 137.182062 
L 151.262688 137.075826 
L 151.40125 136.96959 
L 151.51122 136.870208 
L 151.65748 136.760545 
L 151.765251 136.657736 
L 151.884018 136.548073 
L 151.992889 136.434983 
L 152.092961 136.328747 
L 152.204031 136.181387 
L 152.310702 136.071724 
L 152.417373 135.958634 
L 152.53944 135.848971 
L 152.64831 135.735881 
L 152.740685 135.626218 
L 152.842957 135.482285 
L 152.988117 135.376049 
L 153.099187 135.27324 
L 153.249846 135.167004 
L 153.354317 135.084757 
L 153.45439 134.975094 
L 153.56326 134.848296 
L 153.677629 134.738633 
L 153.779901 134.615262 
L 153.937158 134.505599 
L 154.048228 134.395936 
L 154.184591 134.286273 
L 154.29566 134.186891 
L 154.425425 134.077228 
L 154.536495 133.957284 
L 154.691553 133.847621 
L 154.798223 133.700262 
L 154.963178 133.590599 
L 155.070949 133.53234 
L 155.186418 133.422677 
L 155.293088 133.364419 
L 155.452545 133.254756 
L 155.563615 133.158801 
L 155.664787 133.052565 
L 155.774757 132.912059 
L 155.915519 132.802396 
L 156.024389 132.689306 
L 156.160752 132.58307 
L 156.268522 132.476834 
L 156.415882 132.370598 
L 156.524752 132.271216 
L 156.668813 132.161553 
L 156.775484 132.075878 
L 156.922844 131.966215 
L 157.030614 131.846272 
L 157.152681 131.736609 
L 157.260452 131.64408 
L 157.393515 131.534417 
L 157.500186 131.428181 
L 157.615655 131.325372 
L 157.725625 131.219136 
L 157.898278 131.109473 
L 158.008248 131.003237 
L 158.138012 130.897001 
L 158.247982 130.753069 
L 158.444829 130.643406 
L 158.5515 130.574866 
L 158.69666 130.465203 
L 158.796733 130.403518 
L 158.940793 130.293855 
L 159.051863 130.1979 
L 159.213519 130.088237 
L 159.308093 129.992281 
L 159.412565 129.882618 
L 159.519236 129.769529 
L 159.653399 129.659866 
L 159.76117 129.584472 
L 159.897532 129.474809 
L 160.003104 129.361719 
L 160.113074 129.255483 
L 160.220844 129.166382 
L 160.390198 129.056719 
L 160.500168 128.947056 
L 160.618936 128.837393 
L 160.721208 128.731157 
L 160.913655 128.621494 
L 161.021426 128.532393 
L 161.18968 128.42273 
L 161.290852 128.326775 
L 161.442611 128.217112 
L 161.553681 128.131437 
L 161.714237 128.021774 
L 161.825307 127.942954 
L 161.934177 127.833291 
L 162.040848 127.761325 
L 162.148618 127.651662 
L 162.259688 127.541999 
L 162.389453 127.432336 
L 162.499423 127.332954 
L 162.595097 127.223291 
L 162.697369 127.130763 
L 162.851327 127.0211 
L 162.962397 126.925145 
L 163.084463 126.815482 
L 163.182337 126.72638 
L 163.373684 126.616717 
L 163.484754 126.489919 
L 163.637612 126.38711 
L 163.740984 126.270593 
L 163.872948 126.164357 
L 163.97522 126.047841 
L 164.114882 125.938178 
L 164.223752 125.821661 
L 164.411801 125.711998 
L 164.520671 125.626323 
L 164.658134 125.51666 
L 164.751608 125.468683 
L 164.85498 125.35902 
L 164.959452 125.256211 
L 165.058425 125.146548 
L 165.165096 125.026604 
L 165.360842 124.916941 
L 165.469713 124.807278 
L 165.644565 124.701042 
L 165.754535 124.60166 
L 165.921689 124.491997 
L 166.031659 124.406323 
L 166.144928 124.29666 
L 166.247201 124.221266 
L 166.418754 124.111603 
L 166.529823 124.00194 
L 166.640893 123.892277 
L 166.747564 123.827165 
L 166.90922 123.717502 
L 167.01919 123.604412 
L 167.09177 123.494749 
L 167.20284 123.405648 
L 167.365595 123.299412 
L 167.476665 123.220591 
L 167.626224 123.114355 
L 167.737294 123.004692 
L 167.890152 122.895029 
L 167.995724 122.812782 
L 168.144183 122.703119 
L 168.251954 122.579748 
L 168.429005 122.470085 
L 168.536776 122.377557 
L 168.694033 122.267894 
L 168.801804 122.168512 
L 168.960161 122.058849 
L 169.070131 121.962894 
L 169.204294 121.853231 
L 169.29337 121.774411 
L 169.446228 121.664748 
L 169.553999 121.565365 
L 169.666168 121.459129 
L 169.773939 121.352893 
L 169.911401 121.246657 
L 170.016972 121.157556 
L 170.17203 121.047893 
L 170.275402 120.962219 
L 170.442556 120.852556 
L 170.552526 120.794298 
L 170.730678 120.684635 
L 170.839548 120.592106 
L 170.960515 120.482443 
L 171.071585 120.396769 
L 171.222243 120.287106 
L 171.333313 120.201432 
L 171.475175 120.091769 
L 171.585145 120.006095 
L 171.730305 119.896432 
L 171.839175 119.769634 
L 171.944746 119.663398 
L 172.052517 119.594859 
L 172.217472 119.488622 
L 172.325243 119.361825 
L 172.504494 119.252162 
L 172.614464 119.139072 
L 172.743129 119.029409 
L 172.854198 118.923173 
L 172.960869 118.81351 
L 173.059842 118.720981 
L 173.195105 118.611318 
L 173.306175 118.505082 
L 173.452435 118.395419 
L 173.559106 118.309745 
L 173.721862 118.200082 
L 173.832931 118.138397 
L 173.957197 118.028734 
L 174.062769 117.939633 
L 174.190334 117.82997 
L 174.295905 117.727161 
L 174.430069 117.617498 
L 174.540039 117.531823 
L 174.669803 117.42216 
L 174.780873 117.360475 
L 174.894142 117.254239 
L 175.001913 117.182273 
L 175.117381 117.07261 
L 175.227351 116.997216 
L 175.369212 116.887553 
L 175.476983 116.764182 
L 175.647436 116.654519 
L 175.755207 116.524295 
L 175.870676 116.414632 
L 175.978446 116.339238 
L 176.117008 116.233002 
L 176.228078 116.16789 
L 176.36664 116.058227 
L 176.467813 115.97598 
L 176.629469 115.866317 
L 176.738339 115.760081 
L 176.91869 115.650418 
L 177.025361 115.581878 
L 177.177119 115.472215 
L 177.288189 115.352271 
L 177.427851 115.242608 
L 177.531223 115.174069 
L 177.684081 115.064406 
L 177.794051 115.006147 
L 177.954607 114.896484 
L 178.062378 114.797102 
L 178.305411 114.687439 
L 178.390088 114.58463 
L 178.596832 114.478394 
L 178.705702 114.365304 
L 178.871757 114.255641 
L 178.980627 114.159686 
L 179.089498 114.050023 
L 179.199468 113.978057 
L 179.369921 113.868394 
L 179.474393 113.769012 
L 179.603058 113.659349 
L 179.711928 113.566821 
L 179.908774 113.457158 
L 180.017644 113.361202 
L 180.219989 113.254966 
L 180.32886 113.169292 
L 180.47512 113.059629 
L 180.58399 112.973955 
L 180.740147 112.864292 
L 180.850117 112.778618 
L 180.980982 112.668955 
L 181.090952 112.600415 
L 181.240511 112.490752 
L 181.337284 112.398224 
L 181.555025 112.288561 
L 181.663895 112.182325 
L 181.803557 112.076089 
L 181.911328 111.997269 
L 182.061987 111.887606 
L 182.169757 111.822494 
L 182.350108 111.712831 
L 182.460078 111.63401 
L 182.661323 111.524347 
L 182.766895 111.462662 
L 182.859269 111.352999 
L 182.969239 111.243336 
L 183.158388 111.133673 
L 183.263959 111.061706 
L 183.441011 110.952043 
L 183.549881 110.883504 
L 183.706038 110.773841 
L 183.812709 110.701875 
L 183.975465 110.592212 
L 184.085435 110.523672 
L 184.276783 110.417436 
L 184.387852 110.328335 
L 184.513218 110.222099 
L 184.623188 110.098728 
L 184.822234 109.989065 
L 184.930004 109.872548 
L 185.108156 109.766312 
L 185.213727 109.656649 
L 185.412773 109.546986 
L 185.513945 109.464739 
L 185.667903 109.355076 
L 185.774574 109.262548 
L 185.919735 109.152885 
L 186.028605 109.046649 
L 186.137475 108.936986 
L 186.239747 108.854739 
L 186.388207 108.745076 
L 186.493778 108.700525 
L 186.66973 108.590862 
L 186.761005 108.549738 
L 186.96225 108.440075 
L 187.065622 108.364682 
L 187.232776 108.255019 
L 187.339447 108.141929 
L 187.492306 108.032266 
L 187.603375 107.950019 
L 187.802421 107.840356 
L 187.913491 107.761536 
L 188.09934 107.651873 
L 188.202712 107.597041 
L 188.367667 107.487378 
L 188.477637 107.374288 
L 188.681081 107.264625 
L 188.777855 107.148108 
L 188.958206 107.038445 
L 189.068176 106.949344 
L 189.254025 106.839681 
L 189.362895 106.760861 
L 189.525651 106.651198 
L 189.616926 106.548389 
L 189.769784 106.442153 
L 189.867658 106.404456 
L 190.066703 106.294793 
L 190.174474 106.202265 
L 190.340529 106.092602 
L 190.451598 106.003501 
L 190.659442 105.893838 
L 190.766113 105.80131 
L 190.966258 105.691647 
L 191.074029 105.612826 
L 191.167503 105.503163 
L 191.277473 105.410635 
L 191.40064 105.300972 
L 191.501812 105.218725 
L 191.696459 105.109062 
L 191.806429 105.013107 
L 191.931795 104.906871 
L 192.041765 104.773219 
L 192.20672 104.663556 
L 192.31669 104.536758 
L 192.487143 104.427095 
L 192.592714 104.341421 
L 192.731277 104.231758 
L 192.841247 104.135803 
L 193.054588 104.02614 
L 193.161259 103.964454 
L 193.325115 103.854791 
L 193.435085 103.772544 
L 193.578046 103.662881 
L 193.688016 103.580634 
L 193.89366 103.470971 
L 194.00033 103.392151 
L 194.130095 103.282488 
L 194.238965 103.20024 
L 194.446809 103.090577 
L 194.549081 103.032319 
L 194.692042 102.922656 
L 194.800912 102.806139 
L 194.969166 102.696476 
L 195.076937 102.610802 
L 195.271584 102.501139 
L 195.377155 102.453161 
L 195.501421 102.343498 
L 195.612491 102.247543 
L 195.777446 102.13788 
L 195.887416 102.048779 
L 196.072165 101.939116 
L 196.179936 101.856869 
L 196.362486 101.747206 
L 196.470257 101.688947 
L 196.684698 101.582711 
L 196.790269 101.510745 
L 196.926632 101.407936 
L 197.021206 101.294846 
L 197.238947 101.185183 
L 197.33902 101.116643 
L 197.555661 101.00698 
L 197.654634 100.935014 
L 197.798694 100.828778 
L 197.908664 100.739677 
L 198.090115 100.633441 
L 198.201185 100.585463 
L 198.343046 100.4758 
L 198.451916 100.417542 
L 198.703747 100.307879 
L 198.80492 100.235912 
L 199.012763 100.126249 
L 199.123833 100.037148 
L 199.337175 99.927485 
L 199.443846 99.828103 
L 199.611 99.71844 
L 199.71987 99.643047 
L 199.82984 99.536811 
L 199.923315 99.485406 
L 200.170747 99.37917 
L 200.280717 99.327766 
L 200.457769 99.218103 
L 200.553443 99.125575 
L 200.717298 99.019339 
L 200.82177 98.957653 
L 201.00432 98.84799 
L 201.091196 98.765743 
L 201.29794 98.65608 
L 201.403511 98.556698 
L 201.637747 98.447035 
L 201.742219 98.371641 
L 201.88518 98.265405 
L 201.986352 98.190012 
L 202.171102 98.080349 
L 202.279972 97.97754 
L 202.448226 97.867877 
L 202.553797 97.795911 
L 202.788033 97.689675 
L 202.896904 97.607427 
L 203.09375 97.497764 
L 203.194922 97.429225 
L 203.330186 97.319562 
L 203.437956 97.244169 
L 203.601811 97.134506 
L 203.701884 97.083101 
L 203.867939 96.973438 
L 203.975709 96.901472 
L 204.151661 96.791809 
L 204.255033 96.730123 
L 204.423287 96.62046 
L 204.533257 96.558775 
L 204.77959 96.452539 
L 204.887361 96.380573 
L 205.027023 96.277764 
L 205.138092 96.171528 
L 205.33054 96.065292 
L 205.44051 95.97619 
L 205.603266 95.866527 
L 205.709936 95.804842 
L 205.930976 95.695179 
L 206.042046 95.62664 
L 206.260886 95.516977 
L 206.371956 95.431302 
L 206.583098 95.321639 
L 206.690869 95.198268 
L 206.865721 95.088605 
L 206.976791 95.002931 
L 207.150544 94.896695 
L 207.257214 94.793886 
L 207.396876 94.684223 
L 207.496949 94.6431 
L 207.650907 94.533437 
L 207.760877 94.464897 
L 207.923633 94.355234 
L 208.030304 94.238717 
L 208.204056 94.129054 
L 208.312926 94.074223 
L 208.496576 93.96456 
L 208.601048 93.875459 
L 208.81329 93.765796 
L 208.92216 93.686975 
L 209.1443 93.577312 
L 209.248771 93.5122 
L 209.429122 93.402537 
L 209.540192 93.323717 
L 209.731539 93.214054 
L 209.841509 93.145514 
L 209.997667 93.035851 
L 210.105438 92.970739 
L 210.270393 92.861076 
L 210.374864 92.789109 
L 210.556315 92.679446 
L 210.661886 92.624615 
L 210.803747 92.514952 
L 210.892823 92.442986 
L 211.094068 92.333323 
L 211.198539 92.264783 
L 211.431676 92.15512 
L 211.542745 92.083154 
L 211.741791 91.973491 
L 211.852861 91.898098 
L 212.025514 91.795289 
L 212.132185 91.723322 
L 212.362022 91.613659 
L 212.473092 91.541693 
L 212.654542 91.43203 
L 212.756814 91.339502 
L 212.981153 91.229839 
L 213.092223 91.133884 
L 213.274773 91.024221 
L 213.384743 90.965962 
L 213.5409 90.856299 
L 213.643173 90.777479 
L 213.843318 90.667816 
L 213.94559 90.616411 
L 214.172128 90.506748 
L 214.282098 90.438209 
L 214.472346 90.328546 
L 214.579017 90.266861 
L 214.774764 90.157198 
L 214.883634 90.088658 
L 215.063985 89.978995 
L 215.172855 89.913883 
L 215.402693 89.80422 
L 215.504965 89.752815 
L 215.740301 89.650006 
L 215.842573 89.605456 
L 216.091105 89.49922 
L 216.197776 89.420399 
L 216.341836 89.310736 
L 216.451806 89.255905 
L 216.644254 89.146242 
L 216.752025 89.084556 
L 217.010454 88.97832 
L 217.117125 88.885792 
L 217.346962 88.776129 
L 217.452533 88.697309 
L 217.642782 88.591073 
L 217.746153 88.512253 
L 217.932003 88.40259 
L 218.041973 88.340904 
L 218.247617 88.231241 
L 218.354288 88.172983 
L 218.56433 88.06332 
L 218.6743 87.977645 
L 218.799666 87.867982 
L 218.907437 87.799443 
L 219.052597 87.700061 
L 219.161467 87.617814 
L 219.306628 87.508151 
L 219.416598 87.460173 
L 219.66403 87.35051 
L 219.7751 87.292252 
L 219.88507 87.182589 
L 219.99504 87.100341 
L 220.201784 86.990678 
L 220.306255 86.908431 
L 220.511899 86.798768 
L 220.608673 86.747364 
L 220.806619 86.637701 
L 220.916589 86.572588 
L 221.048553 86.462925 
L 221.159622 86.377251 
L 221.409254 86.267588 
L 221.515925 86.192195 
L 221.675382 86.082532 
L 221.786451 86.013992 
L 221.9734 85.904329 
L 222.066875 85.852925 
L 222.270319 85.743262 
L 222.372591 85.671296 
L 222.550743 85.561633 
L 222.661813 85.493093 
L 222.885052 85.38343 
L 222.974127 85.318318 
L 223.169874 85.208655 
L 223.278744 85.15725 
L 223.462394 85.047587 
L 223.570165 84.951632 
L 223.783507 84.841969 
L 223.886878 84.783711 
L 224.087024 84.674048 
L 224.180498 84.622643 
L 224.435629 84.51298 
L 224.546698 84.451295 
L 224.776536 84.341632 
L 224.879908 84.293654 
L 225.122941 84.183991 
L 225.218615 84.122306 
L 225.447353 84.012643 
L 225.536428 83.964665 
L 225.811353 83.855002 
L 225.920224 83.793317 
L 226.121469 83.683654 
L 226.219342 83.611687 
L 226.453578 83.502024 
L 226.547053 83.460901 
L 226.796685 83.351238 
L 226.907754 83.292979 
L 227.1057 83.183316 
L 227.21677 83.11135 
L 227.416916 83.001687 
L 227.514789 82.933148 
L 227.782016 82.823485 
L 227.884288 82.765226 
L 228.099829 82.655563 
L 228.197703 82.600732 
L 228.448434 82.494496 
L 228.558404 82.429383 
L 228.816834 82.31972 
L 228.924604 82.244327 
L 229.125849 82.134664 
L 229.218224 82.086686 
L 229.38208 81.983877 
L 229.49205 81.922192 
L 229.699893 81.812529 
L 229.807663 81.743989 
L 230.029803 81.634326 
L 230.139773 81.589776 
L 230.382807 81.48354 
L 230.486178 81.421854 
L 230.768801 81.315618 
L 230.877672 81.260787 
L 231.077817 81.151124 
L 231.186687 81.092865 
L 231.393431 80.983202 
L 231.503401 80.904382 
L 231.738737 80.794719 
L 231.849806 80.722753 
L 232.085142 80.61309 
L 232.195112 80.517135 
L 232.42275 80.407472 
L 232.53382 80.373202 
L 232.843935 80.263539 
L 232.939609 80.198427 
L 233.112262 80.088764 
L 233.221132 80.037359 
L 233.447671 79.927696 
L 233.557641 79.848876 
L 233.715997 79.739213 
L 233.824868 79.677527 
L 234.115188 79.567864 
L 234.226258 79.499325 
L 234.445098 79.389662 
L 234.556168 79.314269 
L 234.782706 79.208033 
L 234.889377 79.166909 
L 235.111517 79.057246 
L 235.213789 78.992134 
L 235.399638 78.882471 
L 235.509608 78.824212 
L 235.692158 78.714549 
L 235.793331 78.652864 
L 236.026467 78.543201 
L 236.130939 78.49865 
L 236.340981 78.388987 
L 236.445453 78.334156 
L 236.647798 78.224493 
L 236.75007 78.19365 
L 236.996403 78.083987 
L 237.089877 78.018874 
L 237.26363 77.909211 
L 237.347207 77.864661 
L 237.59354 77.754998 
L 237.704609 77.700166 
L 237.937746 77.590503 
L 238.046616 77.539099 
L 238.262157 77.429436 
L 238.372127 77.354043 
L 238.607463 77.24438 
L 238.709735 77.196402 
L 238.960467 77.086739 
L 239.066038 77.0182 
L 239.336564 76.908537 
L 239.443235 76.839997 
L 239.685169 76.730334 
L 239.795139 76.665222 
L 239.97549 76.555559 
L 240.057967 76.514435 
L 240.237219 76.404772 
L 240.34169 76.346514 
L 240.537437 76.240278 
L 240.643008 76.188873 
L 240.82006 76.07921 
L 240.92893 76.027806 
L 241.167565 75.918143 
L 241.272036 75.85303 
L 241.517269 75.743367 
L 241.619542 75.69539 
L 241.804291 75.589154 
L 241.913161 75.527468 
L 242.178189 75.417805 
L 242.279362 75.362974 
L 242.457513 75.253311 
L 242.561984 75.160783 
L 242.824813 75.05112 
L 242.935882 74.996288 
L 243.20091 74.890052 
L 243.306481 74.831794 
L 243.564911 74.722131 
L 243.672682 74.633029 
L 243.875026 74.523366 
L 243.980598 74.478816 
L 244.246725 74.369153 
L 244.356695 74.314321 
L 244.545843 74.204658 
L 244.655813 74.136119 
L 244.843862 74.026456 
L 244.954932 73.971624 
L 245.156177 73.861961 
L 245.267247 73.810557 
L 245.459694 73.700894 
L 245.567465 73.65977 
L 245.752214 73.550107 
L 245.856686 73.471287 
L 246.085423 73.365051 
L 246.187696 73.31022 
L 246.397738 73.200557 
L 246.50221 73.166287 
L 246.781534 73.060051 
L 246.889304 73.008646 
L 247.176326 72.898983 
L 247.273099 72.840725 
L 247.500737 72.731062 
L 247.592012 72.672803 
L 247.884533 72.566567 
L 247.995602 72.501455 
L 248.240835 72.395219 
L 248.347506 72.360949 
L 248.59164 72.251286 
L 248.69941 72.193028 
L 248.949042 72.086792 
L 249.056813 72.018252 
L 249.317442 71.908589 
L 249.424113 71.836623 
L 249.675944 71.72696 
L 249.787014 71.665275 
L 249.957467 71.555612 
L 250.068537 71.521342 
L 250.249987 71.411679 
L 250.346761 71.346566 
L 250.631583 71.236903 
L 250.741553 71.175218 
L 250.947197 71.065555 
L 251.041771 71.01415 
L 251.277107 70.904488 
L 251.387077 70.85651 
L 251.686196 70.746847 
L 251.776371 70.695442 
L 251.950124 70.585779 
L 252.055695 70.527521 
L 252.274535 70.417858 
L 252.377907 70.36988 
L 252.589049 70.260217 
L 252.684723 70.201959 
L 252.874971 70.092296 
L 252.977244 70.044318 
L 253.28186 69.934655 
L 253.386332 69.852408 
L 253.606272 69.742745 
L 253.717342 69.698195 
L 253.98127 69.588532 
L 254.087941 69.530273 
L 254.324376 69.42061 
L 254.423349 69.396621 
L 254.681779 69.286958 
L 254.78625 69.2287 
L 254.981997 69.122464 
L 255.086468 69.057351 
L 255.350396 68.947688 
L 255.461466 68.879149 
L 255.701201 68.769486 
L 255.807871 68.735216 
L 256.028911 68.62898 
L 256.137781 68.581003 
L 256.424803 68.47134 
L 256.518278 68.399373 
L 256.819595 68.28971 
L 256.930665 68.248587 
L 257.148406 68.138924 
L 257.247379 68.101227 
L 257.523404 67.994991 
L 257.634473 67.960721 
L 257.923694 67.851058 
L 258.034764 67.7928 
L 258.223912 67.683137 
L 258.323985 67.648867 
L 258.570318 67.539204 
L 258.675889 67.491227 
L 259.032192 67.384991 
L 259.143262 67.316451 
L 259.386295 67.206788 
L 259.495166 67.151957 
L 259.783287 67.042294 
L 259.887759 67.00117 
L 260.183578 66.891507 
L 260.294648 66.792125 
L 260.564074 66.682462 
L 260.65205 66.648192 
L 260.935773 66.541956 
L 261.042444 66.487125 
L 261.278879 66.377462 
L 261.356958 66.339765 
L 261.635182 66.233529 
L 261.739653 66.171844 
L 261.924403 66.062181 
L 262.034373 66.021057 
L 262.310398 65.911394 
L 262.385177 65.877124 
L 262.784369 65.767461 
L 262.88884 65.716057 
L 263.151668 65.609821 
L 263.259439 65.534428 
L 263.47608 65.424765 
L 263.58495 65.352798 
L 263.888467 65.243135 
L 263.997338 65.157461 
L 264.262365 65.047798 
L 264.370136 64.98954 
L 264.605472 64.879877 
L 264.716541 64.811337 
L 265.091539 64.701674 
L 265.190512 64.660551 
L 265.378561 64.550888 
L 265.484132 64.492629 
L 265.752459 64.382966 
L 265.861329 64.324708 
L 266.072472 64.218472 
L 266.183541 64.173921 
L 266.366092 64.064258 
L 266.471663 63.999146 
L 266.650914 63.889483 
L 266.727893 63.841505 
L 267.089694 63.731842 
L 267.195265 63.690718 
L 267.39981 63.581055 
L 267.50978 63.539932 
L 267.700028 63.430269 
L 267.811097 63.358302 
L 268.060729 63.248639 
L 268.155304 63.204089 
L 268.440126 63.094426 
L 268.546797 63.056729 
L 268.784332 62.947066 
L 268.886604 62.926504 
L 269.168127 62.816841 
L 269.273698 62.779145 
L 269.547524 62.669482 
L 269.655294 62.607796 
L 269.871935 62.498133 
L 269.981905 62.405605 
L 270.216141 62.299369 
L 270.322812 62.247965 
L 270.579042 62.138302 
L 270.684614 62.069762 
L 270.857267 61.960099 
L 270.966137 61.905268 
L 271.232264 61.795605 
L 271.337835 61.727065 
L 271.620458 61.617402 
L 271.730428 61.572852 
L 272.014151 61.463189 
L 272.124121 61.408357 
L 272.408943 61.298694 
L 272.516714 61.243863 
L 272.871917 61.1342 
L 272.979688 61.075941 
L 273.339289 60.966278 
L 273.443761 60.914874 
L 273.897937 60.805211 
L 274.002409 60.743525 
L 274.237744 60.633862 
L 274.348814 60.589312 
L 274.713915 60.479649 
L 274.815087 60.435098 
L 275.041625 60.325435 
L 275.144997 60.267177 
L 275.60907 60.157514 
L 275.715741 60.112963 
L 276.034654 60.0033 
L 276.144624 59.92448 
L 276.465737 59.818244 
L 276.570208 59.756558 
L 276.842934 59.646895 
L 276.950704 59.592064 
L 277.231128 59.485828 
L 277.335599 59.427569 
L 277.585231 59.317906 
L 277.686404 59.266502 
L 278.094392 59.156839 
L 278.197764 59.095153 
L 278.511179 58.98549 
L 278.610152 58.954648 
L 278.904871 58.844985 
L 279.006044 58.779872 
L 279.371144 58.670209 
L 279.449223 58.639367 
L 279.730746 58.529704 
L 279.839616 58.468018 
L 280.028765 58.358355 
L 280.102445 58.306951 
L 280.434554 58.197288 
L 280.545624 58.14931 
L 280.954712 58.039647 
L 281.065782 57.99167 
L 281.338508 57.882007 
L 281.447378 57.830602 
L 281.760792 57.720939 
L 281.859765 57.642119 
L 282.236963 57.532456 
L 282.344733 57.487905 
L 282.566873 57.381669 
L 282.673543 57.326838 
L 282.951768 57.217175 
L 283.05404 57.176051 
L 283.442234 57.066388 
L 283.540107 57.045826 
L 283.830428 56.936163 
L 283.939298 56.884759 
L 284.329692 56.775096 
L 284.436363 56.71341 
L 284.755276 56.603747 
L 284.854249 56.548916 
L 285.157766 56.439253 
L 285.254539 56.380994 
L 285.514069 56.271331 
L 285.622939 56.226781 
L 285.926456 56.117118 
L 286.035326 56.082848 
L 286.391629 55.973185 
L 286.501599 55.914926 
L 286.82711 55.80869 
L 286.93708 55.770994 
L 287.297782 55.664758 
L 287.396755 55.606499 
L 287.716768 55.500263 
L 287.81904 55.462567 
L 288.207234 55.356331 
L 288.309506 55.304926 
L 288.670208 55.195263 
L 288.77138 55.167847 
L 289.253049 55.058184 
L 289.347623 55.023915 
L 289.628046 54.917679 
L 289.72372 54.866274 
L 290.014041 54.756611 
L 290.120712 54.705207 
L 290.45722 54.595544 
L 290.557293 54.544139 
L 291.003771 54.434476 
L 291.099445 54.396779 
L 291.609706 54.287116 
L 291.698782 54.24942 
L 292.011096 54.139757 
L 292.116668 54.105487 
L 292.428982 53.995824 
L 292.537853 53.930712 
L 292.835872 53.821049 
L 292.938144 53.776498 
L 293.335135 53.666835 
L 293.438507 53.642846 
L 293.881686 53.533183 
L 293.992756 53.495487 
L 294.298473 53.385824 
L 294.407343 53.351554 
L 294.788939 53.241891 
L 294.883513 53.200767 
L 295.290402 53.091104 
L 295.399272 53.036273 
L 295.780868 52.92661 
L 295.891938 52.885486 
L 296.301026 52.775823 
L 296.408797 52.727846 
L 296.700217 52.618183 
L 296.803589 52.563351 
L 297.119203 52.457115 
L 297.212678 52.422845 
L 297.521693 52.316609 
L 297.621766 52.28234 
L 297.998963 52.176104 
L 298.097936 52.107564 
L 298.436644 51.997901 
L 298.501526 51.970486 
L 298.919412 51.860823 
L 299.026083 51.799137 
L 299.29551 51.689474 
L 299.401081 51.64835 
L 299.76948 51.538687 
L 299.87945 51.49071 
L 300.200563 51.381047 
L 300.311632 51.346777 
L 300.706425 51.237114 
L 300.813096 51.206272 
L 301.284867 51.096609 
L 301.392638 51.07262 
L 301.746741 50.962957 
L 301.808324 50.92526 
L 302.164627 50.815597 
L 302.258101 50.798462 
L 302.700181 50.688799 
L 302.804652 50.65453 
L 303.154357 50.544867 
L 303.264327 50.486608 
L 303.648122 50.376945 
L 303.759192 50.339248 
L 304.101199 50.229585 
L 304.211169 50.188462 
L 304.53668 50.078799 
L 304.603762 50.05481 
L 305.079932 49.945147 
L 305.185503 49.910877 
L 305.482422 49.801214 
L 305.571498 49.753237 
L 306.014677 49.643574 
L 306.124647 49.605877 
L 306.444659 49.503068 
L 306.555729 49.468798 
L 306.859246 49.359135 
L 306.968117 49.321439 
L 307.333217 49.211776 
L 307.443187 49.177506 
L 307.754402 49.067843 
L 307.850076 49.043854 
L 308.225074 48.934191 
L 308.327346 48.906776 
L 308.64296 48.797113 
L 308.743033 48.762843 
L 309.04655 48.65318 
L 309.157619 48.608629 
L 309.48753 48.498966 
L 309.589802 48.46127 
L 309.919712 48.351607 
L 310.025283 48.303629 
L 310.442069 48.193966 
L 310.550939 48.135708 
L 310.857756 48.026045 
L 310.965526 47.981494 
L 311.460391 47.871831 
L 311.534071 47.844415 
L 311.944259 47.734752 
L 312.05313 47.690202 
L 312.479813 47.580539 
L 312.589783 47.553123 
L 313.051657 47.44346 
L 313.156129 47.402336 
L 313.521229 47.292673 
L 313.632299 47.254977 
L 314.042487 47.145314 
L 314.150258 47.124752 
L 314.565944 47.018516 
L 314.661618 46.980819 
L 315.142187 46.871156 
L 315.225764 46.840313 
L 315.729427 46.73065 
L 315.840497 46.692954 
L 316.480522 46.583291 
L 316.589392 46.545594 
L 317.00178 46.435931 
L 317.11285 46.398234 
L 317.58902 46.288571 
L 317.69789 46.23374 
L 318.0267 46.124077 
L 318.122374 46.100088 
L 318.61394 45.990425 
L 318.700816 45.949302 
L 319.068116 45.839639 
L 319.150594 45.819077 
L 319.45741 45.709414 
L 319.558582 45.671717 
L 319.914885 45.562054 
L 320.019357 45.527784 
L 320.458137 45.418121 
L 320.567007 45.356436 
L 320.935407 45.246773 
L 321.013486 45.226211 
L 321.422574 45.116548 
L 321.524846 45.075425 
L 322.164872 44.965762 
L 322.264944 44.938346 
L 322.657537 44.828683 
L 322.759809 44.794413 
L 323.140305 44.68475 
L 323.242578 44.667615 
L 323.56479 44.561379 
L 323.618675 44.544244 
L 324.090446 44.434581 
L 324.198217 44.400312 
L 324.652393 44.290649 
L 324.756865 44.263233 
L 325.119766 44.156997 
L 325.217639 44.1193 
L 325.658619 44.009637 
L 325.758691 43.985649 
L 326.281049 43.875986 
L 326.369025 43.845143 
L 326.748421 43.73548 
L 326.8265 43.70121 
L 327.246585 43.591547 
L 327.351057 43.581266 
L 327.726055 43.471603 
L 327.821729 43.437334 
L 328.307796 43.327671 
L 328.408968 43.293401 
L 329.083085 43.183738 
L 329.165562 43.156322 
L 329.672524 43.050086 
L 329.775896 43.008962 
L 330.238869 42.899299 
L 330.315848 42.885592 
L 330.763426 42.775929 
L 330.867898 42.741659 
L 331.350666 42.631996 
L 331.457337 42.594299 
L 331.979694 42.484636 
L 332.06987 42.453794 
L 332.528445 42.344131 
L 332.629617 42.296153 
L 333.200361 42.18649 
L 333.289437 42.15222 
L 334.115312 42.042557 
L 334.204388 42.018569 
L 334.620074 41.912332 
L 334.723446 41.891771 
L 335.054456 41.782108 
L 335.158927 41.751265 
L 335.756064 41.641602 
L 335.835243 41.617613 
L 336.236633 41.50795 
L 336.334507 41.480534 
L 337.013022 41.370871 
L 337.121892 41.322894 
L 337.559572 41.213231 
L 337.625554 41.182388 
L 338.125918 41.076152 
L 338.210595 41.031602 
L 338.760445 40.921939 
L 338.801134 40.908231 
L 339.389473 40.798568 
L 339.485147 40.781433 
L 340.184556 40.67177 
L 340.28023 40.634073 
L 340.804787 40.52441 
L 340.897162 40.493567 
L 341.561381 40.383904 
L 341.666952 40.363343 
L 342.160717 40.25368 
L 342.270687 40.233118 
L 342.729262 40.123455 
L 342.839232 40.092612 
L 343.3242 39.982949 
L 343.401179 39.955533 
L 344.135779 39.84587 
L 344.234752 39.825309 
L 344.812094 39.715646 
L 344.914366 39.698511 
L 345.59838 39.588848 
L 345.696253 39.57514 
L 346.305487 39.465477 
L 346.386865 39.451769 
L 346.95431 39.342106 
L 347.047784 39.321544 
L 347.518456 39.215308 
L 347.627326 39.184465 
L 348.31134 39.074802 
L 348.412512 39.040533 
L 349.077831 38.93087 
L 349.170205 38.906881 
L 350.063162 38.797218 
L 350.14234 38.773229 
L 350.776867 38.663566 
L 350.87804 38.646431 
L 351.512567 38.536768 
L 351.622537 38.51278 
L 352.460508 38.406544 
L 352.568279 38.379128 
L 353.18631 38.269465 
L 353.284183 38.242049 
L 353.914311 38.132386 
L 354.023182 38.084408 
L 354.790772 37.974745 
L 354.876549 37.950757 
L 355.450592 37.841094 
L 355.508876 37.823959 
L 356.363343 37.714296 
L 356.464516 37.697161 
L 357.141931 37.587498 
L 357.249702 37.556655 
L 357.839141 37.446992 
L 357.941413 37.433284 
L 358.513257 37.323621 
L 358.617728 37.306487 
L 359.355627 37.196824 
L 359.444703 37.18997 
L 359.961562 37.080307 
L 360.071532 37.066599 
L 360.852319 36.956936 
L 360.941395 36.92952 
L 361.760671 36.819857 
L 361.868442 36.792441 
L 362.559053 36.682778 
L 362.622836 36.66907 
L 363.768723 36.559407 
L 363.835805 36.538846 
L 364.840931 36.429183 
L 364.854127 36.422329 
L 365.729489 36.312666 
L 365.83286 36.288677 
L 366.601551 36.179014 
L 366.670832 36.165306 
L 367.699051 36.055643 
L 367.77823 36.041935 
L 368.43585 35.932272 
L 368.482038 35.925418 
L 369.435478 35.815755 
L 369.534451 35.795193 
L 370.887082 35.68553 
L 370.978357 35.671823 
L 371.861416 35.56216 
L 371.9219 35.551879 
L 373.018301 35.442216 
L 373.128271 35.425081 
L 374.172986 35.315418 
L 374.273058 35.30171 
L 375.105531 35.192047 
L 375.155018 35.178339 
L 376.298706 35.068676 
L 376.369087 35.061822 
L 377.362116 34.952159 
L 377.45779 34.931597 
L 378.85001 34.821934 
L 378.911593 34.801372 
L 380.474267 34.691709 
L 380.563342 34.684856 
L 382.228288 34.575193 
L 382.337159 34.564912 
L 383.815155 34.455249 
L 383.898733 34.441541 
L 384.668523 34.414125 
L 384.668523 34.414125 
" clip-path="url(#p77020400aa)" style="fill: none; stroke: #0000ff; stroke-width: 1.5; stroke-linecap: square"/>
   </g>
   <g id="line2d_14">
    <path d="M 60.013977 276.334125 
L 384.668523 34.414125 
" clip-path="url(#p77020400aa)" style="fill: none; stroke-dasharray: 5.55,2.4; stroke-dashoffset: 0; stroke: #ff0000; stroke-width: 1.5"/>
   </g>
   <g id="patch_3">
    <path d="M 43.78125 288.430125 
L 43.78125 22.318125 
" style="fill: none; stroke: #000000; stroke-width: 0.8; stroke-linejoin: miter; stroke-linecap: square"/>
   </g>
   <g id="patch_4">
    <path d="M 400.90125 288.430125 
L 400.90125 22.318125 
" style="fill: none; stroke: #000000; stroke-width: 0.8; stroke-linejoin: miter; stroke-linecap: square"/>
   </g>
   <g id="patch_5">
    <path d="M 43.78125 288.430125 
L 400.90125 288.430125 
" style="fill: none; stroke: #000000; stroke-width: 0.8; stroke-linejoin: miter; stroke-linecap: square"/>
   </g>
   <g id="patch_6">
    <path d="M 43.78125 22.318125 
L 400.90125 22.318125 
" style="fill: none; stroke: #000000; stroke-width: 0.8; stroke-linejoin: miter; stroke-linecap: square"/>
   </g>
   <g id="text_15">
    <!-- Elastic net with 12 selected features -->
    <g transform="translate(112.905 16.318125) scale(0.12 -0.12)">
     <defs>
      <path id="DejaVuSans-45" d="M 628 4666 
L 3578 4666 
L 3578 4134 
L 1259 4134 
L 1259 2753 
L 3481 2753 
L 3481 2222 
L 1259 2222 
L 1259 531 
L 3634 531 
L 3634 0 
L 628 0 
L 628 4666 
z
" transform="scale(0.015625)"/>
      <path id="DejaVuSans-63" d="M 3122 3366 
L 3122 2828 
Q 2878 2963 2633 3030 
Q 2388 3097 2138 3097 
Q 1578 3097 1268 2742 
Q 959 2388 959 1747 
Q 959 1106 1268 751 
Q 1578 397 2138 397 
Q 2388 397 2633 464 
Q 2878 531 3122 666 
L 3122 134 
Q 2881 22 2623 -34 
Q 2366 -91 2075 -91 
Q 1284 -91 818 406 
Q 353 903 353 1747 
Q 353 2603 823 3093 
Q 1294 3584 2113 3584 
Q 2378 3584 2631 3529 
Q 2884 3475 3122 3366 
z
" transform="scale(0.015625)"/>
      <path id="DejaVuSans-6e" d="M 3513 2113 
L 3513 0 
L 2938 0 
L 2938 2094 
Q 2938 2591 2744 2837 
Q 2550 3084 2163 3084 
Q 1697 3084 1428 2787 
Q 1159 2491 1159 1978 
L 1159 0 
L 581 0 
L 581 3500 
L 1159 3500 
L 1159 2956 
Q 1366 3272 1645 3428 
Q 1925 3584 2291 3584 
Q 2894 3584 3203 3211 
Q 3513 2838 3513 2113 
z
" transform="scale(0.015625)"/>
      <path id="DejaVuSans-77" d="M 269 3500 
L 844 3500 
L 1563 769 
L 2278 3500 
L 2956 3500 
L 3675 769 
L 4391 3500 
L 4966 3500 
L 4050 0 
L 3372 0 
L 2619 2869 
L 1863 0 
L 1184 0 
L 269 3500 
z
" transform="scale(0.015625)"/>
      <path id="DejaVuSans-68" d="M 3513 2113 
L 3513 0 
L 2938 0 
L 2938 2094 
Q 2938 2591 2744 2837 
Q 2550 3084 2163 3084 
Q 1697 3084 1428 2787 
Q 1159 2491 1159 1978 
L 1159 0 
L 581 0 
L 581 4863 
L 1159 4863 
L 1159 2956 
Q 1366 3272 1645 3428 
Q 1925 3584 2291 3584 
Q 2894 3584 3203 3211 
Q 3513 2838 3513 2113 
z
" transform="scale(0.015625)"/>
      <path id="DejaVuSans-64" d="M 2906 2969 
L 2906 4863 
L 3481 4863 
L 3481 0 
L 2906 0 
L 2906 525 
Q 2725 213 2448 61 
Q 2172 -91 1784 -91 
Q 1150 -91 751 415 
Q 353 922 353 1747 
Q 353 2572 751 3078 
Q 1150 3584 1784 3584 
Q 2172 3584 2448 3432 
Q 2725 3281 2906 2969 
z
M 947 1747 
Q 947 1113 1208 752 
Q 1469 391 1925 391 
Q 2381 391 2643 752 
Q 2906 1113 2906 1747 
Q 2906 2381 2643 2742 
Q 2381 3103 1925 3103 
Q 1469 3103 1208 2742 
Q 947 2381 947 1747 
z
" transform="scale(0.015625)"/>
      <path id="DejaVuSans-66" d="M 2375 4863 
L 2375 4384 
L 1825 4384 
Q 1516 4384 1395 4259 
Q 1275 4134 1275 3809 
L 1275 3500 
L 2222 3500 
L 2222 3053 
L 1275 3053 
L 1275 0 
L 697 0 
L 697 3053 
L 147 3053 
L 147 3500 
L 697 3500 
L 697 3744 
Q 697 4328 969 4595 
Q 1241 4863 1831 4863 
L 2375 4863 
z
" transform="scale(0.015625)"/>
     </defs>
     <use xlink:href="#DejaVuSans-45"/>
     <use xlink:href="#DejaVuSans-6c" x="63.183594"/>
     <use xlink:href="#DejaVuSans-61" x="90.966797"/>
     <use xlink:href="#DejaVuSans-73" x="152.246094"/>
     <use xlink:href="#DejaVuSans-74" x="204.345703"/>
     <use xlink:href="#DejaVuSans-69" x="243.554688"/>
     <use xlink:href="#DejaVuSans-63" x="271.337891"/>
     <use xlink:href="#DejaVuSans-20" x="326.318359"/>
     <use xlink:href="#DejaVuSans-6e" x="358.105469"/>
     <use xlink:href="#DejaVuSans-65" x="421.484375"/>
     <use xlink:href="#DejaVuSans-74" x="483.007812"/>
     <use xlink:href="#DejaVuSans-20" x="522.216797"/>
     <use xlink:href="#DejaVuSans-77" x="554.003906"/>
     <use xlink:href="#DejaVuSans-69" x="635.791016"/>
     <use xlink:href="#DejaVuSans-74" x="663.574219"/>
     <use xlink:href="#DejaVuSans-68" x="702.783203"/>
     <use xlink:href="#DejaVuSans-20" x="766.162109"/>
     <use xlink:href="#DejaVuSans-31" x="797.949219"/>
     <use xlink:href="#DejaVuSans-32" x="861.572266"/>
     <use xlink:href="#DejaVuSans-20" x="925.195312"/>
     <use xlink:href="#DejaVuSans-73" x="956.982422"/>
     <use xlink:href="#DejaVuSans-65" x="1009.082031"/>
     <use xlink:href="#DejaVuSans-6c" x="1070.605469"/>
     <use xlink:href="#DejaVuSans-65" x="1098.388672"/>
     <use xlink:href="#DejaVuSans-63" x="1159.912109"/>
     <use xlink:href="#DejaVuSans-74" x="1214.892578"/>
     <use xlink:href="#DejaVuSans-65" x="1254.101562"/>
     <use xlink:href="#DejaVuSans-64" x="1315.625"/>
     <use xlink:href="#DejaVuSans-20" x="1379.101562"/>
     <use xlink:href="#DejaVuSans-66" x="1410.888672"/>
     <use xlink:href="#DejaVuSans-65" x="1446.09375"/>
     <use xlink:href="#DejaVuSans-61" x="1507.617188"/>
     <use xlink:href="#DejaVuSans-74" x="1568.896484"/>
     <use xlink:href="#DejaVuSans-75" x="1608.105469"/>
     <use xlink:href="#DejaVuSans-72" x="1671.484375"/>
     <use xlink:href="#DejaVuSans-65" x="1710.347656"/>
     <use xlink:href="#DejaVuSans-73" x="1771.871094"/>
    </g>
   </g>
   <g id="legend_1">
    <g id="patch_7">
     <path d="M 50.78125 44.99625 
L 160.0125 44.99625 
Q 162.0125 44.99625 162.0125 42.99625 
L 162.0125 29.318125 
Q 162.0125 27.318125 160.0125 27.318125 
L 50.78125 27.318125 
Q 48.78125 27.318125 48.78125 29.318125 
L 48.78125 42.99625 
Q 48.78125 44.99625 50.78125 44.99625 
z
" style="fill: #ffffff; opacity: 0.8; stroke: #cccccc; stroke-linejoin: miter"/>
    </g>
    <g id="line2d_15">
     <path d="M 52.78125 35.416562 
L 62.78125 35.416562 
L 72.78125 35.416562 
" style="fill: none; stroke: #0000ff; stroke-width: 1.5; stroke-linecap: square"/>
    </g>
    <g id="text_16">
     <!-- AUC = 0.70919 -->
     <g transform="translate(80.78125 38.916562) scale(0.1 -0.1)">
      <defs>
       <path id="DejaVuSans-41" d="M 2188 4044 
L 1331 1722 
L 3047 1722 
L 2188 4044 
z
M 1831 4666 
L 2547 4666 
L 4325 0 
L 3669 0 
L 3244 1197 
L 1141 1197 
L 716 0 
L 50 0 
L 1831 4666 
z
" transform="scale(0.015625)"/>
       <path id="DejaVuSans-55" d="M 556 4666 
L 1191 4666 
L 1191 1831 
Q 1191 1081 1462 751 
Q 1734 422 2344 422 
Q 2950 422 3222 751 
Q 3494 1081 3494 1831 
L 3494 4666 
L 4128 4666 
L 4128 1753 
Q 4128 841 3676 375 
Q 3225 -91 2344 -91 
Q 1459 -91 1007 375 
Q 556 841 556 1753 
L 556 4666 
z
" transform="scale(0.015625)"/>
       <path id="DejaVuSans-43" d="M 4122 4306 
L 4122 3641 
Q 3803 3938 3442 4084 
Q 3081 4231 2675 4231 
Q 1875 4231 1450 3742 
Q 1025 3253 1025 2328 
Q 1025 1406 1450 917 
Q 1875 428 2675 428 
Q 3081 428 3442 575 
Q 3803 722 4122 1019 
L 4122 359 
Q 3791 134 3420 21 
Q 3050 -91 2638 -91 
Q 1578 -91 968 557 
Q 359 1206 359 2328 
Q 359 3453 968 4101 
Q 1578 4750 2638 4750 
Q 3056 4750 3426 4639 
Q 3797 4528 4122 4306 
z
" transform="scale(0.015625)"/>
       <path id="DejaVuSans-3d" d="M 678 2906 
L 4684 2906 
L 4684 2381 
L 678 2381 
L 678 2906 
z
M 678 1631 
L 4684 1631 
L 4684 1100 
L 678 1100 
L 678 1631 
z
" transform="scale(0.015625)"/>
       <path id="DejaVuSans-37" d="M 525 4666 
L 3525 4666 
L 3525 4397 
L 1831 0 
L 1172 0 
L 2766 4134 
L 525 4134 
L 525 4666 
z
" transform="scale(0.015625)"/>
       <path id="DejaVuSans-39" d="M 703 97 
L 703 672 
Q 941 559 1184 500 
Q 1428 441 1663 441 
Q 2288 441 2617 861 
Q 2947 1281 2994 2138 
Q 2813 1869 2534 1725 
Q 2256 1581 1919 1581 
Q 1219 1581 811 2004 
Q 403 2428 403 3163 
Q 403 3881 828 4315 
Q 1253 4750 1959 4750 
Q 2769 4750 3195 4129 
Q 3622 3509 3622 2328 
Q 3622 1225 3098 567 
Q 2575 -91 1691 -91 
Q 1453 -91 1209 -44 
Q 966 3 703 97 
z
M 1959 2075 
Q 2384 2075 2632 2365 
Q 2881 2656 2881 3163 
Q 2881 3666 2632 3958 
Q 2384 4250 1959 4250 
Q 1534 4250 1286 3958 
Q 1038 3666 1038 3163 
Q 1038 2656 1286 2365 
Q 1534 2075 1959 2075 
z
" transform="scale(0.015625)"/>
      </defs>
      <use xlink:href="#DejaVuSans-41"/>
      <use xlink:href="#DejaVuSans-55" x="68.408203"/>
      <use xlink:href="#DejaVuSans-43" x="141.601562"/>
      <use xlink:href="#DejaVuSans-20" x="211.425781"/>
      <use xlink:href="#DejaVuSans-3d" x="243.212891"/>
      <use xlink:href="#DejaVuSans-20" x="327.001953"/>
      <use xlink:href="#DejaVuSans-30" x="358.789062"/>
      <use xlink:href="#DejaVuSans-2e" x="422.412109"/>
      <use xlink:href="#DejaVuSans-37" x="454.199219"/>
      <use xlink:href="#DejaVuSans-30" x="517.822266"/>
      <use xlink:href="#DejaVuSans-39" x="581.445312"/>
      <use xlink:href="#DejaVuSans-31" x="645.068359"/>
      <use xlink:href="#DejaVuSans-39" x="708.691406"/>
     </g>
    </g>
   </g>
  </g>
 </g>
 <defs>
  <clipPath id="p77020400aa">
   <rect x="43.78125" y="22.318125" width="357.12" height="266.112"/>
  </clipPath>
 </defs>
</svg>
