<?xml version="1.0" encoding="utf-8" standalone="no"?>
<!DOCTYPE svg PUBLIC "-//W3C//DTD SVG 1.1//EN"
  "http://www.w3.org/Graphics/SVG/1.1/DTD/svg11.dtd">
<svg xmlns:xlink="http://www.w3.org/1999/xlink" width="408.10125pt" height="325.986375pt" viewBox="0 0 408.10125 325.986375" xmlns="http://www.w3.org/2000/svg" version="1.1">
 <metadata>
  <rdf:RDF xmlns:dc="http://purl.org/dc/elements/1.1/" xmlns:cc="http://creativecommons.org/ns#" xmlns:rdf="http://www.w3.org/1999/02/22-rdf-syntax-ns#">
   <cc:Work>
    <dc:type rdf:resource="http://purl.org/dc/dcmitype/StillImage"/>
    <dc:date>2024-03-09T19:01:27.935488</dc:date>
    <dc:format>image/svg+xml</dc:format>
    <dc:creator>
     <cc:Agent>
      <dc:title>Matplotlib v3.8.0, https://matplotlib.org/</dc:title>
     </cc:Agent>
    </dc:creator>
   </cc:Work>
  </rdf:RDF>
 </metadata>
 <defs>
  <style type="text/css">*{stroke-linejoin: round; stroke-linecap: butt}</style>
 </defs>
 <g id="figure_1">
  <g id="patch_1">
   <path d="M 0 325.986375 
L 408.10125 325.986375 
L 408.10125 0 
L 0 0 
L 0 325.986375 
z
" style="fill: none"/>
  </g>
  <g id="axes_1">
   <g id="patch_2">
    <path d="M 43.78125 288.430125 
L 400.90125 288.430125 
L 400.90125 22.318125 
L 43.78125 22.318125 
L 43.78125 288.430125 
z
" style="fill: none"/>
   </g>
   <g id="matplotlib.axis_1">
    <g id="xtick_1">
     <g id="line2d_1">
      <defs>
       <path id="mf37c9b9de2" d="M 0 0 
L 0 3.5 
" style="stroke: #000000; stroke-width: 0.8"/>
      </defs>
      <g>
       <use xlink:href="#mf37c9b9de2" x="60.013977" y="288.430125" style="stroke: #000000; stroke-width: 0.8"/>
      </g>
     </g>
     <g id="text_1">
      <!-- 0.0 -->
      <g transform="translate(52.062415 303.028562) scale(0.1 -0.1)">
       <defs>
        <path id="DejaVuSans-30" d="M 2034 4250 
Q 1547 4250 1301 3770 
Q 1056 3291 1056 2328 
Q 1056 1369 1301 889 
Q 1547 409 2034 409 
Q 2525 409 2770 889 
Q 3016 1369 3016 2328 
Q 3016 3291 2770 3770 
Q 2525 4250 2034 4250 
z
M 2034 4750 
Q 2819 4750 3233 4129 
Q 3647 3509 3647 2328 
Q 3647 1150 3233 529 
Q 2819 -91 2034 -91 
Q 1250 -91 836 529 
Q 422 1150 422 2328 
Q 422 3509 836 4129 
Q 1250 4750 2034 4750 
z
" transform="scale(0.015625)"/>
        <path id="DejaVuSans-2e" d="M 684 794 
L 1344 794 
L 1344 0 
L 684 0 
L 684 794 
z
" transform="scale(0.015625)"/>
       </defs>
       <use xlink:href="#DejaVuSans-30"/>
       <use xlink:href="#DejaVuSans-2e" x="63.623047"/>
       <use xlink:href="#DejaVuSans-30" x="95.410156"/>
      </g>
     </g>
    </g>
    <g id="xtick_2">
     <g id="line2d_2">
      <g>
       <use xlink:href="#mf37c9b9de2" x="124.944886" y="288.430125" style="stroke: #000000; stroke-width: 0.8"/>
      </g>
     </g>
     <g id="text_2">
      <!-- 0.2 -->
      <g transform="translate(116.993324 303.028562) scale(0.1 -0.1)">
       <defs>
        <path id="DejaVuSans-32" d="M 1228 531 
L 3431 531 
L 3431 0 
L 469 0 
L 469 531 
Q 828 903 1448 1529 
Q 2069 2156 2228 2338 
Q 2531 2678 2651 2914 
Q 2772 3150 2772 3378 
Q 2772 3750 2511 3984 
Q 2250 4219 1831 4219 
Q 1534 4219 1204 4116 
Q 875 4013 500 3803 
L 500 4441 
Q 881 4594 1212 4672 
Q 1544 4750 1819 4750 
Q 2544 4750 2975 4387 
Q 3406 4025 3406 3419 
Q 3406 3131 3298 2873 
Q 3191 2616 2906 2266 
Q 2828 2175 2409 1742 
Q 1991 1309 1228 531 
z
" transform="scale(0.015625)"/>
       </defs>
       <use xlink:href="#DejaVuSans-30"/>
       <use xlink:href="#DejaVuSans-2e" x="63.623047"/>
       <use xlink:href="#DejaVuSans-32" x="95.410156"/>
      </g>
     </g>
    </g>
    <g id="xtick_3">
     <g id="line2d_3">
      <g>
       <use xlink:href="#mf37c9b9de2" x="189.875795" y="288.430125" style="stroke: #000000; stroke-width: 0.8"/>
      </g>
     </g>
     <g id="text_3">
      <!-- 0.4 -->
      <g transform="translate(181.924233 303.028562) scale(0.1 -0.1)">
       <defs>
        <path id="DejaVuSans-34" d="M 2419 4116 
L 825 1625 
L 2419 1625 
L 2419 4116 
z
M 2253 4666 
L 3047 4666 
L 3047 1625 
L 3713 1625 
L 3713 1100 
L 3047 1100 
L 3047 0 
L 2419 0 
L 2419 1100 
L 313 1100 
L 313 1709 
L 2253 4666 
z
" transform="scale(0.015625)"/>
       </defs>
       <use xlink:href="#DejaVuSans-30"/>
       <use xlink:href="#DejaVuSans-2e" x="63.623047"/>
       <use xlink:href="#DejaVuSans-34" x="95.410156"/>
      </g>
     </g>
    </g>
    <g id="xtick_4">
     <g id="line2d_4">
      <g>
       <use xlink:href="#mf37c9b9de2" x="254.806705" y="288.430125" style="stroke: #000000; stroke-width: 0.8"/>
      </g>
     </g>
     <g id="text_4">
      <!-- 0.6 -->
      <g transform="translate(246.855142 303.028562) scale(0.1 -0.1)">
       <defs>
        <path id="DejaVuSans-36" d="M 2113 2584 
Q 1688 2584 1439 2293 
Q 1191 2003 1191 1497 
Q 1191 994 1439 701 
Q 1688 409 2113 409 
Q 2538 409 2786 701 
Q 3034 994 3034 1497 
Q 3034 2003 2786 2293 
Q 2538 2584 2113 2584 
z
M 3366 4563 
L 3366 3988 
Q 3128 4100 2886 4159 
Q 2644 4219 2406 4219 
Q 1781 4219 1451 3797 
Q 1122 3375 1075 2522 
Q 1259 2794 1537 2939 
Q 1816 3084 2150 3084 
Q 2853 3084 3261 2657 
Q 3669 2231 3669 1497 
Q 3669 778 3244 343 
Q 2819 -91 2113 -91 
Q 1303 -91 875 529 
Q 447 1150 447 2328 
Q 447 3434 972 4092 
Q 1497 4750 2381 4750 
Q 2619 4750 2861 4703 
Q 3103 4656 3366 4563 
z
" transform="scale(0.015625)"/>
       </defs>
       <use xlink:href="#DejaVuSans-30"/>
       <use xlink:href="#DejaVuSans-2e" x="63.623047"/>
       <use xlink:href="#DejaVuSans-36" x="95.410156"/>
      </g>
     </g>
    </g>
    <g id="xtick_5">
     <g id="line2d_5">
      <g>
       <use xlink:href="#mf37c9b9de2" x="319.737614" y="288.430125" style="stroke: #000000; stroke-width: 0.8"/>
      </g>
     </g>
     <g id="text_5">
      <!-- 0.8 -->
      <g transform="translate(311.786051 303.028562) scale(0.1 -0.1)">
       <defs>
        <path id="DejaVuSans-38" d="M 2034 2216 
Q 1584 2216 1326 1975 
Q 1069 1734 1069 1313 
Q 1069 891 1326 650 
Q 1584 409 2034 409 
Q 2484 409 2743 651 
Q 3003 894 3003 1313 
Q 3003 1734 2745 1975 
Q 2488 2216 2034 2216 
z
M 1403 2484 
Q 997 2584 770 2862 
Q 544 3141 544 3541 
Q 544 4100 942 4425 
Q 1341 4750 2034 4750 
Q 2731 4750 3128 4425 
Q 3525 4100 3525 3541 
Q 3525 3141 3298 2862 
Q 3072 2584 2669 2484 
Q 3125 2378 3379 2068 
Q 3634 1759 3634 1313 
Q 3634 634 3220 271 
Q 2806 -91 2034 -91 
Q 1263 -91 848 271 
Q 434 634 434 1313 
Q 434 1759 690 2068 
Q 947 2378 1403 2484 
z
M 1172 3481 
Q 1172 3119 1398 2916 
Q 1625 2713 2034 2713 
Q 2441 2713 2670 2916 
Q 2900 3119 2900 3481 
Q 2900 3844 2670 4047 
Q 2441 4250 2034 4250 
Q 1625 4250 1398 4047 
Q 1172 3844 1172 3481 
z
" transform="scale(0.015625)"/>
       </defs>
       <use xlink:href="#DejaVuSans-30"/>
       <use xlink:href="#DejaVuSans-2e" x="63.623047"/>
       <use xlink:href="#DejaVuSans-38" x="95.410156"/>
      </g>
     </g>
    </g>
    <g id="xtick_6">
     <g id="line2d_6">
      <g>
       <use xlink:href="#mf37c9b9de2" x="384.668523" y="288.430125" style="stroke: #000000; stroke-width: 0.8"/>
      </g>
     </g>
     <g id="text_6">
      <!-- 1.0 -->
      <g transform="translate(376.71696 303.028562) scale(0.1 -0.1)">
       <defs>
        <path id="DejaVuSans-31" d="M 794 531 
L 1825 531 
L 1825 4091 
L 703 3866 
L 703 4441 
L 1819 4666 
L 2450 4666 
L 2450 531 
L 3481 531 
L 3481 0 
L 794 0 
L 794 531 
z
" transform="scale(0.015625)"/>
       </defs>
       <use xlink:href="#DejaVuSans-31"/>
       <use xlink:href="#DejaVuSans-2e" x="63.623047"/>
       <use xlink:href="#DejaVuSans-30" x="95.410156"/>
      </g>
     </g>
    </g>
    <g id="text_7">
     <!-- False positive rate -->
     <g transform="translate(176.840469 316.706687) scale(0.1 -0.1)">
      <defs>
       <path id="DejaVuSans-46" d="M 628 4666 
L 3309 4666 
L 3309 4134 
L 1259 4134 
L 1259 2759 
L 3109 2759 
L 3109 2228 
L 1259 2228 
L 1259 0 
L 628 0 
L 628 4666 
z
" transform="scale(0.015625)"/>
       <path id="DejaVuSans-61" d="M 2194 1759 
Q 1497 1759 1228 1600 
Q 959 1441 959 1056 
Q 959 750 1161 570 
Q 1363 391 1709 391 
Q 2188 391 2477 730 
Q 2766 1069 2766 1631 
L 2766 1759 
L 2194 1759 
z
M 3341 1997 
L 3341 0 
L 2766 0 
L 2766 531 
Q 2569 213 2275 61 
Q 1981 -91 1556 -91 
Q 1019 -91 701 211 
Q 384 513 384 1019 
Q 384 1609 779 1909 
Q 1175 2209 1959 2209 
L 2766 2209 
L 2766 2266 
Q 2766 2663 2505 2880 
Q 2244 3097 1772 3097 
Q 1472 3097 1187 3025 
Q 903 2953 641 2809 
L 641 3341 
Q 956 3463 1253 3523 
Q 1550 3584 1831 3584 
Q 2591 3584 2966 3190 
Q 3341 2797 3341 1997 
z
" transform="scale(0.015625)"/>
       <path id="DejaVuSans-6c" d="M 603 4863 
L 1178 4863 
L 1178 0 
L 603 0 
L 603 4863 
z
" transform="scale(0.015625)"/>
       <path id="DejaVuSans-73" d="M 2834 3397 
L 2834 2853 
Q 2591 2978 2328 3040 
Q 2066 3103 1784 3103 
Q 1356 3103 1142 2972 
Q 928 2841 928 2578 
Q 928 2378 1081 2264 
Q 1234 2150 1697 2047 
L 1894 2003 
Q 2506 1872 2764 1633 
Q 3022 1394 3022 966 
Q 3022 478 2636 193 
Q 2250 -91 1575 -91 
Q 1294 -91 989 -36 
Q 684 19 347 128 
L 347 722 
Q 666 556 975 473 
Q 1284 391 1588 391 
Q 1994 391 2212 530 
Q 2431 669 2431 922 
Q 2431 1156 2273 1281 
Q 2116 1406 1581 1522 
L 1381 1569 
Q 847 1681 609 1914 
Q 372 2147 372 2553 
Q 372 3047 722 3315 
Q 1072 3584 1716 3584 
Q 2034 3584 2315 3537 
Q 2597 3491 2834 3397 
z
" transform="scale(0.015625)"/>
       <path id="DejaVuSans-65" d="M 3597 1894 
L 3597 1613 
L 953 1613 
Q 991 1019 1311 708 
Q 1631 397 2203 397 
Q 2534 397 2845 478 
Q 3156 559 3463 722 
L 3463 178 
Q 3153 47 2828 -22 
Q 2503 -91 2169 -91 
Q 1331 -91 842 396 
Q 353 884 353 1716 
Q 353 2575 817 3079 
Q 1281 3584 2069 3584 
Q 2775 3584 3186 3129 
Q 3597 2675 3597 1894 
z
M 3022 2063 
Q 3016 2534 2758 2815 
Q 2500 3097 2075 3097 
Q 1594 3097 1305 2825 
Q 1016 2553 972 2059 
L 3022 2063 
z
" transform="scale(0.015625)"/>
       <path id="DejaVuSans-20" transform="scale(0.015625)"/>
       <path id="DejaVuSans-70" d="M 1159 525 
L 1159 -1331 
L 581 -1331 
L 581 3500 
L 1159 3500 
L 1159 2969 
Q 1341 3281 1617 3432 
Q 1894 3584 2278 3584 
Q 2916 3584 3314 3078 
Q 3713 2572 3713 1747 
Q 3713 922 3314 415 
Q 2916 -91 2278 -91 
Q 1894 -91 1617 61 
Q 1341 213 1159 525 
z
M 3116 1747 
Q 3116 2381 2855 2742 
Q 2594 3103 2138 3103 
Q 1681 3103 1420 2742 
Q 1159 2381 1159 1747 
Q 1159 1113 1420 752 
Q 1681 391 2138 391 
Q 2594 391 2855 752 
Q 3116 1113 3116 1747 
z
" transform="scale(0.015625)"/>
       <path id="DejaVuSans-6f" d="M 1959 3097 
Q 1497 3097 1228 2736 
Q 959 2375 959 1747 
Q 959 1119 1226 758 
Q 1494 397 1959 397 
Q 2419 397 2687 759 
Q 2956 1122 2956 1747 
Q 2956 2369 2687 2733 
Q 2419 3097 1959 3097 
z
M 1959 3584 
Q 2709 3584 3137 3096 
Q 3566 2609 3566 1747 
Q 3566 888 3137 398 
Q 2709 -91 1959 -91 
Q 1206 -91 779 398 
Q 353 888 353 1747 
Q 353 2609 779 3096 
Q 1206 3584 1959 3584 
z
" transform="scale(0.015625)"/>
       <path id="DejaVuSans-69" d="M 603 3500 
L 1178 3500 
L 1178 0 
L 603 0 
L 603 3500 
z
M 603 4863 
L 1178 4863 
L 1178 4134 
L 603 4134 
L 603 4863 
z
" transform="scale(0.015625)"/>
       <path id="DejaVuSans-74" d="M 1172 4494 
L 1172 3500 
L 2356 3500 
L 2356 3053 
L 1172 3053 
L 1172 1153 
Q 1172 725 1289 603 
Q 1406 481 1766 481 
L 2356 481 
L 2356 0 
L 1766 0 
Q 1100 0 847 248 
Q 594 497 594 1153 
L 594 3053 
L 172 3053 
L 172 3500 
L 594 3500 
L 594 4494 
L 1172 4494 
z
" transform="scale(0.015625)"/>
       <path id="DejaVuSans-76" d="M 191 3500 
L 800 3500 
L 1894 563 
L 2988 3500 
L 3597 3500 
L 2284 0 
L 1503 0 
L 191 3500 
z
" transform="scale(0.015625)"/>
       <path id="DejaVuSans-72" d="M 2631 2963 
Q 2534 3019 2420 3045 
Q 2306 3072 2169 3072 
Q 1681 3072 1420 2755 
Q 1159 2438 1159 1844 
L 1159 0 
L 581 0 
L 581 3500 
L 1159 3500 
L 1159 2956 
Q 1341 3275 1631 3429 
Q 1922 3584 2338 3584 
Q 2397 3584 2469 3576 
Q 2541 3569 2628 3553 
L 2631 2963 
z
" transform="scale(0.015625)"/>
      </defs>
      <use xlink:href="#DejaVuSans-46"/>
      <use xlink:href="#DejaVuSans-61" x="48.394531"/>
      <use xlink:href="#DejaVuSans-6c" x="109.673828"/>
      <use xlink:href="#DejaVuSans-73" x="137.457031"/>
      <use xlink:href="#DejaVuSans-65" x="189.556641"/>
      <use xlink:href="#DejaVuSans-20" x="251.080078"/>
      <use xlink:href="#DejaVuSans-70" x="282.867188"/>
      <use xlink:href="#DejaVuSans-6f" x="346.34375"/>
      <use xlink:href="#DejaVuSans-73" x="407.525391"/>
      <use xlink:href="#DejaVuSans-69" x="459.625"/>
      <use xlink:href="#DejaVuSans-74" x="487.408203"/>
      <use xlink:href="#DejaVuSans-69" x="526.617188"/>
      <use xlink:href="#DejaVuSans-76" x="554.400391"/>
      <use xlink:href="#DejaVuSans-65" x="613.580078"/>
      <use xlink:href="#DejaVuSans-20" x="675.103516"/>
      <use xlink:href="#DejaVuSans-72" x="706.890625"/>
      <use xlink:href="#DejaVuSans-61" x="748.003906"/>
      <use xlink:href="#DejaVuSans-74" x="809.283203"/>
      <use xlink:href="#DejaVuSans-65" x="848.492188"/>
     </g>
    </g>
   </g>
   <g id="matplotlib.axis_2">
    <g id="ytick_1">
     <g id="line2d_7">
      <defs>
       <path id="m7b91c1eba2" d="M 0 0 
L -3.5 0 
" style="stroke: #000000; stroke-width: 0.8"/>
      </defs>
      <g>
       <use xlink:href="#m7b91c1eba2" x="43.78125" y="276.334125" style="stroke: #000000; stroke-width: 0.8"/>
      </g>
     </g>
     <g id="text_8">
      <!-- 0.0 -->
      <g transform="translate(20.878125 280.133344) scale(0.1 -0.1)">
       <use xlink:href="#DejaVuSans-30"/>
       <use xlink:href="#DejaVuSans-2e" x="63.623047"/>
       <use xlink:href="#DejaVuSans-30" x="95.410156"/>
      </g>
     </g>
    </g>
    <g id="ytick_2">
     <g id="line2d_8">
      <g>
       <use xlink:href="#m7b91c1eba2" x="43.78125" y="227.950125" style="stroke: #000000; stroke-width: 0.8"/>
      </g>
     </g>
     <g id="text_9">
      <!-- 0.2 -->
      <g transform="translate(20.878125 231.749344) scale(0.1 -0.1)">
       <use xlink:href="#DejaVuSans-30"/>
       <use xlink:href="#DejaVuSans-2e" x="63.623047"/>
       <use xlink:href="#DejaVuSans-32" x="95.410156"/>
      </g>
     </g>
    </g>
    <g id="ytick_3">
     <g id="line2d_9">
      <g>
       <use xlink:href="#m7b91c1eba2" x="43.78125" y="179.566125" style="stroke: #000000; stroke-width: 0.8"/>
      </g>
     </g>
     <g id="text_10">
      <!-- 0.4 -->
      <g transform="translate(20.878125 183.365344) scale(0.1 -0.1)">
       <use xlink:href="#DejaVuSans-30"/>
       <use xlink:href="#DejaVuSans-2e" x="63.623047"/>
       <use xlink:href="#DejaVuSans-34" x="95.410156"/>
      </g>
     </g>
    </g>
    <g id="ytick_4">
     <g id="line2d_10">
      <g>
       <use xlink:href="#m7b91c1eba2" x="43.78125" y="131.182125" style="stroke: #000000; stroke-width: 0.8"/>
      </g>
     </g>
     <g id="text_11">
      <!-- 0.6 -->
      <g transform="translate(20.878125 134.981344) scale(0.1 -0.1)">
       <use xlink:href="#DejaVuSans-30"/>
       <use xlink:href="#DejaVuSans-2e" x="63.623047"/>
       <use xlink:href="#DejaVuSans-36" x="95.410156"/>
      </g>
     </g>
    </g>
    <g id="ytick_5">
     <g id="line2d_11">
      <g>
       <use xlink:href="#m7b91c1eba2" x="43.78125" y="82.798125" style="stroke: #000000; stroke-width: 0.8"/>
      </g>
     </g>
     <g id="text_12">
      <!-- 0.8 -->
      <g transform="translate(20.878125 86.597344) scale(0.1 -0.1)">
       <use xlink:href="#DejaVuSans-30"/>
       <use xlink:href="#DejaVuSans-2e" x="63.623047"/>
       <use xlink:href="#DejaVuSans-38" x="95.410156"/>
      </g>
     </g>
    </g>
    <g id="ytick_6">
     <g id="line2d_12">
      <g>
       <use xlink:href="#m7b91c1eba2" x="43.78125" y="34.414125" style="stroke: #000000; stroke-width: 0.8"/>
      </g>
     </g>
     <g id="text_13">
      <!-- 1.0 -->
      <g transform="translate(20.878125 38.213344) scale(0.1 -0.1)">
       <use xlink:href="#DejaVuSans-31"/>
       <use xlink:href="#DejaVuSans-2e" x="63.623047"/>
       <use xlink:href="#DejaVuSans-30" x="95.410156"/>
      </g>
     </g>
    </g>
    <g id="text_14">
     <!-- True positive rate -->
     <g transform="translate(14.798438 198.938187) rotate(-90) scale(0.1 -0.1)">
      <defs>
       <path id="DejaVuSans-54" d="M -19 4666 
L 3928 4666 
L 3928 4134 
L 2272 4134 
L 2272 0 
L 1638 0 
L 1638 4134 
L -19 4134 
L -19 4666 
z
" transform="scale(0.015625)"/>
       <path id="DejaVuSans-75" d="M 544 1381 
L 544 3500 
L 1119 3500 
L 1119 1403 
Q 1119 906 1312 657 
Q 1506 409 1894 409 
Q 2359 409 2629 706 
Q 2900 1003 2900 1516 
L 2900 3500 
L 3475 3500 
L 3475 0 
L 2900 0 
L 2900 538 
Q 2691 219 2414 64 
Q 2138 -91 1772 -91 
Q 1169 -91 856 284 
Q 544 659 544 1381 
z
M 1991 3584 
L 1991 3584 
z
" transform="scale(0.015625)"/>
      </defs>
      <use xlink:href="#DejaVuSans-54"/>
      <use xlink:href="#DejaVuSans-72" x="46.333984"/>
      <use xlink:href="#DejaVuSans-75" x="87.447266"/>
      <use xlink:href="#DejaVuSans-65" x="150.826172"/>
      <use xlink:href="#DejaVuSans-20" x="212.349609"/>
      <use xlink:href="#DejaVuSans-70" x="244.136719"/>
      <use xlink:href="#DejaVuSans-6f" x="307.613281"/>
      <use xlink:href="#DejaVuSans-73" x="368.794922"/>
      <use xlink:href="#DejaVuSans-69" x="420.894531"/>
      <use xlink:href="#DejaVuSans-74" x="448.677734"/>
      <use xlink:href="#DejaVuSans-69" x="487.886719"/>
      <use xlink:href="#DejaVuSans-76" x="515.669922"/>
      <use xlink:href="#DejaVuSans-65" x="574.849609"/>
      <use xlink:href="#DejaVuSans-20" x="636.373047"/>
      <use xlink:href="#DejaVuSans-72" x="668.160156"/>
      <use xlink:href="#DejaVuSans-61" x="709.273438"/>
      <use xlink:href="#DejaVuSans-74" x="770.552734"/>
      <use xlink:href="#DejaVuSans-65" x="809.761719"/>
     </g>
    </g>
   </g>
   <g id="line2d_13">
    <path d="M 60.013977 276.334125 
L 60.074461 276.224462 
L 60.18553 275.662439 
L 60.216322 275.552776 
L 60.326292 274.997607 
L 60.357084 274.887944 
L 60.467054 274.476708 
L 60.503344 274.370472 
L 60.614413 273.89755 
L 60.639707 273.787887 
L 60.750776 273.314966 
L 60.784867 273.205303 
L 60.890438 272.787212 
L 60.917931 272.680976 
L 61.029 272.259459 
L 61.06859 272.153223 
L 61.179659 271.694009 
L 61.210451 271.584346 
L 61.321521 271.121706 
L 61.355611 271.012043 
L 61.466681 270.628222 
L 61.496373 270.518559 
L 61.606343 270.07648 
L 61.631636 269.980525 
L 61.742706 269.442491 
L 61.777896 269.349963 
L 61.888966 268.90103 
L 61.916458 268.794794 
L 62.026428 268.366423 
L 62.069317 268.260187 
L 62.179287 267.914063 
L 62.205679 267.8044 
L 62.31455 267.509681 
L 62.358538 267.403445 
L 62.468508 267.04704 
L 62.513595 266.937377 
L 62.622466 266.567264 
L 62.663155 266.464455 
L 62.773125 266.145747 
L 62.799517 266.046365 
L 62.906188 265.665972 
L 62.958974 265.556309 
L 63.070044 265.175915 
L 63.109633 265.069679 
L 63.220703 264.754398 
L 63.254793 264.655016 
L 63.364763 264.353442 
L 63.403253 264.243779 
L 63.513223 263.863386 
L 63.547314 263.753723 
L 63.656184 263.376756 
L 63.697972 263.267093 
L 63.807942 262.951812 
L 63.85413 262.845576 
L 63.9641 262.444621 
L 64.005888 262.348666 
L 64.113659 262.067654 
L 64.144451 261.957991 
L 64.25552 261.652991 
L 64.290711 261.557036 
L 64.40178 261.238328 
L 64.435871 261.128665 
L 64.546941 260.789395 
L 64.593128 260.690013 
L 64.699799 260.412429 
L 64.747086 260.306192 
L 64.852657 259.97035 
L 64.924138 259.864114 
L 65.035208 259.552259 
L 65.0627 259.442596 
L 65.17157 259.189001 
L 65.224356 259.089619 
L 65.335426 258.743495 
L 65.371716 258.637259 
L 65.482786 258.287708 
L 65.521275 258.184899 
L 65.630145 257.866191 
L 65.669735 257.759955 
L 65.779705 257.451528 
L 65.841288 257.341865 
L 65.952357 257.09855 
L 65.982049 257.006022 
L 66.08982 256.635909 
L 66.144805 256.539954 
L 66.255875 256.2281 
L 66.297663 256.118437 
L 66.408733 255.792875 
L 66.465917 255.683212 
L 66.575887 255.367931 
L 66.609978 255.258268 
L 66.718848 254.884728 
L 66.759537 254.778492 
L 66.866208 254.466638 
L 66.924492 254.356975 
L 67.028964 254.099952 
L 67.088348 253.990289 
L 67.196118 253.709278 
L 67.248904 253.599615 
L 67.359974 253.287761 
L 67.411659 253.181525 
L 67.51943 252.845682 
L 67.571116 252.736019 
L 67.679986 252.437872 
L 67.722875 252.335063 
L 67.832845 251.95467 
L 67.864736 251.845007 
L 67.975806 251.591411 
L 68.015395 251.485175 
L 68.125365 251.169894 
L 68.183649 251.060231 
L 68.293619 250.7895 
L 68.331009 250.683264 
L 68.440979 250.361129 
L 68.516858 250.254893 
L 68.627928 249.997871 
L 68.667517 249.888208 
L 68.778587 249.566073 
L 68.815976 249.476971 
L 68.927046 249.158263 
L 68.977632 249.052027 
L 69.087602 248.781297 
L 69.138189 248.671634 
L 69.248159 248.339218 
L 69.310841 248.229555 
L 69.420811 247.975959 
L 69.4615 247.876577 
L 69.57147 247.581858 
L 69.60776 247.472195 
L 69.713332 247.201464 
L 69.765018 247.091801 
L 69.876087 246.797082 
L 69.911278 246.687419 
L 70.022347 246.440677 
L 70.072934 246.331014 
L 70.184003 246.09798 
L 70.245586 245.988317 
L 70.352257 245.707306 
L 70.418239 245.607924 
L 70.52711 245.347474 
L 70.580995 245.241238 
L 70.692065 244.970508 
L 70.740451 244.860845 
L 70.850421 244.600395 
L 70.924101 244.490732 
L 71.034071 244.274833 
L 71.089056 244.172024 
L 71.199026 243.918428 
L 71.250712 243.812192 
L 71.359583 243.620282 
L 71.394773 243.517473 
L 71.505843 243.253596 
L 71.548731 243.14736 
L 71.653202 242.928034 
L 71.701589 242.818371 
L 71.812659 242.557922 
L 71.873143 242.448259 
L 71.984212 242.201517 
L 72.046895 242.091854 
L 72.157965 241.89309 
L 72.226146 241.790281 
L 72.335017 241.536685 
L 72.392201 241.427022 
L 72.503271 241.149438 
L 72.552757 241.039775 
L 72.661627 240.823876 
L 72.717712 240.714213 
L 72.822184 240.464044 
L 72.866172 240.357808 
L 72.976142 240.176178 
L 73.01903 240.066515 
L 73.1301 239.795785 
L 73.193882 239.686122 
L 73.298354 239.456515 
L 73.344541 239.346852 
L 73.452312 239.120672 
L 73.503998 239.014436 
L 73.612868 238.812245 
L 73.660155 238.702582 
L 73.769025 238.431851 
L 73.831708 238.322188 
L 73.940579 238.03775 
L 73.993364 237.945222 
L 74.103334 237.749885 
L 74.164917 237.640222 
L 74.275987 237.283817 
L 74.335371 237.177581 
L 74.444241 236.944547 
L 74.490429 236.834884 
L 74.600399 236.581288 
L 74.652085 236.471625 
L 74.762055 236.204322 
L 74.812641 236.094659 
L 74.919312 235.899322 
L 74.986393 235.789659 
L 75.097463 235.625164 
L 75.159046 235.515501 
L 75.269016 235.299602 
L 75.320702 235.20022 
L 75.430672 234.987748 
L 75.488956 234.878085 
L 75.598926 234.63477 
L 75.65941 234.525107 
L 75.770479 234.281792 
L 75.80567 234.172129 
L 75.91344 233.894545 
L 75.980522 233.788309 
L 76.090492 233.555275 
L 76.144377 233.445612 
L 76.255447 233.219432 
L 76.306033 233.109769 
L 76.417103 232.897297 
L 76.483085 232.787634 
L 76.594155 232.571735 
L 76.650239 232.465499 
L 76.75911 232.311285 
L 76.818494 232.205049 
L 76.928464 231.972015 
L 76.980149 231.862352 
L 77.08682 231.625892 
L 77.144005 231.516229 
L 77.255074 231.307184 
L 77.302362 231.197521 
L 77.413431 230.967914 
L 77.471715 230.861678 
L 77.582785 230.635498 
L 77.633371 230.529262 
L 77.744441 230.289374 
L 77.811523 230.186565 
L 77.922592 229.967239 
L 77.985275 229.86443 
L 78.095245 229.590272 
L 78.145832 229.480609 
L 78.252502 229.257856 
L 78.307487 229.148193 
L 78.417457 228.884317 
L 78.484539 228.774654 
L 78.59231 228.569036 
L 78.648394 228.47308 
L 78.758364 228.339429 
L 78.816649 228.233193 
L 78.927718 228.013867 
L 78.982703 227.904204 
L 79.092673 227.698585 
L 79.156456 227.592349 
L 79.267526 227.397012 
L 79.335707 227.287349 
L 79.440178 227.050888 
L 79.496263 226.944652 
L 79.605133 226.697911 
L 79.662318 226.591675 
L 79.767889 226.327798 
L 79.820675 226.23527 
L 79.931744 225.985101 
L 79.988929 225.875438 
L 80.099998 225.621842 
L 80.148385 225.512179 
L 80.258355 225.313415 
L 80.31334 225.207179 
L 80.42331 225.008415 
L 80.502489 224.898752 
L 80.612459 224.628022 
L 80.690537 224.518359 
L 80.796109 224.316167 
L 80.878586 224.206504 
L 80.989656 223.990605 
L 81.042441 223.880942 
L 81.149112 223.723302 
L 81.201898 223.613639 
L 81.310768 223.414875 
L 81.37785 223.308639 
L 81.48782 223.106447 
L 81.565899 222.996784 
L 81.674769 222.83229 
L 81.727555 222.722627 
L 81.838624 222.510155 
L 81.895809 222.403919 
L 81.995881 222.239424 
L 82.057465 222.129761 
L 82.167435 221.934424 
L 82.225719 221.824761 
L 82.334589 221.605435 
L 82.395072 221.495772 
L 82.500644 221.290154 
L 82.577623 221.180491 
L 82.688692 220.985154 
L 82.73268 220.878918 
L 82.840451 220.663019 
L 82.914131 220.556783 
L 83.019702 220.368299 
L 83.081285 220.26549 
L 83.191255 220.042737 
L 83.269334 219.933074 
L 83.376005 219.720602 
L 83.445286 219.610939 
L 83.555256 219.449872 
L 83.620138 219.340209 
L 83.727909 219.134591 
L 83.802689 219.031782 
L 83.912659 218.802175 
L 83.984139 218.692512 
L 84.093009 218.44577 
L 84.150194 218.336107 
L 84.253566 218.157905 
L 84.325046 218.048242 
L 84.435016 217.859758 
L 84.496599 217.750095 
L 84.607669 217.558185 
L 84.651657 217.448522 
L 84.752829 217.31487 
L 84.82541 217.205207 
L 84.936479 217.003016 
L 84.983766 216.893353 
L 85.094836 216.708297 
L 85.15312 216.602061 
L 85.26199 216.430712 
L 85.352166 216.321049 
L 85.462136 216.13942 
L 85.558909 216.029757 
L 85.66888 215.83442 
L 85.742559 215.724757 
L 85.853629 215.512285 
L 85.936107 215.406049 
L 86.043877 215.149026 
L 86.10656 215.039363 
L 86.214331 214.878296 
L 86.294609 214.768633 
L 86.403479 214.587003 
L 86.495854 214.480767 
L 86.606924 214.305992 
L 86.705897 214.196329 
L 86.815867 214.02498 
L 86.882948 213.929025 
L 86.992918 213.706272 
L 87.076496 213.596609 
L 87.186466 213.401272 
L 87.24475 213.291609 
L 87.35472 213.116834 
L 87.420702 213.007171 
L 87.531771 212.815261 
L 87.595554 212.705598 
L 87.702225 212.517114 
L 87.767107 212.407451 
L 87.871579 212.256665 
L 87.971651 212.147002 
L 88.081621 211.937957 
L 88.136606 211.831721 
L 88.247676 211.684361 
L 88.326854 211.574698 
L 88.436825 211.399922 
L 88.514903 211.297113 
L 88.620474 211.094922 
L 88.683157 210.988686 
L 88.790928 210.786495 
L 88.915194 210.676832 
L 89.022965 210.488349 
L 89.086747 210.382113 
L 89.194518 210.145652 
L 89.283594 210.035989 
L 89.391364 209.754977 
L 89.460645 209.645314 
L 89.571715 209.439696 
L 89.635498 209.330033 
L 89.746567 209.093573 
L 89.823546 208.98391 
L 89.931317 208.75773 
L 90.010495 208.651494 
L 90.119366 208.49728 
L 90.191946 208.387617 
L 90.299716 208.223122 
L 90.365698 208.113459 
L 90.475668 207.962673 
L 90.57904 207.856437 
L 90.686811 207.643965 
L 90.781385 207.534302 
L 90.883657 207.386942 
L 90.988129 207.277279 
L 91.099198 207.105931 
L 91.156383 206.996268 
L 91.266353 206.824919 
L 91.326836 206.715256 
L 91.436806 206.557616 
L 91.53468 206.447953 
L 91.64245 206.286885 
L 91.740323 206.177222 
L 91.850293 206.016155 
L 91.926173 205.916773 
L 92.035043 205.748851 
L 92.11972 205.639188 
L 92.23079 205.436997 
L 92.317666 205.330761 
L 92.425437 205.108008 
L 92.544204 205.001772 
L 92.654174 204.809862 
L 92.753147 204.703626 
L 92.860918 204.521996 
L 92.947794 204.41576 
L 93.053365 204.264974 
L 93.136942 204.155311 
L 93.248012 203.939412 
L 93.319493 203.829749 
L 93.429463 203.627557 
L 93.497644 203.517894 
L 93.604315 203.363681 
L 93.654901 203.254018 
L 93.761572 203.123793 
L 93.84295 203.017557 
L 93.95402 202.85649 
L 94.050793 202.746827 
L 94.159664 202.548062 
L 94.242141 202.438399 
L 94.349912 202.273905 
L 94.423592 202.167669 
L 94.532462 202.006601 
L 94.61164 201.900365 
L 94.72271 201.722163 
L 94.801888 201.6125 
L 94.911858 201.417163 
L 94.97784 201.3075 
L 95.086711 201.143005 
L 95.147194 201.036769 
L 95.254965 200.892836 
L 95.352838 200.783173 
L 95.463908 200.604971 
L 95.552983 200.495308 
L 95.664053 200.317106 
L 95.768525 200.207443 
L 95.879594 200.053229 
L 95.952175 199.943566 
L 96.057746 199.779072 
L 96.133625 199.672836 
L 96.242495 199.539184 
L 96.296381 199.429521 
L 96.406351 199.265026 
L 96.48113 199.155363 
L 96.5911 199.008004 
L 96.658182 198.898341 
L 96.764853 198.747554 
L 96.874823 198.644745 
L 96.977095 198.463116 
L 97.050775 198.353453 
L 97.160745 198.178677 
L 97.25312 198.069014 
L 97.358691 197.90452 
L 97.427972 197.798284 
L 97.532444 197.664632 
L 97.633616 197.554969 
L 97.733689 197.411036 
L 97.849157 197.301373 
L 97.960227 197.123171 
L 98.033907 197.013508 
L 98.144976 196.866148 
L 98.220856 196.756485 
L 98.326427 196.612553 
L 98.38801 196.506317 
L 98.49908 196.331541 
L 98.593654 196.221878 
L 98.700325 196.060811 
L 98.7927 195.951148 
L 98.903769 195.748956 
L 98.988446 195.639294 
L 99.095117 195.509069 
L 99.167697 195.399406 
L 99.278767 195.248619 
L 99.370042 195.142383 
L 99.477813 194.981316 
L 99.605378 194.875079 
L 99.715348 194.734574 
L 99.816521 194.624911 
L 99.920992 194.491259 
L 100.028763 194.381596 
L 100.137633 194.247944 
L 100.244304 194.141708 
L 100.354274 193.946371 
L 100.447748 193.836708 
L 100.558818 193.70991 
L 100.637996 193.600247 
L 100.749066 193.432326 
L 100.848039 193.332944 
L 100.95581 193.185584 
L 101.02839 193.075921 
L 101.13836 192.931988 
L 101.256028 192.822325 
L 101.365998 192.637269 
L 101.427581 192.527606 
L 101.538651 192.376819 
L 101.593636 192.270583 
L 101.703606 192.123224 
L 101.806978 192.013561 
L 101.918047 191.845639 
L 102.030217 191.739403 
L 102.141286 191.544066 
L 102.235861 191.441257 
L 102.343631 191.269908 
L 102.454701 191.160245 
L 102.558073 190.995751 
L 102.652647 190.889515 
L 102.763717 190.783279 
L 102.839596 190.673616 
L 102.949566 190.550245 
L 103.018847 190.440582 
L 103.129917 190.279514 
L 103.207995 190.176705 
L 103.316866 190.046481 
L 103.388346 189.936818 
L 103.498316 189.768896 
L 103.597289 189.659233 
L 103.70616 189.518727 
L 103.782039 189.415918 
L 103.892009 189.234289 
L 103.982184 189.128053 
L 104.089955 188.949851 
L 104.195526 188.840188 
L 104.305496 188.751086 
L 104.391273 188.64485 
L 104.502342 188.48721 
L 104.618911 188.377547 
L 104.72998 188.219906 
L 104.825654 188.110243 
L 104.935624 187.959457 
L 105.027999 187.853221 
L 105.13577 187.69558 
L 105.213848 187.592771 
L 105.313921 187.431704 
L 105.407396 187.322041 
L 105.512967 187.171254 
L 105.605342 187.061591 
L 105.715312 186.879962 
L 105.817584 186.773726 
L 105.927554 186.664063 
L 105.988037 186.5544 
L 106.095808 186.389905 
L 106.184883 186.280242 
L 106.295953 186.14659 
L 106.370733 186.040354 
L 106.465307 185.896422 
L 106.568679 185.786759 
L 106.679748 185.632545 
L 106.778721 185.522882 
L 106.888691 185.35496 
L 106.960172 185.245297 
L 107.071242 185.056814 
L 107.131725 184.954005 
L 107.239496 184.762095 
L 107.361562 184.652432 
L 107.462735 184.505072 
L 107.537514 184.395409 
L 107.646385 184.217207 
L 107.73656 184.107544 
L 107.84763 183.95333 
L 107.948802 183.843667 
L 108.055473 183.713442 
L 108.123655 183.603779 
L 108.232525 183.452993 
L 108.307305 183.34333 
L 108.413975 183.219959 
L 108.497553 183.110296 
L 108.607523 182.921813 
L 108.72629 182.81215 
L 108.832961 182.675071 
L 108.935233 182.565408 
L 109.041904 182.43861 
L 109.126581 182.332374 
L 109.236551 182.195295 
L 109.304732 182.085632 
L 109.414702 181.917711 
L 109.511476 181.808048 
L 109.622546 181.588722 
L 109.71822 181.479059 
L 109.82709 181.362542 
L 109.910667 181.256306 
L 110.016238 181.078104 
L 110.108613 180.968441 
L 110.217483 180.807373 
L 110.347248 180.701137 
L 110.458318 180.564058 
L 110.528699 180.454395 
L 110.63537 180.341305 
L 110.746439 180.235069 
L 110.85531 180.084283 
L 110.945485 179.97462 
L 111.054355 179.854676 
L 111.14673 179.745013 
L 111.2556 179.611361 
L 111.36667 179.508552 
L 111.468942 179.402316 
L 111.558018 179.292653 
L 111.66139 179.169282 
L 111.764761 179.059619 
L 111.872532 178.92254 
L 111.988001 178.812877 
L 112.097971 178.675799 
L 112.191445 178.566136 
L 112.302515 178.435911 
L 112.401488 178.326248 
L 112.512557 178.158326 
L 112.609331 178.048663 
L 112.717102 177.942427 
L 112.801779 177.839618 
L 112.910649 177.640854 
L 112.973332 177.531191 
L 113.084401 177.387258 
L 113.154782 177.277595 
L 113.259254 177.157651 
L 113.325236 177.047988 
L 113.434106 176.890348 
L 113.504487 176.784112 
L 113.613357 176.633325 
L 113.700234 176.527089 
L 113.811303 176.372876 
L 113.902578 176.263213 
L 114.011449 176.139842 
L 114.106023 176.030179 
L 114.217093 175.865684 
L 114.284174 175.756021 
L 114.393045 175.618942 
L 114.48432 175.509279 
L 114.595389 175.392763 
L 114.711958 175.2831 
L 114.820828 175.17001 
L 114.949493 175.060347 
L 115.057263 174.912987 
L 115.151838 174.806751 
L 115.256309 174.710796 
L 115.36298 174.60456 
L 115.47405 174.488043 
L 115.548829 174.37838 
L 115.6566 174.23102 
L 115.741277 174.121357 
L 115.851247 173.994559 
L 115.94802 173.89175 
L 116.05909 173.727256 
L 116.184456 173.617593 
L 116.295526 173.446244 
L 116.364807 173.336581 
L 116.475876 173.24748 
L 116.541858 173.137817 
L 116.652928 172.980177 
L 116.745303 172.873941 
L 116.856373 172.740289 
L 116.952047 172.634053 
L 117.063116 172.486693 
L 117.141195 172.380457 
L 117.251165 172.212536 
L 117.356736 172.102873 
L 117.461208 171.972648 
L 117.559081 171.862985 
L 117.669051 171.712198 
L 117.816411 171.602535 
L 117.92748 171.434614 
L 118.025354 171.324951 
L 118.129825 171.208434 
L 118.243094 171.098771 
L 118.354164 170.954838 
L 118.439941 170.845175 
L 118.548811 170.71495 
L 118.601597 170.608714 
L 118.712666 170.440793 
L 118.84573 170.33113 
L 118.9568 170.221467 
L 119.081066 170.115231 
L 119.189936 169.971298 
L 119.288909 169.861635 
L 119.393381 169.721129 
L 119.527544 169.611466 
L 119.636414 169.498376 
L 119.729889 169.388713 
L 119.838759 169.258489 
L 119.954228 169.148826 
L 120.061998 169.04259 
L 120.152174 168.936354 
L 120.255545 168.792421 
L 120.373213 168.682758 
L 120.483183 168.55596 
L 120.562362 168.446297 
L 120.666833 168.350342 
L 120.765806 168.240679 
L 120.866979 168.134443 
L 120.992344 168.02478 
L 121.097916 167.856858 
L 121.171596 167.750622 
L 121.271668 167.610117 
L 121.384937 167.500454 
L 121.494907 167.335959 
L 121.607077 167.226296 
L 121.715947 167.130341 
L 121.841313 167.020678 
L 121.949084 166.935004 
L 122.052455 166.825341 
L 122.158027 166.739667 
L 122.285592 166.630004 
L 122.396661 166.468936 
L 122.534124 166.359273 
L 122.645194 166.167363 
L 122.741967 166.071408 
L 122.84094 165.948037 
L 122.945412 165.841801 
L 123.056481 165.680733 
L 123.175249 165.57107 
L 123.28192 165.447699 
L 123.39299 165.338036 
L 123.498561 165.218093 
L 123.608531 165.10843 
L 123.711903 164.971351 
L 123.811975 164.861688 
L 123.921945 164.755452 
L 124.039613 164.645789 
L 124.148484 164.481294 
L 124.238659 164.371631 
L 124.348629 164.296238 
L 124.469596 164.190002 
L 124.578466 164.05635 
L 124.648847 163.946687 
L 124.758817 163.813035 
L 124.85669 163.703372 
L 124.964461 163.576575 
L 125.064534 163.466912 
L 125.174504 163.312698 
L 125.272377 163.203035 
L 125.37245 163.086518 
L 125.484619 162.980282 
L 125.595689 162.856911 
L 125.681465 162.750675 
L 125.792535 162.617023 
L 125.880511 162.514214 
L 125.991581 162.407978 
L 126.079557 162.298315 
L 126.185128 162.195506 
L 126.306095 162.085843 
L 126.417165 162.017304 
L 126.524935 161.907641 
L 126.626108 161.78427 
L 126.720682 161.681461 
L 126.831752 161.527247 
L 126.938423 161.417584 
L 127.045093 161.307921 
L 127.16716 161.198258 
L 127.274931 161.074887 
L 127.360707 160.968651 
L 127.470677 160.831573 
L 127.577348 160.72191 
L 127.684019 160.601966 
L 127.779693 160.492303 
L 127.890763 160.375786 
L 127.986437 160.266123 
L 128.097506 160.177022 
L 128.204177 160.067359 
L 128.314147 159.967977 
L 128.423018 159.86174 
L 128.529689 159.734943 
L 128.630861 159.62528 
L 128.740831 159.474493 
L 128.885991 159.36483 
L 128.995961 159.238032 
L 129.120227 159.131796 
L 129.227998 158.994717 
L 129.326971 158.885054 
L 129.433642 158.789099 
L 129.527116 158.679436 
L 129.635987 158.583481 
L 129.741558 158.473818 
L 129.850428 158.340166 
L 129.979093 158.230503 
L 130.087964 158.086571 
L 130.184737 157.976908 
L 130.294707 157.812413 
L 130.387082 157.70275 
L 130.497052 157.579379 
L 130.596025 157.469716 
L 130.703796 157.370334 
L 130.804968 157.260671 
L 130.900642 157.185278 
L 130.984219 157.075615 
L 131.094189 156.965952 
L 131.184364 156.856289 
L 131.295434 156.746626 
L 131.453791 156.636963 
L 131.561562 156.5273 
L 131.681429 156.421064 
L 131.787 156.338817 
L 131.887073 156.229154 
L 131.998142 156.092075 
L 132.086118 155.982412 
L 132.196088 155.862468 
L 132.297261 155.752805 
L 132.408331 155.646569 
L 132.517201 155.536906 
L 132.628271 155.423816 
L 132.732742 155.314153 
L 132.840513 155.228479 
L 132.971377 155.118816 
L 133.082447 154.995445 
L 133.182519 154.885782 
L 133.293589 154.7864 
L 133.392562 154.676737 
L 133.503632 154.539658 
L 133.625699 154.429995 
L 133.733469 154.292916 
L 133.819246 154.193534 
L 133.924817 154.083871 
L 133.995198 153.977635 
L 134.105168 153.854264 
L 134.215138 153.744601 
L 134.325108 153.617804 
L 134.42848 153.508141 
L 134.53735 153.360781 
L 134.650619 153.251118 
L 134.760589 153.114039 
L 134.863961 153.007803 
L 134.966233 152.915275 
L 135.063006 152.805612 
L 135.172976 152.658252 
L 135.296143 152.552016 
L 135.403914 152.418365 
L 135.538077 152.312128 
L 135.642548 152.202465 
L 135.799806 152.092802 
L 135.907576 151.996847 
L 135.990054 151.887184 
L 136.096725 151.750106 
L 136.192398 151.650724 
L 136.29797 151.544488 
L 136.448629 151.434825 
L 136.559698 151.342296 
L 136.715856 151.23606 
L 136.826925 151.136678 
L 136.907203 151.027015 
L 137.018273 150.89679 
L 137.116146 150.787127 
L 137.226116 150.656903 
L 137.351482 150.54724 
L 137.460353 150.427296 
L 137.556026 150.32106 
L 137.665996 150.214824 
L 137.771568 150.105161 
L 137.880438 149.954374 
L 137.992607 149.844711 
L 138.100378 149.752183 
L 138.207049 149.64252 
L 138.317019 149.498587 
L 138.408294 149.388924 
L 138.513865 149.310104 
L 138.627134 149.200441 
L 138.738204 149.059935 
L 138.884464 148.950272 
L 138.994434 148.871452 
L 139.123099 148.761789 
L 139.22867 148.621283 
L 139.318846 148.51162 
L 139.418918 148.381395 
L 139.556381 148.271732 
L 139.667451 148.144935 
L 139.845602 148.035272 
L 139.953373 147.922182 
L 140.096334 147.815946 
L 140.205204 147.723417 
L 140.332769 147.613754 
L 140.443839 147.500664 
L 140.526316 147.391001 
L 140.634087 147.322462 
L 140.742957 147.216226 
L 140.847429 147.099709 
L 140.984891 146.990046 
L 141.092662 146.84954 
L 141.213629 146.743304 
L 141.324699 146.619934 
L 141.497351 146.510271 
L 141.608421 146.376619 
L 141.730488 146.266956 
L 141.841558 146.164147 
L 141.963624 146.054484 
L 142.072495 145.937967 
L 142.214356 145.835158 
L 142.315528 145.684371 
L 142.448592 145.574708 
L 142.553063 145.461618 
L 142.645438 145.351955 
L 142.753209 145.214876 
L 142.829088 145.105213 
L 142.934659 145.009258 
L 143.020436 144.899595 
L 143.127107 144.752236 
L 143.26127 144.642573 
L 143.367941 144.546617 
L 143.451518 144.436954 
L 143.55599 144.323864 
L 143.697851 144.214201 
L 143.808921 144.090831 
L 143.912293 143.981168 
L 144.009066 143.868078 
L 144.131133 143.765269 
L 144.241103 143.641898 
L 144.352173 143.532235 
L 144.457744 143.419145 
L 144.554518 143.309482 
L 144.662288 143.230661 
L 144.771158 143.120998 
L 144.881128 143.021616 
L 145.010893 142.91538 
L 145.121963 142.809144 
L 145.252827 142.699481 
L 145.362797 142.617234 
L 145.468368 142.507571 
L 145.579438 142.41847 
L 145.691607 142.308807 
L 145.800478 142.168301 
L 145.932442 142.058638 
L 146.043511 141.959256 
L 146.134786 141.85302 
L 146.245856 141.7742 
L 146.337131 141.667964 
L 146.443802 141.568582 
L 146.56037 141.458919 
L 146.67144 141.376671 
L 146.814401 141.267008 
L 146.921072 141.157345 
L 147.049737 141.047682 
L 147.155308 140.951727 
L 147.304867 140.845491 
L 147.412638 140.749536 
L 147.543502 140.639873 
L 147.642475 140.543918 
L 147.760143 140.434255 
L 147.867914 140.286895 
L 147.983382 140.180659 
L 148.087854 140.098412 
L 148.206621 139.988749 
L 148.313292 139.848243 
L 148.447456 139.742007 
L 148.556326 139.632344 
L 148.672894 139.522681 
L 148.782864 139.392457 
L 148.90823 139.282794 
L 149.0182 139.169704 
L 149.156762 139.063468 
L 149.267832 138.950378 
L 149.376702 138.840715 
L 149.485573 138.727625 
L 149.626334 138.617962 
L 149.736304 138.508299 
L 149.856171 138.402063 
L 149.961743 138.237568 
L 150.067314 138.127905 
L 150.176184 138.03195 
L 150.296051 137.922287 
L 150.407121 137.846894 
L 150.515991 137.737231 
L 150.616064 137.630995 
L 150.788717 137.521332 
L 150.899787 137.418523 
L 151.011956 137.312287 
L 151.123026 137.185489 
L 151.269286 137.075826 
L 151.378156 136.959309 
L 151.517818 136.849646 
L 151.62119 136.770826 
L 151.736658 136.661163 
L 151.847728 136.530938 
L 151.997287 136.421275 
L 152.105058 136.294477 
L 152.228224 136.184814 
L 152.339294 136.027173 
L 152.458062 135.91751 
L 152.558134 135.818128 
L 152.659307 135.711892 
L 152.770377 135.598802 
L 152.883646 135.489139 
L 152.991416 135.369195 
L 153.100287 135.259532 
L 153.211356 135.190993 
L 153.318027 135.08133 
L 153.427997 134.981948 
L 153.522571 134.872285 
L 153.633641 134.755768 
L 153.753508 134.649532 
L 153.860179 134.560431 
L 153.951454 134.450768 
L 154.061424 134.395936 
L 154.170295 134.286273 
L 154.275866 134.173183 
L 154.44302 134.066947 
L 154.55299 133.919588 
L 154.705849 133.809925 
L 154.816918 133.755093 
L 154.959879 133.64543 
L 155.069849 133.559756 
L 155.226007 133.450093 
L 155.334877 133.347284 
L 155.473439 133.244475 
L 155.584509 133.121104 
L 155.657089 133.011441 
L 155.768159 132.939475 
L 155.894624 132.829812 
L 156.002395 132.716722 
L 156.160752 132.610486 
L 156.267423 132.521384 
L 156.413683 132.415148 
L 156.523653 132.302058 
L 156.715001 132.192395 
L 156.82607 132.106721 
L 156.912947 131.997058 
L 157.00972 131.890822 
L 157.125189 131.784586 
L 157.236258 131.661215 
L 157.350627 131.554979 
L 157.458398 131.476159 
L 157.580465 131.366496 
L 157.689335 131.270541 
L 157.790507 131.160878 
L 157.901577 131.085484 
L 158.012647 130.975821 
L 158.123716 130.876439 
L 158.274375 130.766776 
L 158.382146 130.711945 
L 158.507512 130.605709 
L 158.617482 130.523462 
L 158.796733 130.413799 
L 158.901204 130.334978 
L 159.016673 130.225315 
L 159.124443 130.136214 
L 159.242111 130.029978 
L 159.353181 129.923742 
L 159.517036 129.817506 
L 159.628106 129.71127 
L 159.756771 129.601607 
L 159.867841 129.464528 
L 159.967913 129.358292 
L 160.078983 129.272618 
L 160.186754 129.162955 
L 160.289026 129.090989 
L 160.462778 128.981326 
L 160.573848 128.87509 
L 160.739903 128.765427 
L 160.842175 128.655764 
L 161.04342 128.546101 
L 161.15449 128.443292 
L 161.315046 128.333629 
L 161.416218 128.237674 
L 161.571276 128.128011 
L 161.681246 128.062898 
L 161.826406 127.953235 
L 161.928678 127.805875 
L 162.056244 127.696212 
L 162.166214 127.617392 
L 162.334468 127.507729 
L 162.445537 127.40492 
L 162.573103 127.295257 
L 162.672076 127.223291 
L 162.793043 127.120482 
L 162.904112 127.014246 
L 163.02288 126.90801 
L 163.128451 126.818908 
L 163.262615 126.716099 
L 163.371485 126.599582 
L 163.490253 126.489919 
L 163.598023 126.383683 
L 163.728887 126.277447 
L 163.837758 126.154077 
L 163.982918 126.044414 
L 164.091788 125.914189 
L 164.250145 125.804526 
L 164.353517 125.725705 
L 164.536067 125.616042 
L 164.63504 125.51666 
L 164.743911 125.413851 
L 164.842884 125.304188 
L 164.942956 125.197952 
L 165.054026 125.084862 
L 165.226679 124.975199 
L 165.325652 124.916941 
L 165.467513 124.807278 
L 165.577483 124.738738 
L 165.710547 124.632502 
L 165.815018 124.539974 
L 165.951381 124.430311 
L 166.061351 124.327502 
L 166.179019 124.217839 
L 166.28459 124.135592 
L 166.418754 124.025929 
L 166.526524 123.953963 
L 166.673884 123.8443 
L 166.779455 123.738064 
L 166.952108 123.628401 
L 167.059879 123.546153 
L 167.214937 123.439917 
L 167.322707 123.319973 
L 167.474466 123.21031 
L 167.578937 123.114355 
L 167.694406 123.004692 
L 167.805475 122.912164 
L 167.97043 122.802501 
L 168.0804 122.733962 
L 168.214564 122.624299 
L 168.325634 122.504355 
L 168.474093 122.394692 
L 168.581864 122.315872 
L 168.724825 122.206209 
L 168.834795 122.134242 
L 168.979955 122.024579 
L 169.088825 121.945759 
L 169.232886 121.836096 
L 169.342856 121.753849 
L 169.456125 121.644186 
L 169.567195 121.544804 
L 169.687062 121.435141 
L 169.793733 121.318624 
L 169.993879 121.208961 
L 170.100549 121.116433 
L 170.217118 121.00677 
L 170.325988 120.924522 
L 170.50084 120.814859 
L 170.61081 120.739466 
L 170.738375 120.629803 
L 170.848345 120.581825 
L 171.000104 120.472162 
L 171.108974 120.376207 
L 171.27283 120.276825 
L 171.3817 120.163735 
L 171.522462 120.054072 
L 171.633531 119.923847 
L 171.759997 119.814184 
L 171.865568 119.738791 
L 172.011828 119.629128 
L 172.121798 119.522892 
L 172.242765 119.413229 
L 172.353835 119.341263 
L 172.479201 119.2316 
L 172.589171 119.149353 
L 172.70244 119.03969 
L 172.813509 118.964296 
L 172.941075 118.854633 
L 173.051045 118.741543 
L 173.174211 118.63188 
L 173.285281 118.563341 
L 173.431541 118.457105 
L 173.528314 118.368004 
L 173.675674 118.258341 
L 173.780146 118.152105 
L 173.91101 118.042442 
L 174.02208 117.973902 
L 174.118853 117.871093 
L 174.229923 117.781992 
L 174.386081 117.672329 
L 174.492751 117.576374 
L 174.611519 117.470138 
L 174.722589 117.367329 
L 174.891943 117.257666 
L 174.994215 117.158284 
L 175.138275 117.048621 
L 175.243847 116.949239 
L 175.407702 116.843003 
L 175.518772 116.740194 
L 175.711219 116.633958 
L 175.822289 116.496879 
L 175.956452 116.387216 
L 176.066422 116.284407 
L 176.196187 116.174744 
L 176.303957 116.092497 
L 176.416127 115.982834 
L 176.526097 115.910867 
L 176.656961 115.801204 
L 176.759233 115.718957 
L 176.909892 115.609294 
L 177.016563 115.516766 
L 177.157325 115.407103 
L 177.263996 115.362552 
L 177.441047 115.252889 
L 177.535621 115.18435 
L 177.726969 115.078114 
L 177.838039 115.016428 
L 177.991997 114.906765 
L 178.101967 114.817664 
L 178.261423 114.708001 
L 178.368094 114.632608 
L 178.526451 114.522945 
L 178.636421 114.430417 
L 178.759588 114.320754 
L 178.867358 114.211091 
L 179.058706 114.101428 
L 179.160978 114.022607 
L 179.302839 113.912944 
L 179.406211 113.810135 
L 179.571166 113.700472 
L 179.670139 113.607944 
L 179.873584 113.498281 
L 179.984653 113.419461 
L 180.125415 113.313225 
L 180.223288 113.248113 
L 180.378346 113.13845 
L 180.489416 113.011652 
L 180.634576 112.901989 
L 180.742347 112.826595 
L 180.940293 112.716932 
L 181.049163 112.631258 
L 181.237212 112.521595 
L 181.346082 112.418786 
L 181.512137 112.309123 
L 181.622107 112.202887 
L 181.795859 112.093224 
L 181.90363 112.000696 
L 182.04989 111.891033 
L 182.15876 111.829347 
L 182.314918 111.719684 
L 182.425988 111.637437 
L 182.583245 111.527774 
L 182.687716 111.4421 
L 182.813082 111.332437 
L 182.897759 111.29474 
L 183.086907 111.191931 
L 183.191379 111.099403 
L 183.326642 110.993167 
L 183.428914 110.91092 
L 183.666449 110.801257 
L 183.77422 110.736144 
L 183.969966 110.626481 
L 184.079936 110.53738 
L 184.240493 110.427717 
L 184.344964 110.362605 
L 184.452735 110.256369 
L 184.555007 110.163841 
L 184.707865 110.057605 
L 184.818935 109.985638 
L 184.958597 109.875975 
L 185.066367 109.786874 
L 185.236821 109.677211 
L 185.345691 109.594964 
L 185.474356 109.485301 
L 185.582127 109.392773 
L 185.742683 109.286537 
L 185.838357 109.194009 
L 185.996714 109.084346 
L 186.102285 109.002098 
L 186.293633 108.892435 
L 186.400303 108.820469 
L 186.533367 108.714233 
L 186.635639 108.642267 
L 186.874274 108.536031 
L 186.980945 108.443502 
L 187.112909 108.333839 
L 187.217381 108.261873 
L 187.372438 108.15221 
L 187.483508 108.097379 
L 187.605575 107.991143 
L 187.697949 107.888333 
L 187.895896 107.77867 
L 188.001467 107.692996 
L 188.149926 107.583333 
L 188.257697 107.504513 
L 188.367667 107.401704 
L 188.469939 107.322884 
L 188.667885 107.216648 
L 188.775656 107.141254 
L 188.969203 107.035018 
L 189.078073 106.956198 
L 189.288116 106.849962 
L 189.393687 106.764288 
L 189.56744 106.654625 
L 189.669712 106.562097 
L 189.801676 106.452434 
L 189.911646 106.366759 
L 190.118389 106.260523 
L 190.229459 106.188557 
L 190.40761 106.082321 
L 190.510982 105.976085 
L 190.684735 105.866422 
L 190.788107 105.784175 
L 190.99595 105.674512 
L 191.099322 105.557995 
L 191.242283 105.448332 
L 191.336857 105.362658 
L 191.468821 105.252995 
L 191.573292 105.153612 
L 191.712954 105.043949 
L 191.814127 104.958275 
L 191.94719 104.848612 
L 192.052762 104.74923 
L 192.162732 104.642994 
L 192.273801 104.519623 
L 192.442055 104.40996 
L 192.553125 104.334567 
L 192.723579 104.224904 
L 192.817053 104.149511 
L 193.025996 104.039848 
L 193.134866 103.940466 
L 193.313018 103.83423 
L 193.41639 103.762263 
L 193.652825 103.6526 
L 193.761696 103.563499 
L 193.92995 103.453836 
L 194.03992 103.351027 
L 194.176282 103.241364 
L 194.285153 103.165971 
L 194.436911 103.059735 
L 194.547981 102.970633 
L 194.759123 102.86097 
L 194.869093 102.78215 
L 195.021952 102.672487 
L 195.131922 102.597094 
L 195.268285 102.487431 
L 195.369457 102.412038 
L 195.500321 102.302375 
L 195.604793 102.226981 
L 195.779645 102.117318 
L 195.884117 102.062487 
L 196.036975 101.952824 
L 196.140347 101.884284 
L 196.315199 101.774621 
L 196.426269 101.699228 
L 196.586825 101.589565 
L 196.696795 101.534734 
L 196.894741 101.425071 
L 197.001412 101.325688 
L 197.170766 101.216025 
L 197.280736 101.144059 
L 197.461086 101.034396 
L 197.571056 100.941868 
L 197.763504 100.832205 
L 197.874574 100.73625 
L 198.103311 100.626587 
L 198.206683 100.551194 
L 198.429922 100.441531 
L 198.534394 100.359283 
L 198.729041 100.24962 
L 198.831313 100.177654 
L 199.020461 100.067991 
L 199.119434 99.999452 
L 199.361368 99.889789 
L 199.469139 99.79726 
L 199.663786 99.687597 
L 199.768257 99.588215 
L 199.981599 99.478552 
L 200.092669 99.423721 
L 200.273019 99.314058 
L 200.38189 99.231811 
L 200.620525 99.122148 
L 200.730495 99.022766 
L 200.902048 98.913103 
L 200.995522 98.841136 
L 201.169275 98.731473 
L 201.273746 98.666361 
L 201.455197 98.556698 
L 201.560768 98.474451 
L 201.730122 98.368214 
L 201.837893 98.279113 
L 202.052334 98.16945 
L 202.157905 98.070068 
L 202.330558 97.960405 
L 202.436129 97.905574 
L 202.61868 97.799338 
L 202.72865 97.730798 
L 202.848517 97.621135 
L 202.957387 97.566304 
L 203.067357 97.456641 
L 203.178427 97.381248 
L 203.409364 97.271585 
L 203.511636 97.22018 
L 203.721679 97.110517 
L 203.832748 97.038551 
L 204.018598 96.932315 
L 204.127468 96.839786 
L 204.327613 96.730123 
L 204.436484 96.661584 
L 204.623433 96.551921 
L 204.731203 96.517651 
L 204.838974 96.407988 
L 204.937947 96.336022 
L 205.079808 96.226359 
L 205.178781 96.185235 
L 205.332739 96.075572 
L 205.436111 96.000179 
L 205.649453 95.890516 
L 205.759423 95.815123 
L 205.980463 95.70546 
L 206.081635 95.650628 
L 206.227895 95.540965 
L 206.338965 95.47928 
L 206.520415 95.369617 
L 206.628186 95.304504 
L 206.771147 95.198268 
L 206.873419 95.116021 
L 206.999885 95.006358 
L 207.105456 94.906976 
L 207.260514 94.797313 
L 207.371583 94.742482 
L 207.551934 94.632819 
L 207.656406 94.560852 
L 207.826859 94.451189 
L 207.925832 94.368942 
L 208.113881 94.262706 
L 208.221651 94.204448 
L 208.383307 94.094785 
L 208.493277 93.991975 
L 208.624142 93.882312 
L 208.727513 93.820627 
L 208.968348 93.714391 
L 209.076118 93.618436 
L 209.256469 93.508773 
L 209.367539 93.423099 
L 209.591878 93.313436 
L 209.699648 93.193492 
L 209.864603 93.083829 
L 209.975673 93.015289 
L 210.167021 92.909053 
L 210.269293 92.850795 
L 210.440846 92.741132 
L 210.546417 92.703435 
L 210.723469 92.593772 
L 210.833439 92.501244 
L 211.040183 92.391581 
L 211.149053 92.305907 
L 211.3415 92.196244 
L 211.450371 92.15512 
L 211.572437 92.048884 
L 211.674709 91.976918 
L 211.862758 91.867255 
L 211.950734 91.822704 
L 212.155278 91.713041 
L 212.263049 91.641075 
L 212.457696 91.534839 
L 212.567666 91.4663 
L 212.753515 91.356637 
L 212.854688 91.281243 
L 213.026241 91.17158 
L 213.131812 91.099614 
L 213.347353 90.989951 
L 213.456224 90.911131 
L 213.634375 90.801468 
L 213.733348 90.739782 
L 213.923596 90.633546 
L 214.033566 90.537591 
L 214.280999 90.427928 
L 214.389869 90.379951 
L 214.592214 90.270288 
L 214.702184 90.212029 
L 214.913326 90.102366 
L 215.016698 90.026973 
L 215.255333 89.91731 
L 215.360904 89.855624 
L 215.606137 89.745961 
L 215.717207 89.673995 
L 215.872265 89.564332 
L 215.971238 89.5095 
L 216.195576 89.399837 
L 216.29235 89.334725 
L 216.521088 89.225062 
L 216.631058 89.153096 
L 216.836701 89.043433 
L 216.947771 88.961185 
L 217.24359 88.851522 
L 217.35466 88.779556 
L 217.517416 88.669893 
L 217.626286 88.580792 
L 217.765948 88.471129 
L 217.870419 88.430005 
L 218.111254 88.320342 
L 218.204728 88.268938 
L 218.403774 88.159275 
L 218.511545 88.090735 
L 218.71169 87.981072 
L 218.812862 87.878263 
L 218.986615 87.7686 
L 219.094386 87.700061 
L 219.286833 87.593825 
L 219.392404 87.494443 
L 219.576054 87.38478 
L 219.678326 87.323094 
L 219.84658 87.213431 
L 219.95765 87.134611 
L 220.139101 87.024948 
L 220.232575 86.970117 
L 220.444817 86.860454 
L 220.555887 86.757645 
L 220.774727 86.651409 
L 220.884697 86.55888 
L 221.09474 86.449217 
L 221.201411 86.40124 
L 221.335574 86.295004 
L 221.442245 86.247026 
L 221.584107 86.137363 
L 221.688578 86.065397 
L 221.917316 85.955734 
L 222.00969 85.880341 
L 222.207636 85.770678 
L 222.311008 85.719273 
L 222.555142 85.60961 
L 222.666211 85.527363 
L 222.863058 85.421127 
L 222.974127 85.359441 
L 223.125886 85.249778 
L 223.227058 85.160677 
L 223.431603 85.051014 
L 223.542672 84.992756 
L 223.710926 84.883093 
L 223.816498 84.821407 
L 224.087024 84.711744 
L 224.196994 84.653486 
L 224.39494 84.54725 
L 224.498312 84.485564 
L 224.763339 84.375901 
L 224.857914 84.303935 
L 225.069056 84.194272 
L 225.174627 84.149721 
L 225.409963 84.043485 
L 225.517734 83.978373 
L 225.737674 83.86871 
L 225.843245 83.796744 
L 226.097275 83.687081 
L 226.181952 83.639103 
L 226.454678 83.52944 
L 226.55915 83.481463 
L 226.737301 83.3718 
L 226.842872 83.306687 
L 227.055114 83.200451 
L 227.159586 83.135339 
L 227.346535 83.025676 
L 227.449907 82.960563 
L 227.733629 82.8509 
L 227.842499 82.802923 
L 228.129521 82.69326 
L 228.238391 82.614439 
L 228.439637 82.504776 
L 228.53751 82.460226 
L 228.660676 82.350563 
L 228.760749 82.302585 
L 228.997184 82.192922 
L 229.100556 82.120956 
L 229.313898 82.011293 
L 229.420569 81.970169 
L 229.669101 81.860506 
L 229.780171 81.798821 
L 230.037501 81.689158 
L 230.146371 81.630899 
L 230.468583 81.521236 
L 230.579653 81.456124 
L 230.73801 81.346461 
L 230.84798 81.267641 
L 231.059122 81.157978 
L 231.170192 81.096292 
L 231.374736 80.986629 
L 231.484706 80.904382 
L 231.705746 80.794719 
L 231.809117 80.739888 
L 232.038955 80.630225 
L 232.142327 80.599382 
L 232.400756 80.489719 
L 232.504128 80.43146 
L 232.725168 80.321797 
L 232.821941 80.260112 
L 233.04628 80.150449 
L 233.15735 80.068202 
L 233.309108 79.961966 
L 233.41138 79.893426 
L 233.615925 79.783763 
L 233.66871 79.752921 
L 233.995321 79.643258 
L 234.098693 79.571291 
L 234.305437 79.461628 
L 234.407709 79.372527 
L 234.650742 79.262864 
L 234.754114 79.190898 
L 234.98945 79.081235 
L 235.092822 79.040111 
L 235.256677 78.930448 
L 235.367747 78.879044 
L 235.589886 78.769381 
L 235.699856 78.717976 
L 235.898902 78.61174 
L 236.003373 78.560336 
L 236.278298 78.450673 
L 236.380571 78.378706 
L 236.584015 78.269043 
L 236.689586 78.224493 
L 236.909526 78.11483 
L 237.018397 78.059998 
L 237.220741 77.950335 
L 237.329612 77.850953 
L 237.638627 77.74129 
L 237.749697 77.683032 
L 237.911353 77.573369 
L 238.019124 77.511683 
L 238.188477 77.40202 
L 238.296248 77.347189 
L 238.567874 77.237526 
L 238.678944 77.148424 
L 238.971464 77.038761 
L 239.067138 76.98393 
L 239.382752 76.874267 
L 239.489423 76.798874 
L 239.72036 76.689211 
L 239.831429 76.630952 
L 240.024976 76.521289 
L 240.130548 76.45275 
L 240.330693 76.343087 
L 240.441763 76.291682 
L 240.617715 76.182019 
L 240.724386 76.106626 
L 240.996012 76.00039 
L 241.104882 75.952412 
L 241.395203 75.842749 
L 241.500774 75.784491 
L 241.727312 75.674828 
L 241.835083 75.589154 
L 242.057222 75.479491 
L 242.164993 75.376682 
L 242.436619 75.267019 
L 242.547688 75.188198 
L 242.76213 75.081962 
L 242.8721 75.023704 
L 243.112934 74.914041 
L 243.189913 74.886625 
L 243.478035 74.776962 
L 243.585805 74.704996 
L 243.816742 74.595333 
L 243.927812 74.547355 
L 244.102664 74.437692 
L 244.211535 74.389715 
L 244.423777 74.280052 
L 244.528248 74.194377 
L 244.719596 74.088141 
L 244.830666 74.023029 
L 245.005518 73.913366 
L 245.115488 73.837973 
L 245.36292 73.72831 
L 245.470691 73.663197 
L 245.689531 73.553534 
L 245.800601 73.50213 
L 246.007345 73.392467 
L 246.103019 73.358197 
L 246.289968 73.248534 
L 246.39224 73.221118 
L 246.619878 73.111455 
L 246.704555 73.087467 
L 246.911298 72.977804 
L 247.01577 72.912691 
L 247.304991 72.803028 
L 247.413861 72.737916 
L 247.716279 72.628253 
L 247.826249 72.580275 
L 248.07588 72.470612 
L 248.18695 72.388365 
L 248.440981 72.278702 
L 248.550951 72.206736 
L 248.855568 72.097073 
L 248.95894 72.035387 
L 249.171182 71.932578 
L 249.277853 71.881174 
L 249.570373 71.771511 
L 249.681443 71.699544 
L 249.87499 71.589881 
L 249.976162 71.545331 
L 250.212598 71.439095 
L 250.289577 71.373982 
L 250.591994 71.264319 
L 250.699765 71.199207 
L 250.9384 71.089544 
L 251.045071 71.038139 
L 251.23202 70.928476 
L 251.34089 70.863364 
L 251.59822 70.753701 
L 251.704891 70.705723 
L 251.973217 70.59606 
L 252.078789 70.51724 
L 252.298729 70.407577 
L 252.408699 70.342465 
L 252.609944 70.232802 
L 252.712216 70.208813 
L 252.960748 70.106004 
L 253.070718 70.006622 
L 253.400628 69.896959 
L 253.508399 69.8387 
L 253.72504 69.729037 
L 253.83501 69.663925 
L 254.056049 69.554262 
L 254.146225 69.526846 
L 254.429947 69.417183 
L 254.532219 69.328082 
L 254.842335 69.218419 
L 254.953405 69.156733 
L 255.123858 69.04707 
L 255.231629 68.975104 
L 255.480161 68.865441 
L 255.590131 68.786621 
L 255.872754 68.676958 
L 255.940935 68.639261 
L 256.262048 68.529598 
L 256.372018 68.47134 
L 256.676634 68.361677 
L 256.780006 68.296564 
L 257.085723 68.186901 
L 257.187995 68.135497 
L 257.478316 68.025834 
L 257.577289 67.994991 
L 257.810425 67.885328 
L 257.917096 67.823643 
L 258.168927 67.71398 
L 258.276698 67.648867 
L 258.538427 67.542631 
L 258.648397 67.498081 
L 258.940917 67.388418 
L 259.045388 67.361002 
L 259.307117 67.251339 
L 259.414888 67.210215 
L 259.654622 67.100552 
L 259.760193 67.03544 
L 260.040617 66.925777 
L 260.142889 66.881226 
L 260.381524 66.771563 
L 260.484896 66.716732 
L 260.796111 66.607069 
L 260.888486 66.545383 
L 261.167809 66.43572 
L 261.277779 66.39117 
L 261.469127 66.281507 
L 261.575798 66.219821 
L 261.786941 66.113585 
L 261.894711 66.062181 
L 262.226821 65.952518 
L 262.332392 65.925102 
L 262.620513 65.815439 
L 262.726084 65.767461 
L 262.992212 65.657798 
L 263.096683 65.589259 
L 263.32872 65.479596 
L 263.427693 65.435045 
L 263.692721 65.325382 
L 263.801591 65.26027 
L 264.054522 65.150607 
L 264.165592 65.071787 
L 264.345943 64.962124 
L 264.454813 64.903865 
L 264.752832 64.794202 
L 264.849605 64.753079 
L 265.203709 64.643416 
L 265.314778 64.557742 
L 265.549014 64.448079 
L 265.660084 64.396674 
L 265.876725 64.287011 
L 265.982296 64.221899 
L 266.18684 64.112236 
L 266.292412 64.05055 
L 266.551941 63.940887 
L 266.663011 63.886056 
L 266.970927 63.776393 
L 267.076498 63.71128 
L 267.411906 63.605044 
L 267.522976 63.533078 
L 267.72752 63.423415 
L 267.825393 63.378864 
L 268.125612 63.269201 
L 268.232283 63.217797 
L 268.562193 63.108134 
L 268.665564 63.043021 
L 268.860211 62.933358 
L 268.964683 62.881954 
L 269.211016 62.772291 
L 269.322085 62.714032 
L 269.554122 62.604369 
L 269.659693 62.559819 
L 269.870836 62.450156 
L 269.961011 62.409032 
L 270.228238 62.299369 
L 270.339308 62.227403 
L 270.481169 62.121167 
L 270.585641 62.062908 
L 270.862765 61.953245 
L 270.972735 61.922403 
L 271.166282 61.81274 
L 271.267455 61.747627 
L 271.61276 61.637964 
L 271.717232 61.596841 
L 272.000955 61.487178 
L 272.101027 61.442627 
L 272.366055 61.332964 
L 272.474925 61.295267 
L 272.794938 61.185604 
L 272.899409 61.127346 
L 273.198528 61.017683 
L 273.307398 60.966278 
L 273.675798 60.856615 
L 273.786867 60.808638 
L 274.114578 60.698975 
L 274.223448 60.657851 
L 274.520367 60.548188 
L 274.623739 60.503638 
L 274.961347 60.393975 
L 275.065819 60.335716 
L 275.482605 60.226053 
L 275.579378 60.181503 
L 275.838908 60.07184 
L 275.942279 60.020435 
L 276.238099 59.910772 
L 276.338172 59.879929 
L 276.548214 59.770266 
L 276.658184 59.722289 
L 276.951804 59.612626 
L 277.059575 59.547513 
L 277.319104 59.43785 
L 277.416977 59.365884 
L 277.778779 59.256221 
L 277.879951 59.21167 
L 278.147178 59.102007 
L 278.24945 59.064311 
L 278.545269 58.954648 
L 278.626647 58.913524 
L 278.988449 58.803861 
L 279.090721 58.762737 
L 279.379942 58.656501 
L 279.481114 58.605097 
L 279.778033 58.495434 
L 279.889103 58.440602 
L 280.158529 58.330939 
L 280.257502 58.289816 
L 280.52473 58.180153 
L 280.6347 58.145883 
L 280.92502 58.03622 
L 281.030592 57.99167 
L 281.370399 57.882007 
L 281.481469 57.840883 
L 281.760792 57.73122 
L 281.854267 57.672961 
L 282.092902 57.563298 
L 282.176479 57.546164 
L 282.500891 57.436501 
L 282.61196 57.371388 
L 282.886885 57.261725 
L 282.981459 57.210321 
L 283.328965 57.100658 
L 283.436735 57.076669 
L 283.731455 56.967006 
L 283.839225 56.901893 
L 284.199927 56.79223 
L 284.303299 56.737399 
L 284.621112 56.627736 
L 284.718986 56.586612 
L 285.036799 56.476949 
L 285.119276 56.44268 
L 285.518467 56.333017 
L 285.626238 56.267904 
L 285.934154 56.158241 
L 286.033127 56.127399 
L 286.342143 56.017736 
L 286.452113 55.969758 
L 286.691847 55.860095 
L 286.788621 55.836106 
L 287.12293 55.726443 
L 287.228501 55.661331 
L 287.535317 55.551668 
L 287.637589 55.500263 
L 288.086267 55.3906 
L 288.187439 55.342623 
L 288.655912 55.23296 
L 288.766981 55.191836 
L 289.162873 55.082173 
L 289.264046 55.041049 
L 289.585158 54.931386 
L 289.690729 54.873128 
L 289.995346 54.763465 
L 290.086621 54.718914 
L 290.523202 54.609251 
L 290.621076 54.550993 
L 291.014768 54.44133 
L 291.101645 54.410487 
L 291.613005 54.300824 
L 291.720776 54.245993 
L 292.137562 54.13633 
L 292.215641 54.095206 
L 292.496064 53.985543 
L 292.600536 53.923858 
L 292.935944 53.814195 
L 293.039316 53.738801 
L 293.545178 53.629138 
L 293.635353 53.598296 
L 293.967463 53.488633 
L 294.065336 53.454363 
L 294.479923 53.3447 
L 294.566799 53.307003 
L 294.950595 53.19734 
L 295.060565 53.166498 
L 295.404771 53.056835 
L 295.514741 53.015711 
L 295.910633 52.906048 
L 296.011805 52.854643 
L 296.32522 52.74498 
L 296.429691 52.686722 
L 296.784894 52.577059 
L 296.890466 52.546216 
L 297.173088 52.436553 
L 297.244569 52.405711 
L 297.604171 52.296048 
L 297.709742 52.227508 
L 298.028655 52.117845 
L 298.12213 52.083576 
L 298.573007 51.973913 
L 298.67088 51.94307 
L 298.934808 51.833407 
L 299.028282 51.792283 
L 299.383486 51.68262 
L 299.493456 51.624362 
L 299.883849 51.518126 
L 299.983922 51.477002 
L 300.248949 51.367339 
L 300.35562 51.333069 
L 300.681132 51.223406 
L 300.786703 51.192564 
L 301.38494 51.086328 
L 301.467417 51.058912 
L 301.920494 50.949249 
L 302.027164 50.89099 
L 302.33838 50.781327 
L 302.430754 50.747058 
L 302.889329 50.637395 
L 302.983903 50.606552 
L 303.294019 50.496889 
L 303.405089 50.466046 
L 303.763591 50.356383 
L 303.869162 50.301552 
L 304.189175 50.191889 
L 304.288148 50.164473 
L 304.662046 50.05481 
L 304.724729 50.030821 
L 305.141515 49.921158 
L 305.242687 49.890316 
L 305.59789 49.780653 
L 305.70786 49.746383 
L 306.080659 49.63672 
L 306.175233 49.60245 
L 306.438061 49.492787 
L 306.524938 49.475652 
L 306.92083 49.365989 
L 307.006606 49.328293 
L 307.252939 49.222057 
L 307.350812 49.187787 
L 307.797291 49.078124 
L 307.902862 49.026719 
L 308.181086 48.917056 
L 308.289956 48.882787 
L 308.682549 48.776551 
L 308.78922 48.738854 
L 309.077341 48.629191 
L 309.188411 48.58464 
L 309.587602 48.474977 
L 309.698672 48.420146 
L 310.07257 48.310483 
L 310.180341 48.276213 
L 310.520148 48.16655 
L 310.608124 48.118573 
L 311.035907 48.00891 
L 311.13708 47.960932 
L 311.480186 47.851269 
L 311.590156 47.830707 
L 311.966253 47.721044 
L 312.076223 47.693629 
L 312.569989 47.583966 
L 312.659064 47.559977 
L 313.127537 47.450314 
L 313.22541 47.402336 
L 313.612504 47.292673 
L 313.709278 47.261831 
L 314.098572 47.155595 
L 314.200844 47.10419 
L 314.693509 46.994527 
L 314.786984 46.960257 
L 315.304943 46.850594 
L 315.403916 46.819752 
L 315.873488 46.710089 
L 315.963663 46.6861 
L 316.470625 46.576437 
L 316.567398 46.549021 
L 317.080958 46.439358 
L 317.189829 46.405088 
L 317.674796 46.295425 
L 317.785866 46.264583 
L 318.094882 46.15492 
L 318.194954 46.124077 
L 318.54136 46.014414 
L 318.65243 45.966436 
L 319.117603 45.856773 
L 319.226473 45.795088 
L 319.473906 45.685425 
L 319.583876 45.661436 
L 320.011659 45.551773 
L 320.122729 45.507223 
L 320.626391 45.39756 
L 320.737461 45.353009 
L 321.089365 45.243346 
L 321.176241 45.195368 
L 321.579831 45.085705 
L 321.689801 45.05829 
L 322.251748 44.948627 
L 322.329827 44.917784 
L 322.694927 44.808121 
L 322.786202 44.770424 
L 323.259073 44.660761 
L 323.367943 44.626492 
L 323.816621 44.516829 
L 323.878204 44.485986 
L 324.392864 44.376323 
L 324.464344 44.352334 
L 324.869034 44.242671 
L 324.95811 44.194694 
L 325.422183 44.085031 
L 325.528854 44.054188 
L 326.030317 43.944525 
L 326.111695 43.913682 
L 326.4603 43.804019 
L 326.57137 43.773176 
L 326.984857 43.663513 
L 327.087129 43.639525 
L 327.572097 43.529862 
L 327.675468 43.499019 
L 328.084557 43.389356 
L 328.18353 43.341378 
L 328.845549 43.231715 
L 328.95332 43.207727 
L 329.526264 43.098064 
L 329.634034 43.067221 
L 329.94415 42.957558 
L 329.995836 42.950704 
L 330.501698 42.841041 
L 330.605069 42.803344 
L 331.107632 42.697108 
L 331.200007 42.652558 
L 331.742159 42.542895 
L 331.85103 42.508625 
L 332.36349 42.398962 
L 332.47346 42.361265 
L 332.910041 42.251602 
L 333.017811 42.231041 
L 333.566562 42.121378 
L 333.651238 42.10767 
L 334.296762 41.998007 
L 334.405633 41.967164 
L 334.852111 41.857501 
L 334.922492 41.819804 
L 335.437151 41.710141 
L 335.543822 41.686153 
L 335.907823 41.57649 
L 336.013394 41.549074 
L 336.660018 41.439411 
L 336.768888 41.415422 
L 337.216466 41.305759 
L 337.325336 41.271489 
L 337.890582 41.161826 
L 337.997253 41.12413 
L 338.239187 41.014467 
L 338.345858 41.000759 
L 338.880312 40.891096 
L 338.971587 40.870534 
L 339.619311 40.760871 
L 339.723782 40.743736 
L 340.333016 40.634073 
L 340.444086 40.606657 
L 340.916957 40.500421 
L 341.018129 40.483287 
L 341.67355 40.373624 
L 341.769224 40.3325 
L 342.332271 40.222837 
L 342.404851 40.198848 
L 342.878822 40.089185 
L 342.9569 40.058342 
L 343.680503 39.948679 
L 343.780576 39.917837 
L 344.337024 39.808174 
L 344.432698 39.794466 
L 344.994644 39.684803 
L 345.08482 39.671095 
L 345.887601 39.561432 
L 345.998671 39.534016 
L 346.561717 39.424353 
L 346.663989 39.403791 
L 347.238032 39.294128 
L 347.343604 39.259859 
L 347.917647 39.150196 
L 348.000125 39.12278 
L 348.637951 39.013117 
L 348.724827 38.989128 
L 349.383547 38.879465 
L 349.466025 38.869184 
L 350.306196 38.759521 
L 350.416166 38.728679 
L 351.051792 38.619016 
L 351.145267 38.595027 
L 351.878767 38.485364 
L 351.986537 38.468229 
L 352.702442 38.358566 
L 352.780521 38.344858 
L 353.320473 38.235195 
L 353.428244 38.200925 
L 354.012185 38.091262 
L 354.106759 38.077555 
L 354.847957 37.967892 
L 354.956827 37.950757 
L 355.551765 37.841094 
L 355.656236 37.820532 
L 356.430425 37.710869 
L 356.5228 37.697161 
L 357.130934 37.590925 
L 357.209013 37.566936 
L 357.839141 37.457273 
L 357.946911 37.429857 
L 358.518755 37.320194 
L 358.61113 37.296206 
L 359.462298 37.186543 
L 359.561271 37.159127 
L 360.320064 37.049464 
L 360.431134 37.028902 
L 361.022772 36.919239 
L 361.130543 36.898677 
L 361.998206 36.789014 
L 362.066388 36.761599 
L 363.071514 36.651936 
L 363.177085 36.631374 
L 364.125026 36.521711 
L 364.142621 36.514857 
L 365.034478 36.405194 
L 365.13785 36.381205 
L 365.94283 36.271542 
L 366.039604 36.247553 
L 366.891872 36.13789 
L 366.991944 36.120755 
L 368.03446 36.011092 
L 368.121336 35.983677 
L 368.884528 35.874014 
L 368.957108 35.863733 
L 370.04911 35.75407 
L 370.109594 35.740362 
L 371.36875 35.630699 
L 371.475421 35.613564 
L 372.415665 35.503901 
L 372.502541 35.486766 
L 373.526362 35.377103 
L 373.562652 35.363395 
L 374.710739 35.253732 
L 374.820709 35.226317 
L 375.944602 35.116654 
L 376.033678 35.099519 
L 377.119082 34.989856 
L 377.158671 34.969294 
L 378.516801 34.859631 
L 378.516801 34.856204 
L 379.854036 34.746541 
L 379.906822 34.739687 
L 381.043911 34.630024 
L 381.076902 34.619743 
L 382.966187 34.51008 
L 383.033269 34.496372 
L 384.668523 34.414125 
L 384.668523 34.414125 
" clip-path="url(#pfa0d95a696)" style="fill: none; stroke: #0000ff; stroke-width: 1.5; stroke-linecap: square"/>
   </g>
   <g id="line2d_14">
    <path d="M 60.013977 276.334125 
L 384.668523 34.414125 
" clip-path="url(#pfa0d95a696)" style="fill: none; stroke-dasharray: 5.55,2.4; stroke-dashoffset: 0; stroke: #ff0000; stroke-width: 1.5"/>
   </g>
   <g id="patch_3">
    <path d="M 43.78125 288.430125 
L 43.78125 22.318125 
" style="fill: none; stroke: #000000; stroke-width: 0.8; stroke-linejoin: miter; stroke-linecap: square"/>
   </g>
   <g id="patch_4">
    <path d="M 400.90125 288.430125 
L 400.90125 22.318125 
" style="fill: none; stroke: #000000; stroke-width: 0.8; stroke-linejoin: miter; stroke-linecap: square"/>
   </g>
   <g id="patch_5">
    <path d="M 43.78125 288.430125 
L 400.90125 288.430125 
" style="fill: none; stroke: #000000; stroke-width: 0.8; stroke-linejoin: miter; stroke-linecap: square"/>
   </g>
   <g id="patch_6">
    <path d="M 43.78125 22.318125 
L 400.90125 22.318125 
" style="fill: none; stroke: #000000; stroke-width: 0.8; stroke-linejoin: miter; stroke-linecap: square"/>
   </g>
   <g id="text_15">
    <!-- Elastic net with 12 selected features -->
    <g transform="translate(112.905 16.318125) scale(0.12 -0.12)">
     <defs>
      <path id="DejaVuSans-45" d="M 628 4666 
L 3578 4666 
L 3578 4134 
L 1259 4134 
L 1259 2753 
L 3481 2753 
L 3481 2222 
L 1259 2222 
L 1259 531 
L 3634 531 
L 3634 0 
L 628 0 
L 628 4666 
z
" transform="scale(0.015625)"/>
      <path id="DejaVuSans-63" d="M 3122 3366 
L 3122 2828 
Q 2878 2963 2633 3030 
Q 2388 3097 2138 3097 
Q 1578 3097 1268 2742 
Q 959 2388 959 1747 
Q 959 1106 1268 751 
Q 1578 397 2138 397 
Q 2388 397 2633 464 
Q 2878 531 3122 666 
L 3122 134 
Q 2881 22 2623 -34 
Q 2366 -91 2075 -91 
Q 1284 -91 818 406 
Q 353 903 353 1747 
Q 353 2603 823 3093 
Q 1294 3584 2113 3584 
Q 2378 3584 2631 3529 
Q 2884 3475 3122 3366 
z
" transform="scale(0.015625)"/>
      <path id="DejaVuSans-6e" d="M 3513 2113 
L 3513 0 
L 2938 0 
L 2938 2094 
Q 2938 2591 2744 2837 
Q 2550 3084 2163 3084 
Q 1697 3084 1428 2787 
Q 1159 2491 1159 1978 
L 1159 0 
L 581 0 
L 581 3500 
L 1159 3500 
L 1159 2956 
Q 1366 3272 1645 3428 
Q 1925 3584 2291 3584 
Q 2894 3584 3203 3211 
Q 3513 2838 3513 2113 
z
" transform="scale(0.015625)"/>
      <path id="DejaVuSans-77" d="M 269 3500 
L 844 3500 
L 1563 769 
L 2278 3500 
L 2956 3500 
L 3675 769 
L 4391 3500 
L 4966 3500 
L 4050 0 
L 3372 0 
L 2619 2869 
L 1863 0 
L 1184 0 
L 269 3500 
z
" transform="scale(0.015625)"/>
      <path id="DejaVuSans-68" d="M 3513 2113 
L 3513 0 
L 2938 0 
L 2938 2094 
Q 2938 2591 2744 2837 
Q 2550 3084 2163 3084 
Q 1697 3084 1428 2787 
Q 1159 2491 1159 1978 
L 1159 0 
L 581 0 
L 581 4863 
L 1159 4863 
L 1159 2956 
Q 1366 3272 1645 3428 
Q 1925 3584 2291 3584 
Q 2894 3584 3203 3211 
Q 3513 2838 3513 2113 
z
" transform="scale(0.015625)"/>
      <path id="DejaVuSans-64" d="M 2906 2969 
L 2906 4863 
L 3481 4863 
L 3481 0 
L 2906 0 
L 2906 525 
Q 2725 213 2448 61 
Q 2172 -91 1784 -91 
Q 1150 -91 751 415 
Q 353 922 353 1747 
Q 353 2572 751 3078 
Q 1150 3584 1784 3584 
Q 2172 3584 2448 3432 
Q 2725 3281 2906 2969 
z
M 947 1747 
Q 947 1113 1208 752 
Q 1469 391 1925 391 
Q 2381 391 2643 752 
Q 2906 1113 2906 1747 
Q 2906 2381 2643 2742 
Q 2381 3103 1925 3103 
Q 1469 3103 1208 2742 
Q 947 2381 947 1747 
z
" transform="scale(0.015625)"/>
      <path id="DejaVuSans-66" d="M 2375 4863 
L 2375 4384 
L 1825 4384 
Q 1516 4384 1395 4259 
Q 1275 4134 1275 3809 
L 1275 3500 
L 2222 3500 
L 2222 3053 
L 1275 3053 
L 1275 0 
L 697 0 
L 697 3053 
L 147 3053 
L 147 3500 
L 697 3500 
L 697 3744 
Q 697 4328 969 4595 
Q 1241 4863 1831 4863 
L 2375 4863 
z
" transform="scale(0.015625)"/>
     </defs>
     <use xlink:href="#DejaVuSans-45"/>
     <use xlink:href="#DejaVuSans-6c" x="63.183594"/>
     <use xlink:href="#DejaVuSans-61" x="90.966797"/>
     <use xlink:href="#DejaVuSans-73" x="152.246094"/>
     <use xlink:href="#DejaVuSans-74" x="204.345703"/>
     <use xlink:href="#DejaVuSans-69" x="243.554688"/>
     <use xlink:href="#DejaVuSans-63" x="271.337891"/>
     <use xlink:href="#DejaVuSans-20" x="326.318359"/>
     <use xlink:href="#DejaVuSans-6e" x="358.105469"/>
     <use xlink:href="#DejaVuSans-65" x="421.484375"/>
     <use xlink:href="#DejaVuSans-74" x="483.007812"/>
     <use xlink:href="#DejaVuSans-20" x="522.216797"/>
     <use xlink:href="#DejaVuSans-77" x="554.003906"/>
     <use xlink:href="#DejaVuSans-69" x="635.791016"/>
     <use xlink:href="#DejaVuSans-74" x="663.574219"/>
     <use xlink:href="#DejaVuSans-68" x="702.783203"/>
     <use xlink:href="#DejaVuSans-20" x="766.162109"/>
     <use xlink:href="#DejaVuSans-31" x="797.949219"/>
     <use xlink:href="#DejaVuSans-32" x="861.572266"/>
     <use xlink:href="#DejaVuSans-20" x="925.195312"/>
     <use xlink:href="#DejaVuSans-73" x="956.982422"/>
     <use xlink:href="#DejaVuSans-65" x="1009.082031"/>
     <use xlink:href="#DejaVuSans-6c" x="1070.605469"/>
     <use xlink:href="#DejaVuSans-65" x="1098.388672"/>
     <use xlink:href="#DejaVuSans-63" x="1159.912109"/>
     <use xlink:href="#DejaVuSans-74" x="1214.892578"/>
     <use xlink:href="#DejaVuSans-65" x="1254.101562"/>
     <use xlink:href="#DejaVuSans-64" x="1315.625"/>
     <use xlink:href="#DejaVuSans-20" x="1379.101562"/>
     <use xlink:href="#DejaVuSans-66" x="1410.888672"/>
     <use xlink:href="#DejaVuSans-65" x="1446.09375"/>
     <use xlink:href="#DejaVuSans-61" x="1507.617188"/>
     <use xlink:href="#DejaVuSans-74" x="1568.896484"/>
     <use xlink:href="#DejaVuSans-75" x="1608.105469"/>
     <use xlink:href="#DejaVuSans-72" x="1671.484375"/>
     <use xlink:href="#DejaVuSans-65" x="1710.347656"/>
     <use xlink:href="#DejaVuSans-73" x="1771.871094"/>
    </g>
   </g>
   <g id="legend_1">
    <g id="patch_7">
     <path d="M 50.78125 44.99625 
L 160.0125 44.99625 
Q 162.0125 44.99625 162.0125 42.99625 
L 162.0125 29.318125 
Q 162.0125 27.318125 160.0125 27.318125 
L 50.78125 27.318125 
Q 48.78125 27.318125 48.78125 29.318125 
L 48.78125 42.99625 
Q 48.78125 44.99625 50.78125 44.99625 
z
" style="fill: #ffffff; opacity: 0.8; stroke: #cccccc; stroke-linejoin: miter"/>
    </g>
    <g id="line2d_15">
     <path d="M 52.78125 35.416562 
L 62.78125 35.416562 
L 72.78125 35.416562 
" style="fill: none; stroke: #0000ff; stroke-width: 1.5; stroke-linecap: square"/>
    </g>
    <g id="text_16">
     <!-- AUC = 0.70920 -->
     <g transform="translate(80.78125 38.916562) scale(0.1 -0.1)">
      <defs>
       <path id="DejaVuSans-41" d="M 2188 4044 
L 1331 1722 
L 3047 1722 
L 2188 4044 
z
M 1831 4666 
L 2547 4666 
L 4325 0 
L 3669 0 
L 3244 1197 
L 1141 1197 
L 716 0 
L 50 0 
L 1831 4666 
z
" transform="scale(0.015625)"/>
       <path id="DejaVuSans-55" d="M 556 4666 
L 1191 4666 
L 1191 1831 
Q 1191 1081 1462 751 
Q 1734 422 2344 422 
Q 2950 422 3222 751 
Q 3494 1081 3494 1831 
L 3494 4666 
L 4128 4666 
L 4128 1753 
Q 4128 841 3676 375 
Q 3225 -91 2344 -91 
Q 1459 -91 1007 375 
Q 556 841 556 1753 
L 556 4666 
z
" transform="scale(0.015625)"/>
       <path id="DejaVuSans-43" d="M 4122 4306 
L 4122 3641 
Q 3803 3938 3442 4084 
Q 3081 4231 2675 4231 
Q 1875 4231 1450 3742 
Q 1025 3253 1025 2328 
Q 1025 1406 1450 917 
Q 1875 428 2675 428 
Q 3081 428 3442 575 
Q 3803 722 4122 1019 
L 4122 359 
Q 3791 134 3420 21 
Q 3050 -91 2638 -91 
Q 1578 -91 968 557 
Q 359 1206 359 2328 
Q 359 3453 968 4101 
Q 1578 4750 2638 4750 
Q 3056 4750 3426 4639 
Q 3797 4528 4122 4306 
z
" transform="scale(0.015625)"/>
       <path id="DejaVuSans-3d" d="M 678 2906 
L 4684 2906 
L 4684 2381 
L 678 2381 
L 678 2906 
z
M 678 1631 
L 4684 1631 
L 4684 1100 
L 678 1100 
L 678 1631 
z
" transform="scale(0.015625)"/>
       <path id="DejaVuSans-37" d="M 525 4666 
L 3525 4666 
L 3525 4397 
L 1831 0 
L 1172 0 
L 2766 4134 
L 525 4134 
L 525 4666 
z
" transform="scale(0.015625)"/>
       <path id="DejaVuSans-39" d="M 703 97 
L 703 672 
Q 941 559 1184 500 
Q 1428 441 1663 441 
Q 2288 441 2617 861 
Q 2947 1281 2994 2138 
Q 2813 1869 2534 1725 
Q 2256 1581 1919 1581 
Q 1219 1581 811 2004 
Q 403 2428 403 3163 
Q 403 3881 828 4315 
Q 1253 4750 1959 4750 
Q 2769 4750 3195 4129 
Q 3622 3509 3622 2328 
Q 3622 1225 3098 567 
Q 2575 -91 1691 -91 
Q 1453 -91 1209 -44 
Q 966 3 703 97 
z
M 1959 2075 
Q 2384 2075 2632 2365 
Q 2881 2656 2881 3163 
Q 2881 3666 2632 3958 
Q 2384 4250 1959 4250 
Q 1534 4250 1286 3958 
Q 1038 3666 1038 3163 
Q 1038 2656 1286 2365 
Q 1534 2075 1959 2075 
z
" transform="scale(0.015625)"/>
      </defs>
      <use xlink:href="#DejaVuSans-41"/>
      <use xlink:href="#DejaVuSans-55" x="68.408203"/>
      <use xlink:href="#DejaVuSans-43" x="141.601562"/>
      <use xlink:href="#DejaVuSans-20" x="211.425781"/>
      <use xlink:href="#DejaVuSans-3d" x="243.212891"/>
      <use xlink:href="#DejaVuSans-20" x="327.001953"/>
      <use xlink:href="#DejaVuSans-30" x="358.789062"/>
      <use xlink:href="#DejaVuSans-2e" x="422.412109"/>
      <use xlink:href="#DejaVuSans-37" x="454.199219"/>
      <use xlink:href="#DejaVuSans-30" x="517.822266"/>
      <use xlink:href="#DejaVuSans-39" x="581.445312"/>
      <use xlink:href="#DejaVuSans-32" x="645.068359"/>
      <use xlink:href="#DejaVuSans-30" x="708.691406"/>
     </g>
    </g>
   </g>
  </g>
 </g>
 <defs>
  <clipPath id="pfa0d95a696">
   <rect x="43.78125" y="22.318125" width="357.12" height="266.112"/>
  </clipPath>
 </defs>
</svg>
