<?xml version="1.0" encoding="utf-8" standalone="no"?>
<!DOCTYPE svg PUBLIC "-//W3C//DTD SVG 1.1//EN"
  "http://www.w3.org/Graphics/SVG/1.1/DTD/svg11.dtd">
<svg xmlns:xlink="http://www.w3.org/1999/xlink" width="465.295312pt" height="397.074925pt" viewBox="0 0 465.295312 397.074925" xmlns="http://www.w3.org/2000/svg" version="1.1">
 <metadata>
  <rdf:RDF xmlns:dc="http://purl.org/dc/elements/1.1/" xmlns:cc="http://creativecommons.org/ns#" xmlns:rdf="http://www.w3.org/1999/02/22-rdf-syntax-ns#">
   <cc:Work>
    <dc:type rdf:resource="http://purl.org/dc/dcmitype/StillImage"/>
    <dc:date>2024-03-10T13:42:52.939349</dc:date>
    <dc:format>image/svg+xml</dc:format>
    <dc:creator>
     <cc:Agent>
      <dc:title>Matplotlib v3.8.0, https://matplotlib.org/</dc:title>
     </cc:Agent>
    </dc:creator>
   </cc:Work>
  </rdf:RDF>
 </metadata>
 <defs>
  <style type="text/css">*{stroke-linejoin: round; stroke-linecap: butt}</style>
 </defs>
 <g id="figure_1">
  <g id="patch_1">
   <path d="M 0 397.074925 
L 465.295312 397.074925 
L 465.295312 0 
L 0 0 
L 0 397.074925 
z
" style="fill: none"/>
  </g>
  <g id="axes_1">
   <g id="patch_2">
    <path d="M 54.087656 288.430125 
L 411.207656 288.430125 
L 411.207656 22.318125 
L 54.087656 22.318125 
L 54.087656 288.430125 
z
" style="fill: none"/>
   </g>
   <g id="matplotlib.axis_1">
    <g id="xtick_1">
     <g id="line2d_1">
      <defs>
       <path id="m958fc18e44" d="M 0 0 
L 0 3.5 
" style="stroke: #000000; stroke-width: 0.8"/>
      </defs>
      <g>
       <use xlink:href="#m958fc18e44" x="164.42315" y="288.430125" style="stroke: #000000; stroke-width: 0.8"/>
      </g>
     </g>
     <g id="text_1">
      <!-- &lt;- - strong regularization -->
      <g transform="translate(103.011432 303.028562) scale(0.1 -0.1)">
       <defs>
        <path id="DejaVuSans-3c" d="M 4684 3150 
L 1459 2003 
L 4684 863 
L 4684 294 
L 678 1747 
L 678 2266 
L 4684 3719 
L 4684 3150 
z
" transform="scale(0.015625)"/>
        <path id="DejaVuSans-2d" d="M 313 2009 
L 1997 2009 
L 1997 1497 
L 313 1497 
L 313 2009 
z
" transform="scale(0.015625)"/>
        <path id="DejaVuSans-20" transform="scale(0.015625)"/>
        <path id="DejaVuSans-73" d="M 2834 3397 
L 2834 2853 
Q 2591 2978 2328 3040 
Q 2066 3103 1784 3103 
Q 1356 3103 1142 2972 
Q 928 2841 928 2578 
Q 928 2378 1081 2264 
Q 1234 2150 1697 2047 
L 1894 2003 
Q 2506 1872 2764 1633 
Q 3022 1394 3022 966 
Q 3022 478 2636 193 
Q 2250 -91 1575 -91 
Q 1294 -91 989 -36 
Q 684 19 347 128 
L 347 722 
Q 666 556 975 473 
Q 1284 391 1588 391 
Q 1994 391 2212 530 
Q 2431 669 2431 922 
Q 2431 1156 2273 1281 
Q 2116 1406 1581 1522 
L 1381 1569 
Q 847 1681 609 1914 
Q 372 2147 372 2553 
Q 372 3047 722 3315 
Q 1072 3584 1716 3584 
Q 2034 3584 2315 3537 
Q 2597 3491 2834 3397 
z
" transform="scale(0.015625)"/>
        <path id="DejaVuSans-74" d="M 1172 4494 
L 1172 3500 
L 2356 3500 
L 2356 3053 
L 1172 3053 
L 1172 1153 
Q 1172 725 1289 603 
Q 1406 481 1766 481 
L 2356 481 
L 2356 0 
L 1766 0 
Q 1100 0 847 248 
Q 594 497 594 1153 
L 594 3053 
L 172 3053 
L 172 3500 
L 594 3500 
L 594 4494 
L 1172 4494 
z
" transform="scale(0.015625)"/>
        <path id="DejaVuSans-72" d="M 2631 2963 
Q 2534 3019 2420 3045 
Q 2306 3072 2169 3072 
Q 1681 3072 1420 2755 
Q 1159 2438 1159 1844 
L 1159 0 
L 581 0 
L 581 3500 
L 1159 3500 
L 1159 2956 
Q 1341 3275 1631 3429 
Q 1922 3584 2338 3584 
Q 2397 3584 2469 3576 
Q 2541 3569 2628 3553 
L 2631 2963 
z
" transform="scale(0.015625)"/>
        <path id="DejaVuSans-6f" d="M 1959 3097 
Q 1497 3097 1228 2736 
Q 959 2375 959 1747 
Q 959 1119 1226 758 
Q 1494 397 1959 397 
Q 2419 397 2687 759 
Q 2956 1122 2956 1747 
Q 2956 2369 2687 2733 
Q 2419 3097 1959 3097 
z
M 1959 3584 
Q 2709 3584 3137 3096 
Q 3566 2609 3566 1747 
Q 3566 888 3137 398 
Q 2709 -91 1959 -91 
Q 1206 -91 779 398 
Q 353 888 353 1747 
Q 353 2609 779 3096 
Q 1206 3584 1959 3584 
z
" transform="scale(0.015625)"/>
        <path id="DejaVuSans-6e" d="M 3513 2113 
L 3513 0 
L 2938 0 
L 2938 2094 
Q 2938 2591 2744 2837 
Q 2550 3084 2163 3084 
Q 1697 3084 1428 2787 
Q 1159 2491 1159 1978 
L 1159 0 
L 581 0 
L 581 3500 
L 1159 3500 
L 1159 2956 
Q 1366 3272 1645 3428 
Q 1925 3584 2291 3584 
Q 2894 3584 3203 3211 
Q 3513 2838 3513 2113 
z
" transform="scale(0.015625)"/>
        <path id="DejaVuSans-67" d="M 2906 1791 
Q 2906 2416 2648 2759 
Q 2391 3103 1925 3103 
Q 1463 3103 1205 2759 
Q 947 2416 947 1791 
Q 947 1169 1205 825 
Q 1463 481 1925 481 
Q 2391 481 2648 825 
Q 2906 1169 2906 1791 
z
M 3481 434 
Q 3481 -459 3084 -895 
Q 2688 -1331 1869 -1331 
Q 1566 -1331 1297 -1286 
Q 1028 -1241 775 -1147 
L 775 -588 
Q 1028 -725 1275 -790 
Q 1522 -856 1778 -856 
Q 2344 -856 2625 -561 
Q 2906 -266 2906 331 
L 2906 616 
Q 2728 306 2450 153 
Q 2172 0 1784 0 
Q 1141 0 747 490 
Q 353 981 353 1791 
Q 353 2603 747 3093 
Q 1141 3584 1784 3584 
Q 2172 3584 2450 3431 
Q 2728 3278 2906 2969 
L 2906 3500 
L 3481 3500 
L 3481 434 
z
" transform="scale(0.015625)"/>
        <path id="DejaVuSans-65" d="M 3597 1894 
L 3597 1613 
L 953 1613 
Q 991 1019 1311 708 
Q 1631 397 2203 397 
Q 2534 397 2845 478 
Q 3156 559 3463 722 
L 3463 178 
Q 3153 47 2828 -22 
Q 2503 -91 2169 -91 
Q 1331 -91 842 396 
Q 353 884 353 1716 
Q 353 2575 817 3079 
Q 1281 3584 2069 3584 
Q 2775 3584 3186 3129 
Q 3597 2675 3597 1894 
z
M 3022 2063 
Q 3016 2534 2758 2815 
Q 2500 3097 2075 3097 
Q 1594 3097 1305 2825 
Q 1016 2553 972 2059 
L 3022 2063 
z
" transform="scale(0.015625)"/>
        <path id="DejaVuSans-75" d="M 544 1381 
L 544 3500 
L 1119 3500 
L 1119 1403 
Q 1119 906 1312 657 
Q 1506 409 1894 409 
Q 2359 409 2629 706 
Q 2900 1003 2900 1516 
L 2900 3500 
L 3475 3500 
L 3475 0 
L 2900 0 
L 2900 538 
Q 2691 219 2414 64 
Q 2138 -91 1772 -91 
Q 1169 -91 856 284 
Q 544 659 544 1381 
z
M 1991 3584 
L 1991 3584 
z
" transform="scale(0.015625)"/>
        <path id="DejaVuSans-6c" d="M 603 4863 
L 1178 4863 
L 1178 0 
L 603 0 
L 603 4863 
z
" transform="scale(0.015625)"/>
        <path id="DejaVuSans-61" d="M 2194 1759 
Q 1497 1759 1228 1600 
Q 959 1441 959 1056 
Q 959 750 1161 570 
Q 1363 391 1709 391 
Q 2188 391 2477 730 
Q 2766 1069 2766 1631 
L 2766 1759 
L 2194 1759 
z
M 3341 1997 
L 3341 0 
L 2766 0 
L 2766 531 
Q 2569 213 2275 61 
Q 1981 -91 1556 -91 
Q 1019 -91 701 211 
Q 384 513 384 1019 
Q 384 1609 779 1909 
Q 1175 2209 1959 2209 
L 2766 2209 
L 2766 2266 
Q 2766 2663 2505 2880 
Q 2244 3097 1772 3097 
Q 1472 3097 1187 3025 
Q 903 2953 641 2809 
L 641 3341 
Q 956 3463 1253 3523 
Q 1550 3584 1831 3584 
Q 2591 3584 2966 3190 
Q 3341 2797 3341 1997 
z
" transform="scale(0.015625)"/>
        <path id="DejaVuSans-69" d="M 603 3500 
L 1178 3500 
L 1178 0 
L 603 0 
L 603 3500 
z
M 603 4863 
L 1178 4863 
L 1178 4134 
L 603 4134 
L 603 4863 
z
" transform="scale(0.015625)"/>
        <path id="DejaVuSans-7a" d="M 353 3500 
L 3084 3500 
L 3084 2975 
L 922 459 
L 3084 459 
L 3084 0 
L 275 0 
L 275 525 
L 2438 3041 
L 353 3041 
L 353 3500 
z
" transform="scale(0.015625)"/>
       </defs>
       <use xlink:href="#DejaVuSans-3c"/>
       <use xlink:href="#DejaVuSans-2d" x="83.789062"/>
       <use xlink:href="#DejaVuSans-2d" x="119.873047"/>
       <use xlink:href="#DejaVuSans-20" x="155.957031"/>
       <use xlink:href="#DejaVuSans-73" x="187.744141"/>
       <use xlink:href="#DejaVuSans-74" x="239.84375"/>
       <use xlink:href="#DejaVuSans-72" x="279.052734"/>
       <use xlink:href="#DejaVuSans-6f" x="317.916016"/>
       <use xlink:href="#DejaVuSans-6e" x="379.097656"/>
       <use xlink:href="#DejaVuSans-67" x="442.476562"/>
       <use xlink:href="#DejaVuSans-20" x="505.953125"/>
       <use xlink:href="#DejaVuSans-72" x="537.740234"/>
       <use xlink:href="#DejaVuSans-65" x="576.603516"/>
       <use xlink:href="#DejaVuSans-67" x="638.126953"/>
       <use xlink:href="#DejaVuSans-75" x="701.603516"/>
       <use xlink:href="#DejaVuSans-6c" x="764.982422"/>
       <use xlink:href="#DejaVuSans-61" x="792.765625"/>
       <use xlink:href="#DejaVuSans-72" x="854.044922"/>
       <use xlink:href="#DejaVuSans-69" x="895.158203"/>
       <use xlink:href="#DejaVuSans-7a" x="922.941406"/>
       <use xlink:href="#DejaVuSans-61" x="975.431641"/>
       <use xlink:href="#DejaVuSans-74" x="1036.710938"/>
       <use xlink:href="#DejaVuSans-69" x="1075.919922"/>
       <use xlink:href="#DejaVuSans-6f" x="1103.703125"/>
       <use xlink:href="#DejaVuSans-6e" x="1164.884766"/>
      </g>
     </g>
    </g>
    <g id="xtick_2">
     <g id="line2d_2">
      <g>
       <use xlink:href="#m958fc18e44" x="305.577301" y="288.430125" style="stroke: #000000; stroke-width: 0.8"/>
      </g>
     </g>
     <g id="text_2">
      <!-- weak regularization - -&gt; -->
      <g transform="translate(246.950738 303.028562) scale(0.1 -0.1)">
       <defs>
        <path id="DejaVuSans-77" d="M 269 3500 
L 844 3500 
L 1563 769 
L 2278 3500 
L 2956 3500 
L 3675 769 
L 4391 3500 
L 4966 3500 
L 4050 0 
L 3372 0 
L 2619 2869 
L 1863 0 
L 1184 0 
L 269 3500 
z
" transform="scale(0.015625)"/>
        <path id="DejaVuSans-6b" d="M 581 4863 
L 1159 4863 
L 1159 1991 
L 2875 3500 
L 3609 3500 
L 1753 1863 
L 3688 0 
L 2938 0 
L 1159 1709 
L 1159 0 
L 581 0 
L 581 4863 
z
" transform="scale(0.015625)"/>
        <path id="DejaVuSans-3e" d="M 678 3150 
L 678 3719 
L 4684 2266 
L 4684 1747 
L 678 294 
L 678 863 
L 3897 2003 
L 678 3150 
z
" transform="scale(0.015625)"/>
       </defs>
       <use xlink:href="#DejaVuSans-77"/>
       <use xlink:href="#DejaVuSans-65" x="81.787109"/>
       <use xlink:href="#DejaVuSans-61" x="143.310547"/>
       <use xlink:href="#DejaVuSans-6b" x="204.589844"/>
       <use xlink:href="#DejaVuSans-20" x="262.5"/>
       <use xlink:href="#DejaVuSans-72" x="294.287109"/>
       <use xlink:href="#DejaVuSans-65" x="333.150391"/>
       <use xlink:href="#DejaVuSans-67" x="394.673828"/>
       <use xlink:href="#DejaVuSans-75" x="458.150391"/>
       <use xlink:href="#DejaVuSans-6c" x="521.529297"/>
       <use xlink:href="#DejaVuSans-61" x="549.3125"/>
       <use xlink:href="#DejaVuSans-72" x="610.591797"/>
       <use xlink:href="#DejaVuSans-69" x="651.705078"/>
       <use xlink:href="#DejaVuSans-7a" x="679.488281"/>
       <use xlink:href="#DejaVuSans-61" x="731.978516"/>
       <use xlink:href="#DejaVuSans-74" x="793.257812"/>
       <use xlink:href="#DejaVuSans-69" x="832.466797"/>
       <use xlink:href="#DejaVuSans-6f" x="860.25"/>
       <use xlink:href="#DejaVuSans-6e" x="921.431641"/>
       <use xlink:href="#DejaVuSans-20" x="984.810547"/>
       <use xlink:href="#DejaVuSans-2d" x="1016.597656"/>
       <use xlink:href="#DejaVuSans-2d" x="1052.681641"/>
       <use xlink:href="#DejaVuSans-3e" x="1088.765625"/>
      </g>
     </g>
    </g>
   </g>
   <g id="matplotlib.axis_2">
    <g id="ytick_1">
     <g id="line2d_3">
      <defs>
       <path id="m3b2a05d1e7" d="M 0 0 
L -3.5 0 
" style="stroke: #000000; stroke-width: 0.8"/>
      </defs>
      <g>
       <use xlink:href="#m3b2a05d1e7" x="54.087656" y="268.70563" style="stroke: #000000; stroke-width: 0.8"/>
      </g>
     </g>
     <g id="text_3">
      <!-- −0.8 -->
      <g transform="translate(22.804844 272.504849) scale(0.1 -0.1)">
       <defs>
        <path id="DejaVuSans-2212" d="M 678 2272 
L 4684 2272 
L 4684 1741 
L 678 1741 
L 678 2272 
z
" transform="scale(0.015625)"/>
        <path id="DejaVuSans-30" d="M 2034 4250 
Q 1547 4250 1301 3770 
Q 1056 3291 1056 2328 
Q 1056 1369 1301 889 
Q 1547 409 2034 409 
Q 2525 409 2770 889 
Q 3016 1369 3016 2328 
Q 3016 3291 2770 3770 
Q 2525 4250 2034 4250 
z
M 2034 4750 
Q 2819 4750 3233 4129 
Q 3647 3509 3647 2328 
Q 3647 1150 3233 529 
Q 2819 -91 2034 -91 
Q 1250 -91 836 529 
Q 422 1150 422 2328 
Q 422 3509 836 4129 
Q 1250 4750 2034 4750 
z
" transform="scale(0.015625)"/>
        <path id="DejaVuSans-2e" d="M 684 794 
L 1344 794 
L 1344 0 
L 684 0 
L 684 794 
z
" transform="scale(0.015625)"/>
        <path id="DejaVuSans-38" d="M 2034 2216 
Q 1584 2216 1326 1975 
Q 1069 1734 1069 1313 
Q 1069 891 1326 650 
Q 1584 409 2034 409 
Q 2484 409 2743 651 
Q 3003 894 3003 1313 
Q 3003 1734 2745 1975 
Q 2488 2216 2034 2216 
z
M 1403 2484 
Q 997 2584 770 2862 
Q 544 3141 544 3541 
Q 544 4100 942 4425 
Q 1341 4750 2034 4750 
Q 2731 4750 3128 4425 
Q 3525 4100 3525 3541 
Q 3525 3141 3298 2862 
Q 3072 2584 2669 2484 
Q 3125 2378 3379 2068 
Q 3634 1759 3634 1313 
Q 3634 634 3220 271 
Q 2806 -91 2034 -91 
Q 1263 -91 848 271 
Q 434 634 434 1313 
Q 434 1759 690 2068 
Q 947 2378 1403 2484 
z
M 1172 3481 
Q 1172 3119 1398 2916 
Q 1625 2713 2034 2713 
Q 2441 2713 2670 2916 
Q 2900 3119 2900 3481 
Q 2900 3844 2670 4047 
Q 2441 4250 2034 4250 
Q 1625 4250 1398 4047 
Q 1172 3844 1172 3481 
z
" transform="scale(0.015625)"/>
       </defs>
       <use xlink:href="#DejaVuSans-2212"/>
       <use xlink:href="#DejaVuSans-30" x="83.789062"/>
       <use xlink:href="#DejaVuSans-2e" x="147.412109"/>
       <use xlink:href="#DejaVuSans-38" x="179.199219"/>
      </g>
     </g>
    </g>
    <g id="ytick_2">
     <g id="line2d_4">
      <g>
       <use xlink:href="#m3b2a05d1e7" x="54.087656" y="222.863145" style="stroke: #000000; stroke-width: 0.8"/>
      </g>
     </g>
     <g id="text_4">
      <!-- −0.6 -->
      <g transform="translate(22.804844 226.662364) scale(0.1 -0.1)">
       <defs>
        <path id="DejaVuSans-36" d="M 2113 2584 
Q 1688 2584 1439 2293 
Q 1191 2003 1191 1497 
Q 1191 994 1439 701 
Q 1688 409 2113 409 
Q 2538 409 2786 701 
Q 3034 994 3034 1497 
Q 3034 2003 2786 2293 
Q 2538 2584 2113 2584 
z
M 3366 4563 
L 3366 3988 
Q 3128 4100 2886 4159 
Q 2644 4219 2406 4219 
Q 1781 4219 1451 3797 
Q 1122 3375 1075 2522 
Q 1259 2794 1537 2939 
Q 1816 3084 2150 3084 
Q 2853 3084 3261 2657 
Q 3669 2231 3669 1497 
Q 3669 778 3244 343 
Q 2819 -91 2113 -91 
Q 1303 -91 875 529 
Q 447 1150 447 2328 
Q 447 3434 972 4092 
Q 1497 4750 2381 4750 
Q 2619 4750 2861 4703 
Q 3103 4656 3366 4563 
z
" transform="scale(0.015625)"/>
       </defs>
       <use xlink:href="#DejaVuSans-2212"/>
       <use xlink:href="#DejaVuSans-30" x="83.789062"/>
       <use xlink:href="#DejaVuSans-2e" x="147.412109"/>
       <use xlink:href="#DejaVuSans-36" x="179.199219"/>
      </g>
     </g>
    </g>
    <g id="ytick_3">
     <g id="line2d_5">
      <g>
       <use xlink:href="#m3b2a05d1e7" x="54.087656" y="177.020661" style="stroke: #000000; stroke-width: 0.8"/>
      </g>
     </g>
     <g id="text_5">
      <!-- −0.4 -->
      <g transform="translate(22.804844 180.819879) scale(0.1 -0.1)">
       <defs>
        <path id="DejaVuSans-34" d="M 2419 4116 
L 825 1625 
L 2419 1625 
L 2419 4116 
z
M 2253 4666 
L 3047 4666 
L 3047 1625 
L 3713 1625 
L 3713 1100 
L 3047 1100 
L 3047 0 
L 2419 0 
L 2419 1100 
L 313 1100 
L 313 1709 
L 2253 4666 
z
" transform="scale(0.015625)"/>
       </defs>
       <use xlink:href="#DejaVuSans-2212"/>
       <use xlink:href="#DejaVuSans-30" x="83.789062"/>
       <use xlink:href="#DejaVuSans-2e" x="147.412109"/>
       <use xlink:href="#DejaVuSans-34" x="179.199219"/>
      </g>
     </g>
    </g>
    <g id="ytick_4">
     <g id="line2d_6">
      <g>
       <use xlink:href="#m3b2a05d1e7" x="54.087656" y="131.178176" style="stroke: #000000; stroke-width: 0.8"/>
      </g>
     </g>
     <g id="text_6">
      <!-- −0.2 -->
      <g transform="translate(22.804844 134.977395) scale(0.1 -0.1)">
       <defs>
        <path id="DejaVuSans-32" d="M 1228 531 
L 3431 531 
L 3431 0 
L 469 0 
L 469 531 
Q 828 903 1448 1529 
Q 2069 2156 2228 2338 
Q 2531 2678 2651 2914 
Q 2772 3150 2772 3378 
Q 2772 3750 2511 3984 
Q 2250 4219 1831 4219 
Q 1534 4219 1204 4116 
Q 875 4013 500 3803 
L 500 4441 
Q 881 4594 1212 4672 
Q 1544 4750 1819 4750 
Q 2544 4750 2975 4387 
Q 3406 4025 3406 3419 
Q 3406 3131 3298 2873 
Q 3191 2616 2906 2266 
Q 2828 2175 2409 1742 
Q 1991 1309 1228 531 
z
" transform="scale(0.015625)"/>
       </defs>
       <use xlink:href="#DejaVuSans-2212"/>
       <use xlink:href="#DejaVuSans-30" x="83.789062"/>
       <use xlink:href="#DejaVuSans-2e" x="147.412109"/>
       <use xlink:href="#DejaVuSans-32" x="179.199219"/>
      </g>
     </g>
    </g>
    <g id="ytick_5">
     <g id="line2d_7">
      <g>
       <use xlink:href="#m3b2a05d1e7" x="54.087656" y="85.335691" style="stroke: #000000; stroke-width: 0.8"/>
      </g>
     </g>
     <g id="text_7">
      <!-- 0.0 -->
      <g transform="translate(31.184531 89.13491) scale(0.1 -0.1)">
       <use xlink:href="#DejaVuSans-30"/>
       <use xlink:href="#DejaVuSans-2e" x="63.623047"/>
       <use xlink:href="#DejaVuSans-30" x="95.410156"/>
      </g>
     </g>
    </g>
    <g id="ytick_6">
     <g id="line2d_8">
      <g>
       <use xlink:href="#m3b2a05d1e7" x="54.087656" y="39.493206" style="stroke: #000000; stroke-width: 0.8"/>
      </g>
     </g>
     <g id="text_8">
      <!-- 0.2 -->
      <g transform="translate(31.184531 43.292425) scale(0.1 -0.1)">
       <use xlink:href="#DejaVuSans-30"/>
       <use xlink:href="#DejaVuSans-2e" x="63.623047"/>
       <use xlink:href="#DejaVuSans-32" x="95.410156"/>
      </g>
     </g>
    </g>
   </g>
   <g id="line2d_9">
    <path d="M 70.320384 85.335691 
L 75.025522 85.335691 
L 79.73066 85.335691 
L 84.435799 85.335691 
L 89.140937 85.335691 
L 93.846075 85.335691 
L 98.551214 85.335691 
L 103.256352 85.335691 
L 107.96149 85.335691 
L 112.666629 85.335691 
L 117.371767 85.335691 
L 122.076905 85.335691 
L 126.782044 81.101272 
L 131.487182 73.199257 
L 136.19232 66.578584 
L 140.897459 61.217081 
L 145.602597 57.876061 
L 150.307735 56.114659 
L 155.012874 56.071753 
L 159.718012 57.542957 
L 164.42315 59.71454 
L 169.128289 62.487262 
L 173.833427 65.813255 
L 178.538565 69.735322 
L 183.243704 74.319061 
L 187.948842 79.412535 
L 192.65398 84.723035 
L 197.359119 85.335691 
L 202.064257 85.335691 
L 206.769395 85.335691 
L 211.474534 85.335691 
L 216.179672 85.335691 
L 220.88481 85.335691 
L 225.589949 85.335691 
L 230.295087 85.335691 
L 235.000225 85.779728 
L 239.705364 96.885192 
L 244.410502 107.287377 
L 249.11564 116.379459 
L 253.820779 124.237563 
L 258.525917 130.968662 
L 263.231055 136.690216 
L 267.936194 141.534908 
L 272.641332 145.609806 
L 277.34647 149.007229 
L 282.051609 151.853568 
L 286.756747 154.221172 
L 291.461885 156.170094 
L 296.167024 157.795305 
L 300.872162 159.123336 
L 305.577301 160.231176 
L 310.282439 161.145351 
L 314.987577 161.882713 
L 319.692716 162.500124 
L 324.397854 163.009225 
L 329.102992 163.411902 
L 333.808131 163.751329 
L 338.513269 164.031444 
L 343.218407 164.260912 
L 347.923546 164.447943 
L 352.628684 164.599427 
L 357.333822 164.730682 
L 362.038961 164.82935 
L 366.744099 164.915406 
L 371.449237 164.988342 
L 376.154376 165.043067 
L 380.859514 165.085682 
L 385.564652 165.12384 
L 390.269791 165.160365 
L 394.974929 165.194388 
" clip-path="url(#pcd67f22b38)" style="fill: none; stroke: #1f77b4; stroke-width: 1.5; stroke-linecap: square"/>
   </g>
   <g id="line2d_10">
    <path d="M 70.320384 85.335691 
L 75.025522 85.335691 
L 79.73066 85.335691 
L 84.435799 85.335691 
L 89.140937 85.335691 
L 93.846075 85.335691 
L 98.551214 85.335691 
L 103.256352 85.335691 
L 107.96149 85.335691 
L 112.666629 85.335691 
L 117.371767 85.335691 
L 122.076905 88.892709 
L 126.782044 103.549781 
L 131.487182 114.382481 
L 136.19232 124.49979 
L 140.897459 134.01398 
L 145.602597 141.870435 
L 150.307735 148.636638 
L 155.012874 153.988233 
L 159.718012 158.002591 
L 164.42315 161.981734 
L 169.128289 166.196564 
L 173.833427 170.776167 
L 178.538565 175.749314 
L 183.243704 180.995124 
L 187.948842 186.622048 
L 192.65398 192.406025 
L 197.359119 193.687942 
L 202.064257 194.229989 
L 206.769395 194.671647 
L 211.474534 195.03574 
L 216.179672 195.333777 
L 220.88481 195.579239 
L 225.589949 195.779131 
L 230.295087 195.945606 
L 235.000225 196.51725 
L 239.705364 207.568944 
L 244.410502 217.95424 
L 249.11564 227.059538 
L 253.820779 234.948683 
L 258.525917 241.720172 
L 263.231055 247.485626 
L 267.936194 252.374518 
L 272.641332 256.491303 
L 277.34647 259.926563 
L 282.051609 262.807147 
L 286.756747 265.204711 
L 291.461885 267.179093 
L 296.167024 268.826475 
L 300.872162 270.172806 
L 305.577301 271.296539 
L 310.282439 272.224085 
L 314.987577 272.972043 
L 319.692716 273.598644 
L 324.397854 274.115491 
L 329.102992 274.523902 
L 333.808131 274.868521 
L 338.513269 275.152913 
L 343.218407 275.385938 
L 347.923546 275.575821 
L 352.628684 275.729566 
L 357.333822 275.862999 
L 362.038961 275.963108 
L 366.744099 276.050529 
L 371.449237 276.124672 
L 376.154376 276.180167 
L 380.859514 276.223391 
L 385.564652 276.262143 
L 390.269791 276.299367 
L 394.974929 276.334125 
" clip-path="url(#pcd67f22b38)" style="fill: none; stroke: #aec7e8; stroke-width: 1.5; stroke-linecap: square"/>
   </g>
   <g id="line2d_11">
    <path d="M 70.320384 85.335691 
L 75.025522 85.335691 
L 79.73066 85.335691 
L 84.435799 85.335691 
L 89.140937 85.335691 
L 93.846075 85.335691 
L 98.551214 85.335691 
L 103.256352 85.335691 
L 107.96149 85.335691 
L 112.666629 85.335691 
L 117.371767 85.335691 
L 122.076905 85.335691 
L 126.782044 85.335691 
L 131.487182 85.335691 
L 136.19232 85.335691 
L 140.897459 85.335691 
L 145.602597 80.491921 
L 150.307735 75.004981 
L 155.012874 69.467317 
L 159.718012 63.683021 
L 164.42315 58.403325 
L 169.128289 53.767725 
L 173.833427 49.794217 
L 178.538565 46.417444 
L 183.243704 44.161694 
L 187.948842 42.343197 
L 192.65398 40.836822 
L 197.359119 39.58304 
L 202.064257 38.48903 
L 206.769395 37.573185 
L 211.474534 36.810132 
L 216.179672 36.171605 
L 220.88481 35.64414 
L 225.589949 35.208096 
L 230.295087 34.845184 
L 235.000225 34.554179 
L 239.705364 34.47136 
L 244.410502 34.432371 
L 249.11564 34.416178 
L 253.820779 34.414125 
L 258.525917 34.420423 
L 263.231055 34.431237 
L 267.936194 34.444424 
L 272.641332 34.458147 
L 277.34647 34.470962 
L 282.051609 34.483202 
L 286.756747 34.494252 
L 291.461885 34.503471 
L 296.167024 34.511893 
L 300.872162 34.518683 
L 305.577301 34.524796 
L 310.282439 34.529995 
L 314.987577 34.533881 
L 319.692716 34.537521 
L 324.397854 34.540601 
L 329.102992 34.542643 
L 333.808131 34.544633 
L 338.513269 34.54632 
L 343.218407 34.547731 
L 347.923546 34.548859 
L 352.628684 34.549715 
L 357.333822 34.550644 
L 362.038961 34.551129 
L 366.744099 34.551669 
L 371.449237 34.552234 
L 376.154376 34.55251 
L 380.859514 34.552683 
L 385.564652 34.552912 
L 390.269791 34.553275 
L 394.974929 34.553704 
" clip-path="url(#pcd67f22b38)" style="fill: none; stroke: #ffbb78; stroke-width: 1.5; stroke-linecap: square"/>
   </g>
   <g id="line2d_12">
    <path d="M 70.320384 85.335691 
L 75.025522 85.335691 
L 79.73066 85.335691 
L 84.435799 85.335691 
L 89.140937 85.335691 
L 93.846075 85.335691 
L 98.551214 85.335691 
L 103.256352 85.335691 
L 107.96149 85.335691 
L 112.666629 85.335691 
L 117.371767 85.335691 
L 122.076905 85.335691 
L 126.782044 85.335691 
L 131.487182 85.335691 
L 136.19232 85.335691 
L 140.897459 85.335691 
L 145.602597 85.335691 
L 150.307735 85.335691 
L 155.012874 83.548003 
L 159.718012 78.981532 
L 164.42315 74.897474 
L 169.128289 71.366845 
L 173.833427 68.561593 
L 178.538565 66.264876 
L 183.243704 64.262447 
L 187.948842 62.55997 
L 192.65398 61.130754 
L 197.359119 59.927372 
L 202.064257 58.910524 
L 206.769395 58.058774 
L 211.474534 57.349298 
L 216.179672 56.757221 
L 220.88481 56.269027 
L 225.589949 55.864372 
L 230.295087 55.528143 
L 235.000225 55.255001 
L 239.705364 55.103104 
L 244.410502 54.99021 
L 249.11564 54.903733 
L 253.820779 54.837149 
L 258.525917 54.785697 
L 263.231055 54.74572 
L 267.936194 54.71462 
L 272.641332 54.690295 
L 277.34647 54.670982 
L 282.051609 54.655825 
L 286.756747 54.643806 
L 291.461885 54.634068 
L 296.167024 54.626388 
L 300.872162 54.620084 
L 305.577301 54.615124 
L 310.282439 54.611155 
L 314.987577 54.607773 
L 319.692716 54.605139 
L 324.397854 54.603065 
L 329.102992 54.601154 
L 333.808131 54.599715 
L 338.513269 54.598576 
L 343.218407 54.597625 
L 347.923546 54.596827 
L 352.628684 54.596209 
L 357.333822 54.595727 
L 362.038961 54.595255 
L 366.744099 54.594954 
L 371.449237 54.594702 
L 376.154376 54.594438 
L 380.859514 54.594201 
L 385.564652 54.594091 
L 390.269791 54.594038 
L 394.974929 54.594012 
" clip-path="url(#pcd67f22b38)" style="fill: none; stroke: #98df8a; stroke-width: 1.5; stroke-linecap: square"/>
   </g>
   <g id="line2d_13">
    <path d="M 70.320384 85.335691 
L 75.025522 85.335691 
L 79.73066 85.335691 
L 84.435799 85.335691 
L 89.140937 85.335691 
L 93.846075 85.335691 
L 98.551214 85.335691 
L 103.256352 85.335691 
L 107.96149 85.335691 
L 112.666629 85.335691 
L 117.371767 85.335691 
L 122.076905 85.335691 
L 126.782044 85.335691 
L 131.487182 85.335691 
L 136.19232 85.335691 
L 140.897459 85.335691 
L 145.602597 85.335691 
L 150.307735 85.335691 
L 155.012874 85.335691 
L 159.718012 85.335691 
L 164.42315 85.335691 
L 169.128289 85.335691 
L 173.833427 85.335691 
L 178.538565 85.137585 
L 183.243704 82.905357 
L 187.948842 80.774771 
L 192.65398 78.975199 
L 197.359119 77.470083 
L 202.064257 76.1788 
L 206.769395 75.098874 
L 211.474534 74.198859 
L 216.179672 73.451767 
L 220.88481 72.831595 
L 225.589949 72.31966 
L 230.295087 71.89674 
L 235.000225 71.546301 
L 239.705364 71.244244 
L 244.410502 70.994899 
L 249.11564 70.790619 
L 253.820779 70.623201 
L 258.525917 70.486017 
L 263.231055 70.373636 
L 267.936194 70.28158 
L 272.641332 70.206188 
L 277.34647 70.144402 
L 282.051609 70.093794 
L 286.756747 70.052373 
L 291.461885 70.018424 
L 296.167024 69.990629 
L 300.872162 69.967846 
L 305.577301 69.949233 
L 310.282439 69.933972 
L 314.987577 69.921491 
L 319.692716 69.91123 
L 324.397854 69.902869 
L 329.102992 69.896005 
L 333.808131 69.890361 
L 338.513269 69.885782 
L 343.218407 69.882014 
L 347.923546 69.878923 
L 352.628684 69.876416 
L 357.333822 69.874356 
L 362.038961 69.872657 
L 366.744099 69.871263 
L 371.449237 69.870124 
L 376.154376 69.869207 
L 380.859514 69.868459 
L 385.564652 69.867805 
L 390.269791 69.867302 
L 394.974929 69.866918 
" clip-path="url(#pcd67f22b38)" style="fill: none; stroke: #d62728; stroke-width: 1.5; stroke-linecap: square"/>
   </g>
   <g id="line2d_14">
    <path d="M 70.320384 85.335691 
L 75.025522 85.335691 
L 79.73066 85.335691 
L 84.435799 85.335691 
L 89.140937 85.335691 
L 93.846075 85.335691 
L 98.551214 85.335691 
L 103.256352 85.335691 
L 107.96149 85.335691 
L 112.666629 85.335691 
L 117.371767 85.335691 
L 122.076905 85.335691 
L 126.782044 85.335691 
L 131.487182 85.335691 
L 136.19232 85.335691 
L 140.897459 85.335691 
L 145.602597 85.335691 
L 150.307735 87.476517 
L 155.012874 92.891123 
L 159.718012 97.308369 
L 164.42315 101.130792 
L 169.128289 104.452164 
L 173.833427 107.12472 
L 178.538565 109.516717 
L 183.243704 111.922256 
L 187.948842 113.999722 
L 192.65398 115.744938 
L 197.359119 117.198091 
L 202.064257 118.441893 
L 206.769395 119.489745 
L 211.474534 120.366249 
L 216.179672 121.099002 
L 220.88481 121.706997 
L 225.589949 122.212138 
L 230.295087 122.629299 
L 235.000225 122.969033 
L 239.705364 123.118043 
L 244.410502 123.212379 
L 249.11564 123.273954 
L 253.820779 123.312998 
L 258.525917 123.336758 
L 263.231055 123.350319 
L 267.936194 123.356967 
L 272.641332 123.359371 
L 277.34647 123.359635 
L 282.051609 123.357994 
L 286.756747 123.355592 
L 291.461885 123.35336 
L 296.167024 123.350661 
L 300.872162 123.348556 
L 305.577301 123.346247 
L 310.282439 123.344096 
L 314.987577 123.342697 
L 319.692716 123.341178 
L 324.397854 123.339789 
L 329.102992 123.339104 
L 333.808131 123.33825 
L 338.513269 123.337459 
L 343.218407 123.336814 
L 347.923546 123.33633 
L 352.628684 123.335975 
L 357.333822 123.335494 
L 362.038961 123.335311 
L 366.744099 123.335025 
L 371.449237 123.334731 
L 376.154376 123.334624 
L 380.859514 123.334612 
L 385.564652 123.334492 
L 390.269791 123.334254 
L 394.974929 123.333929 
" clip-path="url(#pcd67f22b38)" style="fill: none; stroke: #9467bd; stroke-width: 1.5; stroke-linecap: square"/>
   </g>
   <g id="line2d_15">
    <path d="M 70.320384 85.335691 
L 75.025522 85.335691 
L 79.73066 85.335691 
L 84.435799 85.335691 
L 89.140937 85.335691 
L 93.846075 85.335691 
L 98.551214 85.335691 
L 103.256352 85.335691 
L 107.96149 85.335691 
L 112.666629 85.335691 
L 117.371767 85.335691 
L 122.076905 85.335691 
L 126.782044 85.335691 
L 131.487182 85.335691 
L 136.19232 85.335691 
L 140.897459 85.335691 
L 145.602597 85.335691 
L 150.307735 85.335691 
L 155.012874 86.943925 
L 159.718012 92.096018 
L 164.42315 95.952317 
L 169.128289 99.305815 
L 173.833427 102.239259 
L 178.538565 104.634525 
L 183.243704 106.905874 
L 187.948842 108.872579 
L 192.65398 110.535366 
L 197.359119 111.804667 
L 202.064257 112.621495 
L 206.769395 113.291403 
L 211.474534 113.840923 
L 216.179672 114.300455 
L 220.88481 114.675366 
L 225.589949 114.983614 
L 230.295087 115.238446 
L 235.000225 115.448616 
L 239.705364 115.657614 
L 244.410502 115.832388 
L 249.11564 115.977051 
L 253.820779 116.096688 
L 258.525917 116.195531 
L 263.231055 116.277091 
L 267.936194 116.344356 
L 272.641332 116.399758 
L 277.34647 116.445355 
L 282.051609 116.482871 
L 286.756747 116.513677 
L 291.461885 116.538995 
L 296.167024 116.559784 
L 300.872162 116.576845 
L 305.577301 116.590811 
L 310.282439 116.602286 
L 314.987577 116.611679 
L 319.692716 116.619399 
L 324.397854 116.625717 
L 329.102992 116.63087 
L 333.808131 116.635091 
L 338.513269 116.638565 
L 343.218407 116.641439 
L 347.923546 116.643741 
L 352.628684 116.645685 
L 357.333822 116.647224 
L 362.038961 116.648498 
L 366.744099 116.649554 
L 371.449237 116.650415 
L 376.154376 116.651129 
L 380.859514 116.651676 
L 385.564652 116.652149 
L 390.269791 116.652558 
L 394.974929 116.652867 
" clip-path="url(#pcd67f22b38)" style="fill: none; stroke: #8c564b; stroke-width: 1.5; stroke-linecap: square"/>
   </g>
   <g id="line2d_16">
    <path d="M 70.320384 85.335691 
L 75.025522 85.335691 
L 79.73066 85.335691 
L 84.435799 85.335691 
L 89.140937 85.335691 
L 93.846075 85.335691 
L 98.551214 85.335691 
L 103.256352 85.335691 
L 107.96149 85.335691 
L 112.666629 85.335691 
L 117.371767 85.335691 
L 122.076905 85.335691 
L 126.782044 85.335691 
L 131.487182 85.335691 
L 136.19232 85.335691 
L 140.897459 85.335691 
L 145.602597 85.335691 
L 150.307735 85.335691 
L 155.012874 85.335691 
L 159.718012 82.944795 
L 164.42315 79.107003 
L 169.128289 75.79515 
L 173.833427 72.917087 
L 178.538565 70.401402 
L 183.243704 68.142156 
L 187.948842 66.229198 
L 192.65398 64.627331 
L 197.359119 63.086658 
L 202.064257 61.35417 
L 206.769395 59.886218 
L 211.474534 58.660937 
L 216.179672 57.640568 
L 220.88481 56.795632 
L 225.589949 56.095703 
L 230.295087 55.515634 
L 235.000225 55.040865 
L 239.705364 54.697431 
L 244.410502 54.421155 
L 249.11564 54.196779 
L 253.820779 54.014396 
L 258.525917 53.866012 
L 263.231055 53.745177 
L 267.936194 53.646767 
L 272.641332 53.566522 
L 277.34647 53.50098 
L 282.051609 53.447569 
L 286.756747 53.403947 
L 291.461885 53.368225 
L 296.167024 53.339106 
L 300.872162 53.315202 
L 305.577301 53.295779 
L 310.282439 53.279848 
L 314.987577 53.266769 
L 319.692716 53.256118 
L 324.397854 53.247423 
L 329.102992 53.240214 
L 333.808131 53.234366 
L 338.513269 53.229576 
L 343.218407 53.225664 
L 347.923546 53.222436 
L 352.628684 53.219816 
L 357.333822 53.217704 
L 362.038961 53.215929 
L 366.744099 53.214489 
L 371.449237 53.213342 
L 376.154376 53.212349 
L 380.859514 53.21155 
L 385.564652 53.210894 
L 390.269791 53.210398 
L 394.974929 53.209991 
" clip-path="url(#pcd67f22b38)" style="fill: none; stroke: #c49c94; stroke-width: 1.5; stroke-linecap: square"/>
   </g>
   <g id="line2d_17">
    <path d="M 70.320384 85.335691 
L 75.025522 85.335691 
L 79.73066 85.335691 
L 84.435799 85.335691 
L 89.140937 85.335691 
L 93.846075 85.335691 
L 98.551214 85.335691 
L 103.256352 85.335691 
L 107.96149 85.335691 
L 112.666629 85.335691 
L 117.371767 85.335691 
L 122.076905 85.335691 
L 126.782044 85.335691 
L 131.487182 85.335691 
L 136.19232 85.335691 
L 140.897459 85.335691 
L 145.602597 85.335691 
L 150.307735 85.335691 
L 155.012874 85.335691 
L 159.718012 85.335691 
L 164.42315 85.335691 
L 169.128289 85.335691 
L 173.833427 85.335691 
L 178.538565 85.335691 
L 183.243704 85.335691 
L 187.948842 85.335691 
L 192.65398 85.335691 
L 197.359119 84.826919 
L 202.064257 83.26036 
L 206.769395 81.912687 
L 211.474534 80.790055 
L 216.179672 79.857995 
L 220.88481 79.084026 
L 225.589949 78.446425 
L 230.295087 77.917129 
L 235.000225 77.483574 
L 239.705364 77.15257 
L 244.410502 76.884081 
L 249.11564 76.665241 
L 253.820779 76.486795 
L 258.525917 76.341239 
L 263.231055 76.222423 
L 267.936194 76.125489 
L 272.641332 76.046329 
L 277.34647 75.981579 
L 282.051609 75.92873 
L 286.756747 75.885525 
L 291.461885 75.850191 
L 296.167024 75.821279 
L 300.872162 75.797625 
L 305.577301 75.778313 
L 310.282439 75.76248 
L 314.987577 75.749518 
L 319.692716 75.738926 
L 324.397854 75.730273 
L 329.102992 75.723145 
L 333.808131 75.717327 
L 338.513269 75.712563 
L 343.218407 75.708679 
L 347.923546 75.705498 
L 352.628684 75.702866 
L 357.333822 75.700778 
L 362.038961 75.698997 
L 366.744099 75.697564 
L 371.449237 75.696402 
L 376.154376 75.695457 
L 380.859514 75.694647 
L 385.564652 75.694036 
L 390.269791 75.693485 
L 394.974929 75.693101 
" clip-path="url(#pcd67f22b38)" style="fill: none; stroke: #f7b6d2; stroke-width: 1.5; stroke-linecap: square"/>
   </g>
   <g id="line2d_18">
    <path d="M 70.320384 85.335691 
L 75.025522 85.335691 
L 79.73066 85.335691 
L 84.435799 85.335691 
L 89.140937 85.335691 
L 93.846075 85.335691 
L 98.551214 85.335691 
L 103.256352 85.335691 
L 107.96149 85.335691 
L 112.666629 85.335691 
L 117.371767 85.335691 
L 122.076905 85.335691 
L 126.782044 85.335691 
L 131.487182 85.335691 
L 136.19232 85.335691 
L 140.897459 85.335691 
L 145.602597 85.335691 
L 150.307735 85.335691 
L 155.012874 85.335691 
L 159.718012 85.335691 
L 164.42315 85.335691 
L 169.128289 85.335691 
L 173.833427 85.335691 
L 178.538565 83.563422 
L 183.243704 81.238291 
L 187.948842 79.283433 
L 192.65398 77.639767 
L 197.359119 76.27872 
L 202.064257 75.171633 
L 206.769395 74.248435 
L 211.474534 73.483493 
L 216.179672 72.850279 
L 220.88481 72.327859 
L 225.589949 71.895746 
L 230.295087 71.537725 
L 235.000225 71.244414 
L 239.705364 70.98853 
L 244.410502 70.771986 
L 249.11564 70.589393 
L 253.820779 70.435889 
L 258.525917 70.307212 
L 263.231055 70.199644 
L 267.936194 70.109919 
L 272.641332 70.035295 
L 277.34647 69.97342 
L 282.051609 69.922135 
L 286.756747 69.879769 
L 291.461885 69.844791 
L 296.167024 69.815984 
L 300.872162 69.792277 
L 305.577301 69.77276 
L 310.282439 69.756668 
L 314.987577 69.743539 
L 319.692716 69.732723 
L 324.397854 69.723826 
L 329.102992 69.716634 
L 333.808131 69.710648 
L 338.513269 69.705744 
L 343.218407 69.701733 
L 347.923546 69.698446 
L 352.628684 69.695799 
L 357.333822 69.693547 
L 362.038961 69.691763 
L 366.744099 69.690269 
L 371.449237 69.689027 
L 376.154376 69.688067 
L 380.859514 69.687268 
L 385.564652 69.686608 
L 390.269791 69.686024 
L 394.974929 69.685532 
" clip-path="url(#pcd67f22b38)" style="fill: none; stroke: #c7c7c7; stroke-width: 1.5; stroke-linecap: square"/>
   </g>
   <g id="line2d_19">
    <path d="M 70.320384 85.335691 
L 75.025522 85.335691 
L 79.73066 85.335691 
L 84.435799 85.335691 
L 89.140937 85.335691 
L 93.846075 85.335691 
L 98.551214 85.335691 
L 103.256352 85.335691 
L 107.96149 85.335691 
L 112.666629 85.335691 
L 117.371767 85.335691 
L 122.076905 85.335691 
L 126.782044 85.335691 
L 131.487182 85.335691 
L 136.19232 85.335691 
L 140.897459 85.335691 
L 145.602597 85.335691 
L 150.307735 85.335691 
L 155.012874 85.335691 
L 159.718012 81.199363 
L 164.42315 76.971518 
L 169.128289 73.374232 
L 173.833427 70.638829 
L 178.538565 68.592141 
L 183.243704 66.839705 
L 187.948842 65.34893 
L 192.65398 64.103288 
L 197.359119 63.056489 
L 202.064257 62.16271 
L 206.769395 61.416221 
L 211.474534 60.792311 
L 216.179672 60.276921 
L 220.88481 59.846922 
L 225.589949 59.493846 
L 230.295087 59.199839 
L 235.000225 58.961823 
L 239.705364 58.84208 
L 244.410502 58.757752 
L 249.11564 58.69575 
L 253.820779 58.650016 
L 258.525917 58.61619 
L 263.231055 58.591078 
L 267.936194 58.572476 
L 272.641332 58.558551 
L 277.34647 58.547904 
L 282.051609 58.539979 
L 286.756747 58.533953 
L 291.461885 58.529125 
L 296.167024 58.525536 
L 300.872162 58.522566 
L 305.577301 58.520394 
L 310.282439 58.518703 
L 314.987577 58.517178 
L 319.692716 58.516101 
L 324.397854 58.515289 
L 329.102992 58.514384 
L 333.808131 58.513796 
L 338.513269 58.513367 
L 343.218407 58.512987 
L 347.923546 58.512672 
L 352.628684 58.512394 
L 357.333822 58.512267 
L 362.038961 58.512055 
L 366.744099 58.511941 
L 371.449237 58.511872 
L 376.154376 58.511745 
L 380.859514 58.51164 
L 385.564652 58.511563 
L 390.269791 58.511612 
L 394.974929 58.511667 
" clip-path="url(#pcd67f22b38)" style="fill: none; stroke: #bcbd22; stroke-width: 1.5; stroke-linecap: square"/>
   </g>
   <g id="line2d_20">
    <path d="M 70.320384 85.335691 
L 75.025522 85.335691 
L 79.73066 85.335691 
L 84.435799 85.335691 
L 89.140937 85.335691 
L 93.846075 85.335691 
L 98.551214 85.335691 
L 103.256352 85.335691 
L 107.96149 85.335691 
L 112.666629 85.335691 
L 117.371767 85.335691 
L 122.076905 85.335691 
L 126.782044 85.335691 
L 131.487182 85.335691 
L 136.19232 85.335691 
L 140.897459 85.335691 
L 145.602597 85.335691 
L 150.307735 85.335691 
L 155.012874 85.335691 
L 159.718012 85.335691 
L 164.42315 85.335691 
L 169.128289 85.087451 
L 173.833427 83.613206 
L 178.538565 82.018461 
L 183.243704 80.937419 
L 187.948842 80.080629 
L 192.65398 79.372603 
L 197.359119 78.771531 
L 202.064257 78.275551 
L 206.769395 77.868305 
L 211.474534 77.534805 
L 216.179672 77.260945 
L 220.88481 77.036019 
L 225.589949 76.85358 
L 230.295087 76.70235 
L 235.000225 76.578512 
L 239.705364 76.473968 
L 244.410502 76.383602 
L 249.11564 76.306307 
L 253.820779 76.240626 
L 258.525917 76.185081 
L 263.231055 76.138319 
L 267.936194 76.099059 
L 272.641332 76.066252 
L 277.34647 76.039001 
L 282.051609 76.016294 
L 286.756747 75.997483 
L 291.461885 75.981993 
L 296.167024 75.969124 
L 300.872162 75.958593 
L 305.577301 75.94986 
L 310.282439 75.942665 
L 314.987577 75.936833 
L 319.692716 75.931976 
L 324.397854 75.927974 
L 329.102992 75.9248 
L 333.808131 75.922118 
L 338.513269 75.919926 
L 343.218407 75.918123 
L 347.923546 75.916646 
L 352.628684 75.915467 
L 357.333822 75.914453 
L 362.038961 75.913646 
L 366.744099 75.913002 
L 371.449237 75.912423 
L 376.154376 75.911981 
L 380.859514 75.911616 
L 385.564652 75.911361 
L 390.269791 75.911078 
L 394.974929 75.910812 
" clip-path="url(#pcd67f22b38)" style="fill: none; stroke: #17becf; stroke-width: 1.5; stroke-linecap: square"/>
   </g>
   <g id="line2d_21">
    <path d="M 70.320384 85.40802 
L 75.025522 85.103398 
L 79.73066 85.21408 
L 84.435799 85.178111 
L 89.140937 85.290349 
L 93.846075 85.378591 
L 98.551214 85.287271 
L 103.256352 85.32356 
L 107.96149 85.331961 
L 112.666629 85.332662 
L 117.371767 85.340158 
L 122.076905 85.335543 
L 126.782044 85.327411 
L 131.487182 85.279062 
L 136.19232 85.183215 
L 140.897459 85.040806 
L 145.602597 84.850664 
L 150.307735 84.651284 
L 155.012874 84.50803 
L 159.718012 84.405832 
L 164.42315 84.323117 
L 169.128289 84.255057 
L 173.833427 84.197114 
L 178.538565 84.149278 
L 183.243704 84.110542 
L 187.948842 84.08162 
L 192.65398 84.060163 
L 197.359119 84.032304 
L 202.064257 84.008498 
L 206.769395 83.991263 
L 211.474534 83.97617 
L 216.179672 83.965568 
L 220.88481 83.954879 
L 225.589949 83.948012 
L 230.295087 83.941016 
L 235.000225 83.936694 
L 239.705364 83.956339 
L 244.410502 83.969761 
L 249.11564 83.977561 
L 253.820779 83.981401 
L 258.525917 83.982518 
L 263.231055 83.98194 
L 267.936194 83.980353 
L 272.641332 83.978224 
L 277.34647 83.975908 
L 282.051609 83.973577 
L 286.756747 83.971388 
L 291.461885 83.969421 
L 296.167024 83.967646 
L 300.872162 83.966105 
L 305.577301 83.964744 
L 310.282439 83.963613 
L 314.987577 83.962661 
L 319.692716 83.96185 
L 324.397854 83.961176 
L 329.102992 83.960646 
L 333.808131 83.960154 
L 338.513269 83.959787 
L 343.218407 83.95946 
L 347.923546 83.959183 
L 352.628684 83.95898 
L 357.333822 83.958785 
L 362.038961 83.95865 
L 366.744099 83.958521 
L 371.449237 83.958421 
L 376.154376 83.958343 
L 380.859514 83.958263 
L 385.564652 83.958228 
L 390.269791 83.958163 
L 394.974929 83.958115 
" clip-path="url(#pcd67f22b38)" style="fill: none; stroke: #9edae5; stroke-width: 1.5; stroke-linecap: square"/>
   </g>
   <g id="line2d_22">
    <path d="M 258.525917 288.430125 
L 258.525917 22.318125 
" clip-path="url(#pcd67f22b38)" style="fill: none; stroke-dasharray: 5.55,2.4; stroke-dashoffset: 0; stroke: #ff0000; stroke-width: 1.5"/>
   </g>
   <g id="patch_3">
    <path d="M 54.087656 288.430125 
L 54.087656 22.318125 
" style="fill: none; stroke: #000000; stroke-width: 0.8; stroke-linejoin: miter; stroke-linecap: square"/>
   </g>
   <g id="patch_4">
    <path d="M 411.207656 288.430125 
L 411.207656 22.318125 
" style="fill: none; stroke: #000000; stroke-width: 0.8; stroke-linejoin: miter; stroke-linecap: square"/>
   </g>
   <g id="patch_5">
    <path d="M 54.087656 288.430125 
L 411.207656 288.430125 
" style="fill: none; stroke: #000000; stroke-width: 0.8; stroke-linejoin: miter; stroke-linecap: square"/>
   </g>
   <g id="patch_6">
    <path d="M 54.087656 22.318125 
L 411.207656 22.318125 
" style="fill: none; stroke: #000000; stroke-width: 0.8; stroke-linejoin: miter; stroke-linecap: square"/>
   </g>
   <g id="text_9">
    <!-- Elastic Net Final coefficients -->
    <g transform="translate(148.494844 16.318125) scale(0.12 -0.12)">
     <defs>
      <path id="DejaVuSans-45" d="M 628 4666 
L 3578 4666 
L 3578 4134 
L 1259 4134 
L 1259 2753 
L 3481 2753 
L 3481 2222 
L 1259 2222 
L 1259 531 
L 3634 531 
L 3634 0 
L 628 0 
L 628 4666 
z
" transform="scale(0.015625)"/>
      <path id="DejaVuSans-63" d="M 3122 3366 
L 3122 2828 
Q 2878 2963 2633 3030 
Q 2388 3097 2138 3097 
Q 1578 3097 1268 2742 
Q 959 2388 959 1747 
Q 959 1106 1268 751 
Q 1578 397 2138 397 
Q 2388 397 2633 464 
Q 2878 531 3122 666 
L 3122 134 
Q 2881 22 2623 -34 
Q 2366 -91 2075 -91 
Q 1284 -91 818 406 
Q 353 903 353 1747 
Q 353 2603 823 3093 
Q 1294 3584 2113 3584 
Q 2378 3584 2631 3529 
Q 2884 3475 3122 3366 
z
" transform="scale(0.015625)"/>
      <path id="DejaVuSans-4e" d="M 628 4666 
L 1478 4666 
L 3547 763 
L 3547 4666 
L 4159 4666 
L 4159 0 
L 3309 0 
L 1241 3903 
L 1241 0 
L 628 0 
L 628 4666 
z
" transform="scale(0.015625)"/>
      <path id="DejaVuSans-46" d="M 628 4666 
L 3309 4666 
L 3309 4134 
L 1259 4134 
L 1259 2759 
L 3109 2759 
L 3109 2228 
L 1259 2228 
L 1259 0 
L 628 0 
L 628 4666 
z
" transform="scale(0.015625)"/>
      <path id="DejaVuSans-66" d="M 2375 4863 
L 2375 4384 
L 1825 4384 
Q 1516 4384 1395 4259 
Q 1275 4134 1275 3809 
L 1275 3500 
L 2222 3500 
L 2222 3053 
L 1275 3053 
L 1275 0 
L 697 0 
L 697 3053 
L 147 3053 
L 147 3500 
L 697 3500 
L 697 3744 
Q 697 4328 969 4595 
Q 1241 4863 1831 4863 
L 2375 4863 
z
" transform="scale(0.015625)"/>
     </defs>
     <use xlink:href="#DejaVuSans-45"/>
     <use xlink:href="#DejaVuSans-6c" x="63.183594"/>
     <use xlink:href="#DejaVuSans-61" x="90.966797"/>
     <use xlink:href="#DejaVuSans-73" x="152.246094"/>
     <use xlink:href="#DejaVuSans-74" x="204.345703"/>
     <use xlink:href="#DejaVuSans-69" x="243.554688"/>
     <use xlink:href="#DejaVuSans-63" x="271.337891"/>
     <use xlink:href="#DejaVuSans-20" x="326.318359"/>
     <use xlink:href="#DejaVuSans-4e" x="358.105469"/>
     <use xlink:href="#DejaVuSans-65" x="432.910156"/>
     <use xlink:href="#DejaVuSans-74" x="494.433594"/>
     <use xlink:href="#DejaVuSans-20" x="533.642578"/>
     <use xlink:href="#DejaVuSans-46" x="565.429688"/>
     <use xlink:href="#DejaVuSans-69" x="615.699219"/>
     <use xlink:href="#DejaVuSans-6e" x="643.482422"/>
     <use xlink:href="#DejaVuSans-61" x="706.861328"/>
     <use xlink:href="#DejaVuSans-6c" x="768.140625"/>
     <use xlink:href="#DejaVuSans-20" x="795.923828"/>
     <use xlink:href="#DejaVuSans-63" x="827.710938"/>
     <use xlink:href="#DejaVuSans-6f" x="882.691406"/>
     <use xlink:href="#DejaVuSans-65" x="943.873047"/>
     <use xlink:href="#DejaVuSans-66" x="1005.396484"/>
     <use xlink:href="#DejaVuSans-66" x="1040.601562"/>
     <use xlink:href="#DejaVuSans-69" x="1075.806641"/>
     <use xlink:href="#DejaVuSans-63" x="1103.589844"/>
     <use xlink:href="#DejaVuSans-69" x="1158.570312"/>
     <use xlink:href="#DejaVuSans-65" x="1186.353516"/>
     <use xlink:href="#DejaVuSans-6e" x="1247.876953"/>
     <use xlink:href="#DejaVuSans-74" x="1311.255859"/>
     <use xlink:href="#DejaVuSans-73" x="1350.464844"/>
    </g>
   </g>
   <g id="legend_1">
    <g id="patch_7">
     <path d="M 9.2 389.874925 
L 456.095312 389.874925 
Q 458.095312 389.874925 458.095312 387.874925 
L 458.095312 314.3718 
Q 458.095312 312.3718 456.095312 312.3718 
L 9.2 312.3718 
Q 7.2 312.3718 7.2 314.3718 
L 7.2 387.874925 
Q 7.2 389.874925 9.2 389.874925 
z
" style="fill: #ffffff; opacity: 0.8; stroke: #cccccc; stroke-linejoin: miter"/>
    </g>
    <g id="line2d_23">
     <path d="M 11.2 320.470237 
L 21.2 320.470237 
L 31.2 320.470237 
" style="fill: none; stroke: #1f77b4; stroke-width: 1.5; stroke-linecap: square"/>
    </g>
    <g id="text_10">
     <!-- int_rate -->
     <g transform="translate(39.2 323.970237) scale(0.1 -0.1)">
      <defs>
       <path id="DejaVuSans-5f" d="M 3263 -1063 
L 3263 -1509 
L -63 -1509 
L -63 -1063 
L 3263 -1063 
z
" transform="scale(0.015625)"/>
      </defs>
      <use xlink:href="#DejaVuSans-69"/>
      <use xlink:href="#DejaVuSans-6e" x="27.783203"/>
      <use xlink:href="#DejaVuSans-74" x="91.162109"/>
      <use xlink:href="#DejaVuSans-5f" x="130.371094"/>
      <use xlink:href="#DejaVuSans-72" x="180.371094"/>
      <use xlink:href="#DejaVuSans-61" x="221.484375"/>
      <use xlink:href="#DejaVuSans-74" x="282.763672"/>
      <use xlink:href="#DejaVuSans-65" x="321.972656"/>
     </g>
    </g>
    <g id="line2d_24">
     <path d="M 11.2 335.426487 
L 21.2 335.426487 
L 31.2 335.426487 
" style="fill: none; stroke: #aec7e8; stroke-width: 1.5; stroke-linecap: square"/>
    </g>
    <g id="text_11">
     <!-- sub_grade -->
     <g transform="translate(39.2 338.926487) scale(0.1 -0.1)">
      <defs>
       <path id="DejaVuSans-62" d="M 3116 1747 
Q 3116 2381 2855 2742 
Q 2594 3103 2138 3103 
Q 1681 3103 1420 2742 
Q 1159 2381 1159 1747 
Q 1159 1113 1420 752 
Q 1681 391 2138 391 
Q 2594 391 2855 752 
Q 3116 1113 3116 1747 
z
M 1159 2969 
Q 1341 3281 1617 3432 
Q 1894 3584 2278 3584 
Q 2916 3584 3314 3078 
Q 3713 2572 3713 1747 
Q 3713 922 3314 415 
Q 2916 -91 2278 -91 
Q 1894 -91 1617 61 
Q 1341 213 1159 525 
L 1159 0 
L 581 0 
L 581 4863 
L 1159 4863 
L 1159 2969 
z
" transform="scale(0.015625)"/>
       <path id="DejaVuSans-64" d="M 2906 2969 
L 2906 4863 
L 3481 4863 
L 3481 0 
L 2906 0 
L 2906 525 
Q 2725 213 2448 61 
Q 2172 -91 1784 -91 
Q 1150 -91 751 415 
Q 353 922 353 1747 
Q 353 2572 751 3078 
Q 1150 3584 1784 3584 
Q 2172 3584 2448 3432 
Q 2725 3281 2906 2969 
z
M 947 1747 
Q 947 1113 1208 752 
Q 1469 391 1925 391 
Q 2381 391 2643 752 
Q 2906 1113 2906 1747 
Q 2906 2381 2643 2742 
Q 2381 3103 1925 3103 
Q 1469 3103 1208 2742 
Q 947 2381 947 1747 
z
" transform="scale(0.015625)"/>
      </defs>
      <use xlink:href="#DejaVuSans-73"/>
      <use xlink:href="#DejaVuSans-75" x="52.099609"/>
      <use xlink:href="#DejaVuSans-62" x="115.478516"/>
      <use xlink:href="#DejaVuSans-5f" x="178.955078"/>
      <use xlink:href="#DejaVuSans-67" x="228.955078"/>
      <use xlink:href="#DejaVuSans-72" x="292.431641"/>
      <use xlink:href="#DejaVuSans-61" x="333.544922"/>
      <use xlink:href="#DejaVuSans-64" x="394.824219"/>
      <use xlink:href="#DejaVuSans-65" x="458.300781"/>
     </g>
    </g>
    <g id="line2d_25">
     <path d="M 11.2 350.382737 
L 21.2 350.382737 
L 31.2 350.382737 
" style="fill: none; stroke: #ffbb78; stroke-width: 1.5; stroke-linecap: square"/>
    </g>
    <g id="text_12">
     <!-- term_ 60 months -->
     <g transform="translate(39.2 353.882737) scale(0.1 -0.1)">
      <defs>
       <path id="DejaVuSans-6d" d="M 3328 2828 
Q 3544 3216 3844 3400 
Q 4144 3584 4550 3584 
Q 5097 3584 5394 3201 
Q 5691 2819 5691 2113 
L 5691 0 
L 5113 0 
L 5113 2094 
Q 5113 2597 4934 2840 
Q 4756 3084 4391 3084 
Q 3944 3084 3684 2787 
Q 3425 2491 3425 1978 
L 3425 0 
L 2847 0 
L 2847 2094 
Q 2847 2600 2669 2842 
Q 2491 3084 2119 3084 
Q 1678 3084 1418 2786 
Q 1159 2488 1159 1978 
L 1159 0 
L 581 0 
L 581 3500 
L 1159 3500 
L 1159 2956 
Q 1356 3278 1631 3431 
Q 1906 3584 2284 3584 
Q 2666 3584 2933 3390 
Q 3200 3197 3328 2828 
z
" transform="scale(0.015625)"/>
       <path id="DejaVuSans-68" d="M 3513 2113 
L 3513 0 
L 2938 0 
L 2938 2094 
Q 2938 2591 2744 2837 
Q 2550 3084 2163 3084 
Q 1697 3084 1428 2787 
Q 1159 2491 1159 1978 
L 1159 0 
L 581 0 
L 581 4863 
L 1159 4863 
L 1159 2956 
Q 1366 3272 1645 3428 
Q 1925 3584 2291 3584 
Q 2894 3584 3203 3211 
Q 3513 2838 3513 2113 
z
" transform="scale(0.015625)"/>
      </defs>
      <use xlink:href="#DejaVuSans-74"/>
      <use xlink:href="#DejaVuSans-65" x="39.208984"/>
      <use xlink:href="#DejaVuSans-72" x="100.732422"/>
      <use xlink:href="#DejaVuSans-6d" x="140.095703"/>
      <use xlink:href="#DejaVuSans-5f" x="237.507812"/>
      <use xlink:href="#DejaVuSans-20" x="287.507812"/>
      <use xlink:href="#DejaVuSans-36" x="319.294922"/>
      <use xlink:href="#DejaVuSans-30" x="382.917969"/>
      <use xlink:href="#DejaVuSans-20" x="446.541016"/>
      <use xlink:href="#DejaVuSans-6d" x="478.328125"/>
      <use xlink:href="#DejaVuSans-6f" x="575.740234"/>
      <use xlink:href="#DejaVuSans-6e" x="636.921875"/>
      <use xlink:href="#DejaVuSans-74" x="700.300781"/>
      <use xlink:href="#DejaVuSans-68" x="739.509766"/>
      <use xlink:href="#DejaVuSans-73" x="802.888672"/>
     </g>
    </g>
    <g id="line2d_26">
     <path d="M 11.2 365.338987 
L 21.2 365.338987 
L 31.2 365.338987 
" style="fill: none; stroke: #98df8a; stroke-width: 1.5; stroke-linecap: square"/>
    </g>
    <g id="text_13">
     <!-- dti -->
     <g transform="translate(39.2 368.838987) scale(0.1 -0.1)">
      <use xlink:href="#DejaVuSans-64"/>
      <use xlink:href="#DejaVuSans-74" x="63.476562"/>
      <use xlink:href="#DejaVuSans-69" x="102.685547"/>
     </g>
    </g>
    <g id="line2d_27">
     <path d="M 11.2 380.017112 
L 21.2 380.017112 
L 31.2 380.017112 
" style="fill: none; stroke: #d62728; stroke-width: 1.5; stroke-linecap: square"/>
    </g>
    <g id="text_14">
     <!-- loan_amnt -->
     <g transform="translate(39.2 383.517112) scale(0.1 -0.1)">
      <use xlink:href="#DejaVuSans-6c"/>
      <use xlink:href="#DejaVuSans-6f" x="27.783203"/>
      <use xlink:href="#DejaVuSans-61" x="88.964844"/>
      <use xlink:href="#DejaVuSans-6e" x="150.244141"/>
      <use xlink:href="#DejaVuSans-5f" x="213.623047"/>
      <use xlink:href="#DejaVuSans-61" x="263.623047"/>
      <use xlink:href="#DejaVuSans-6d" x="324.902344"/>
      <use xlink:href="#DejaVuSans-6e" x="422.314453"/>
      <use xlink:href="#DejaVuSans-74" x="485.693359"/>
     </g>
    </g>
    <g id="line2d_28">
     <path d="M 144.695313 320.470237 
L 154.695313 320.470237 
L 164.695313 320.470237 
" style="fill: none; stroke: #9467bd; stroke-width: 1.5; stroke-linecap: square"/>
    </g>
    <g id="text_15">
     <!-- fico_range_high -->
     <g transform="translate(172.695313 323.970237) scale(0.1 -0.1)">
      <use xlink:href="#DejaVuSans-66"/>
      <use xlink:href="#DejaVuSans-69" x="35.205078"/>
      <use xlink:href="#DejaVuSans-63" x="62.988281"/>
      <use xlink:href="#DejaVuSans-6f" x="117.96875"/>
      <use xlink:href="#DejaVuSans-5f" x="179.150391"/>
      <use xlink:href="#DejaVuSans-72" x="229.150391"/>
      <use xlink:href="#DejaVuSans-61" x="270.263672"/>
      <use xlink:href="#DejaVuSans-6e" x="331.542969"/>
      <use xlink:href="#DejaVuSans-67" x="394.921875"/>
      <use xlink:href="#DejaVuSans-65" x="458.398438"/>
      <use xlink:href="#DejaVuSans-5f" x="519.921875"/>
      <use xlink:href="#DejaVuSans-68" x="569.921875"/>
      <use xlink:href="#DejaVuSans-69" x="633.300781"/>
      <use xlink:href="#DejaVuSans-67" x="661.083984"/>
      <use xlink:href="#DejaVuSans-68" x="724.560547"/>
     </g>
    </g>
    <g id="line2d_29">
     <path d="M 144.695313 335.426487 
L 154.695313 335.426487 
L 164.695313 335.426487 
" style="fill: none; stroke: #8c564b; stroke-width: 1.5; stroke-linecap: square"/>
    </g>
    <g id="text_16">
     <!-- mort_acc -->
     <g transform="translate(172.695313 338.926487) scale(0.1 -0.1)">
      <use xlink:href="#DejaVuSans-6d"/>
      <use xlink:href="#DejaVuSans-6f" x="97.412109"/>
      <use xlink:href="#DejaVuSans-72" x="158.59375"/>
      <use xlink:href="#DejaVuSans-74" x="199.707031"/>
      <use xlink:href="#DejaVuSans-5f" x="238.916016"/>
      <use xlink:href="#DejaVuSans-61" x="288.916016"/>
      <use xlink:href="#DejaVuSans-63" x="350.195312"/>
      <use xlink:href="#DejaVuSans-63" x="405.175781"/>
     </g>
    </g>
    <g id="line2d_30">
     <path d="M 144.695313 350.382737 
L 154.695313 350.382737 
L 164.695313 350.382737 
" style="fill: none; stroke: #c49c94; stroke-width: 1.5; stroke-linecap: square"/>
    </g>
    <g id="text_17">
     <!-- home_ownership_RENT -->
     <g transform="translate(172.695313 353.882737) scale(0.1 -0.1)">
      <defs>
       <path id="DejaVuSans-70" d="M 1159 525 
L 1159 -1331 
L 581 -1331 
L 581 3500 
L 1159 3500 
L 1159 2969 
Q 1341 3281 1617 3432 
Q 1894 3584 2278 3584 
Q 2916 3584 3314 3078 
Q 3713 2572 3713 1747 
Q 3713 922 3314 415 
Q 2916 -91 2278 -91 
Q 1894 -91 1617 61 
Q 1341 213 1159 525 
z
M 3116 1747 
Q 3116 2381 2855 2742 
Q 2594 3103 2138 3103 
Q 1681 3103 1420 2742 
Q 1159 2381 1159 1747 
Q 1159 1113 1420 752 
Q 1681 391 2138 391 
Q 2594 391 2855 752 
Q 3116 1113 3116 1747 
z
" transform="scale(0.015625)"/>
       <path id="DejaVuSans-52" d="M 2841 2188 
Q 3044 2119 3236 1894 
Q 3428 1669 3622 1275 
L 4263 0 
L 3584 0 
L 2988 1197 
Q 2756 1666 2539 1819 
Q 2322 1972 1947 1972 
L 1259 1972 
L 1259 0 
L 628 0 
L 628 4666 
L 2053 4666 
Q 2853 4666 3247 4331 
Q 3641 3997 3641 3322 
Q 3641 2881 3436 2590 
Q 3231 2300 2841 2188 
z
M 1259 4147 
L 1259 2491 
L 2053 2491 
Q 2509 2491 2742 2702 
Q 2975 2913 2975 3322 
Q 2975 3731 2742 3939 
Q 2509 4147 2053 4147 
L 1259 4147 
z
" transform="scale(0.015625)"/>
       <path id="DejaVuSans-54" d="M -19 4666 
L 3928 4666 
L 3928 4134 
L 2272 4134 
L 2272 0 
L 1638 0 
L 1638 4134 
L -19 4134 
L -19 4666 
z
" transform="scale(0.015625)"/>
      </defs>
      <use xlink:href="#DejaVuSans-68"/>
      <use xlink:href="#DejaVuSans-6f" x="63.378906"/>
      <use xlink:href="#DejaVuSans-6d" x="124.560547"/>
      <use xlink:href="#DejaVuSans-65" x="221.972656"/>
      <use xlink:href="#DejaVuSans-5f" x="283.496094"/>
      <use xlink:href="#DejaVuSans-6f" x="333.496094"/>
      <use xlink:href="#DejaVuSans-77" x="394.677734"/>
      <use xlink:href="#DejaVuSans-6e" x="476.464844"/>
      <use xlink:href="#DejaVuSans-65" x="539.84375"/>
      <use xlink:href="#DejaVuSans-72" x="601.367188"/>
      <use xlink:href="#DejaVuSans-73" x="642.480469"/>
      <use xlink:href="#DejaVuSans-68" x="694.580078"/>
      <use xlink:href="#DejaVuSans-69" x="757.958984"/>
      <use xlink:href="#DejaVuSans-70" x="785.742188"/>
      <use xlink:href="#DejaVuSans-5f" x="849.21875"/>
      <use xlink:href="#DejaVuSans-52" x="899.21875"/>
      <use xlink:href="#DejaVuSans-45" x="968.701172"/>
      <use xlink:href="#DejaVuSans-4e" x="1031.884766"/>
      <use xlink:href="#DejaVuSans-54" x="1106.689453"/>
     </g>
    </g>
    <g id="line2d_31">
     <path d="M 144.695313 365.338987 
L 154.695313 365.338987 
L 164.695313 365.338987 
" style="fill: none; stroke: #f7b6d2; stroke-width: 1.5; stroke-linecap: square"/>
    </g>
    <g id="text_18">
     <!-- home_ownership_OWN -->
     <g transform="translate(172.695313 368.838987) scale(0.1 -0.1)">
      <defs>
       <path id="DejaVuSans-4f" d="M 2522 4238 
Q 1834 4238 1429 3725 
Q 1025 3213 1025 2328 
Q 1025 1447 1429 934 
Q 1834 422 2522 422 
Q 3209 422 3611 934 
Q 4013 1447 4013 2328 
Q 4013 3213 3611 3725 
Q 3209 4238 2522 4238 
z
M 2522 4750 
Q 3503 4750 4090 4092 
Q 4678 3434 4678 2328 
Q 4678 1225 4090 567 
Q 3503 -91 2522 -91 
Q 1538 -91 948 565 
Q 359 1222 359 2328 
Q 359 3434 948 4092 
Q 1538 4750 2522 4750 
z
" transform="scale(0.015625)"/>
       <path id="DejaVuSans-57" d="M 213 4666 
L 850 4666 
L 1831 722 
L 2809 4666 
L 3519 4666 
L 4500 722 
L 5478 4666 
L 6119 4666 
L 4947 0 
L 4153 0 
L 3169 4050 
L 2175 0 
L 1381 0 
L 213 4666 
z
" transform="scale(0.015625)"/>
      </defs>
      <use xlink:href="#DejaVuSans-68"/>
      <use xlink:href="#DejaVuSans-6f" x="63.378906"/>
      <use xlink:href="#DejaVuSans-6d" x="124.560547"/>
      <use xlink:href="#DejaVuSans-65" x="221.972656"/>
      <use xlink:href="#DejaVuSans-5f" x="283.496094"/>
      <use xlink:href="#DejaVuSans-6f" x="333.496094"/>
      <use xlink:href="#DejaVuSans-77" x="394.677734"/>
      <use xlink:href="#DejaVuSans-6e" x="476.464844"/>
      <use xlink:href="#DejaVuSans-65" x="539.84375"/>
      <use xlink:href="#DejaVuSans-72" x="601.367188"/>
      <use xlink:href="#DejaVuSans-73" x="642.480469"/>
      <use xlink:href="#DejaVuSans-68" x="694.580078"/>
      <use xlink:href="#DejaVuSans-69" x="757.958984"/>
      <use xlink:href="#DejaVuSans-70" x="785.742188"/>
      <use xlink:href="#DejaVuSans-5f" x="849.21875"/>
      <use xlink:href="#DejaVuSans-4f" x="899.21875"/>
      <use xlink:href="#DejaVuSans-57" x="977.929688"/>
      <use xlink:href="#DejaVuSans-4e" x="1076.806641"/>
     </g>
    </g>
    <g id="line2d_32">
     <path d="M 309.473438 320.470237 
L 319.473438 320.470237 
L 329.473438 320.470237 
" style="fill: none; stroke: #c7c7c7; stroke-width: 1.5; stroke-linecap: square"/>
    </g>
    <g id="text_19">
     <!-- issue_d -->
     <g transform="translate(337.473438 323.970237) scale(0.1 -0.1)">
      <use xlink:href="#DejaVuSans-69"/>
      <use xlink:href="#DejaVuSans-73" x="27.783203"/>
      <use xlink:href="#DejaVuSans-73" x="79.882812"/>
      <use xlink:href="#DejaVuSans-75" x="131.982422"/>
      <use xlink:href="#DejaVuSans-65" x="195.361328"/>
      <use xlink:href="#DejaVuSans-5f" x="256.884766"/>
      <use xlink:href="#DejaVuSans-64" x="306.884766"/>
     </g>
    </g>
    <g id="line2d_33">
     <path d="M 309.473438 335.426487 
L 319.473438 335.426487 
L 329.473438 335.426487 
" style="fill: none; stroke: #bcbd22; stroke-width: 1.5; stroke-linecap: square"/>
    </g>
    <g id="text_20">
     <!-- acc_open_past_24mths -->
     <g transform="translate(337.473438 338.926487) scale(0.1 -0.1)">
      <use xlink:href="#DejaVuSans-61"/>
      <use xlink:href="#DejaVuSans-63" x="61.279297"/>
      <use xlink:href="#DejaVuSans-63" x="116.259766"/>
      <use xlink:href="#DejaVuSans-5f" x="171.240234"/>
      <use xlink:href="#DejaVuSans-6f" x="221.240234"/>
      <use xlink:href="#DejaVuSans-70" x="282.421875"/>
      <use xlink:href="#DejaVuSans-65" x="345.898438"/>
      <use xlink:href="#DejaVuSans-6e" x="407.421875"/>
      <use xlink:href="#DejaVuSans-5f" x="470.800781"/>
      <use xlink:href="#DejaVuSans-70" x="520.800781"/>
      <use xlink:href="#DejaVuSans-61" x="584.277344"/>
      <use xlink:href="#DejaVuSans-73" x="645.556641"/>
      <use xlink:href="#DejaVuSans-74" x="697.65625"/>
      <use xlink:href="#DejaVuSans-5f" x="736.865234"/>
      <use xlink:href="#DejaVuSans-32" x="786.865234"/>
      <use xlink:href="#DejaVuSans-34" x="850.488281"/>
      <use xlink:href="#DejaVuSans-6d" x="914.111328"/>
      <use xlink:href="#DejaVuSans-74" x="1011.523438"/>
      <use xlink:href="#DejaVuSans-68" x="1050.732422"/>
      <use xlink:href="#DejaVuSans-73" x="1114.111328"/>
     </g>
    </g>
    <g id="line2d_34">
     <path d="M 309.473438 350.382737 
L 319.473438 350.382737 
L 329.473438 350.382737 
" style="fill: none; stroke: #17becf; stroke-width: 1.5; stroke-linecap: square"/>
    </g>
    <g id="text_21">
     <!-- num_actv_rev_tl -->
     <g transform="translate(337.473438 353.882737) scale(0.1 -0.1)">
      <defs>
       <path id="DejaVuSans-76" d="M 191 3500 
L 800 3500 
L 1894 563 
L 2988 3500 
L 3597 3500 
L 2284 0 
L 1503 0 
L 191 3500 
z
" transform="scale(0.015625)"/>
      </defs>
      <use xlink:href="#DejaVuSans-6e"/>
      <use xlink:href="#DejaVuSans-75" x="63.378906"/>
      <use xlink:href="#DejaVuSans-6d" x="126.757812"/>
      <use xlink:href="#DejaVuSans-5f" x="224.169922"/>
      <use xlink:href="#DejaVuSans-61" x="274.169922"/>
      <use xlink:href="#DejaVuSans-63" x="335.449219"/>
      <use xlink:href="#DejaVuSans-74" x="390.429688"/>
      <use xlink:href="#DejaVuSans-76" x="429.638672"/>
      <use xlink:href="#DejaVuSans-5f" x="488.818359"/>
      <use xlink:href="#DejaVuSans-72" x="538.818359"/>
      <use xlink:href="#DejaVuSans-65" x="577.681641"/>
      <use xlink:href="#DejaVuSans-76" x="639.205078"/>
      <use xlink:href="#DejaVuSans-5f" x="698.384766"/>
      <use xlink:href="#DejaVuSans-74" x="748.384766"/>
      <use xlink:href="#DejaVuSans-6c" x="787.59375"/>
     </g>
    </g>
    <g id="line2d_35">
     <path d="M 309.473438 365.338987 
L 319.473438 365.338987 
L 329.473438 365.338987 
" style="fill: none; stroke: #9edae5; stroke-width: 1.5; stroke-linecap: square"/>
    </g>
    <g id="text_22">
     <!-- intercept -->
     <g transform="translate(337.473438 368.838987) scale(0.1 -0.1)">
      <use xlink:href="#DejaVuSans-69"/>
      <use xlink:href="#DejaVuSans-6e" x="27.783203"/>
      <use xlink:href="#DejaVuSans-74" x="91.162109"/>
      <use xlink:href="#DejaVuSans-65" x="130.371094"/>
      <use xlink:href="#DejaVuSans-72" x="191.894531"/>
      <use xlink:href="#DejaVuSans-63" x="230.757812"/>
      <use xlink:href="#DejaVuSans-65" x="285.738281"/>
      <use xlink:href="#DejaVuSans-70" x="347.261719"/>
      <use xlink:href="#DejaVuSans-74" x="410.738281"/>
     </g>
    </g>
   </g>
  </g>
 </g>
 <defs>
  <clipPath id="pcd67f22b38">
   <rect x="54.087656" y="22.318125" width="357.12" height="266.112"/>
  </clipPath>
 </defs>
</svg>
