<?xml version="1.0" encoding="utf-8" standalone="no"?>
<!DOCTYPE svg PUBLIC "-//W3C//DTD SVG 1.1//EN"
  "http://www.w3.org/Graphics/SVG/1.1/DTD/svg11.dtd">
<svg xmlns:xlink="http://www.w3.org/1999/xlink" width="465.295312pt" height="383.769325pt" viewBox="0 0 465.295312 383.769325" xmlns="http://www.w3.org/2000/svg" version="1.1">
 <metadata>
  <rdf:RDF xmlns:dc="http://purl.org/dc/elements/1.1/" xmlns:cc="http://creativecommons.org/ns#" xmlns:rdf="http://www.w3.org/1999/02/22-rdf-syntax-ns#">
   <cc:Work>
    <dc:type rdf:resource="http://purl.org/dc/dcmitype/StillImage"/>
    <dc:date>2024-03-09T19:01:47.435706</dc:date>
    <dc:format>image/svg+xml</dc:format>
    <dc:creator>
     <cc:Agent>
      <dc:title>Matplotlib v3.8.0, https://matplotlib.org/</dc:title>
     </cc:Agent>
    </dc:creator>
   </cc:Work>
  </rdf:RDF>
 </metadata>
 <defs>
  <style type="text/css">*{stroke-linejoin: round; stroke-linecap: butt}</style>
 </defs>
 <g id="figure_1">
  <g id="patch_1">
   <path d="M 0 383.769325 
L 465.295312 383.769325 
L 465.295312 0 
L 0 0 
L 0 383.769325 
z
" style="fill: none"/>
  </g>
  <g id="axes_1">
   <g id="patch_2">
    <path d="M 54.087656 288.430125 
L 411.207656 288.430125 
L 411.207656 22.318125 
L 54.087656 22.318125 
L 54.087656 288.430125 
z
" style="fill: none"/>
   </g>
   <g id="matplotlib.axis_1">
    <g id="xtick_1">
     <g id="line2d_1">
      <defs>
       <path id="med35b67ed5" d="M 0 0 
L 0 3.5 
" style="stroke: #000000; stroke-width: 0.8"/>
      </defs>
      <g>
       <use xlink:href="#med35b67ed5" x="70.320384" y="288.430125" style="stroke: #000000; stroke-width: 0.8"/>
      </g>
     </g>
     <g id="text_1">
      <!-- 0 -->
      <g transform="translate(67.139134 303.028563) scale(0.1 -0.1)">
       <defs>
        <path id="DejaVuSans-30" d="M 2034 4250 
Q 1547 4250 1301 3770 
Q 1056 3291 1056 2328 
Q 1056 1369 1301 889 
Q 1547 409 2034 409 
Q 2525 409 2770 889 
Q 3016 1369 3016 2328 
Q 3016 3291 2770 3770 
Q 2525 4250 2034 4250 
z
M 2034 4750 
Q 2819 4750 3233 4129 
Q 3647 3509 3647 2328 
Q 3647 1150 3233 529 
Q 2819 -91 2034 -91 
Q 1250 -91 836 529 
Q 422 1150 422 2328 
Q 422 3509 836 4129 
Q 1250 4750 2034 4750 
z
" transform="scale(0.015625)"/>
       </defs>
       <use xlink:href="#DejaVuSans-30"/>
      </g>
     </g>
    </g>
    <g id="xtick_2">
     <g id="line2d_2">
      <g>
       <use xlink:href="#med35b67ed5" x="125.346578" y="288.430125" style="stroke: #000000; stroke-width: 0.8"/>
      </g>
     </g>
     <g id="text_2">
      <!-- 10 -->
      <g transform="translate(118.984078 303.028563) scale(0.1 -0.1)">
       <defs>
        <path id="DejaVuSans-31" d="M 794 531 
L 1825 531 
L 1825 4091 
L 703 3866 
L 703 4441 
L 1819 4666 
L 2450 4666 
L 2450 531 
L 3481 531 
L 3481 0 
L 794 0 
L 794 531 
z
" transform="scale(0.015625)"/>
       </defs>
       <use xlink:href="#DejaVuSans-31"/>
       <use xlink:href="#DejaVuSans-30" x="63.623047"/>
      </g>
     </g>
    </g>
    <g id="xtick_3">
     <g id="line2d_3">
      <g>
       <use xlink:href="#med35b67ed5" x="180.372772" y="288.430125" style="stroke: #000000; stroke-width: 0.8"/>
      </g>
     </g>
     <g id="text_3">
      <!-- 20 -->
      <g transform="translate(174.010272 303.028563) scale(0.1 -0.1)">
       <defs>
        <path id="DejaVuSans-32" d="M 1228 531 
L 3431 531 
L 3431 0 
L 469 0 
L 469 531 
Q 828 903 1448 1529 
Q 2069 2156 2228 2338 
Q 2531 2678 2651 2914 
Q 2772 3150 2772 3378 
Q 2772 3750 2511 3984 
Q 2250 4219 1831 4219 
Q 1534 4219 1204 4116 
Q 875 4013 500 3803 
L 500 4441 
Q 881 4594 1212 4672 
Q 1544 4750 1819 4750 
Q 2544 4750 2975 4387 
Q 3406 4025 3406 3419 
Q 3406 3131 3298 2873 
Q 3191 2616 2906 2266 
Q 2828 2175 2409 1742 
Q 1991 1309 1228 531 
z
" transform="scale(0.015625)"/>
       </defs>
       <use xlink:href="#DejaVuSans-32"/>
       <use xlink:href="#DejaVuSans-30" x="63.623047"/>
      </g>
     </g>
    </g>
    <g id="xtick_4">
     <g id="line2d_4">
      <g>
       <use xlink:href="#med35b67ed5" x="235.398966" y="288.430125" style="stroke: #000000; stroke-width: 0.8"/>
      </g>
     </g>
     <g id="text_4">
      <!-- 30 -->
      <g transform="translate(229.036466 303.028563) scale(0.1 -0.1)">
       <defs>
        <path id="DejaVuSans-33" d="M 2597 2516 
Q 3050 2419 3304 2112 
Q 3559 1806 3559 1356 
Q 3559 666 3084 287 
Q 2609 -91 1734 -91 
Q 1441 -91 1130 -33 
Q 819 25 488 141 
L 488 750 
Q 750 597 1062 519 
Q 1375 441 1716 441 
Q 2309 441 2620 675 
Q 2931 909 2931 1356 
Q 2931 1769 2642 2001 
Q 2353 2234 1838 2234 
L 1294 2234 
L 1294 2753 
L 1863 2753 
Q 2328 2753 2575 2939 
Q 2822 3125 2822 3475 
Q 2822 3834 2567 4026 
Q 2313 4219 1838 4219 
Q 1578 4219 1281 4162 
Q 984 4106 628 3988 
L 628 4550 
Q 988 4650 1302 4700 
Q 1616 4750 1894 4750 
Q 2613 4750 3031 4423 
Q 3450 4097 3450 3541 
Q 3450 3153 3228 2886 
Q 3006 2619 2597 2516 
z
" transform="scale(0.015625)"/>
       </defs>
       <use xlink:href="#DejaVuSans-33"/>
       <use xlink:href="#DejaVuSans-30" x="63.623047"/>
      </g>
     </g>
    </g>
    <g id="xtick_5">
     <g id="line2d_5">
      <g>
       <use xlink:href="#med35b67ed5" x="290.42516" y="288.430125" style="stroke: #000000; stroke-width: 0.8"/>
      </g>
     </g>
     <g id="text_5">
      <!-- 40 -->
      <g transform="translate(284.06266 303.028563) scale(0.1 -0.1)">
       <defs>
        <path id="DejaVuSans-34" d="M 2419 4116 
L 825 1625 
L 2419 1625 
L 2419 4116 
z
M 2253 4666 
L 3047 4666 
L 3047 1625 
L 3713 1625 
L 3713 1100 
L 3047 1100 
L 3047 0 
L 2419 0 
L 2419 1100 
L 313 1100 
L 313 1709 
L 2253 4666 
z
" transform="scale(0.015625)"/>
       </defs>
       <use xlink:href="#DejaVuSans-34"/>
       <use xlink:href="#DejaVuSans-30" x="63.623047"/>
      </g>
     </g>
    </g>
    <g id="xtick_6">
     <g id="line2d_6">
      <g>
       <use xlink:href="#med35b67ed5" x="345.451354" y="288.430125" style="stroke: #000000; stroke-width: 0.8"/>
      </g>
     </g>
     <g id="text_6">
      <!-- 50 -->
      <g transform="translate(339.088854 303.028563) scale(0.1 -0.1)">
       <defs>
        <path id="DejaVuSans-35" d="M 691 4666 
L 3169 4666 
L 3169 4134 
L 1269 4134 
L 1269 2991 
Q 1406 3038 1543 3061 
Q 1681 3084 1819 3084 
Q 2600 3084 3056 2656 
Q 3513 2228 3513 1497 
Q 3513 744 3044 326 
Q 2575 -91 1722 -91 
Q 1428 -91 1123 -41 
Q 819 9 494 109 
L 494 744 
Q 775 591 1075 516 
Q 1375 441 1709 441 
Q 2250 441 2565 725 
Q 2881 1009 2881 1497 
Q 2881 1984 2565 2268 
Q 2250 2553 1709 2553 
Q 1456 2553 1204 2497 
Q 953 2441 691 2322 
L 691 4666 
z
" transform="scale(0.015625)"/>
       </defs>
       <use xlink:href="#DejaVuSans-35"/>
       <use xlink:href="#DejaVuSans-30" x="63.623047"/>
      </g>
     </g>
    </g>
    <g id="xtick_7">
     <g id="line2d_7">
      <g>
       <use xlink:href="#med35b67ed5" x="400.477548" y="288.430125" style="stroke: #000000; stroke-width: 0.8"/>
      </g>
     </g>
     <g id="text_7">
      <!-- 60 -->
      <g transform="translate(394.115048 303.028563) scale(0.1 -0.1)">
       <defs>
        <path id="DejaVuSans-36" d="M 2113 2584 
Q 1688 2584 1439 2293 
Q 1191 2003 1191 1497 
Q 1191 994 1439 701 
Q 1688 409 2113 409 
Q 2538 409 2786 701 
Q 3034 994 3034 1497 
Q 3034 2003 2786 2293 
Q 2538 2584 2113 2584 
z
M 3366 4563 
L 3366 3988 
Q 3128 4100 2886 4159 
Q 2644 4219 2406 4219 
Q 1781 4219 1451 3797 
Q 1122 3375 1075 2522 
Q 1259 2794 1537 2939 
Q 1816 3084 2150 3084 
Q 2853 3084 3261 2657 
Q 3669 2231 3669 1497 
Q 3669 778 3244 343 
Q 2819 -91 2113 -91 
Q 1303 -91 875 529 
Q 447 1150 447 2328 
Q 447 3434 972 4092 
Q 1497 4750 2381 4750 
Q 2619 4750 2861 4703 
Q 3103 4656 3366 4563 
z
" transform="scale(0.015625)"/>
       </defs>
       <use xlink:href="#DejaVuSans-36"/>
       <use xlink:href="#DejaVuSans-30" x="63.623047"/>
      </g>
     </g>
    </g>
   </g>
   <g id="matplotlib.axis_2">
    <g id="ytick_1">
     <g id="line2d_8">
      <defs>
       <path id="m589ee013bd" d="M 0 0 
L -3.5 0 
" style="stroke: #000000; stroke-width: 0.8"/>
      </defs>
      <g>
       <use xlink:href="#m589ee013bd" x="54.087656" y="268.473563" style="stroke: #000000; stroke-width: 0.8"/>
      </g>
     </g>
     <g id="text_8">
      <!-- −0.8 -->
      <g transform="translate(22.804844 272.272782) scale(0.1 -0.1)">
       <defs>
        <path id="DejaVuSans-2212" d="M 678 2272 
L 4684 2272 
L 4684 1741 
L 678 1741 
L 678 2272 
z
" transform="scale(0.015625)"/>
        <path id="DejaVuSans-2e" d="M 684 794 
L 1344 794 
L 1344 0 
L 684 0 
L 684 794 
z
" transform="scale(0.015625)"/>
        <path id="DejaVuSans-38" d="M 2034 2216 
Q 1584 2216 1326 1975 
Q 1069 1734 1069 1313 
Q 1069 891 1326 650 
Q 1584 409 2034 409 
Q 2484 409 2743 651 
Q 3003 894 3003 1313 
Q 3003 1734 2745 1975 
Q 2488 2216 2034 2216 
z
M 1403 2484 
Q 997 2584 770 2862 
Q 544 3141 544 3541 
Q 544 4100 942 4425 
Q 1341 4750 2034 4750 
Q 2731 4750 3128 4425 
Q 3525 4100 3525 3541 
Q 3525 3141 3298 2862 
Q 3072 2584 2669 2484 
Q 3125 2378 3379 2068 
Q 3634 1759 3634 1313 
Q 3634 634 3220 271 
Q 2806 -91 2034 -91 
Q 1263 -91 848 271 
Q 434 634 434 1313 
Q 434 1759 690 2068 
Q 947 2378 1403 2484 
z
M 1172 3481 
Q 1172 3119 1398 2916 
Q 1625 2713 2034 2713 
Q 2441 2713 2670 2916 
Q 2900 3119 2900 3481 
Q 2900 3844 2670 4047 
Q 2441 4250 2034 4250 
Q 1625 4250 1398 4047 
Q 1172 3844 1172 3481 
z
" transform="scale(0.015625)"/>
       </defs>
       <use xlink:href="#DejaVuSans-2212"/>
       <use xlink:href="#DejaVuSans-30" x="83.789062"/>
       <use xlink:href="#DejaVuSans-2e" x="147.412109"/>
       <use xlink:href="#DejaVuSans-38" x="179.199219"/>
      </g>
     </g>
    </g>
    <g id="ytick_2">
     <g id="line2d_9">
      <g>
       <use xlink:href="#m589ee013bd" x="54.087656" y="222.676315" style="stroke: #000000; stroke-width: 0.8"/>
      </g>
     </g>
     <g id="text_9">
      <!-- −0.6 -->
      <g transform="translate(22.804844 226.475534) scale(0.1 -0.1)">
       <use xlink:href="#DejaVuSans-2212"/>
       <use xlink:href="#DejaVuSans-30" x="83.789062"/>
       <use xlink:href="#DejaVuSans-2e" x="147.412109"/>
       <use xlink:href="#DejaVuSans-36" x="179.199219"/>
      </g>
     </g>
    </g>
    <g id="ytick_3">
     <g id="line2d_10">
      <g>
       <use xlink:href="#m589ee013bd" x="54.087656" y="176.879068" style="stroke: #000000; stroke-width: 0.8"/>
      </g>
     </g>
     <g id="text_10">
      <!-- −0.4 -->
      <g transform="translate(22.804844 180.678287) scale(0.1 -0.1)">
       <use xlink:href="#DejaVuSans-2212"/>
       <use xlink:href="#DejaVuSans-30" x="83.789062"/>
       <use xlink:href="#DejaVuSans-2e" x="147.412109"/>
       <use xlink:href="#DejaVuSans-34" x="179.199219"/>
      </g>
     </g>
    </g>
    <g id="ytick_4">
     <g id="line2d_11">
      <g>
       <use xlink:href="#m589ee013bd" x="54.087656" y="131.081821" style="stroke: #000000; stroke-width: 0.8"/>
      </g>
     </g>
     <g id="text_11">
      <!-- −0.2 -->
      <g transform="translate(22.804844 134.881039) scale(0.1 -0.1)">
       <use xlink:href="#DejaVuSans-2212"/>
       <use xlink:href="#DejaVuSans-30" x="83.789062"/>
       <use xlink:href="#DejaVuSans-2e" x="147.412109"/>
       <use xlink:href="#DejaVuSans-32" x="179.199219"/>
      </g>
     </g>
    </g>
    <g id="ytick_5">
     <g id="line2d_12">
      <g>
       <use xlink:href="#m589ee013bd" x="54.087656" y="85.284573" style="stroke: #000000; stroke-width: 0.8"/>
      </g>
     </g>
     <g id="text_12">
      <!-- 0.0 -->
      <g transform="translate(31.184531 89.083792) scale(0.1 -0.1)">
       <use xlink:href="#DejaVuSans-30"/>
       <use xlink:href="#DejaVuSans-2e" x="63.623047"/>
       <use xlink:href="#DejaVuSans-30" x="95.410156"/>
      </g>
     </g>
    </g>
    <g id="ytick_6">
     <g id="line2d_13">
      <g>
       <use xlink:href="#m589ee013bd" x="54.087656" y="39.487326" style="stroke: #000000; stroke-width: 0.8"/>
      </g>
     </g>
     <g id="text_13">
      <!-- 0.2 -->
      <g transform="translate(31.184531 43.286545) scale(0.1 -0.1)">
       <use xlink:href="#DejaVuSans-30"/>
       <use xlink:href="#DejaVuSans-2e" x="63.623047"/>
       <use xlink:href="#DejaVuSans-32" x="95.410156"/>
      </g>
     </g>
    </g>
   </g>
   <g id="line2d_14">
    <path d="M 70.320384 57.429417 
L 75.823003 61.029415 
L 81.325622 66.036467 
L 86.828242 72.530858 
L 92.330861 80.397654 
L 97.833481 85.284573 
L 103.3361 85.284573 
L 108.838719 85.284573 
L 114.341339 85.284573 
L 119.843958 85.284573 
L 125.346578 85.284586 
L 130.849197 98.145464 
L 136.351816 113.538344 
L 141.854436 125.874878 
L 147.357055 135.538441 
L 152.859675 142.990055 
L 158.362294 148.662454 
L 163.864914 152.93845 
L 169.367533 156.137871 
L 174.870152 158.518618 
L 180.372772 160.267309 
L 185.875391 161.569509 
L 191.378011 162.529831 
L 196.88063 163.235983 
L 202.383249 163.753861 
L 207.885869 164.132072 
L 213.388488 164.406397 
L 218.891108 164.618499 
L 224.393727 164.762475 
L 229.896347 164.873149 
L 235.398966 164.95483 
L 240.901585 165.012568 
L 246.404205 165.050169 
L 251.906824 165.086317 
L 257.409444 165.119461 
L 262.912063 165.14895 
L 268.414682 165.174599 
L 273.917302 165.196535 
L 279.419921 165.215062 
L 284.922541 165.230551 
L 290.42516 165.243406 
L 295.92778 165.253977 
L 301.430399 165.262621 
L 306.933018 165.269662 
L 312.435638 165.275371 
L 317.938257 165.279976 
L 323.440877 165.283688 
L 328.943496 165.286668 
L 334.446115 165.289048 
L 339.948735 165.290955 
L 345.451354 165.292472 
L 350.953974 165.29368 
L 356.456593 165.294642 
L 361.959212 165.295403 
L 367.461832 165.296005 
L 372.964451 165.296481 
L 378.467071 165.296858 
L 383.96969 165.297156 
L 389.47231 165.29739 
L 394.974929 165.297575 
" clip-path="url(#pb7b7081eac)" style="fill: none; stroke: #1f77b4; stroke-width: 1.5; stroke-linecap: square"/>
   </g>
   <g id="line2d_15">
    <path d="M 70.320384 157.683536 
L 75.823003 163.962297 
L 81.325622 170.976259 
L 86.828242 178.8822 
L 92.330861 187.594901 
L 97.833481 193.37712 
L 103.3361 194.219239 
L 108.838719 194.834293 
L 114.341339 195.286111 
L 119.843958 195.619521 
L 125.346578 195.864432 
L 130.849197 208.715976 
L 136.351816 224.102477 
L 141.854436 236.485889 
L 147.357055 246.21583 
L 152.859675 253.735711 
L 158.362294 259.469678 
L 163.864914 263.79747 
L 169.367533 267.038629 
L 174.870152 269.452058 
L 180.372772 271.225189 
L 185.875391 272.546458 
L 191.378011 273.521097 
L 196.88063 274.237836 
L 202.383249 274.76364 
L 207.885869 275.147577 
L 213.388488 275.426041 
L 218.891108 275.641563 
L 224.393727 275.787647 
L 229.896347 275.900034 
L 235.398966 275.983039 
L 240.901585 276.041653 
L 246.404205 276.079727 
L 251.906824 276.116516 
L 257.409444 276.150432 
L 262.912063 276.18069 
L 268.414682 276.207063 
L 273.917302 276.229658 
L 279.419921 276.248772 
L 284.922541 276.264767 
L 290.42516 276.278026 
L 295.92778 276.288959 
L 301.430399 276.297903 
L 306.933018 276.305193 
L 312.435638 276.311097 
L 317.938257 276.315877 
L 323.440877 276.31972 
L 328.943496 276.322806 
L 334.446115 276.32528 
L 339.948735 276.327254 
L 345.451354 276.328829 
L 350.953974 276.330081 
L 356.456593 276.33108 
L 361.959212 276.33187 
L 367.461832 276.332495 
L 372.964451 276.33299 
L 378.467071 276.333381 
L 383.96969 276.333689 
L 389.47231 276.333933 
L 394.974929 276.334125 
" clip-path="url(#pb7b7081eac)" style="fill: none; stroke: #aec7e8; stroke-width: 1.5; stroke-linecap: square"/>
   </g>
   <g id="line2d_16">
    <path d="M 70.320384 63.943138 
L 75.823003 55.937432 
L 81.325622 49.5208 
L 86.828242 44.90748 
L 92.330861 42.021589 
L 97.833481 39.871137 
L 103.3361 38.177793 
L 108.838719 36.891335 
L 114.341339 35.927568 
L 119.843958 35.205862 
L 125.346578 34.670155 
L 130.849197 34.464305 
L 136.351816 34.418529 
L 141.854436 34.414125 
L 147.357055 34.428017 
L 152.859675 34.448401 
L 158.362294 34.469121 
L 163.864914 34.48766 
L 169.367533 34.503075 
L 174.870152 34.515432 
L 180.372772 34.524562 
L 185.875391 34.531854 
L 191.378011 34.537435 
L 196.88063 34.541583 
L 202.383249 34.54468 
L 207.885869 34.546884 
L 213.388488 34.548427 
L 218.891108 34.549906 
L 224.393727 34.550633 
L 229.896347 34.551349 
L 235.398966 34.551863 
L 240.901585 34.552203 
L 246.404205 34.552305 
L 251.906824 34.55264 
L 257.409444 34.553072 
L 262.912063 34.553577 
L 268.414682 34.554084 
L 273.917302 34.554513 
L 279.419921 34.554939 
L 284.922541 34.555301 
L 290.42516 34.555611 
L 295.92778 34.555869 
L 301.430399 34.556097 
L 306.933018 34.55628 
L 312.435638 34.556432 
L 317.938257 34.556557 
L 323.440877 34.556659 
L 328.943496 34.556742 
L 334.446115 34.556808 
L 339.948735 34.556863 
L 345.451354 34.556906 
L 350.953974 34.55694 
L 356.456593 34.556968 
L 361.959212 34.55699 
L 367.461832 34.557008 
L 372.964451 34.557022 
L 378.467071 34.557033 
L 383.96969 34.557042 
L 389.47231 34.557049 
L 394.974929 34.557054 
" clip-path="url(#pb7b7081eac)" style="fill: none; stroke: #ffbb78; stroke-width: 1.5; stroke-linecap: square"/>
   </g>
   <g id="line2d_17">
    <path d="M 70.320384 79.160514 
L 75.823003 72.976026 
L 81.325622 68.349233 
L 86.828242 64.935054 
L 92.330861 62.236243 
L 97.833481 60.179136 
L 103.3361 58.599761 
L 108.838719 57.405051 
L 114.341339 56.511192 
L 119.843958 55.843226 
L 125.346578 55.347233 
L 130.849197 55.06667 
L 136.351816 54.907726 
L 141.854436 54.80242 
L 147.357055 54.73188 
L 152.859675 54.684118 
L 158.362294 54.651399 
L 163.864914 54.628768 
L 169.367533 54.612892 
L 174.870152 54.601666 
L 180.372772 54.593532 
L 185.875391 54.587782 
L 191.378011 54.583691 
L 196.88063 54.580699 
L 202.383249 54.578537 
L 207.885869 54.576945 
L 213.388488 54.575726 
L 218.891108 54.574978 
L 224.393727 54.5743 
L 229.896347 54.57388 
L 235.398966 54.573577 
L 240.901585 54.573309 
L 246.404205 54.573063 
L 251.906824 54.573003 
L 257.409444 54.573027 
L 262.912063 54.573128 
L 268.414682 54.573241 
L 273.917302 54.57336 
L 279.419921 54.57348 
L 284.922541 54.573594 
L 290.42516 54.573685 
L 295.92778 54.573769 
L 301.430399 54.573848 
L 306.933018 54.57391 
L 312.435638 54.573967 
L 317.938257 54.574008 
L 323.440877 54.574045 
L 328.943496 54.574075 
L 334.446115 54.5741 
L 339.948735 54.57412 
L 345.451354 54.574135 
L 350.953974 54.574148 
L 356.456593 54.574158 
L 361.959212 54.574167 
L 367.461832 54.574174 
L 372.964451 54.574179 
L 378.467071 54.574183 
L 383.96969 54.574187 
L 389.47231 54.574189 
L 394.974929 54.574191 
" clip-path="url(#pb7b7081eac)" style="fill: none; stroke: #98df8a; stroke-width: 1.5; stroke-linecap: square"/>
   </g>
   <g id="line2d_18">
    <path d="M 70.320384 85.284573 
L 75.823003 85.284573 
L 81.325622 85.284573 
L 86.828242 83.73326 
L 92.330861 80.357464 
L 97.833481 77.77854 
L 103.3361 75.776428 
L 108.838719 74.261609 
L 114.341339 73.126425 
L 119.843958 72.282508 
L 125.346578 71.655638 
L 130.849197 71.174421 
L 136.351816 70.814542 
L 141.854436 70.550853 
L 147.357055 70.357635 
L 152.859675 70.216117 
L 158.362294 70.11245 
L 163.864914 70.03653 
L 169.367533 69.980975 
L 174.870152 69.94029 
L 180.372772 69.910476 
L 185.875391 69.888678 
L 191.378011 69.872742 
L 196.88063 69.861043 
L 202.383249 69.852495 
L 207.885869 69.846247 
L 213.388488 69.841653 
L 218.891108 69.838331 
L 224.393727 69.835873 
L 229.896347 69.834044 
L 235.398966 69.83273 
L 240.901585 69.831796 
L 246.404205 69.831067 
L 251.906824 69.830571 
L 257.409444 69.830211 
L 262.912063 69.829962 
L 268.414682 69.829769 
L 273.917302 69.82965 
L 279.419921 69.829547 
L 284.922541 69.829484 
L 290.42516 69.829452 
L 295.92778 69.829416 
L 301.430399 69.829397 
L 306.933018 69.829376 
L 312.435638 69.829374 
L 317.938257 69.829367 
L 323.440877 69.82936 
L 328.943496 69.82936 
L 334.446115 69.829358 
L 339.948735 69.829356 
L 345.451354 69.829356 
L 350.953974 69.829356 
L 356.456593 69.829356 
L 361.959212 69.829356 
L 367.461832 69.829356 
L 372.964451 69.829356 
L 378.467071 69.829357 
L 383.96969 69.829357 
L 389.47231 69.829357 
L 394.974929 69.829357 
" clip-path="url(#pb7b7081eac)" style="fill: none; stroke: #d62728; stroke-width: 1.5; stroke-linecap: square"/>
   </g>
   <g id="line2d_19">
    <path d="M 70.320384 97.034956 
L 75.823003 102.829123 
L 81.325622 107.222391 
L 86.828242 110.989166 
L 92.330861 114.280859 
L 97.833481 116.777848 
L 103.3361 118.708052 
L 108.838719 120.180426 
L 114.341339 121.290281 
L 119.843958 122.121227 
L 125.346578 122.742199 
L 130.849197 123.042997 
L 136.351816 123.168704 
L 141.854436 123.231376 
L 147.357055 123.259662 
L 152.859675 123.269744 
L 158.362294 123.27101 
L 163.864914 123.268347 
L 169.367533 123.264474 
L 174.870152 123.260504 
L 180.372772 123.257392 
L 185.875391 123.25451 
L 191.378011 123.252177 
L 196.88063 123.250393 
L 202.383249 123.249028 
L 207.885869 123.248069 
L 213.388488 123.247438 
L 218.891108 123.246638 
L 224.393727 123.246409 
L 229.896347 123.246049 
L 235.398966 123.245787 
L 240.901585 123.245628 
L 246.404205 123.245675 
L 251.906824 123.24544 
L 257.409444 123.245098 
L 262.912063 123.244676 
L 268.414682 123.244238 
L 273.917302 123.243837 
L 279.419921 123.243467 
L 284.922541 123.243147 
L 290.42516 123.242863 
L 295.92778 123.24262 
L 301.430399 123.242418 
L 306.933018 123.242247 
L 312.435638 123.242109 
L 317.938257 123.241992 
L 323.440877 123.241898 
L 328.943496 123.241821 
L 334.446115 123.241759 
L 339.948735 123.241709 
L 345.451354 123.241669 
L 350.953974 123.241636 
L 356.456593 123.241609 
L 361.959212 123.241589 
L 367.461832 123.241573 
L 372.964451 123.241559 
L 378.467071 123.24155 
L 383.96969 123.241541 
L 389.47231 123.241535 
L 394.974929 123.241529 
" clip-path="url(#pb7b7081eac)" style="fill: none; stroke: #9467bd; stroke-width: 1.5; stroke-linecap: square"/>
   </g>
   <g id="line2d_20">
    <path d="M 70.320384 91.824571 
L 75.823003 97.653899 
L 81.325622 102.362285 
L 86.828242 106.02465 
L 92.330861 109.140611 
L 97.833481 111.475984 
L 103.3361 112.766393 
L 108.838719 113.701597 
L 114.341339 114.393741 
L 119.843958 114.903763 
L 125.346578 115.282239 
L 130.849197 115.599335 
L 136.351816 115.852561 
L 141.854436 116.040902 
L 147.357055 116.180629 
L 152.859675 116.284038 
L 158.362294 116.36044 
L 163.864914 116.41674 
L 169.367533 116.45817 
L 174.870152 116.488614 
L 180.372772 116.510936 
L 185.875391 116.527364 
L 191.378011 116.539378 
L 196.88063 116.548175 
L 202.383249 116.554652 
L 207.885869 116.559376 
L 213.388488 116.562809 
L 218.891108 116.565354 
L 224.393727 116.567196 
L 229.896347 116.568556 
L 235.398966 116.569584 
L 240.901585 116.570281 
L 246.404205 116.570814 
L 251.906824 116.571186 
L 257.409444 116.571491 
L 262.912063 116.571711 
L 268.414682 116.571898 
L 273.917302 116.572012 
L 279.419921 116.572117 
L 284.922541 116.572187 
L 290.42516 116.572241 
L 295.92778 116.572285 
L 301.430399 116.572311 
L 306.933018 116.572336 
L 312.435638 116.572353 
L 317.938257 116.572364 
L 323.440877 116.572376 
L 328.943496 116.572384 
L 334.446115 116.572391 
L 339.948735 116.572396 
L 345.451354 116.572399 
L 350.953974 116.572403 
L 356.456593 116.572404 
L 361.959212 116.572406 
L 367.461832 116.572407 
L 372.964451 116.572408 
L 378.467071 116.572409 
L 383.96969 116.572409 
L 389.47231 116.57241 
L 394.974929 116.57241 
" clip-path="url(#pb7b7081eac)" style="fill: none; stroke: #8c564b; stroke-width: 1.5; stroke-linecap: square"/>
   </g>
   <g id="line2d_21">
    <path d="M 70.320384 83.110512 
L 75.823003 77.31722 
L 81.325622 72.691868 
L 86.828242 68.900228 
L 92.330861 65.866004 
L 97.833481 63.485193 
L 103.3361 60.83678 
L 108.838719 58.774273 
L 114.341339 57.227179 
L 119.843958 56.074593 
L 125.346578 55.21677 
L 130.849197 54.640288 
L 136.351816 54.242865 
L 141.854436 53.955404 
L 147.357055 53.747046 
L 152.859675 53.595758 
L 158.362294 53.485706 
L 163.864914 53.405583 
L 169.367533 53.347168 
L 174.870152 53.304517 
L 180.372772 53.273295 
L 185.875391 53.250517 
L 191.378011 53.233906 
L 196.88063 53.22177 
L 202.383249 53.212871 
L 207.885869 53.20635 
L 213.388488 53.201563 
L 218.891108 53.198122 
L 224.393727 53.195554 
L 229.896347 53.193677 
L 235.398966 53.192334 
L 240.901585 53.191326 
L 246.404205 53.190568 
L 251.906824 53.190068 
L 257.409444 53.189739 
L 262.912063 53.189517 
L 268.414682 53.189385 
L 273.917302 53.189317 
L 279.419921 53.18927 
L 284.922541 53.189259 
L 290.42516 53.189251 
L 295.92778 53.189254 
L 301.430399 53.18926 
L 306.933018 53.189267 
L 312.435638 53.189284 
L 317.938257 53.18929 
L 323.440877 53.189304 
L 328.943496 53.189309 
L 334.446115 53.189318 
L 339.948735 53.189325 
L 345.451354 53.18933 
L 350.953974 53.189334 
L 356.456593 53.189338 
L 361.959212 53.189341 
L 367.461832 53.189344 
L 372.964451 53.189346 
L 378.467071 53.189348 
L 383.96969 53.189349 
L 389.47231 53.18935 
L 394.974929 53.189351 
" clip-path="url(#pb7b7081eac)" style="fill: none; stroke: #c49c94; stroke-width: 1.5; stroke-linecap: square"/>
   </g>
   <g id="line2d_22">
    <path d="M 70.320384 85.284573 
L 75.823003 85.284573 
L 81.325622 85.284573 
L 86.828242 85.284573 
L 92.330861 85.284573 
L 97.833481 85.087686 
L 103.3361 82.763596 
L 108.838719 80.869567 
L 114.341339 79.45712 
L 119.843958 78.40159 
L 125.346578 77.621257 
L 130.849197 77.074347 
L 136.351816 76.687561 
L 141.854436 76.406416 
L 147.357055 76.201794 
L 152.859675 76.052734 
L 158.362294 75.94408 
L 163.864914 75.864821 
L 169.367533 75.806899 
L 174.870152 75.764619 
L 180.372772 75.733673 
L 185.875391 75.711084 
L 191.378011 75.69455 
L 196.88063 75.682496 
L 202.383249 75.67364 
L 207.885869 75.667166 
L 213.388488 75.662436 
L 218.891108 75.658995 
L 224.393727 75.656433 
L 229.896347 75.654586 
L 235.398966 75.653251 
L 240.901585 75.65224 
L 246.404205 75.651503 
L 251.906824 75.650991 
L 257.409444 75.650616 
L 262.912063 75.650379 
L 268.414682 75.650221 
L 273.917302 75.650127 
L 279.419921 75.650047 
L 284.922541 75.650006 
L 290.42516 75.649981 
L 295.92778 75.649965 
L 301.430399 75.649953 
L 306.933018 75.649953 
L 312.435638 75.64995 
L 317.938257 75.649952 
L 323.440877 75.649954 
L 328.943496 75.649955 
L 334.446115 75.649958 
L 339.948735 75.64996 
L 345.451354 75.649963 
L 350.953974 75.649965 
L 356.456593 75.649966 
L 361.959212 75.649968 
L 367.461832 75.649969 
L 372.964451 75.64997 
L 378.467071 75.649971 
L 383.96969 75.649972 
L 389.47231 75.649972 
L 394.974929 75.649973 
" clip-path="url(#pb7b7081eac)" style="fill: none; stroke: #f7b6d2; stroke-width: 1.5; stroke-linecap: square"/>
   </g>
   <g id="line2d_23">
    <path d="M 70.320384 85.284573 
L 75.823003 85.284573 
L 81.325622 85.284573 
L 86.828242 81.998911 
L 92.330861 78.899273 
L 97.833481 76.545907 
L 103.3361 74.822669 
L 108.838719 73.532928 
L 114.341339 72.569805 
L 119.843958 71.856888 
L 125.346578 71.328376 
L 130.849197 70.923598 
L 136.351816 70.607612 
L 141.854436 70.366214 
L 147.357055 70.183085 
L 152.859675 70.045058 
L 158.362294 69.941656 
L 163.864914 69.864627 
L 169.367533 69.807454 
L 174.870152 69.76518 
L 180.372772 69.734084 
L 185.875391 69.711112 
L 191.378011 69.694235 
L 196.88063 69.681859 
L 202.383249 69.672752 
L 207.885869 69.666109 
L 213.388488 69.661254 
L 218.891108 69.657655 
L 224.393727 69.655033 
L 229.896347 69.653121 
L 235.398966 69.651733 
L 240.901585 69.650691 
L 246.404205 69.649976 
L 251.906824 69.649407 
L 257.409444 69.648946 
L 262.912063 69.648575 
L 268.414682 69.648317 
L 273.917302 69.648079 
L 279.419921 69.647896 
L 284.922541 69.647755 
L 290.42516 69.647655 
L 295.92778 69.647565 
L 301.430399 69.647501 
L 306.933018 69.647445 
L 312.435638 69.647407 
L 317.938257 69.647373 
L 323.440877 69.647347 
L 328.943496 69.64733 
L 334.446115 69.647313 
L 339.948735 69.6473 
L 345.451354 69.64729 
L 350.953974 69.647283 
L 356.456593 69.647276 
L 361.959212 69.647272 
L 367.461832 69.647268 
L 372.964451 69.647265 
L 378.467071 69.647263 
L 383.96969 69.647262 
L 389.47231 69.647261 
L 394.974929 69.64726 
" clip-path="url(#pb7b7081eac)" style="fill: none; stroke: #c7c7c7; stroke-width: 1.5; stroke-linecap: square"/>
   </g>
   <g id="line2d_24">
    <path d="M 70.320384 81.388593 
L 75.823003 74.999955 
L 81.325622 70.430978 
L 86.828242 67.424296 
L 92.330861 65.059865 
L 97.833481 63.270174 
L 103.3361 61.886363 
L 108.838719 60.836803 
L 114.341339 60.052694 
L 119.843958 59.468886 
L 125.346578 59.034683 
L 130.849197 58.805631 
L 136.351816 58.688623 
L 141.854436 58.616045 
L 147.357055 58.570709 
L 152.859675 58.54217 
L 158.362294 58.52394 
L 163.864914 58.512101 
L 169.367533 58.504314 
L 174.870152 58.499117 
L 180.372772 58.495347 
L 185.875391 58.492867 
L 191.378011 58.491148 
L 196.88063 58.489954 
L 202.383249 58.489086 
L 207.885869 58.488417 
L 213.388488 58.487914 
L 218.891108 58.487693 
L 224.393727 58.487388 
L 229.896347 58.487203 
L 235.398966 58.487127 
L 240.901585 58.487016 
L 246.404205 58.486883 
L 251.906824 58.486889 
L 257.409444 58.486999 
L 262.912063 58.487138 
L 268.414682 58.487293 
L 273.917302 58.487472 
L 279.419921 58.487637 
L 284.922541 58.487775 
L 290.42516 58.487895 
L 295.92778 58.488002 
L 301.430399 58.488095 
L 306.933018 58.488175 
L 312.435638 58.488239 
L 317.938257 58.488293 
L 323.440877 58.488336 
L 328.943496 58.48837 
L 334.446115 58.4884 
L 339.948735 58.488422 
L 345.451354 58.488442 
L 350.953974 58.488458 
L 356.456593 58.488469 
L 361.959212 58.488479 
L 367.461832 58.488487 
L 372.964451 58.488493 
L 378.467071 58.488498 
L 383.96969 58.488502 
L 389.47231 58.488505 
L 394.974929 58.488507 
" clip-path="url(#pb7b7081eac)" style="fill: none; stroke: #bcbd22; stroke-width: 1.5; stroke-linecap: square"/>
   </g>
   <g id="line2d_25">
    <path d="M 70.320384 85.284573 
L 75.823003 85.269722 
L 81.325622 83.44925 
L 86.828242 81.250004 
L 92.330861 79.887911 
L 97.833481 78.864163 
L 103.3361 78.094612 
L 108.838719 77.526316 
L 114.341339 77.113877 
L 119.843958 76.811102 
L 125.346578 76.587601 
L 130.849197 76.419982 
L 136.351816 76.287409 
L 141.854436 76.184177 
L 147.357055 76.104825 
L 152.859675 76.044442 
L 158.362294 75.998905 
L 163.864914 75.964791 
L 169.367533 75.939402 
L 174.870152 75.920557 
L 180.372772 75.906732 
L 185.875391 75.896464 
L 191.378011 75.88891 
L 196.88063 75.883354 
L 202.383249 75.879298 
L 207.885869 75.876304 
L 213.388488 75.874142 
L 218.891108 75.872508 
L 224.393727 75.871343 
L 229.896347 75.870494 
L 235.398966 75.869854 
L 240.901585 75.869413 
L 246.404205 75.869098 
L 251.906824 75.868833 
L 257.409444 75.868593 
L 262.912063 75.868375 
L 268.414682 75.868208 
L 273.917302 75.868063 
L 279.419921 75.867948 
L 284.922541 75.867838 
L 290.42516 75.867758 
L 295.92778 75.867691 
L 301.430399 75.867639 
L 306.933018 75.867598 
L 312.435638 75.867559 
L 317.938257 75.867534 
L 323.440877 75.867512 
L 328.943496 75.867492 
L 334.446115 75.867478 
L 339.948735 75.867468 
L 345.451354 75.867459 
L 350.953974 75.867451 
L 356.456593 75.867446 
L 361.959212 75.867441 
L 367.461832 75.867438 
L 372.964451 75.867435 
L 378.467071 75.867433 
L 383.96969 75.867431 
L 389.47231 75.86743 
L 394.974929 75.867429 
" clip-path="url(#pb7b7081eac)" style="fill: none; stroke: #17becf; stroke-width: 1.5; stroke-linecap: square"/>
   </g>
   <g id="line2d_26">
    <path d="M 70.320384 84.359922 
L 75.823003 84.236482 
L 81.325622 84.143364 
L 86.828242 84.073713 
L 92.330861 84.027168 
L 97.833481 83.988294 
L 103.3361 83.953678 
L 108.838719 83.927968 
L 114.341339 83.909698 
L 119.843958 83.897101 
L 125.346578 83.889697 
L 130.849197 83.908558 
L 136.351816 83.925798 
L 141.854436 83.932098 
L 147.357055 83.932368 
L 152.859675 83.929847 
L 158.362294 83.926306 
L 163.864914 83.922724 
L 169.367533 83.919533 
L 174.870152 83.91688 
L 180.372772 83.914802 
L 185.875391 83.913136 
L 191.378011 83.911864 
L 196.88063 83.91094 
L 202.383249 83.910205 
L 207.885869 83.909686 
L 213.388488 83.909291 
L 218.891108 83.908989 
L 224.393727 83.908804 
L 229.896347 83.908637 
L 235.398966 83.908517 
L 240.901585 83.908424 
L 246.404205 83.9084 
L 251.906824 83.908332 
L 257.409444 83.908275 
L 262.912063 83.90821 
L 268.414682 83.90817 
L 273.917302 83.90813 
L 279.419921 83.908085 
L 284.922541 83.908069 
L 290.42516 83.908035 
L 295.92778 83.908023 
L 301.430399 83.908003 
L 306.933018 83.907987 
L 312.435638 83.907978 
L 317.938257 83.907963 
L 323.440877 83.907957 
L 328.943496 83.907953 
L 334.446115 83.907945 
L 339.948735 83.907942 
L 345.451354 83.907938 
L 350.953974 83.907936 
L 356.456593 83.907934 
L 361.959212 83.907932 
L 367.461832 83.907931 
L 372.964451 83.90793 
L 378.467071 83.907929 
L 383.96969 83.907928 
L 389.47231 83.907928 
L 394.974929 83.907927 
" clip-path="url(#pb7b7081eac)" style="fill: none; stroke: #9edae5; stroke-width: 1.5; stroke-linecap: square"/>
   </g>
   <g id="line2d_27">
    <path d="M 147.357055 288.430125 
L 147.357055 22.318125 
" clip-path="url(#pb7b7081eac)" style="fill: none; stroke-dasharray: 5.55,2.4; stroke-dashoffset: 0; stroke: #ff0000; stroke-width: 1.5"/>
   </g>
   <g id="patch_3">
    <path d="M 54.087656 288.430125 
L 54.087656 22.318125 
" style="fill: none; stroke: #000000; stroke-width: 0.8; stroke-linejoin: miter; stroke-linecap: square"/>
   </g>
   <g id="patch_4">
    <path d="M 411.207656 288.430125 
L 411.207656 22.318125 
" style="fill: none; stroke: #000000; stroke-width: 0.8; stroke-linejoin: miter; stroke-linecap: square"/>
   </g>
   <g id="patch_5">
    <path d="M 54.087656 288.430125 
L 411.207656 288.430125 
" style="fill: none; stroke: #000000; stroke-width: 0.8; stroke-linejoin: miter; stroke-linecap: square"/>
   </g>
   <g id="patch_6">
    <path d="M 54.087656 22.318125 
L 411.207656 22.318125 
" style="fill: none; stroke: #000000; stroke-width: 0.8; stroke-linejoin: miter; stroke-linecap: square"/>
   </g>
   <g id="text_14">
    <!-- Elastic Net Final coefficients -->
    <g transform="translate(148.494844 16.318125) scale(0.12 -0.12)">
     <defs>
      <path id="DejaVuSans-45" d="M 628 4666 
L 3578 4666 
L 3578 4134 
L 1259 4134 
L 1259 2753 
L 3481 2753 
L 3481 2222 
L 1259 2222 
L 1259 531 
L 3634 531 
L 3634 0 
L 628 0 
L 628 4666 
z
" transform="scale(0.015625)"/>
      <path id="DejaVuSans-6c" d="M 603 4863 
L 1178 4863 
L 1178 0 
L 603 0 
L 603 4863 
z
" transform="scale(0.015625)"/>
      <path id="DejaVuSans-61" d="M 2194 1759 
Q 1497 1759 1228 1600 
Q 959 1441 959 1056 
Q 959 750 1161 570 
Q 1363 391 1709 391 
Q 2188 391 2477 730 
Q 2766 1069 2766 1631 
L 2766 1759 
L 2194 1759 
z
M 3341 1997 
L 3341 0 
L 2766 0 
L 2766 531 
Q 2569 213 2275 61 
Q 1981 -91 1556 -91 
Q 1019 -91 701 211 
Q 384 513 384 1019 
Q 384 1609 779 1909 
Q 1175 2209 1959 2209 
L 2766 2209 
L 2766 2266 
Q 2766 2663 2505 2880 
Q 2244 3097 1772 3097 
Q 1472 3097 1187 3025 
Q 903 2953 641 2809 
L 641 3341 
Q 956 3463 1253 3523 
Q 1550 3584 1831 3584 
Q 2591 3584 2966 3190 
Q 3341 2797 3341 1997 
z
" transform="scale(0.015625)"/>
      <path id="DejaVuSans-73" d="M 2834 3397 
L 2834 2853 
Q 2591 2978 2328 3040 
Q 2066 3103 1784 3103 
Q 1356 3103 1142 2972 
Q 928 2841 928 2578 
Q 928 2378 1081 2264 
Q 1234 2150 1697 2047 
L 1894 2003 
Q 2506 1872 2764 1633 
Q 3022 1394 3022 966 
Q 3022 478 2636 193 
Q 2250 -91 1575 -91 
Q 1294 -91 989 -36 
Q 684 19 347 128 
L 347 722 
Q 666 556 975 473 
Q 1284 391 1588 391 
Q 1994 391 2212 530 
Q 2431 669 2431 922 
Q 2431 1156 2273 1281 
Q 2116 1406 1581 1522 
L 1381 1569 
Q 847 1681 609 1914 
Q 372 2147 372 2553 
Q 372 3047 722 3315 
Q 1072 3584 1716 3584 
Q 2034 3584 2315 3537 
Q 2597 3491 2834 3397 
z
" transform="scale(0.015625)"/>
      <path id="DejaVuSans-74" d="M 1172 4494 
L 1172 3500 
L 2356 3500 
L 2356 3053 
L 1172 3053 
L 1172 1153 
Q 1172 725 1289 603 
Q 1406 481 1766 481 
L 2356 481 
L 2356 0 
L 1766 0 
Q 1100 0 847 248 
Q 594 497 594 1153 
L 594 3053 
L 172 3053 
L 172 3500 
L 594 3500 
L 594 4494 
L 1172 4494 
z
" transform="scale(0.015625)"/>
      <path id="DejaVuSans-69" d="M 603 3500 
L 1178 3500 
L 1178 0 
L 603 0 
L 603 3500 
z
M 603 4863 
L 1178 4863 
L 1178 4134 
L 603 4134 
L 603 4863 
z
" transform="scale(0.015625)"/>
      <path id="DejaVuSans-63" d="M 3122 3366 
L 3122 2828 
Q 2878 2963 2633 3030 
Q 2388 3097 2138 3097 
Q 1578 3097 1268 2742 
Q 959 2388 959 1747 
Q 959 1106 1268 751 
Q 1578 397 2138 397 
Q 2388 397 2633 464 
Q 2878 531 3122 666 
L 3122 134 
Q 2881 22 2623 -34 
Q 2366 -91 2075 -91 
Q 1284 -91 818 406 
Q 353 903 353 1747 
Q 353 2603 823 3093 
Q 1294 3584 2113 3584 
Q 2378 3584 2631 3529 
Q 2884 3475 3122 3366 
z
" transform="scale(0.015625)"/>
      <path id="DejaVuSans-20" transform="scale(0.015625)"/>
      <path id="DejaVuSans-4e" d="M 628 4666 
L 1478 4666 
L 3547 763 
L 3547 4666 
L 4159 4666 
L 4159 0 
L 3309 0 
L 1241 3903 
L 1241 0 
L 628 0 
L 628 4666 
z
" transform="scale(0.015625)"/>
      <path id="DejaVuSans-65" d="M 3597 1894 
L 3597 1613 
L 953 1613 
Q 991 1019 1311 708 
Q 1631 397 2203 397 
Q 2534 397 2845 478 
Q 3156 559 3463 722 
L 3463 178 
Q 3153 47 2828 -22 
Q 2503 -91 2169 -91 
Q 1331 -91 842 396 
Q 353 884 353 1716 
Q 353 2575 817 3079 
Q 1281 3584 2069 3584 
Q 2775 3584 3186 3129 
Q 3597 2675 3597 1894 
z
M 3022 2063 
Q 3016 2534 2758 2815 
Q 2500 3097 2075 3097 
Q 1594 3097 1305 2825 
Q 1016 2553 972 2059 
L 3022 2063 
z
" transform="scale(0.015625)"/>
      <path id="DejaVuSans-46" d="M 628 4666 
L 3309 4666 
L 3309 4134 
L 1259 4134 
L 1259 2759 
L 3109 2759 
L 3109 2228 
L 1259 2228 
L 1259 0 
L 628 0 
L 628 4666 
z
" transform="scale(0.015625)"/>
      <path id="DejaVuSans-6e" d="M 3513 2113 
L 3513 0 
L 2938 0 
L 2938 2094 
Q 2938 2591 2744 2837 
Q 2550 3084 2163 3084 
Q 1697 3084 1428 2787 
Q 1159 2491 1159 1978 
L 1159 0 
L 581 0 
L 581 3500 
L 1159 3500 
L 1159 2956 
Q 1366 3272 1645 3428 
Q 1925 3584 2291 3584 
Q 2894 3584 3203 3211 
Q 3513 2838 3513 2113 
z
" transform="scale(0.015625)"/>
      <path id="DejaVuSans-6f" d="M 1959 3097 
Q 1497 3097 1228 2736 
Q 959 2375 959 1747 
Q 959 1119 1226 758 
Q 1494 397 1959 397 
Q 2419 397 2687 759 
Q 2956 1122 2956 1747 
Q 2956 2369 2687 2733 
Q 2419 3097 1959 3097 
z
M 1959 3584 
Q 2709 3584 3137 3096 
Q 3566 2609 3566 1747 
Q 3566 888 3137 398 
Q 2709 -91 1959 -91 
Q 1206 -91 779 398 
Q 353 888 353 1747 
Q 353 2609 779 3096 
Q 1206 3584 1959 3584 
z
" transform="scale(0.015625)"/>
      <path id="DejaVuSans-66" d="M 2375 4863 
L 2375 4384 
L 1825 4384 
Q 1516 4384 1395 4259 
Q 1275 4134 1275 3809 
L 1275 3500 
L 2222 3500 
L 2222 3053 
L 1275 3053 
L 1275 0 
L 697 0 
L 697 3053 
L 147 3053 
L 147 3500 
L 697 3500 
L 697 3744 
Q 697 4328 969 4595 
Q 1241 4863 1831 4863 
L 2375 4863 
z
" transform="scale(0.015625)"/>
     </defs>
     <use xlink:href="#DejaVuSans-45"/>
     <use xlink:href="#DejaVuSans-6c" x="63.183594"/>
     <use xlink:href="#DejaVuSans-61" x="90.966797"/>
     <use xlink:href="#DejaVuSans-73" x="152.246094"/>
     <use xlink:href="#DejaVuSans-74" x="204.345703"/>
     <use xlink:href="#DejaVuSans-69" x="243.554688"/>
     <use xlink:href="#DejaVuSans-63" x="271.337891"/>
     <use xlink:href="#DejaVuSans-20" x="326.318359"/>
     <use xlink:href="#DejaVuSans-4e" x="358.105469"/>
     <use xlink:href="#DejaVuSans-65" x="432.910156"/>
     <use xlink:href="#DejaVuSans-74" x="494.433594"/>
     <use xlink:href="#DejaVuSans-20" x="533.642578"/>
     <use xlink:href="#DejaVuSans-46" x="565.429688"/>
     <use xlink:href="#DejaVuSans-69" x="615.699219"/>
     <use xlink:href="#DejaVuSans-6e" x="643.482422"/>
     <use xlink:href="#DejaVuSans-61" x="706.861328"/>
     <use xlink:href="#DejaVuSans-6c" x="768.140625"/>
     <use xlink:href="#DejaVuSans-20" x="795.923828"/>
     <use xlink:href="#DejaVuSans-63" x="827.710938"/>
     <use xlink:href="#DejaVuSans-6f" x="882.691406"/>
     <use xlink:href="#DejaVuSans-65" x="943.873047"/>
     <use xlink:href="#DejaVuSans-66" x="1005.396484"/>
     <use xlink:href="#DejaVuSans-66" x="1040.601562"/>
     <use xlink:href="#DejaVuSans-69" x="1075.806641"/>
     <use xlink:href="#DejaVuSans-63" x="1103.589844"/>
     <use xlink:href="#DejaVuSans-69" x="1158.570312"/>
     <use xlink:href="#DejaVuSans-65" x="1186.353516"/>
     <use xlink:href="#DejaVuSans-6e" x="1247.876953"/>
     <use xlink:href="#DejaVuSans-74" x="1311.255859"/>
     <use xlink:href="#DejaVuSans-73" x="1350.464844"/>
    </g>
   </g>
   <g id="legend_1">
    <g id="patch_7">
     <path d="M 9.2 376.569325 
L 456.095312 376.569325 
Q 458.095312 376.569325 458.095312 374.569325 
L 458.095312 301.0662 
Q 458.095312 299.0662 456.095312 299.0662 
L 9.2 299.0662 
Q 7.2 299.0662 7.2 301.0662 
L 7.2 374.569325 
Q 7.2 376.569325 9.2 376.569325 
z
" style="fill: #ffffff; opacity: 0.8; stroke: #cccccc; stroke-linejoin: miter"/>
    </g>
    <g id="line2d_28">
     <path d="M 11.2 307.164637 
L 21.2 307.164637 
L 31.2 307.164637 
" style="fill: none; stroke: #1f77b4; stroke-width: 1.5; stroke-linecap: square"/>
    </g>
    <g id="text_15">
     <!-- int_rate -->
     <g transform="translate(39.2 310.664637) scale(0.1 -0.1)">
      <defs>
       <path id="DejaVuSans-5f" d="M 3263 -1063 
L 3263 -1509 
L -63 -1509 
L -63 -1063 
L 3263 -1063 
z
" transform="scale(0.015625)"/>
       <path id="DejaVuSans-72" d="M 2631 2963 
Q 2534 3019 2420 3045 
Q 2306 3072 2169 3072 
Q 1681 3072 1420 2755 
Q 1159 2438 1159 1844 
L 1159 0 
L 581 0 
L 581 3500 
L 1159 3500 
L 1159 2956 
Q 1341 3275 1631 3429 
Q 1922 3584 2338 3584 
Q 2397 3584 2469 3576 
Q 2541 3569 2628 3553 
L 2631 2963 
z
" transform="scale(0.015625)"/>
      </defs>
      <use xlink:href="#DejaVuSans-69"/>
      <use xlink:href="#DejaVuSans-6e" x="27.783203"/>
      <use xlink:href="#DejaVuSans-74" x="91.162109"/>
      <use xlink:href="#DejaVuSans-5f" x="130.371094"/>
      <use xlink:href="#DejaVuSans-72" x="180.371094"/>
      <use xlink:href="#DejaVuSans-61" x="221.484375"/>
      <use xlink:href="#DejaVuSans-74" x="282.763672"/>
      <use xlink:href="#DejaVuSans-65" x="321.972656"/>
     </g>
    </g>
    <g id="line2d_29">
     <path d="M 11.2 322.120887 
L 21.2 322.120887 
L 31.2 322.120887 
" style="fill: none; stroke: #aec7e8; stroke-width: 1.5; stroke-linecap: square"/>
    </g>
    <g id="text_16">
     <!-- sub_grade -->
     <g transform="translate(39.2 325.620887) scale(0.1 -0.1)">
      <defs>
       <path id="DejaVuSans-75" d="M 544 1381 
L 544 3500 
L 1119 3500 
L 1119 1403 
Q 1119 906 1312 657 
Q 1506 409 1894 409 
Q 2359 409 2629 706 
Q 2900 1003 2900 1516 
L 2900 3500 
L 3475 3500 
L 3475 0 
L 2900 0 
L 2900 538 
Q 2691 219 2414 64 
Q 2138 -91 1772 -91 
Q 1169 -91 856 284 
Q 544 659 544 1381 
z
M 1991 3584 
L 1991 3584 
z
" transform="scale(0.015625)"/>
       <path id="DejaVuSans-62" d="M 3116 1747 
Q 3116 2381 2855 2742 
Q 2594 3103 2138 3103 
Q 1681 3103 1420 2742 
Q 1159 2381 1159 1747 
Q 1159 1113 1420 752 
Q 1681 391 2138 391 
Q 2594 391 2855 752 
Q 3116 1113 3116 1747 
z
M 1159 2969 
Q 1341 3281 1617 3432 
Q 1894 3584 2278 3584 
Q 2916 3584 3314 3078 
Q 3713 2572 3713 1747 
Q 3713 922 3314 415 
Q 2916 -91 2278 -91 
Q 1894 -91 1617 61 
Q 1341 213 1159 525 
L 1159 0 
L 581 0 
L 581 4863 
L 1159 4863 
L 1159 2969 
z
" transform="scale(0.015625)"/>
       <path id="DejaVuSans-67" d="M 2906 1791 
Q 2906 2416 2648 2759 
Q 2391 3103 1925 3103 
Q 1463 3103 1205 2759 
Q 947 2416 947 1791 
Q 947 1169 1205 825 
Q 1463 481 1925 481 
Q 2391 481 2648 825 
Q 2906 1169 2906 1791 
z
M 3481 434 
Q 3481 -459 3084 -895 
Q 2688 -1331 1869 -1331 
Q 1566 -1331 1297 -1286 
Q 1028 -1241 775 -1147 
L 775 -588 
Q 1028 -725 1275 -790 
Q 1522 -856 1778 -856 
Q 2344 -856 2625 -561 
Q 2906 -266 2906 331 
L 2906 616 
Q 2728 306 2450 153 
Q 2172 0 1784 0 
Q 1141 0 747 490 
Q 353 981 353 1791 
Q 353 2603 747 3093 
Q 1141 3584 1784 3584 
Q 2172 3584 2450 3431 
Q 2728 3278 2906 2969 
L 2906 3500 
L 3481 3500 
L 3481 434 
z
" transform="scale(0.015625)"/>
       <path id="DejaVuSans-64" d="M 2906 2969 
L 2906 4863 
L 3481 4863 
L 3481 0 
L 2906 0 
L 2906 525 
Q 2725 213 2448 61 
Q 2172 -91 1784 -91 
Q 1150 -91 751 415 
Q 353 922 353 1747 
Q 353 2572 751 3078 
Q 1150 3584 1784 3584 
Q 2172 3584 2448 3432 
Q 2725 3281 2906 2969 
z
M 947 1747 
Q 947 1113 1208 752 
Q 1469 391 1925 391 
Q 2381 391 2643 752 
Q 2906 1113 2906 1747 
Q 2906 2381 2643 2742 
Q 2381 3103 1925 3103 
Q 1469 3103 1208 2742 
Q 947 2381 947 1747 
z
" transform="scale(0.015625)"/>
      </defs>
      <use xlink:href="#DejaVuSans-73"/>
      <use xlink:href="#DejaVuSans-75" x="52.099609"/>
      <use xlink:href="#DejaVuSans-62" x="115.478516"/>
      <use xlink:href="#DejaVuSans-5f" x="178.955078"/>
      <use xlink:href="#DejaVuSans-67" x="228.955078"/>
      <use xlink:href="#DejaVuSans-72" x="292.431641"/>
      <use xlink:href="#DejaVuSans-61" x="333.544922"/>
      <use xlink:href="#DejaVuSans-64" x="394.824219"/>
      <use xlink:href="#DejaVuSans-65" x="458.300781"/>
     </g>
    </g>
    <g id="line2d_30">
     <path d="M 11.2 337.077137 
L 21.2 337.077137 
L 31.2 337.077137 
" style="fill: none; stroke: #ffbb78; stroke-width: 1.5; stroke-linecap: square"/>
    </g>
    <g id="text_17">
     <!-- term_ 60 months -->
     <g transform="translate(39.2 340.577137) scale(0.1 -0.1)">
      <defs>
       <path id="DejaVuSans-6d" d="M 3328 2828 
Q 3544 3216 3844 3400 
Q 4144 3584 4550 3584 
Q 5097 3584 5394 3201 
Q 5691 2819 5691 2113 
L 5691 0 
L 5113 0 
L 5113 2094 
Q 5113 2597 4934 2840 
Q 4756 3084 4391 3084 
Q 3944 3084 3684 2787 
Q 3425 2491 3425 1978 
L 3425 0 
L 2847 0 
L 2847 2094 
Q 2847 2600 2669 2842 
Q 2491 3084 2119 3084 
Q 1678 3084 1418 2786 
Q 1159 2488 1159 1978 
L 1159 0 
L 581 0 
L 581 3500 
L 1159 3500 
L 1159 2956 
Q 1356 3278 1631 3431 
Q 1906 3584 2284 3584 
Q 2666 3584 2933 3390 
Q 3200 3197 3328 2828 
z
" transform="scale(0.015625)"/>
       <path id="DejaVuSans-68" d="M 3513 2113 
L 3513 0 
L 2938 0 
L 2938 2094 
Q 2938 2591 2744 2837 
Q 2550 3084 2163 3084 
Q 1697 3084 1428 2787 
Q 1159 2491 1159 1978 
L 1159 0 
L 581 0 
L 581 4863 
L 1159 4863 
L 1159 2956 
Q 1366 3272 1645 3428 
Q 1925 3584 2291 3584 
Q 2894 3584 3203 3211 
Q 3513 2838 3513 2113 
z
" transform="scale(0.015625)"/>
      </defs>
      <use xlink:href="#DejaVuSans-74"/>
      <use xlink:href="#DejaVuSans-65" x="39.208984"/>
      <use xlink:href="#DejaVuSans-72" x="100.732422"/>
      <use xlink:href="#DejaVuSans-6d" x="140.095703"/>
      <use xlink:href="#DejaVuSans-5f" x="237.507812"/>
      <use xlink:href="#DejaVuSans-20" x="287.507812"/>
      <use xlink:href="#DejaVuSans-36" x="319.294922"/>
      <use xlink:href="#DejaVuSans-30" x="382.917969"/>
      <use xlink:href="#DejaVuSans-20" x="446.541016"/>
      <use xlink:href="#DejaVuSans-6d" x="478.328125"/>
      <use xlink:href="#DejaVuSans-6f" x="575.740234"/>
      <use xlink:href="#DejaVuSans-6e" x="636.921875"/>
      <use xlink:href="#DejaVuSans-74" x="700.300781"/>
      <use xlink:href="#DejaVuSans-68" x="739.509766"/>
      <use xlink:href="#DejaVuSans-73" x="802.888672"/>
     </g>
    </g>
    <g id="line2d_31">
     <path d="M 11.2 352.033388 
L 21.2 352.033388 
L 31.2 352.033388 
" style="fill: none; stroke: #98df8a; stroke-width: 1.5; stroke-linecap: square"/>
    </g>
    <g id="text_18">
     <!-- dti -->
     <g transform="translate(39.2 355.533388) scale(0.1 -0.1)">
      <use xlink:href="#DejaVuSans-64"/>
      <use xlink:href="#DejaVuSans-74" x="63.476562"/>
      <use xlink:href="#DejaVuSans-69" x="102.685547"/>
     </g>
    </g>
    <g id="line2d_32">
     <path d="M 11.2 366.711512 
L 21.2 366.711512 
L 31.2 366.711512 
" style="fill: none; stroke: #d62728; stroke-width: 1.5; stroke-linecap: square"/>
    </g>
    <g id="text_19">
     <!-- loan_amnt -->
     <g transform="translate(39.2 370.211512) scale(0.1 -0.1)">
      <use xlink:href="#DejaVuSans-6c"/>
      <use xlink:href="#DejaVuSans-6f" x="27.783203"/>
      <use xlink:href="#DejaVuSans-61" x="88.964844"/>
      <use xlink:href="#DejaVuSans-6e" x="150.244141"/>
      <use xlink:href="#DejaVuSans-5f" x="213.623047"/>
      <use xlink:href="#DejaVuSans-61" x="263.623047"/>
      <use xlink:href="#DejaVuSans-6d" x="324.902344"/>
      <use xlink:href="#DejaVuSans-6e" x="422.314453"/>
      <use xlink:href="#DejaVuSans-74" x="485.693359"/>
     </g>
    </g>
    <g id="line2d_33">
     <path d="M 144.695313 307.164637 
L 154.695313 307.164637 
L 164.695313 307.164637 
" style="fill: none; stroke: #9467bd; stroke-width: 1.5; stroke-linecap: square"/>
    </g>
    <g id="text_20">
     <!-- fico_range_high -->
     <g transform="translate(172.695313 310.664637) scale(0.1 -0.1)">
      <use xlink:href="#DejaVuSans-66"/>
      <use xlink:href="#DejaVuSans-69" x="35.205078"/>
      <use xlink:href="#DejaVuSans-63" x="62.988281"/>
      <use xlink:href="#DejaVuSans-6f" x="117.96875"/>
      <use xlink:href="#DejaVuSans-5f" x="179.150391"/>
      <use xlink:href="#DejaVuSans-72" x="229.150391"/>
      <use xlink:href="#DejaVuSans-61" x="270.263672"/>
      <use xlink:href="#DejaVuSans-6e" x="331.542969"/>
      <use xlink:href="#DejaVuSans-67" x="394.921875"/>
      <use xlink:href="#DejaVuSans-65" x="458.398438"/>
      <use xlink:href="#DejaVuSans-5f" x="519.921875"/>
      <use xlink:href="#DejaVuSans-68" x="569.921875"/>
      <use xlink:href="#DejaVuSans-69" x="633.300781"/>
      <use xlink:href="#DejaVuSans-67" x="661.083984"/>
      <use xlink:href="#DejaVuSans-68" x="724.560547"/>
     </g>
    </g>
    <g id="line2d_34">
     <path d="M 144.695313 322.120887 
L 154.695313 322.120887 
L 164.695313 322.120887 
" style="fill: none; stroke: #8c564b; stroke-width: 1.5; stroke-linecap: square"/>
    </g>
    <g id="text_21">
     <!-- mort_acc -->
     <g transform="translate(172.695313 325.620887) scale(0.1 -0.1)">
      <use xlink:href="#DejaVuSans-6d"/>
      <use xlink:href="#DejaVuSans-6f" x="97.412109"/>
      <use xlink:href="#DejaVuSans-72" x="158.59375"/>
      <use xlink:href="#DejaVuSans-74" x="199.707031"/>
      <use xlink:href="#DejaVuSans-5f" x="238.916016"/>
      <use xlink:href="#DejaVuSans-61" x="288.916016"/>
      <use xlink:href="#DejaVuSans-63" x="350.195312"/>
      <use xlink:href="#DejaVuSans-63" x="405.175781"/>
     </g>
    </g>
    <g id="line2d_35">
     <path d="M 144.695313 337.077137 
L 154.695313 337.077137 
L 164.695313 337.077137 
" style="fill: none; stroke: #c49c94; stroke-width: 1.5; stroke-linecap: square"/>
    </g>
    <g id="text_22">
     <!-- home_ownership_RENT -->
     <g transform="translate(172.695313 340.577137) scale(0.1 -0.1)">
      <defs>
       <path id="DejaVuSans-77" d="M 269 3500 
L 844 3500 
L 1563 769 
L 2278 3500 
L 2956 3500 
L 3675 769 
L 4391 3500 
L 4966 3500 
L 4050 0 
L 3372 0 
L 2619 2869 
L 1863 0 
L 1184 0 
L 269 3500 
z
" transform="scale(0.015625)"/>
       <path id="DejaVuSans-70" d="M 1159 525 
L 1159 -1331 
L 581 -1331 
L 581 3500 
L 1159 3500 
L 1159 2969 
Q 1341 3281 1617 3432 
Q 1894 3584 2278 3584 
Q 2916 3584 3314 3078 
Q 3713 2572 3713 1747 
Q 3713 922 3314 415 
Q 2916 -91 2278 -91 
Q 1894 -91 1617 61 
Q 1341 213 1159 525 
z
M 3116 1747 
Q 3116 2381 2855 2742 
Q 2594 3103 2138 3103 
Q 1681 3103 1420 2742 
Q 1159 2381 1159 1747 
Q 1159 1113 1420 752 
Q 1681 391 2138 391 
Q 2594 391 2855 752 
Q 3116 1113 3116 1747 
z
" transform="scale(0.015625)"/>
       <path id="DejaVuSans-52" d="M 2841 2188 
Q 3044 2119 3236 1894 
Q 3428 1669 3622 1275 
L 4263 0 
L 3584 0 
L 2988 1197 
Q 2756 1666 2539 1819 
Q 2322 1972 1947 1972 
L 1259 1972 
L 1259 0 
L 628 0 
L 628 4666 
L 2053 4666 
Q 2853 4666 3247 4331 
Q 3641 3997 3641 3322 
Q 3641 2881 3436 2590 
Q 3231 2300 2841 2188 
z
M 1259 4147 
L 1259 2491 
L 2053 2491 
Q 2509 2491 2742 2702 
Q 2975 2913 2975 3322 
Q 2975 3731 2742 3939 
Q 2509 4147 2053 4147 
L 1259 4147 
z
" transform="scale(0.015625)"/>
       <path id="DejaVuSans-54" d="M -19 4666 
L 3928 4666 
L 3928 4134 
L 2272 4134 
L 2272 0 
L 1638 0 
L 1638 4134 
L -19 4134 
L -19 4666 
z
" transform="scale(0.015625)"/>
      </defs>
      <use xlink:href="#DejaVuSans-68"/>
      <use xlink:href="#DejaVuSans-6f" x="63.378906"/>
      <use xlink:href="#DejaVuSans-6d" x="124.560547"/>
      <use xlink:href="#DejaVuSans-65" x="221.972656"/>
      <use xlink:href="#DejaVuSans-5f" x="283.496094"/>
      <use xlink:href="#DejaVuSans-6f" x="333.496094"/>
      <use xlink:href="#DejaVuSans-77" x="394.677734"/>
      <use xlink:href="#DejaVuSans-6e" x="476.464844"/>
      <use xlink:href="#DejaVuSans-65" x="539.84375"/>
      <use xlink:href="#DejaVuSans-72" x="601.367188"/>
      <use xlink:href="#DejaVuSans-73" x="642.480469"/>
      <use xlink:href="#DejaVuSans-68" x="694.580078"/>
      <use xlink:href="#DejaVuSans-69" x="757.958984"/>
      <use xlink:href="#DejaVuSans-70" x="785.742188"/>
      <use xlink:href="#DejaVuSans-5f" x="849.21875"/>
      <use xlink:href="#DejaVuSans-52" x="899.21875"/>
      <use xlink:href="#DejaVuSans-45" x="968.701172"/>
      <use xlink:href="#DejaVuSans-4e" x="1031.884766"/>
      <use xlink:href="#DejaVuSans-54" x="1106.689453"/>
     </g>
    </g>
    <g id="line2d_36">
     <path d="M 144.695313 352.033388 
L 154.695313 352.033388 
L 164.695313 352.033388 
" style="fill: none; stroke: #f7b6d2; stroke-width: 1.5; stroke-linecap: square"/>
    </g>
    <g id="text_23">
     <!-- home_ownership_OWN -->
     <g transform="translate(172.695313 355.533388) scale(0.1 -0.1)">
      <defs>
       <path id="DejaVuSans-4f" d="M 2522 4238 
Q 1834 4238 1429 3725 
Q 1025 3213 1025 2328 
Q 1025 1447 1429 934 
Q 1834 422 2522 422 
Q 3209 422 3611 934 
Q 4013 1447 4013 2328 
Q 4013 3213 3611 3725 
Q 3209 4238 2522 4238 
z
M 2522 4750 
Q 3503 4750 4090 4092 
Q 4678 3434 4678 2328 
Q 4678 1225 4090 567 
Q 3503 -91 2522 -91 
Q 1538 -91 948 565 
Q 359 1222 359 2328 
Q 359 3434 948 4092 
Q 1538 4750 2522 4750 
z
" transform="scale(0.015625)"/>
       <path id="DejaVuSans-57" d="M 213 4666 
L 850 4666 
L 1831 722 
L 2809 4666 
L 3519 4666 
L 4500 722 
L 5478 4666 
L 6119 4666 
L 4947 0 
L 4153 0 
L 3169 4050 
L 2175 0 
L 1381 0 
L 213 4666 
z
" transform="scale(0.015625)"/>
      </defs>
      <use xlink:href="#DejaVuSans-68"/>
      <use xlink:href="#DejaVuSans-6f" x="63.378906"/>
      <use xlink:href="#DejaVuSans-6d" x="124.560547"/>
      <use xlink:href="#DejaVuSans-65" x="221.972656"/>
      <use xlink:href="#DejaVuSans-5f" x="283.496094"/>
      <use xlink:href="#DejaVuSans-6f" x="333.496094"/>
      <use xlink:href="#DejaVuSans-77" x="394.677734"/>
      <use xlink:href="#DejaVuSans-6e" x="476.464844"/>
      <use xlink:href="#DejaVuSans-65" x="539.84375"/>
      <use xlink:href="#DejaVuSans-72" x="601.367188"/>
      <use xlink:href="#DejaVuSans-73" x="642.480469"/>
      <use xlink:href="#DejaVuSans-68" x="694.580078"/>
      <use xlink:href="#DejaVuSans-69" x="757.958984"/>
      <use xlink:href="#DejaVuSans-70" x="785.742188"/>
      <use xlink:href="#DejaVuSans-5f" x="849.21875"/>
      <use xlink:href="#DejaVuSans-4f" x="899.21875"/>
      <use xlink:href="#DejaVuSans-57" x="977.929688"/>
      <use xlink:href="#DejaVuSans-4e" x="1076.806641"/>
     </g>
    </g>
    <g id="line2d_37">
     <path d="M 309.473438 307.164637 
L 319.473438 307.164637 
L 329.473438 307.164637 
" style="fill: none; stroke: #c7c7c7; stroke-width: 1.5; stroke-linecap: square"/>
    </g>
    <g id="text_24">
     <!-- issue_d -->
     <g transform="translate(337.473438 310.664637) scale(0.1 -0.1)">
      <use xlink:href="#DejaVuSans-69"/>
      <use xlink:href="#DejaVuSans-73" x="27.783203"/>
      <use xlink:href="#DejaVuSans-73" x="79.882812"/>
      <use xlink:href="#DejaVuSans-75" x="131.982422"/>
      <use xlink:href="#DejaVuSans-65" x="195.361328"/>
      <use xlink:href="#DejaVuSans-5f" x="256.884766"/>
      <use xlink:href="#DejaVuSans-64" x="306.884766"/>
     </g>
    </g>
    <g id="line2d_38">
     <path d="M 309.473438 322.120887 
L 319.473438 322.120887 
L 329.473438 322.120887 
" style="fill: none; stroke: #bcbd22; stroke-width: 1.5; stroke-linecap: square"/>
    </g>
    <g id="text_25">
     <!-- acc_open_past_24mths -->
     <g transform="translate(337.473438 325.620887) scale(0.1 -0.1)">
      <use xlink:href="#DejaVuSans-61"/>
      <use xlink:href="#DejaVuSans-63" x="61.279297"/>
      <use xlink:href="#DejaVuSans-63" x="116.259766"/>
      <use xlink:href="#DejaVuSans-5f" x="171.240234"/>
      <use xlink:href="#DejaVuSans-6f" x="221.240234"/>
      <use xlink:href="#DejaVuSans-70" x="282.421875"/>
      <use xlink:href="#DejaVuSans-65" x="345.898438"/>
      <use xlink:href="#DejaVuSans-6e" x="407.421875"/>
      <use xlink:href="#DejaVuSans-5f" x="470.800781"/>
      <use xlink:href="#DejaVuSans-70" x="520.800781"/>
      <use xlink:href="#DejaVuSans-61" x="584.277344"/>
      <use xlink:href="#DejaVuSans-73" x="645.556641"/>
      <use xlink:href="#DejaVuSans-74" x="697.65625"/>
      <use xlink:href="#DejaVuSans-5f" x="736.865234"/>
      <use xlink:href="#DejaVuSans-32" x="786.865234"/>
      <use xlink:href="#DejaVuSans-34" x="850.488281"/>
      <use xlink:href="#DejaVuSans-6d" x="914.111328"/>
      <use xlink:href="#DejaVuSans-74" x="1011.523438"/>
      <use xlink:href="#DejaVuSans-68" x="1050.732422"/>
      <use xlink:href="#DejaVuSans-73" x="1114.111328"/>
     </g>
    </g>
    <g id="line2d_39">
     <path d="M 309.473438 337.077137 
L 319.473438 337.077137 
L 329.473438 337.077137 
" style="fill: none; stroke: #17becf; stroke-width: 1.5; stroke-linecap: square"/>
    </g>
    <g id="text_26">
     <!-- num_actv_rev_tl -->
     <g transform="translate(337.473438 340.577137) scale(0.1 -0.1)">
      <defs>
       <path id="DejaVuSans-76" d="M 191 3500 
L 800 3500 
L 1894 563 
L 2988 3500 
L 3597 3500 
L 2284 0 
L 1503 0 
L 191 3500 
z
" transform="scale(0.015625)"/>
      </defs>
      <use xlink:href="#DejaVuSans-6e"/>
      <use xlink:href="#DejaVuSans-75" x="63.378906"/>
      <use xlink:href="#DejaVuSans-6d" x="126.757812"/>
      <use xlink:href="#DejaVuSans-5f" x="224.169922"/>
      <use xlink:href="#DejaVuSans-61" x="274.169922"/>
      <use xlink:href="#DejaVuSans-63" x="335.449219"/>
      <use xlink:href="#DejaVuSans-74" x="390.429688"/>
      <use xlink:href="#DejaVuSans-76" x="429.638672"/>
      <use xlink:href="#DejaVuSans-5f" x="488.818359"/>
      <use xlink:href="#DejaVuSans-72" x="538.818359"/>
      <use xlink:href="#DejaVuSans-65" x="577.681641"/>
      <use xlink:href="#DejaVuSans-76" x="639.205078"/>
      <use xlink:href="#DejaVuSans-5f" x="698.384766"/>
      <use xlink:href="#DejaVuSans-74" x="748.384766"/>
      <use xlink:href="#DejaVuSans-6c" x="787.59375"/>
     </g>
    </g>
    <g id="line2d_40">
     <path d="M 309.473438 352.033388 
L 319.473438 352.033388 
L 329.473438 352.033388 
" style="fill: none; stroke: #9edae5; stroke-width: 1.5; stroke-linecap: square"/>
    </g>
    <g id="text_27">
     <!-- intercept -->
     <g transform="translate(337.473438 355.533388) scale(0.1 -0.1)">
      <use xlink:href="#DejaVuSans-69"/>
      <use xlink:href="#DejaVuSans-6e" x="27.783203"/>
      <use xlink:href="#DejaVuSans-74" x="91.162109"/>
      <use xlink:href="#DejaVuSans-65" x="130.371094"/>
      <use xlink:href="#DejaVuSans-72" x="191.894531"/>
      <use xlink:href="#DejaVuSans-63" x="230.757812"/>
      <use xlink:href="#DejaVuSans-65" x="285.738281"/>
      <use xlink:href="#DejaVuSans-70" x="347.261719"/>
      <use xlink:href="#DejaVuSans-74" x="410.738281"/>
     </g>
    </g>
   </g>
  </g>
 </g>
 <defs>
  <clipPath id="pb7b7081eac">
   <rect x="54.087656" y="22.318125" width="357.12" height="266.112"/>
  </clipPath>
 </defs>
</svg>
