<?xml version="1.0" encoding="utf-8" standalone="no"?>
<!DOCTYPE svg PUBLIC "-//W3C//DTD SVG 1.1//EN"
  "http://www.w3.org/Graphics/SVG/1.1/DTD/svg11.dtd">
<svg xmlns:xlink="http://www.w3.org/1999/xlink" width="408.10125pt" height="325.986375pt" viewBox="0 0 408.10125 325.986375" xmlns="http://www.w3.org/2000/svg" version="1.1">
 <metadata>
  <rdf:RDF xmlns:dc="http://purl.org/dc/elements/1.1/" xmlns:cc="http://creativecommons.org/ns#" xmlns:rdf="http://www.w3.org/1999/02/22-rdf-syntax-ns#">
   <cc:Work>
    <dc:type rdf:resource="http://purl.org/dc/dcmitype/StillImage"/>
    <dc:date>2024-03-09T23:33:09.817910</dc:date>
    <dc:format>image/svg+xml</dc:format>
    <dc:creator>
     <cc:Agent>
      <dc:title>Matplotlib v3.8.0, https://matplotlib.org/</dc:title>
     </cc:Agent>
    </dc:creator>
   </cc:Work>
  </rdf:RDF>
 </metadata>
 <defs>
  <style type="text/css">*{stroke-linejoin: round; stroke-linecap: butt}</style>
 </defs>
 <g id="figure_1">
  <g id="patch_1">
   <path d="M 0 325.986375 
L 408.10125 325.986375 
L 408.10125 0 
L 0 0 
L 0 325.986375 
z
" style="fill: none"/>
  </g>
  <g id="axes_1">
   <g id="patch_2">
    <path d="M 43.78125 288.430125 
L 400.90125 288.430125 
L 400.90125 22.318125 
L 43.78125 22.318125 
L 43.78125 288.430125 
z
" style="fill: none"/>
   </g>
   <g id="matplotlib.axis_1">
    <g id="xtick_1">
     <g id="line2d_1">
      <defs>
       <path id="m315429994c" d="M 0 0 
L 0 3.5 
" style="stroke: #000000; stroke-width: 0.8"/>
      </defs>
      <g>
       <use xlink:href="#m315429994c" x="60.013977" y="288.430125" style="stroke: #000000; stroke-width: 0.8"/>
      </g>
     </g>
     <g id="text_1">
      <!-- 0.0 -->
      <g transform="translate(52.062415 303.028562) scale(0.1 -0.1)">
       <defs>
        <path id="DejaVuSans-30" d="M 2034 4250 
Q 1547 4250 1301 3770 
Q 1056 3291 1056 2328 
Q 1056 1369 1301 889 
Q 1547 409 2034 409 
Q 2525 409 2770 889 
Q 3016 1369 3016 2328 
Q 3016 3291 2770 3770 
Q 2525 4250 2034 4250 
z
M 2034 4750 
Q 2819 4750 3233 4129 
Q 3647 3509 3647 2328 
Q 3647 1150 3233 529 
Q 2819 -91 2034 -91 
Q 1250 -91 836 529 
Q 422 1150 422 2328 
Q 422 3509 836 4129 
Q 1250 4750 2034 4750 
z
" transform="scale(0.015625)"/>
        <path id="DejaVuSans-2e" d="M 684 794 
L 1344 794 
L 1344 0 
L 684 0 
L 684 794 
z
" transform="scale(0.015625)"/>
       </defs>
       <use xlink:href="#DejaVuSans-30"/>
       <use xlink:href="#DejaVuSans-2e" x="63.623047"/>
       <use xlink:href="#DejaVuSans-30" x="95.410156"/>
      </g>
     </g>
    </g>
    <g id="xtick_2">
     <g id="line2d_2">
      <g>
       <use xlink:href="#m315429994c" x="124.944886" y="288.430125" style="stroke: #000000; stroke-width: 0.8"/>
      </g>
     </g>
     <g id="text_2">
      <!-- 0.2 -->
      <g transform="translate(116.993324 303.028562) scale(0.1 -0.1)">
       <defs>
        <path id="DejaVuSans-32" d="M 1228 531 
L 3431 531 
L 3431 0 
L 469 0 
L 469 531 
Q 828 903 1448 1529 
Q 2069 2156 2228 2338 
Q 2531 2678 2651 2914 
Q 2772 3150 2772 3378 
Q 2772 3750 2511 3984 
Q 2250 4219 1831 4219 
Q 1534 4219 1204 4116 
Q 875 4013 500 3803 
L 500 4441 
Q 881 4594 1212 4672 
Q 1544 4750 1819 4750 
Q 2544 4750 2975 4387 
Q 3406 4025 3406 3419 
Q 3406 3131 3298 2873 
Q 3191 2616 2906 2266 
Q 2828 2175 2409 1742 
Q 1991 1309 1228 531 
z
" transform="scale(0.015625)"/>
       </defs>
       <use xlink:href="#DejaVuSans-30"/>
       <use xlink:href="#DejaVuSans-2e" x="63.623047"/>
       <use xlink:href="#DejaVuSans-32" x="95.410156"/>
      </g>
     </g>
    </g>
    <g id="xtick_3">
     <g id="line2d_3">
      <g>
       <use xlink:href="#m315429994c" x="189.875795" y="288.430125" style="stroke: #000000; stroke-width: 0.8"/>
      </g>
     </g>
     <g id="text_3">
      <!-- 0.4 -->
      <g transform="translate(181.924233 303.028562) scale(0.1 -0.1)">
       <defs>
        <path id="DejaVuSans-34" d="M 2419 4116 
L 825 1625 
L 2419 1625 
L 2419 4116 
z
M 2253 4666 
L 3047 4666 
L 3047 1625 
L 3713 1625 
L 3713 1100 
L 3047 1100 
L 3047 0 
L 2419 0 
L 2419 1100 
L 313 1100 
L 313 1709 
L 2253 4666 
z
" transform="scale(0.015625)"/>
       </defs>
       <use xlink:href="#DejaVuSans-30"/>
       <use xlink:href="#DejaVuSans-2e" x="63.623047"/>
       <use xlink:href="#DejaVuSans-34" x="95.410156"/>
      </g>
     </g>
    </g>
    <g id="xtick_4">
     <g id="line2d_4">
      <g>
       <use xlink:href="#m315429994c" x="254.806705" y="288.430125" style="stroke: #000000; stroke-width: 0.8"/>
      </g>
     </g>
     <g id="text_4">
      <!-- 0.6 -->
      <g transform="translate(246.855142 303.028562) scale(0.1 -0.1)">
       <defs>
        <path id="DejaVuSans-36" d="M 2113 2584 
Q 1688 2584 1439 2293 
Q 1191 2003 1191 1497 
Q 1191 994 1439 701 
Q 1688 409 2113 409 
Q 2538 409 2786 701 
Q 3034 994 3034 1497 
Q 3034 2003 2786 2293 
Q 2538 2584 2113 2584 
z
M 3366 4563 
L 3366 3988 
Q 3128 4100 2886 4159 
Q 2644 4219 2406 4219 
Q 1781 4219 1451 3797 
Q 1122 3375 1075 2522 
Q 1259 2794 1537 2939 
Q 1816 3084 2150 3084 
Q 2853 3084 3261 2657 
Q 3669 2231 3669 1497 
Q 3669 778 3244 343 
Q 2819 -91 2113 -91 
Q 1303 -91 875 529 
Q 447 1150 447 2328 
Q 447 3434 972 4092 
Q 1497 4750 2381 4750 
Q 2619 4750 2861 4703 
Q 3103 4656 3366 4563 
z
" transform="scale(0.015625)"/>
       </defs>
       <use xlink:href="#DejaVuSans-30"/>
       <use xlink:href="#DejaVuSans-2e" x="63.623047"/>
       <use xlink:href="#DejaVuSans-36" x="95.410156"/>
      </g>
     </g>
    </g>
    <g id="xtick_5">
     <g id="line2d_5">
      <g>
       <use xlink:href="#m315429994c" x="319.737614" y="288.430125" style="stroke: #000000; stroke-width: 0.8"/>
      </g>
     </g>
     <g id="text_5">
      <!-- 0.8 -->
      <g transform="translate(311.786051 303.028562) scale(0.1 -0.1)">
       <defs>
        <path id="DejaVuSans-38" d="M 2034 2216 
Q 1584 2216 1326 1975 
Q 1069 1734 1069 1313 
Q 1069 891 1326 650 
Q 1584 409 2034 409 
Q 2484 409 2743 651 
Q 3003 894 3003 1313 
Q 3003 1734 2745 1975 
Q 2488 2216 2034 2216 
z
M 1403 2484 
Q 997 2584 770 2862 
Q 544 3141 544 3541 
Q 544 4100 942 4425 
Q 1341 4750 2034 4750 
Q 2731 4750 3128 4425 
Q 3525 4100 3525 3541 
Q 3525 3141 3298 2862 
Q 3072 2584 2669 2484 
Q 3125 2378 3379 2068 
Q 3634 1759 3634 1313 
Q 3634 634 3220 271 
Q 2806 -91 2034 -91 
Q 1263 -91 848 271 
Q 434 634 434 1313 
Q 434 1759 690 2068 
Q 947 2378 1403 2484 
z
M 1172 3481 
Q 1172 3119 1398 2916 
Q 1625 2713 2034 2713 
Q 2441 2713 2670 2916 
Q 2900 3119 2900 3481 
Q 2900 3844 2670 4047 
Q 2441 4250 2034 4250 
Q 1625 4250 1398 4047 
Q 1172 3844 1172 3481 
z
" transform="scale(0.015625)"/>
       </defs>
       <use xlink:href="#DejaVuSans-30"/>
       <use xlink:href="#DejaVuSans-2e" x="63.623047"/>
       <use xlink:href="#DejaVuSans-38" x="95.410156"/>
      </g>
     </g>
    </g>
    <g id="xtick_6">
     <g id="line2d_6">
      <g>
       <use xlink:href="#m315429994c" x="384.668523" y="288.430125" style="stroke: #000000; stroke-width: 0.8"/>
      </g>
     </g>
     <g id="text_6">
      <!-- 1.0 -->
      <g transform="translate(376.71696 303.028562) scale(0.1 -0.1)">
       <defs>
        <path id="DejaVuSans-31" d="M 794 531 
L 1825 531 
L 1825 4091 
L 703 3866 
L 703 4441 
L 1819 4666 
L 2450 4666 
L 2450 531 
L 3481 531 
L 3481 0 
L 794 0 
L 794 531 
z
" transform="scale(0.015625)"/>
       </defs>
       <use xlink:href="#DejaVuSans-31"/>
       <use xlink:href="#DejaVuSans-2e" x="63.623047"/>
       <use xlink:href="#DejaVuSans-30" x="95.410156"/>
      </g>
     </g>
    </g>
    <g id="text_7">
     <!-- False positive rate -->
     <g transform="translate(176.840469 316.706687) scale(0.1 -0.1)">
      <defs>
       <path id="DejaVuSans-46" d="M 628 4666 
L 3309 4666 
L 3309 4134 
L 1259 4134 
L 1259 2759 
L 3109 2759 
L 3109 2228 
L 1259 2228 
L 1259 0 
L 628 0 
L 628 4666 
z
" transform="scale(0.015625)"/>
       <path id="DejaVuSans-61" d="M 2194 1759 
Q 1497 1759 1228 1600 
Q 959 1441 959 1056 
Q 959 750 1161 570 
Q 1363 391 1709 391 
Q 2188 391 2477 730 
Q 2766 1069 2766 1631 
L 2766 1759 
L 2194 1759 
z
M 3341 1997 
L 3341 0 
L 2766 0 
L 2766 531 
Q 2569 213 2275 61 
Q 1981 -91 1556 -91 
Q 1019 -91 701 211 
Q 384 513 384 1019 
Q 384 1609 779 1909 
Q 1175 2209 1959 2209 
L 2766 2209 
L 2766 2266 
Q 2766 2663 2505 2880 
Q 2244 3097 1772 3097 
Q 1472 3097 1187 3025 
Q 903 2953 641 2809 
L 641 3341 
Q 956 3463 1253 3523 
Q 1550 3584 1831 3584 
Q 2591 3584 2966 3190 
Q 3341 2797 3341 1997 
z
" transform="scale(0.015625)"/>
       <path id="DejaVuSans-6c" d="M 603 4863 
L 1178 4863 
L 1178 0 
L 603 0 
L 603 4863 
z
" transform="scale(0.015625)"/>
       <path id="DejaVuSans-73" d="M 2834 3397 
L 2834 2853 
Q 2591 2978 2328 3040 
Q 2066 3103 1784 3103 
Q 1356 3103 1142 2972 
Q 928 2841 928 2578 
Q 928 2378 1081 2264 
Q 1234 2150 1697 2047 
L 1894 2003 
Q 2506 1872 2764 1633 
Q 3022 1394 3022 966 
Q 3022 478 2636 193 
Q 2250 -91 1575 -91 
Q 1294 -91 989 -36 
Q 684 19 347 128 
L 347 722 
Q 666 556 975 473 
Q 1284 391 1588 391 
Q 1994 391 2212 530 
Q 2431 669 2431 922 
Q 2431 1156 2273 1281 
Q 2116 1406 1581 1522 
L 1381 1569 
Q 847 1681 609 1914 
Q 372 2147 372 2553 
Q 372 3047 722 3315 
Q 1072 3584 1716 3584 
Q 2034 3584 2315 3537 
Q 2597 3491 2834 3397 
z
" transform="scale(0.015625)"/>
       <path id="DejaVuSans-65" d="M 3597 1894 
L 3597 1613 
L 953 1613 
Q 991 1019 1311 708 
Q 1631 397 2203 397 
Q 2534 397 2845 478 
Q 3156 559 3463 722 
L 3463 178 
Q 3153 47 2828 -22 
Q 2503 -91 2169 -91 
Q 1331 -91 842 396 
Q 353 884 353 1716 
Q 353 2575 817 3079 
Q 1281 3584 2069 3584 
Q 2775 3584 3186 3129 
Q 3597 2675 3597 1894 
z
M 3022 2063 
Q 3016 2534 2758 2815 
Q 2500 3097 2075 3097 
Q 1594 3097 1305 2825 
Q 1016 2553 972 2059 
L 3022 2063 
z
" transform="scale(0.015625)"/>
       <path id="DejaVuSans-20" transform="scale(0.015625)"/>
       <path id="DejaVuSans-70" d="M 1159 525 
L 1159 -1331 
L 581 -1331 
L 581 3500 
L 1159 3500 
L 1159 2969 
Q 1341 3281 1617 3432 
Q 1894 3584 2278 3584 
Q 2916 3584 3314 3078 
Q 3713 2572 3713 1747 
Q 3713 922 3314 415 
Q 2916 -91 2278 -91 
Q 1894 -91 1617 61 
Q 1341 213 1159 525 
z
M 3116 1747 
Q 3116 2381 2855 2742 
Q 2594 3103 2138 3103 
Q 1681 3103 1420 2742 
Q 1159 2381 1159 1747 
Q 1159 1113 1420 752 
Q 1681 391 2138 391 
Q 2594 391 2855 752 
Q 3116 1113 3116 1747 
z
" transform="scale(0.015625)"/>
       <path id="DejaVuSans-6f" d="M 1959 3097 
Q 1497 3097 1228 2736 
Q 959 2375 959 1747 
Q 959 1119 1226 758 
Q 1494 397 1959 397 
Q 2419 397 2687 759 
Q 2956 1122 2956 1747 
Q 2956 2369 2687 2733 
Q 2419 3097 1959 3097 
z
M 1959 3584 
Q 2709 3584 3137 3096 
Q 3566 2609 3566 1747 
Q 3566 888 3137 398 
Q 2709 -91 1959 -91 
Q 1206 -91 779 398 
Q 353 888 353 1747 
Q 353 2609 779 3096 
Q 1206 3584 1959 3584 
z
" transform="scale(0.015625)"/>
       <path id="DejaVuSans-69" d="M 603 3500 
L 1178 3500 
L 1178 0 
L 603 0 
L 603 3500 
z
M 603 4863 
L 1178 4863 
L 1178 4134 
L 603 4134 
L 603 4863 
z
" transform="scale(0.015625)"/>
       <path id="DejaVuSans-74" d="M 1172 4494 
L 1172 3500 
L 2356 3500 
L 2356 3053 
L 1172 3053 
L 1172 1153 
Q 1172 725 1289 603 
Q 1406 481 1766 481 
L 2356 481 
L 2356 0 
L 1766 0 
Q 1100 0 847 248 
Q 594 497 594 1153 
L 594 3053 
L 172 3053 
L 172 3500 
L 594 3500 
L 594 4494 
L 1172 4494 
z
" transform="scale(0.015625)"/>
       <path id="DejaVuSans-76" d="M 191 3500 
L 800 3500 
L 1894 563 
L 2988 3500 
L 3597 3500 
L 2284 0 
L 1503 0 
L 191 3500 
z
" transform="scale(0.015625)"/>
       <path id="DejaVuSans-72" d="M 2631 2963 
Q 2534 3019 2420 3045 
Q 2306 3072 2169 3072 
Q 1681 3072 1420 2755 
Q 1159 2438 1159 1844 
L 1159 0 
L 581 0 
L 581 3500 
L 1159 3500 
L 1159 2956 
Q 1341 3275 1631 3429 
Q 1922 3584 2338 3584 
Q 2397 3584 2469 3576 
Q 2541 3569 2628 3553 
L 2631 2963 
z
" transform="scale(0.015625)"/>
      </defs>
      <use xlink:href="#DejaVuSans-46"/>
      <use xlink:href="#DejaVuSans-61" x="48.394531"/>
      <use xlink:href="#DejaVuSans-6c" x="109.673828"/>
      <use xlink:href="#DejaVuSans-73" x="137.457031"/>
      <use xlink:href="#DejaVuSans-65" x="189.556641"/>
      <use xlink:href="#DejaVuSans-20" x="251.080078"/>
      <use xlink:href="#DejaVuSans-70" x="282.867188"/>
      <use xlink:href="#DejaVuSans-6f" x="346.34375"/>
      <use xlink:href="#DejaVuSans-73" x="407.525391"/>
      <use xlink:href="#DejaVuSans-69" x="459.625"/>
      <use xlink:href="#DejaVuSans-74" x="487.408203"/>
      <use xlink:href="#DejaVuSans-69" x="526.617188"/>
      <use xlink:href="#DejaVuSans-76" x="554.400391"/>
      <use xlink:href="#DejaVuSans-65" x="613.580078"/>
      <use xlink:href="#DejaVuSans-20" x="675.103516"/>
      <use xlink:href="#DejaVuSans-72" x="706.890625"/>
      <use xlink:href="#DejaVuSans-61" x="748.003906"/>
      <use xlink:href="#DejaVuSans-74" x="809.283203"/>
      <use xlink:href="#DejaVuSans-65" x="848.492188"/>
     </g>
    </g>
   </g>
   <g id="matplotlib.axis_2">
    <g id="ytick_1">
     <g id="line2d_7">
      <defs>
       <path id="m74df09b9bc" d="M 0 0 
L -3.5 0 
" style="stroke: #000000; stroke-width: 0.8"/>
      </defs>
      <g>
       <use xlink:href="#m74df09b9bc" x="43.78125" y="276.334125" style="stroke: #000000; stroke-width: 0.8"/>
      </g>
     </g>
     <g id="text_8">
      <!-- 0.0 -->
      <g transform="translate(20.878125 280.133344) scale(0.1 -0.1)">
       <use xlink:href="#DejaVuSans-30"/>
       <use xlink:href="#DejaVuSans-2e" x="63.623047"/>
       <use xlink:href="#DejaVuSans-30" x="95.410156"/>
      </g>
     </g>
    </g>
    <g id="ytick_2">
     <g id="line2d_8">
      <g>
       <use xlink:href="#m74df09b9bc" x="43.78125" y="227.950125" style="stroke: #000000; stroke-width: 0.8"/>
      </g>
     </g>
     <g id="text_9">
      <!-- 0.2 -->
      <g transform="translate(20.878125 231.749344) scale(0.1 -0.1)">
       <use xlink:href="#DejaVuSans-30"/>
       <use xlink:href="#DejaVuSans-2e" x="63.623047"/>
       <use xlink:href="#DejaVuSans-32" x="95.410156"/>
      </g>
     </g>
    </g>
    <g id="ytick_3">
     <g id="line2d_9">
      <g>
       <use xlink:href="#m74df09b9bc" x="43.78125" y="179.566125" style="stroke: #000000; stroke-width: 0.8"/>
      </g>
     </g>
     <g id="text_10">
      <!-- 0.4 -->
      <g transform="translate(20.878125 183.365344) scale(0.1 -0.1)">
       <use xlink:href="#DejaVuSans-30"/>
       <use xlink:href="#DejaVuSans-2e" x="63.623047"/>
       <use xlink:href="#DejaVuSans-34" x="95.410156"/>
      </g>
     </g>
    </g>
    <g id="ytick_4">
     <g id="line2d_10">
      <g>
       <use xlink:href="#m74df09b9bc" x="43.78125" y="131.182125" style="stroke: #000000; stroke-width: 0.8"/>
      </g>
     </g>
     <g id="text_11">
      <!-- 0.6 -->
      <g transform="translate(20.878125 134.981344) scale(0.1 -0.1)">
       <use xlink:href="#DejaVuSans-30"/>
       <use xlink:href="#DejaVuSans-2e" x="63.623047"/>
       <use xlink:href="#DejaVuSans-36" x="95.410156"/>
      </g>
     </g>
    </g>
    <g id="ytick_5">
     <g id="line2d_11">
      <g>
       <use xlink:href="#m74df09b9bc" x="43.78125" y="82.798125" style="stroke: #000000; stroke-width: 0.8"/>
      </g>
     </g>
     <g id="text_12">
      <!-- 0.8 -->
      <g transform="translate(20.878125 86.597344) scale(0.1 -0.1)">
       <use xlink:href="#DejaVuSans-30"/>
       <use xlink:href="#DejaVuSans-2e" x="63.623047"/>
       <use xlink:href="#DejaVuSans-38" x="95.410156"/>
      </g>
     </g>
    </g>
    <g id="ytick_6">
     <g id="line2d_12">
      <g>
       <use xlink:href="#m74df09b9bc" x="43.78125" y="34.414125" style="stroke: #000000; stroke-width: 0.8"/>
      </g>
     </g>
     <g id="text_13">
      <!-- 1.0 -->
      <g transform="translate(20.878125 38.213344) scale(0.1 -0.1)">
       <use xlink:href="#DejaVuSans-31"/>
       <use xlink:href="#DejaVuSans-2e" x="63.623047"/>
       <use xlink:href="#DejaVuSans-30" x="95.410156"/>
      </g>
     </g>
    </g>
    <g id="text_14">
     <!-- True positive rate -->
     <g transform="translate(14.798438 198.938187) rotate(-90) scale(0.1 -0.1)">
      <defs>
       <path id="DejaVuSans-54" d="M -19 4666 
L 3928 4666 
L 3928 4134 
L 2272 4134 
L 2272 0 
L 1638 0 
L 1638 4134 
L -19 4134 
L -19 4666 
z
" transform="scale(0.015625)"/>
       <path id="DejaVuSans-75" d="M 544 1381 
L 544 3500 
L 1119 3500 
L 1119 1403 
Q 1119 906 1312 657 
Q 1506 409 1894 409 
Q 2359 409 2629 706 
Q 2900 1003 2900 1516 
L 2900 3500 
L 3475 3500 
L 3475 0 
L 2900 0 
L 2900 538 
Q 2691 219 2414 64 
Q 2138 -91 1772 -91 
Q 1169 -91 856 284 
Q 544 659 544 1381 
z
M 1991 3584 
L 1991 3584 
z
" transform="scale(0.015625)"/>
      </defs>
      <use xlink:href="#DejaVuSans-54"/>
      <use xlink:href="#DejaVuSans-72" x="46.333984"/>
      <use xlink:href="#DejaVuSans-75" x="87.447266"/>
      <use xlink:href="#DejaVuSans-65" x="150.826172"/>
      <use xlink:href="#DejaVuSans-20" x="212.349609"/>
      <use xlink:href="#DejaVuSans-70" x="244.136719"/>
      <use xlink:href="#DejaVuSans-6f" x="307.613281"/>
      <use xlink:href="#DejaVuSans-73" x="368.794922"/>
      <use xlink:href="#DejaVuSans-69" x="420.894531"/>
      <use xlink:href="#DejaVuSans-74" x="448.677734"/>
      <use xlink:href="#DejaVuSans-69" x="487.886719"/>
      <use xlink:href="#DejaVuSans-76" x="515.669922"/>
      <use xlink:href="#DejaVuSans-65" x="574.849609"/>
      <use xlink:href="#DejaVuSans-20" x="636.373047"/>
      <use xlink:href="#DejaVuSans-72" x="668.160156"/>
      <use xlink:href="#DejaVuSans-61" x="709.273438"/>
      <use xlink:href="#DejaVuSans-74" x="770.552734"/>
      <use xlink:href="#DejaVuSans-65" x="809.761719"/>
     </g>
    </g>
   </g>
   <g id="line2d_13">
    <path d="M 60.013977 276.334125 
L 60.074461 276.224462 
L 60.18553 275.662439 
L 60.216322 275.552776 
L 60.326292 274.997607 
L 60.357084 274.887944 
L 60.467054 274.476708 
L 60.503344 274.370472 
L 60.614413 273.900977 
L 60.639707 273.794741 
L 60.750776 273.314966 
L 60.784867 273.205303 
L 60.890438 272.787212 
L 60.917931 272.680976 
L 61.029 272.259459 
L 61.06859 272.153223 
L 61.179659 271.694009 
L 61.208252 271.584346 
L 61.319321 271.135414 
L 61.347913 271.032604 
L 61.458983 270.6762 
L 61.479877 270.573391 
L 61.590947 270.138166 
L 61.621739 270.03193 
L 61.731709 269.493896 
L 61.7647 269.391086 
L 61.87357 268.9353 
L 61.914259 268.825637 
L 62.025329 268.36985 
L 62.068217 268.263614 
L 62.179287 267.914063 
L 62.205679 267.8044 
L 62.315649 267.509681 
L 62.358538 267.403445 
L 62.469607 267.04704 
L 62.513595 266.937377 
L 62.622466 266.567264 
L 62.663155 266.467882 
L 62.774224 266.149174 
L 62.799517 266.046365 
L 62.907288 265.665972 
L 62.958974 265.556309 
L 63.070044 265.175915 
L 63.109633 265.069679 
L 63.220703 264.754398 
L 63.254793 264.655016 
L 63.364763 264.353442 
L 63.404352 264.243779 
L 63.515422 263.846251 
L 63.555011 263.736588 
L 63.666081 263.352768 
L 63.711169 263.243105 
L 63.822239 262.917543 
L 63.861828 262.814734 
L 63.971798 262.417205 
L 64.031182 262.310969 
L 64.142251 261.957991 
L 64.189538 261.851755 
L 64.300608 261.515912 
L 64.344596 261.409676 
L 64.455666 261.087541 
L 64.499654 260.977878 
L 64.610723 260.628328 
L 64.645914 260.522092 
L 64.754784 260.247934 
L 64.797672 260.138271 
L 64.904343 259.877821 
L 64.958229 259.768158 
L 65.069298 259.428889 
L 65.125383 259.319226 
L 65.234253 259.051922 
L 65.262846 258.949113 
L 65.372816 258.623551 
L 65.402507 258.513888 
L 65.510278 258.191753 
L 65.570762 258.08209 
L 65.681831 257.701696 
L 65.741215 257.592033 
L 65.851185 257.304168 
L 65.924865 257.197932 
L 66.035935 256.827819 
L 66.071125 256.718156 
L 66.182195 256.437145 
L 66.226183 256.330909 
L 66.337253 255.984785 
L 66.380141 255.875122 
L 66.491211 255.573549 
L 66.536298 255.47074 
L 66.646268 255.117762 
L 66.682558 255.008099 
L 66.792528 254.689391 
L 66.831018 254.579728 
L 66.939888 254.322705 
L 67.000372 254.213042 
L 67.111441 253.918323 
L 67.157629 253.80866 
L 67.265399 253.534502 
L 67.310487 253.424839 
L 67.421557 253.150682 
L 67.44685 253.041019 
L 67.55462 252.763434 
L 67.620602 252.653771 
L 67.731672 252.307648 
L 67.767962 252.197985 
L 67.877932 251.817591 
L 67.929618 251.711355 
L 68.040688 251.38922 
L 68.090174 251.279557 
L 68.199045 251.029388 
L 68.25403 250.923152 
L 68.3629 250.59759 
L 68.393692 250.491354 
L 68.504761 250.265174 
L 68.559746 250.158938 
L 68.668617 249.8745 
L 68.720302 249.764837 
L 68.828073 249.394724 
L 68.887457 249.291915 
L 68.993028 248.993769 
L 69.041415 248.884106 
L 69.150285 248.616802 
L 69.188775 248.507139 
L 69.292147 248.250117 
L 69.348231 248.140454 
L 69.459301 247.876577 
L 69.49779 247.770341 
L 69.60886 247.465341 
L 69.651748 247.365959 
L 69.762818 247.091801 
L 69.79141 246.985565 
L 69.90138 246.711408 
L 69.949767 246.601745 
L 70.057538 246.361857 
L 70.101526 246.255621 
L 70.211496 246.056857 
L 70.257683 245.947194 
L 70.364354 245.697025 
L 70.420439 245.590789 
L 70.530409 245.344047 
L 70.583194 245.234384 
L 70.694264 244.963654 
L 70.74485 244.853991 
L 70.85592 244.586687 
L 70.9285 244.483878 
L 71.03737 244.267979 
L 71.091256 244.158316 
L 71.202325 243.915001 
L 71.25731 243.805338 
L 71.36838 243.589439 
L 71.40577 243.496911 
L 71.51574 243.209046 
L 71.577323 243.099383 
L 71.685094 242.838933 
L 71.732381 242.72927 
L 71.842351 242.489382 
L 71.891837 242.379719 
L 71.999608 242.167247 
L 72.060092 242.071292 
L 72.170062 241.865674 
L 72.24814 241.756011 
L 72.35811 241.481854 
L 72.409796 241.379044 
L 72.515367 241.111741 
L 72.58025 241.002078 
L 72.691319 240.772471 
L 72.743005 240.662808 
L 72.852975 240.395504 
L 72.91016 240.289268 
L 73.01903 240.056235 
L 73.069616 239.949999 
L 73.180686 239.713538 
L 73.234571 239.603875 
L 73.344541 239.336571 
L 73.411623 239.226908 
L 73.518294 238.969885 
L 73.588675 238.867076 
L 73.699744 238.589492 
L 73.75363 238.479829 
L 73.864699 238.215952 
L 73.903189 238.106289 
L 74.014258 237.869829 
L 74.100035 237.763593 
L 74.210005 237.486008 
L 74.259492 237.379772 
L 74.370561 237.105615 
L 74.423347 237.009659 
L 74.533317 236.752637 
L 74.581704 236.649828 
L 74.692773 236.358535 
L 74.738961 236.248872 
L 74.848931 236.029546 
L 74.908315 235.919883 
L 75.019384 235.751962 
L 75.086466 235.659434 
L 75.197536 235.450389 
L 75.247022 235.340726 
L 75.355893 235.128254 
L 75.410878 235.018591 
L 75.521947 234.806119 
L 75.576932 234.699883 
L 75.683603 234.446287 
L 75.744087 234.336624 
L 75.854057 234.076174 
L 75.896945 233.966511 
L 76.005815 233.740331 
L 76.075096 233.630668 
L 76.183967 233.353084 
L 76.251048 233.243421 
L 76.361018 232.97269 
L 76.441296 232.863027 
L 76.552366 232.671117 
L 76.599653 232.561454 
L 76.706324 232.379825 
L 76.776705 232.270162 
L 76.887775 232.074825 
L 76.94166 231.965162 
L 77.05273 231.663588 
L 77.12421 231.553925 
L 77.23418 231.365442 
L 77.273769 231.259206 
L 77.384839 231.022745 
L 77.451921 230.913082 
L 77.559691 230.673194 
L 77.616876 230.563531 
L 77.726846 230.340778 
L 77.791728 230.237969 
L 77.897299 229.987801 
L 77.963281 229.884992 
L 78.073251 229.645104 
L 78.11614 229.538868 
L 78.227209 229.309261 
L 78.282194 229.199598 
L 78.393264 228.932294 
L 78.450448 228.826058 
L 78.559319 228.623867 
L 78.632999 228.514204 
L 78.744068 228.35999 
L 78.799053 228.250327 
L 78.910123 228.051563 
L 78.960709 227.9419 
L 79.06958 227.746563 
L 79.126764 227.6369 
L 79.229036 227.455271 
L 79.308214 227.352462 
L 79.419284 227.10572 
L 79.477568 226.999484 
L 79.588638 226.728753 
L 79.652421 226.61909 
L 79.761291 226.351787 
L 79.818475 226.252405 
L 79.927346 225.995382 
L 79.986729 225.885719 
L 80.096699 225.625269 
L 80.147286 225.539595 
L 80.257256 225.313415 
L 80.31334 225.207179 
L 80.418912 225.011842 
L 80.501389 224.902179 
L 80.612459 224.628022 
L 80.690537 224.518359 
L 80.796109 224.316167 
L 80.880786 224.206504 
L 80.991855 223.987178 
L 81.042441 223.877515 
L 81.149112 223.723302 
L 81.201898 223.613639 
L 81.311868 223.414875 
L 81.37785 223.305212 
L 81.48782 223.106447 
L 81.565899 222.996784 
L 81.673669 222.83229 
L 81.727555 222.726054 
L 81.838624 222.513582 
L 81.893609 222.403919 
L 81.994782 222.239424 
L 82.057465 222.129761 
L 82.167435 221.937851 
L 82.224619 221.831615 
L 82.335689 221.605435 
L 82.395072 221.495772 
L 82.506142 221.286727 
L 82.58642 221.177064 
L 82.69749 220.961165 
L 82.737079 220.854929 
L 82.841551 220.663019 
L 82.914131 220.553356 
L 83.019702 220.368299 
L 83.081285 220.26549 
L 83.191255 220.042737 
L 83.269334 219.933074 
L 83.376005 219.720602 
L 83.445286 219.614366 
L 83.555256 219.449872 
L 83.620138 219.35049 
L 83.726809 219.134591 
L 83.803788 219.028355 
L 83.912659 218.802175 
L 83.984139 218.692512 
L 84.095209 218.442343 
L 84.150194 218.336107 
L 84.260164 218.157905 
L 84.326146 218.051669 
L 84.436116 217.856331 
L 84.497699 217.746668 
L 84.608769 217.554758 
L 84.652757 217.445095 
L 84.75173 217.31487 
L 84.82541 217.208634 
L 84.936479 217.003016 
L 84.983766 216.89678 
L 85.094836 216.711724 
L 85.15312 216.602061 
L 85.26199 216.430712 
L 85.352166 216.321049 
L 85.462136 216.13942 
L 85.55671 216.033184 
L 85.66778 215.837847 
L 85.74036 215.728184 
L 85.85143 215.519139 
L 85.932808 215.412903 
L 86.043877 215.149026 
L 86.10656 215.039363 
L 86.21653 214.878296 
L 86.293509 214.77206 
L 86.402379 214.59043 
L 86.495854 214.484194 
L 86.606924 214.305992 
L 86.704797 214.196329 
L 86.815867 214.02498 
L 86.882948 213.932452 
L 86.992918 213.713126 
L 87.069897 213.603463 
L 87.177668 213.41498 
L 87.241451 213.315598 
L 87.35252 213.116834 
L 87.420702 213.014025 
L 87.525173 212.818687 
L 87.594454 212.709024 
L 87.700025 212.517114 
L 87.766007 212.407451 
L 87.869379 212.256665 
L 87.971651 212.147002 
L 88.080522 211.937957 
L 88.134407 211.831721 
L 88.243277 211.687788 
L 88.326854 211.578125 
L 88.437924 211.399922 
L 88.514903 211.297113 
L 88.620474 211.094922 
L 88.683157 210.988686 
L 88.792028 210.786495 
L 88.917393 210.676832 
L 89.020765 210.488349 
L 89.086747 210.382113 
L 89.194518 210.145652 
L 89.283594 210.039416 
L 89.391364 209.754977 
L 89.460645 209.645314 
L 89.570615 209.439696 
L 89.633298 209.33346 
L 89.744368 209.100426 
L 89.819147 208.990763 
L 89.930217 208.761157 
L 90.010495 208.651494 
L 90.120465 208.49728 
L 90.191946 208.387617 
L 90.301916 208.223122 
L 90.366798 208.113459 
L 90.475668 207.962673 
L 90.57794 207.856437 
L 90.686811 207.643965 
L 90.781385 207.534302 
L 90.883657 207.386942 
L 90.988129 207.277279 
L 91.096999 207.105931 
L 91.156383 206.999695 
L 91.265253 206.821492 
L 91.330135 206.711829 
L 91.440105 206.554189 
L 91.541278 206.444526 
L 91.652347 206.273177 
L 91.748021 206.163514 
L 91.857991 206.012728 
L 91.926173 205.916773 
L 92.033943 205.748851 
L 92.12082 205.639188 
L 92.23079 205.436997 
L 92.316566 205.330761 
L 92.425437 205.108008 
L 92.545304 204.998345 
L 92.655274 204.806435 
L 92.753147 204.700199 
L 92.862017 204.518569 
L 92.947794 204.408906 
L 93.053365 204.264974 
L 93.138042 204.155311 
L 93.249112 203.939412 
L 93.319493 203.829749 
L 93.429463 203.627557 
L 93.499843 203.517894 
L 93.610913 203.356827 
L 93.6582 203.247164 
L 93.762672 203.123793 
L 93.84295 203.01413 
L 93.95402 202.85649 
L 94.049694 202.746827 
L 94.159664 202.548062 
L 94.242141 202.438399 
L 94.352111 202.273905 
L 94.423592 202.167669 
L 94.530262 202.010028 
L 94.609441 201.907219 
L 94.720511 201.72559 
L 94.79749 201.615927 
L 94.90416 201.42059 
L 94.976741 201.310927 
L 95.086711 201.143005 
L 95.147194 201.036769 
L 95.254965 200.892836 
L 95.352838 200.783173 
L 95.463908 200.604971 
L 95.552983 200.495308 
L 95.664053 200.317106 
L 95.768525 200.207443 
L 95.879594 200.049802 
L 95.953274 199.940139 
L 96.064344 199.775645 
L 96.134725 199.669409 
L 96.241396 199.539184 
L 96.29748 199.432948 
L 96.40745 199.261599 
L 96.48223 199.15879 
L 96.5911 199.008004 
L 96.655983 198.898341 
L 96.764853 198.747554 
L 96.878122 198.641318 
L 96.986992 198.452835 
L 97.055174 198.346599 
L 97.166243 198.17525 
L 97.255319 198.065587 
L 97.366389 197.901093 
L 97.430171 197.79143 
L 97.530244 197.664632 
L 97.632516 197.554969 
L 97.733689 197.411036 
L 97.848057 197.301373 
L 97.956928 197.133452 
L 98.027309 197.023789 
L 98.138378 196.88671 
L 98.208759 196.777047 
L 98.317629 196.61598 
L 98.38801 196.509744 
L 98.49908 196.331541 
L 98.592554 196.221878 
L 98.700325 196.060811 
L 98.793799 195.951148 
L 98.903769 195.748956 
L 98.988446 195.639294 
L 99.092918 195.509069 
L 99.166598 195.399406 
L 99.274368 195.255473 
L 99.362344 195.14581 
L 99.471215 194.991596 
L 99.594381 194.88536 
L 99.705451 194.751709 
L 99.791227 194.642046 
L 99.8935 194.525529 
L 99.991373 194.419293 
L 100.102443 194.271933 
L 100.224509 194.16227 
L 100.33338 193.966933 
L 100.432353 193.85727 
L 100.541223 193.737326 
L 100.611604 193.63109 
L 100.720474 193.476876 
L 100.813948 193.367213 
L 100.922819 193.233561 
L 100.994299 193.127325 
L 101.10317 192.969685 
L 101.203242 192.860022 
L 101.313212 192.722943 
L 101.386892 192.61328 
L 101.495762 192.428224 
L 101.567243 192.328842 
L 101.677213 192.150639 
L 101.788283 192.040976 
L 101.899352 191.869628 
L 102.006023 191.759965 
L 102.117093 191.588617 
L 102.207268 191.478954 
L 102.315039 191.317886 
L 102.411813 191.208223 
L 102.522882 191.050582 
L 102.624055 190.940919 
L 102.734025 190.820976 
L 102.811004 190.711313 
L 102.919874 190.587942 
L 102.997953 190.478279 
L 103.109022 190.313784 
L 103.179403 190.204121 
L 103.290473 190.091031 
L 103.367452 189.981368 
L 103.476322 189.792885 
L 103.569797 189.683222 
L 103.679767 189.552997 
L 103.760045 189.450188 
L 103.868915 189.282267 
L 103.948094 189.172604 
L 104.056964 189.028671 
L 104.126245 188.919008 
L 104.237315 188.802491 
L 104.349484 188.692828 
L 104.452856 188.542041 
L 104.549629 188.435805 
L 104.654101 188.319288 
L 104.746476 188.209625 
L 104.854246 188.058839 
L 104.938923 187.949176 
L 105.049993 187.801816 
L 105.148966 187.692153 
L 105.258936 187.513951 
L 105.341414 187.404288 
L 105.451384 187.24322 
L 105.545958 187.136984 
L 105.657027 186.979344 
L 105.729608 186.869681 
L 105.840677 186.753164 
L 105.944049 186.643501 
L 106.05072 186.455017 
L 106.1233 186.345354 
L 106.225572 186.239118 
L 106.30915 186.129455 
L 106.420219 185.940972 
L 106.545585 185.831309 
L 106.651156 185.673669 
L 106.742431 185.564006 
L 106.851302 185.392657 
L 106.923882 185.282994 
L 107.034952 185.1185 
L 107.104233 185.012264 
L 107.213103 184.803219 
L 107.326372 184.700409 
L 107.434143 184.542769 
L 107.514421 184.433106 
L 107.623291 184.258331 
L 107.706868 184.152094 
L 107.817938 183.9876 
L 107.915811 183.881364 
L 108.023582 183.744285 
L 108.113757 183.638049 
L 108.223727 183.463274 
L 108.28861 183.360465 
L 108.399679 183.250802 
L 108.464562 183.144566 
L 108.573432 182.952655 
L 108.69 182.849846 
L 108.80107 182.716195 
L 108.898943 182.613386 
L 109.008913 182.466026 
L 109.121083 182.356363 
L 109.222255 182.205576 
L 109.303633 182.09934 
L 109.414702 181.921138 
L 109.511476 181.811475 
L 109.622546 181.592149 
L 109.713821 181.482486 
L 109.818292 181.365969 
L 109.911767 181.256306 
L 110.016238 181.078104 
L 110.110813 180.968441 
L 110.217483 180.807373 
L 110.347248 180.69771 
L 110.458318 180.567485 
L 110.521001 180.457822 
L 110.63207 180.341305 
L 110.746439 180.235069 
L 110.857509 180.084283 
L 110.947684 179.97462 
L 111.058754 179.854676 
L 111.148929 179.745013 
L 111.2556 179.611361 
L 111.36667 179.505125 
L 111.470042 179.402316 
L 111.556918 179.292653 
L 111.664689 179.169282 
L 111.764761 179.059619 
L 111.872532 178.92254 
L 111.9891 178.812877 
L 112.096871 178.675799 
L 112.192545 178.566136 
L 112.301415 178.435911 
L 112.401488 178.326248 
L 112.511458 178.158326 
L 112.608231 178.05209 
L 112.718201 177.942427 
L 112.803978 177.832764 
L 112.910649 177.640854 
L 112.972232 177.531191 
L 113.077803 177.397539 
L 113.143785 177.305011 
L 113.253755 177.164505 
L 113.323036 177.054842 
L 113.434106 176.886921 
L 113.509985 176.777258 
L 113.621055 176.612763 
L 113.721128 176.5031 
L 113.827799 176.34546 
L 113.925672 176.235797 
L 114.034542 176.112426 
L 114.125817 176.002763 
L 114.235787 175.848549 
L 114.294072 175.742313 
L 114.405141 175.608662 
L 114.487619 175.498999 
L 114.598688 175.385909 
L 114.714157 175.276246 
L 114.821928 175.17001 
L 114.949493 175.060347 
L 115.057263 174.912987 
L 115.151838 174.806751 
L 115.257409 174.710796 
L 115.36298 174.60456 
L 115.47295 174.488043 
L 115.548829 174.37838 
L 115.6555 174.23102 
L 115.741277 174.121357 
L 115.852346 173.994559 
L 115.94912 173.888323 
L 116.05909 173.723829 
L 116.186655 173.614166 
L 116.296625 173.446244 
L 116.364807 173.336581 
L 116.475876 173.24748 
L 116.539659 173.144671 
L 116.650729 172.987031 
L 116.743104 172.884221 
L 116.847575 172.743716 
L 116.950947 172.63748 
L 117.062017 172.49012 
L 117.140095 172.383884 
L 117.250065 172.212536 
L 117.356736 172.102873 
L 117.461208 171.972648 
L 117.56238 171.862985 
L 117.67345 171.708771 
L 117.823009 171.599108 
L 117.932979 171.420906 
L 118.046248 171.311243 
L 118.157318 171.157029 
L 118.303578 171.047366 
L 118.413548 170.879445 
L 118.505923 170.776636 
L 118.615893 170.577872 
L 118.687373 170.471636 
L 118.797343 170.37568 
L 118.917211 170.266017 
L 119.023881 170.156354 
L 119.133851 170.046691 
L 119.244921 169.899332 
L 119.335097 169.793096 
L 119.435169 169.683433 
L 119.572632 169.580624 
L 119.680402 169.436691 
L 119.774977 169.327028 
L 119.884947 169.220792 
L 120.011412 169.111129 
L 120.115884 168.953488 
L 120.229153 168.843825 
L 120.336923 168.710174 
L 120.436996 168.600511 
L 120.540368 168.456578 
L 120.681129 168.346915 
L 120.7878 168.206409 
L 120.924163 168.096746 
L 121.033033 167.956241 
L 121.114411 167.850004 
L 121.225481 167.692364 
L 121.312357 167.582701 
L 121.423427 167.438768 
L 121.511403 167.329105 
L 121.621373 167.209161 
L 121.745639 167.102925 
L 121.855609 167.003543 
L 121.988673 166.89388 
L 122.098643 166.777363 
L 122.211912 166.671127 
L 122.319682 166.551183 
L 122.447248 166.44152 
L 122.556118 166.331857 
L 122.6221 166.225621 
L 122.73207 166.074835 
L 122.834342 165.965172 
L 122.945412 165.841801 
L 123.038886 165.732138 
L 123.148856 165.608767 
L 123.229134 165.512812 
L 123.339104 165.386014 
L 123.450174 165.276351 
L 123.561244 165.173542 
L 123.637123 165.067306 
L 123.743794 164.937081 
L 123.835069 164.834272 
L 123.94284 164.731463 
L 124.053909 164.6218 
L 124.163879 164.457305 
L 124.27275 164.347642 
L 124.378321 164.255114 
L 124.497089 164.145451 
L 124.607059 163.991238 
L 124.707131 163.881575 
L 124.810503 163.734215 
L 124.918274 163.631406 
L 125.023845 163.511462 
L 125.11622 163.401799 
L 125.22399 163.240732 
L 125.33616 163.131069 
L 125.44503 163.021406 
L 125.527507 162.91517 
L 125.635278 162.80208 
L 125.73975 162.692417 
L 125.850819 162.551911 
L 125.961889 162.442248 
L 126.065261 162.305169 
L 126.200524 162.195506 
L 126.311594 162.078989 
L 126.473249 161.972753 
L 126.572222 161.825394 
L 126.708585 161.715731 
L 126.810857 161.547809 
L 126.920827 161.438146 
L 127.031897 161.33191 
L 127.148465 161.222247 
L 127.259535 161.092022 
L 127.346411 160.982359 
L 127.457481 160.848707 
L 127.565252 160.739044 
L 127.669723 160.619101 
L 127.763198 160.509438 
L 127.867669 160.396348 
L 127.955645 160.296966 
L 128.064515 160.207864 
L 128.178884 160.098201 
L 128.287755 159.985111 
L 128.406522 159.875448 
L 128.516492 159.752077 
L 128.614365 159.642414 
L 128.725435 159.491628 
L 128.846402 159.381965 
L 128.947575 159.292864 
L 129.056445 159.183201 
L 129.156518 159.080392 
L 129.259889 158.970729 
L 129.369859 158.840504 
L 129.498524 158.730841 
L 129.604095 158.624605 
L 129.69647 158.514942 
L 129.805341 158.38129 
L 129.947202 158.271627 
L 130.058272 158.124267 
L 130.146248 158.014604 
L 130.256218 157.860391 
L 130.346393 157.750728 
L 130.451964 157.627357 
L 130.556436 157.517694 
L 130.662007 157.404604 
L 130.778575 157.294941 
L 130.880847 157.202413 
L 130.976521 157.09275 
L 131.083192 156.972806 
L 131.176667 156.86657 
L 131.285537 156.756907 
L 131.433996 156.650671 
L 131.545066 156.534154 
L 131.67703 156.424491 
L 131.7881 156.342244 
L 131.887073 156.232581 
L 131.998142 156.092075 
L 132.083919 155.982412 
L 132.182892 155.865895 
L 132.289563 155.756232 
L 132.399533 155.653423 
L 132.515001 155.547187 
L 132.619473 155.43067 
L 132.728343 155.321007 
L 132.821818 155.231906 
L 132.970277 155.12567 
L 133.079148 154.995445 
L 133.17922 154.885782 
L 133.29029 154.789827 
L 133.391462 154.693872 
L 133.502532 154.543085 
L 133.616901 154.433422 
L 133.727971 154.306624 
L 133.819246 154.196961 
L 133.924817 154.083871 
L 133.995198 153.977635 
L 134.105168 153.850837 
L 134.216237 153.741174 
L 134.326207 153.617804 
L 134.429579 153.508141 
L 134.53625 153.360781 
L 134.652818 153.251118 
L 134.760589 153.114039 
L 134.861761 153.004376 
L 134.965133 152.915275 
L 135.063006 152.809039 
L 135.166378 152.661679 
L 135.296143 152.552016 
L 135.405013 152.418365 
L 135.535878 152.312128 
L 135.642548 152.202465 
L 135.799806 152.092802 
L 135.909776 151.996847 
L 135.990054 151.887184 
L 136.096725 151.750106 
L 136.193498 151.64387 
L 136.29687 151.544488 
L 136.447529 151.434825 
L 136.558599 151.342296 
L 136.715856 151.23606 
L 136.825826 151.140105 
L 136.902805 151.030442 
L 137.010575 150.903644 
L 137.108449 150.793981 
L 137.216219 150.667184 
L 137.344884 150.557521 
L 137.455954 150.437577 
L 137.54393 150.331341 
L 137.6528 150.235385 
L 137.750673 150.125722 
L 137.861743 149.995498 
L 137.94752 149.885835 
L 138.058589 149.78988 
L 138.163061 149.680217 
L 138.273031 149.543138 
L 138.370904 149.433475 
L 138.479775 149.334093 
L 138.594143 149.231284 
L 138.704113 149.097632 
L 138.842676 148.987969 
L 138.951546 148.895441 
L 139.101105 148.785778 
L 139.207776 148.638418 
L 139.291353 148.528755 
L 139.401323 148.401957 
L 139.495897 148.292294 
L 139.606967 148.213474 
L 139.723535 148.103811 
L 139.824708 148.035272 
L 139.952273 147.925609 
L 140.057844 147.846788 
L 140.187609 147.737125 
L 140.288781 147.634316 
L 140.424044 147.524653 
L 140.534014 147.367013 
L 140.727561 147.25735 
L 140.838631 147.106563 
L 140.980492 146.9969 
L 141.091562 146.84954 
L 141.213629 146.739877 
L 141.324699 146.616507 
L 141.50175 146.506844 
L 141.61172 146.376619 
L 141.731588 146.266956 
L 141.841558 146.157293 
L 141.966923 146.04763 
L 142.069195 145.937967 
L 142.216555 145.831731 
L 142.316628 145.684371 
L 142.448592 145.574708 
L 142.559662 145.458191 
L 142.648737 145.348528 
L 142.753209 145.214876 
L 142.829088 145.105213 
L 142.935759 145.009258 
L 143.019336 144.899595 
L 143.127107 144.752236 
L 143.26347 144.642573 
L 143.374539 144.539764 
L 143.452618 144.430101 
L 143.558189 144.323864 
L 143.695652 144.214201 
L 143.805622 144.097685 
L 143.901296 143.998302 
L 144.005767 143.868078 
L 144.131133 143.765269 
L 144.240003 143.641898 
L 144.353272 143.532235 
L 144.457744 143.419145 
L 144.553418 143.312909 
L 144.663388 143.230661 
L 144.772258 143.120998 
L 144.881128 143.021616 
L 145.010893 142.91538 
L 145.118664 142.812571 
L 145.238531 142.702908 
L 145.346302 142.624088 
L 145.457371 142.514425 
L 145.567341 142.435605 
L 145.687209 142.325942 
L 145.797179 142.171728 
L 145.931342 142.062065 
L 146.041312 141.962683 
L 146.135886 141.85302 
L 146.246956 141.770773 
L 146.339331 141.66111 
L 146.444902 141.568582 
L 146.56037 141.458919 
L 146.67144 141.376671 
L 146.814401 141.267008 
L 146.922172 141.153918 
L 147.049737 141.047682 
L 147.156408 140.951727 
L 147.307067 140.845491 
L 147.418136 140.746109 
L 147.561097 140.636446 
L 147.672167 140.533637 
L 147.761243 140.427401 
L 147.869013 140.286895 
L 147.983382 140.180659 
L 148.090053 140.098412 
L 148.206621 139.988749 
L 148.313292 139.848243 
L 148.447456 139.742007 
L 148.555226 139.632344 
L 148.673994 139.522681 
L 148.785064 139.392457 
L 148.90823 139.282794 
L 149.0193 139.169704 
L 149.157862 139.060041 
L 149.268932 138.950378 
L 149.371204 138.840715 
L 149.481174 138.731052 
L 149.621935 138.624816 
L 149.726407 138.511726 
L 149.855072 138.402063 
L 149.961743 138.237568 
L 150.066214 138.131332 
L 150.176184 138.03195 
L 150.296051 137.922287 
L 150.407121 137.843467 
L 150.52149 137.733804 
L 150.614964 137.630995 
L 150.788717 137.521332 
L 150.899787 137.418523 
L 151.011956 137.30886 
L 151.120826 137.185489 
L 151.269286 137.075826 
L 151.379256 136.959309 
L 151.517818 136.849646 
L 151.62119 136.770826 
L 151.736658 136.661163 
L 151.846628 136.530938 
L 151.997287 136.421275 
L 152.105058 136.294477 
L 152.228224 136.184814 
L 152.338194 136.0306 
L 152.456962 135.920937 
L 152.568032 135.814701 
L 152.661506 135.705038 
L 152.771476 135.598802 
L 152.883646 135.489139 
L 152.991416 135.369195 
L 153.102486 135.259532 
L 153.212456 135.187566 
L 153.326825 135.077903 
L 153.433496 134.971667 
L 153.523671 134.868858 
L 153.633641 134.755768 
L 153.755708 134.646105 
L 153.863478 134.560431 
L 153.948155 134.457622 
L 154.057026 134.40279 
L 154.158198 134.296554 
L 154.257171 134.180037 
L 154.441921 134.070374 
L 154.55299 133.919588 
L 154.705849 133.809925 
L 154.816918 133.755093 
L 154.960979 133.64543 
L 155.069849 133.559756 
L 155.226007 133.450093 
L 155.334877 133.347284 
L 155.474539 133.241048 
L 155.583409 133.121104 
L 155.655989 133.011441 
L 155.76376 132.949755 
L 155.884727 132.843519 
L 155.993597 132.720149 
L 156.159652 132.610486 
L 156.261924 132.521384 
L 156.413683 132.415148 
L 156.524752 132.298631 
L 156.724898 132.188968 
L 156.835968 132.089586 
L 156.925043 131.979923 
L 157.033914 131.87026 
L 157.15598 131.760597 
L 157.264851 131.637226 
L 157.390216 131.53099 
L 157.501286 131.438462 
L 157.610156 131.335653 
L 157.719027 131.232844 
L 157.85319 131.123181 
L 157.959861 130.992956 
L 158.118218 130.883293 
L 158.229288 130.794192 
L 158.414037 130.684529 
L 158.522907 130.585147 
L 158.691162 130.475484 
L 158.795633 130.410372 
L 158.929796 130.300709 
L 159.028769 130.208181 
L 159.167332 130.098518 
L 159.275102 129.985428 
L 159.433459 129.875765 
L 159.531332 129.800371 
L 159.645701 129.690708 
L 159.756771 129.59818 
L 159.854644 129.488517 
L 159.960215 129.358292 
L 160.102077 129.248629 
L 160.212047 129.128685 
L 160.395697 129.019022 
L 160.505667 128.947056 
L 160.626634 128.837393 
L 160.735504 128.765427 
L 160.871867 128.655764 
L 160.974139 128.576943 
L 161.145692 128.46728 
L 161.255662 128.367898 
L 161.40962 128.258235 
L 161.517391 128.151999 
L 161.723035 128.042336 
L 161.831905 127.9361 
L 161.916582 127.826437 
L 162.021053 127.720201 
L 162.173912 127.610538 
L 162.270685 127.545426 
L 162.407048 127.435763 
L 162.512619 127.36037 
L 162.639085 127.25756 
L 162.731459 127.165032 
L 162.848028 127.055369 
L 162.959097 126.983403 
L 163.044874 126.87374 
L 163.153744 126.805201 
L 163.274711 126.695538 
L 163.385781 126.585875 
L 163.502349 126.479639 
L 163.612319 126.369976 
L 163.733286 126.26374 
L 163.844356 126.143796 
L 163.989516 126.034133 
L 164.091788 125.914189 
L 164.252345 125.804526 
L 164.363414 125.722278 
L 164.550363 125.612616 
L 164.653735 125.509806 
L 164.756007 125.400143 
L 164.864878 125.293907 
L 164.962751 125.184244 
L 165.072721 125.074581 
L 165.238776 124.964918 
L 165.347646 124.903233 
L 165.497205 124.79357 
L 165.598377 124.71475 
L 165.750136 124.605087 
L 165.857907 124.519412 
L 165.964578 124.413176 
L 166.071249 124.317221 
L 166.191116 124.207558 
L 166.301086 124.121884 
L 166.441847 124.012221 
L 166.552917 123.936828 
L 166.680482 123.830592 
L 166.791552 123.73121 
L 166.973003 123.621547 
L 167.084072 123.525592 
L 167.236931 123.415929 
L 167.340302 123.306266 
L 167.510756 123.196603 
L 167.620726 123.080086 
L 167.726297 122.970423 
L 167.836267 122.901883 
L 167.996823 122.795647 
L 168.094697 122.727108 
L 168.225561 122.617445 
L 168.333331 122.494074 
L 168.488389 122.387838 
L 168.599459 122.302164 
L 168.765514 122.192501 
L 168.876583 122.099973 
L 169.03384 121.99031 
L 169.14491 121.884074 
L 169.319762 121.774411 
L 169.427533 121.664748 
L 169.564996 121.555085 
L 169.669467 121.435141 
L 169.788235 121.325478 
L 169.897105 121.260365 
L 170.068658 121.150702 
L 170.176429 121.037612 
L 170.325988 120.931376 
L 170.437058 120.869691 
L 170.580019 120.760028 
L 170.691088 120.681208 
L 170.876938 120.578399 
L 170.983609 120.489297 
L 171.108974 120.379634 
L 171.218944 120.317949 
L 171.334413 120.208286 
L 171.445483 120.119185 
L 171.558752 120.009522 
L 171.666522 119.87587 
L 171.814982 119.769634 
L 171.923852 119.68396 
L 172.075611 119.574297 
L 172.185581 119.474915 
L 172.318644 119.365252 
L 172.423116 119.296712 
L 172.542983 119.187049 
L 172.654053 119.080813 
L 172.804712 118.97115 
L 172.913582 118.864914 
L 173.048845 118.758678 
L 173.156616 118.642161 
L 173.310574 118.532498 
L 173.421644 118.460532 
L 173.558006 118.350869 
L 173.666877 118.261768 
L 173.787844 118.152105 
L 173.884617 118.045869 
L 174.074865 117.936206 
L 174.183736 117.805981 
L 174.343192 117.696318 
L 174.447664 117.600363 
L 174.589525 117.4907 
L 174.696196 117.394745 
L 174.842456 117.285082 
L 174.950227 117.189126 
L 175.095387 117.08289 
L 175.19326 116.976654 
L 175.374711 116.866991 
L 175.481382 116.774463 
L 175.639739 116.6648 
L 175.750808 116.589407 
L 175.835485 116.479744 
L 175.937757 116.387216 
L 176.101613 116.277553 
L 176.204984 116.16789 
L 176.344646 116.061654 
L 176.452417 115.958845 
L 176.585481 115.849182 
L 176.695451 115.760081 
L 176.830714 115.653845 
L 176.938484 115.578451 
L 177.089143 115.472215 
L 177.199113 115.386541 
L 177.424552 115.276878 
L 177.535621 115.187777 
L 177.726969 115.078114 
L 177.838039 115.019855 
L 177.986498 114.910192 
L 178.093169 114.827945 
L 178.23613 114.718282 
L 178.345001 114.636035 
L 178.525351 114.526372 
L 178.636421 114.430417 
L 178.756288 114.320754 
L 178.867358 114.214518 
L 179.055407 114.104855 
L 179.163177 114.022607 
L 179.29954 113.912944 
L 179.406211 113.810135 
L 179.572266 113.700472 
L 179.670139 113.607944 
L 179.873584 113.498281 
L 179.984653 113.419461 
L 180.127614 113.309798 
L 180.224388 113.248113 
L 180.378346 113.13845 
L 180.485017 113.015079 
L 180.622479 112.905416 
L 180.733549 112.840303 
L 180.921598 112.734067 
L 181.029368 112.634685 
L 181.236112 112.525022 
L 181.347182 112.418786 
L 181.514336 112.309123 
L 181.624306 112.19946 
L 181.796959 112.093224 
L 181.90363 112.000696 
L 182.05099 111.891033 
L 182.15986 111.829347 
L 182.314918 111.719684 
L 182.401794 111.640864 
L 182.581045 111.531201 
L 182.683317 111.4421 
L 182.810883 111.332437 
L 182.897759 111.29474 
L 183.086907 111.188504 
L 183.191379 111.099403 
L 183.326642 110.993167 
L 183.424515 110.91092 
L 183.666449 110.801257 
L 183.770921 110.736144 
L 183.969966 110.626481 
L 184.081036 110.53738 
L 184.240493 110.427717 
L 184.344964 110.362605 
L 184.453834 110.256369 
L 184.553907 110.163841 
L 184.706765 110.054178 
L 184.813436 109.989065 
L 184.958597 109.879402 
L 185.066367 109.786874 
L 185.234621 109.684065 
L 185.345691 109.594964 
L 185.474356 109.485301 
L 185.581027 109.392773 
L 185.742683 109.286537 
L 185.837257 109.194009 
L 185.996714 109.084346 
L 186.102285 109.002098 
L 186.292533 108.892435 
L 186.401403 108.820469 
L 186.534467 108.710806 
L 186.638938 108.642267 
L 186.874274 108.536031 
L 186.980945 108.443502 
L 187.10961 108.337266 
L 187.217381 108.261873 
L 187.372438 108.155637 
L 187.482408 108.097379 
L 187.605575 107.991143 
L 187.69685 107.888333 
L 187.896995 107.77867 
L 188.001467 107.692996 
L 188.146627 107.583333 
L 188.257697 107.504513 
L 188.369866 107.398277 
L 188.479836 107.319457 
L 188.677782 107.209794 
L 188.783353 107.130973 
L 188.978 107.02131 
L 189.079173 106.956198 
L 189.288116 106.849962 
L 189.395886 106.764288 
L 189.56414 106.658052 
L 189.669712 106.562097 
L 189.800576 106.452434 
L 189.911646 106.366759 
L 190.121688 106.260523 
L 190.231658 106.18513 
L 190.421906 106.075467 
L 190.525278 105.969231 
L 190.696832 105.859568 
L 190.807901 105.780748 
L 190.99485 105.677939 
L 191.098222 105.557995 
L 191.242283 105.448332 
L 191.336857 105.362658 
L 191.467721 105.256422 
L 191.574392 105.153612 
L 191.712954 105.043949 
L 191.811927 104.958275 
L 191.94829 104.852039 
L 192.05826 104.745803 
L 192.16823 104.63614 
L 192.2771 104.516196 
L 192.442055 104.40996 
L 192.552025 104.334567 
L 192.724678 104.224904 
L 192.818153 104.149511 
L 193.027096 104.039848 
L 193.138166 103.937039 
L 193.333912 103.827376 
L 193.442783 103.748555 
L 193.675919 103.642319 
L 193.78369 103.532656 
L 193.968439 103.422993 
L 194.079509 103.327038 
L 194.22357 103.217375 
L 194.334639 103.117993 
L 194.509492 103.00833 
L 194.606265 102.939791 
L 194.796513 102.830128 
L 194.905384 102.761588 
L 195.040647 102.651925 
L 195.148417 102.583386 
L 195.290279 102.473723 
L 195.400249 102.381195 
L 195.530013 102.274959 
L 195.641083 102.202992 
L 195.822533 102.093329 
L 195.930304 102.028217 
L 196.105156 101.918554 
L 196.214027 101.836307 
L 196.396577 101.726644 
L 196.507647 101.65125 
L 196.6792 101.541587 
L 196.784771 101.486756 
L 196.944227 101.377093 
L 197.055297 101.274284 
L 197.258742 101.164621 
L 197.357715 101.102936 
L 197.52157 100.993273 
L 197.626041 100.900744 
L 197.830586 100.791081 
L 197.916362 100.719115 
L 198.128604 100.609452 
L 198.230876 100.540913 
L 198.445318 100.43125 
L 198.553089 100.355856 
L 198.73234 100.246193 
L 198.834612 100.177654 
L 199.020461 100.067991 
L 199.120534 99.999452 
L 199.365767 99.889789 
L 199.475737 99.793833 
L 199.663786 99.687597 
L 199.769357 99.588215 
L 199.980499 99.478552 
L 200.08937 99.427148 
L 200.267521 99.317485 
L 200.368693 99.242092 
L 200.597431 99.132429 
L 200.705202 99.0399 
L 200.860259 98.930237 
L 200.970229 98.868552 
L 201.120888 98.758889 
L 201.22426 98.686923 
L 201.4431 98.57726 
L 201.55307 98.477877 
L 201.729022 98.371641 
L 201.837893 98.279113 
L 202.051234 98.16945 
L 202.162304 98.070068 
L 202.330558 97.960405 
L 202.437229 97.905574 
L 202.61868 97.795911 
L 202.72865 97.730798 
L 202.850716 97.621135 
L 202.959587 97.566304 
L 203.067357 97.456641 
L 203.177327 97.384674 
L 203.404965 97.275011 
L 203.511636 97.22018 
L 203.71728 97.110517 
L 203.821751 97.041978 
L 204.016398 96.932315 
L 204.125269 96.839786 
L 204.327613 96.730123 
L 204.433185 96.661584 
L 204.624533 96.551921 
L 204.734503 96.514224 
L 204.845572 96.404561 
L 204.952243 96.329168 
L 205.084207 96.219505 
L 205.178781 96.185235 
L 205.333839 96.075572 
L 205.430613 96.000179 
L 205.647254 95.890516 
L 205.757224 95.815123 
L 205.974964 95.70546 
L 206.081635 95.650628 
L 206.224596 95.540965 
L 206.333466 95.489561 
L 206.50282 95.379898 
L 206.608391 95.307931 
L 206.770047 95.201695 
L 206.87122 95.116021 
L 206.997685 95.006358 
L 207.107655 94.906976 
L 207.259414 94.797313 
L 207.350689 94.745909 
L 207.540937 94.636246 
L 207.645409 94.567706 
L 207.812563 94.458043 
L 207.922533 94.372369 
L 208.113881 94.262706 
L 208.222751 94.204448 
L 208.377809 94.094785 
L 208.48338 93.995402 
L 208.619743 93.885739 
L 208.729713 93.820627 
L 208.967248 93.710964 
L 209.077218 93.621863 
L 209.25207 93.5122 
L 209.36204 93.43338 
L 209.574282 93.323717 
L 209.684252 93.2072 
L 209.854706 93.097537 
L 209.962477 93.018716 
L 210.167021 92.909053 
L 210.269293 92.850795 
L 210.440846 92.741132 
L 210.545318 92.703435 
L 210.723469 92.593772 
L 210.83124 92.501244 
L 211.037983 92.395008 
L 211.145754 92.309334 
L 211.328304 92.203098 
L 211.419579 92.161974 
L 211.565839 92.052311 
L 211.674709 91.976918 
L 211.861658 91.867255 
L 211.954033 91.822704 
L 212.154179 91.713041 
L 212.264149 91.641075 
L 212.458796 91.531412 
L 212.567666 91.4663 
L 212.751316 91.356637 
L 212.854688 91.281243 
L 213.027341 91.17158 
L 213.132912 91.099614 
L 213.344054 90.993378 
L 213.446326 90.914558 
L 213.633275 90.804895 
L 213.734448 90.739782 
L 213.923596 90.630119 
L 214.031367 90.541018 
L 214.279899 90.431355 
L 214.389869 90.379951 
L 214.591114 90.273714 
L 214.699984 90.212029 
L 214.913326 90.102366 
L 215.016698 90.026973 
L 215.255333 89.91731 
L 215.362004 89.855624 
L 215.606137 89.745961 
L 215.715007 89.673995 
L 215.872265 89.564332 
L 215.971238 89.5095 
L 216.194477 89.403264 
L 216.29235 89.334725 
L 216.522187 89.225062 
L 216.631058 89.153096 
L 216.836701 89.043433 
L 216.940073 88.964612 
L 217.194104 88.854949 
L 217.299675 88.82068 
L 217.46683 88.711017 
L 217.5746 88.615062 
L 217.729658 88.505399 
L 217.827531 88.450567 
L 218.082662 88.340904 
L 218.187133 88.279219 
L 218.397176 88.169556 
L 218.504946 88.094162 
L 218.706192 87.984499 
L 218.813962 87.878263 
L 218.986615 87.7686 
L 219.091087 87.700061 
L 219.287933 87.593825 
L 219.391305 87.494443 
L 219.577154 87.38478 
L 219.679426 87.323094 
L 219.84988 87.213431 
L 219.960949 87.134611 
L 220.135802 87.031802 
L 220.234775 86.970117 
L 220.444817 86.860454 
L 220.554787 86.761072 
L 220.772528 86.651409 
L 220.881398 86.562307 
L 221.085942 86.452644 
L 221.195912 86.404667 
L 221.335574 86.295004 
L 221.442245 86.247026 
L 221.583007 86.137363 
L 221.694077 86.06197 
L 221.927213 85.952307 
L 222.038283 85.856352 
L 222.259322 85.746689 
L 222.364894 85.68843 
L 222.605728 85.582194 
L 222.715698 85.475958 
L 222.96533 85.366295 
L 223.0731 85.284048 
L 223.210563 85.174385 
L 223.311735 85.109273 
L 223.542672 84.99961 
L 223.653742 84.907082 
L 223.947362 84.800845 
L 224.054033 84.715171 
L 224.257477 84.605508 
L 224.35645 84.554104 
L 224.600584 84.444441 
L 224.707255 84.410171 
L 224.883207 84.300508 
L 224.993177 84.228542 
L 225.230712 84.118879 
L 225.314289 84.067474 
L 225.562821 83.957811 
L 225.658495 83.899553 
L 225.903728 83.78989 
L 226.013698 83.731631 
L 226.26443 83.625395 
L 226.3722 83.56371 
L 226.626231 83.454047 
L 226.737301 83.368373 
L 226.927549 83.25871 
L 227.03532 83.203878 
L 227.222269 83.094215 
L 227.331139 83.035957 
L 227.563176 82.926294 
L 227.659949 82.881743 
L 227.968965 82.77208 
L 228.071237 82.710395 
L 228.286778 82.600732 
L 228.397848 82.535619 
L 228.593595 82.425956 
L 228.678271 82.333428 
L 228.926804 82.223765 
L 229.037873 82.165507 
L 229.239118 82.055844 
L 229.34249 81.994158 
L 229.625113 81.887922 
L 229.731784 81.815956 
L 230.019906 81.706293 
L 230.11228 81.651461 
L 230.402601 81.541798 
L 230.513671 81.486967 
L 230.677526 81.377304 
L 230.775399 81.319045 
L 230.977744 81.209382 
L 231.077817 81.151124 
L 231.269165 81.041461 
L 231.378035 80.979775 
L 231.548489 80.870112 
L 231.65406 80.815281 
L 231.893794 80.705618 
L 232.004864 80.640506 
L 232.295185 80.530843 
L 232.405155 80.476011 
L 232.632793 80.366348 
L 232.725168 80.31837 
L 232.958304 80.208707 
L 233.069374 80.133314 
L 233.207936 80.023651 
L 233.317906 79.944831 
L 233.547743 79.835168 
L 233.653314 79.763202 
L 233.96233 79.653539 
L 234.064602 79.584999 
L 234.276844 79.478763 
L 234.386814 79.393089 
L 234.633147 79.283426 
L 234.743117 79.197752 
L 234.983952 79.088089 
L 235.087323 79.040111 
L 235.255577 78.933875 
L 235.362248 78.885898 
L 235.581089 78.776235 
L 235.692158 78.721403 
L 235.898902 78.61174 
L 236.004473 78.560336 
L 236.274999 78.450673 
L 236.375072 78.378706 
L 236.585115 78.269043 
L 236.689586 78.224493 
L 236.909526 78.11483 
L 237.018397 78.059998 
L 237.219642 77.953762 
L 237.329612 77.850953 
L 237.639727 77.74129 
L 237.717806 77.686459 
L 237.900356 77.580222 
L 238.010326 77.51511 
L 238.17858 77.405447 
L 238.275354 77.35747 
L 238.554678 77.251233 
L 238.664648 77.158705 
L 238.940672 77.049042 
L 239.041845 76.997638 
L 239.346462 76.887975 
L 239.444335 76.822862 
L 239.68187 76.716626 
L 239.777544 76.661795 
L 239.972191 76.552132 
L 240.077762 76.4973 
L 240.227321 76.387637 
L 240.337291 76.329379 
L 240.552833 76.219716 
L 240.657304 76.161457 
L 240.89044 76.051794 
L 240.996012 75.993536 
L 241.281934 75.883873 
L 241.393003 75.839322 
L 241.62504 75.729659 
L 241.728412 75.667974 
L 241.91976 75.558311 
L 242.02753 75.489772 
L 242.164993 75.380109 
L 242.274963 75.328704 
L 242.516897 75.219041 
L 242.620269 75.150502 
L 242.843508 75.040839 
L 242.946879 74.989434 
L 243.262493 74.879771 
L 243.34717 74.828367 
L 243.582506 74.718704 
L 243.690277 74.639883 
L 243.957504 74.53022 
L 244.068574 74.465108 
L 244.286314 74.355445 
L 244.396284 74.300613 
L 244.541445 74.19095 
L 244.640418 74.118984 
L 244.859258 74.009321 
L 244.968128 73.944209 
L 245.122086 73.834546 
L 245.221059 73.789995 
L 245.416806 73.680332 
L 245.527875 73.628928 
L 245.76871 73.519265 
L 245.87978 73.430163 
L 246.1712 73.3205 
L 246.262475 73.248534 
L 246.525303 73.138871 
L 246.626476 73.104601 
L 246.875008 72.994938 
L 246.984978 72.933253 
L 247.218114 72.827017 
L 247.326985 72.782466 
L 247.623904 72.672803 
L 247.725076 72.614545 
L 248.002201 72.504882 
L 248.106672 72.446623 
L 248.273826 72.33696 
L 248.376099 72.295837 
L 248.646625 72.186174 
L 248.746698 72.141623 
L 248.972136 72.035387 
L 249.081006 71.973702 
L 249.318542 71.864039 
L 249.415315 71.819488 
L 249.670446 71.709825 
L 249.774917 71.631005 
L 250.05644 71.521342 
L 250.162011 71.459656 
L 250.400646 71.349993 
L 250.504018 71.30887 
L 250.710762 71.199207 
L 250.820732 71.147802 
L 251.051669 71.038139 
L 251.160539 70.976454 
L 251.343089 70.866791 
L 251.438763 70.794825 
L 251.782969 70.685162 
L 251.887441 70.63033 
L 252.076589 70.520667 
L 252.18436 70.479543 
L 252.36801 70.36988 
L 252.47578 70.29106 
L 252.7705 70.181397 
L 252.876071 70.129993 
L 253.060821 70.02033 
L 253.138899 69.979206 
L 253.449015 69.869543 
L 253.528193 69.814711 
L 253.76133 69.705048 
L 253.8713 69.653644 
L 254.060448 69.550835 
L 254.139627 69.526846 
L 254.429947 69.417183 
L 254.532219 69.328082 
L 254.840135 69.218419 
L 254.950105 69.163587 
L 255.106263 69.053924 
L 255.217333 68.981958 
L 255.458167 68.872295 
L 255.563738 68.796902 
L 255.852959 68.690666 
L 255.942035 68.639261 
L 256.258748 68.529598 
L 256.369818 68.474767 
L 256.65574 68.365104 
L 256.76461 68.303418 
L 257.054931 68.193755 
L 257.160503 68.152632 
L 257.450823 68.042969 
L 257.530002 68.008699 
L 257.800528 67.899036 
L 257.891803 67.82707 
L 258.16123 67.717407 
L 258.2712 67.652294 
L 258.532928 67.542631 
L 258.6363 67.508362 
L 258.907926 67.398699 
L 258.983805 67.37471 
L 259.275226 67.268474 
L 259.381897 67.213642 
L 259.644725 67.103979 
L 259.748097 67.038867 
L 260.039517 66.929204 
L 260.143989 66.881226 
L 260.380424 66.77499 
L 260.482696 66.716732 
L 260.80051 66.607069 
L 260.911579 66.541956 
L 261.186504 66.432293 
L 261.296474 66.380889 
L 261.485623 66.271226 
L 261.593393 66.20954 
L 261.822131 66.099877 
L 261.931001 66.048473 
L 262.323594 65.93881 
L 262.434664 65.897686 
L 262.70519 65.788023 
L 262.790967 65.733192 
L 263.057094 65.623529 
L 263.168164 65.568697 
L 263.391403 65.459034 
L 263.493675 65.397349 
L 263.735609 65.291113 
L 263.827984 65.249989 
L 264.079815 65.140326 
L 264.179888 65.061506 
L 264.365737 64.951843 
L 264.472408 64.897011 
L 264.764928 64.790775 
L 264.848505 64.753079 
L 265.201509 64.643416 
L 265.31038 64.564595 
L 265.53032 64.454932 
L 265.6018 64.420663 
L 265.834936 64.311 
L 265.941607 64.24246 
L 266.163747 64.132797 
L 266.26272 64.064258 
L 266.474962 63.954595 
L 266.577234 63.927179 
L 266.835663 63.817516 
L 266.943434 63.783247 
L 267.208462 63.673584 
L 267.28654 63.642741 
L 267.533973 63.533078 
L 267.643943 63.467965 
L 267.890276 63.358302 
L 267.98595 63.317179 
L 268.264174 63.207516 
L 268.365346 63.166392 
L 268.655667 63.060156 
L 268.763438 63.005325 
L 268.945988 62.895662 
L 269.04826 62.851111 
L 269.280297 62.741448 
L 269.367173 62.707178 
L 269.567318 62.597515 
L 269.676189 62.552965 
L 269.885132 62.443302 
L 269.994002 62.402178 
L 270.253531 62.292515 
L 270.363501 62.220549 
L 270.485568 62.110886 
L 270.58674 62.062908 
L 270.862765 61.953245 
L 270.972735 61.922403 
L 271.167382 61.816167 
L 271.265255 61.747627 
L 271.61276 61.637964 
L 271.716132 61.596841 
L 272.002054 61.487178 
L 272.102127 61.442627 
L 272.363856 61.332964 
L 272.472726 61.295267 
L 272.794938 61.185604 
L 272.901609 61.127346 
L 273.196328 61.017683 
L 273.305199 60.969705 
L 273.667 60.860042 
L 273.773671 60.812065 
L 274.10908 60.702402 
L 274.214651 60.661278 
L 274.520367 60.551615 
L 274.624839 60.503638 
L 274.961347 60.393975 
L 275.062519 60.335716 
L 275.483705 60.226053 
L 275.592575 60.178076 
L 275.840007 60.068413 
L 275.942279 60.020435 
L 276.238099 59.910772 
L 276.341471 59.879929 
L 276.550414 59.770266 
L 276.661483 59.722289 
L 276.952904 59.612626 
L 277.059575 59.547513 
L 277.316905 59.43785 
L 277.416977 59.365884 
L 277.778779 59.256221 
L 277.889848 59.208243 
L 278.157075 59.09858 
L 278.25165 59.064311 
L 278.545269 58.954648 
L 278.626647 58.913524 
L 278.991748 58.803861 
L 279.090721 58.762737 
L 279.381042 58.653074 
L 279.484413 58.605097 
L 279.779133 58.495434 
L 279.868209 58.444029 
L 280.15523 58.334366 
L 280.257502 58.289816 
L 280.515932 58.180153 
L 280.616005 58.152737 
L 280.914023 58.046501 
L 281.012996 57.995096 
L 281.363801 57.885433 
L 281.437481 57.847737 
L 281.743197 57.738074 
L 281.852068 57.676388 
L 282.086304 57.566725 
L 282.176479 57.546164 
L 282.499791 57.436501 
L 282.605362 57.374815 
L 282.856094 57.265152 
L 282.958366 57.230882 
L 283.258584 57.121219 
L 283.331164 57.093804 
L 283.665473 56.984141 
L 283.771044 56.936163 
L 284.084459 56.8265 
L 284.194429 56.788804 
L 284.532037 56.679141 
L 284.642007 56.610601 
L 284.988412 56.500938 
L 285.088485 56.452961 
L 285.466782 56.343298 
L 285.560256 56.319309 
L 285.788994 56.209646 
L 285.898964 56.161668 
L 286.244269 56.052005 
L 286.35094 56.007455 
L 286.598373 55.901219 
L 286.706143 55.846387 
L 287.108634 55.736724 
L 287.215305 55.668185 
L 287.512224 55.558522 
L 287.622194 55.513971 
L 288.055475 55.404308 
L 288.162146 55.349477 
L 288.608625 55.239814 
L 288.717495 55.212398 
L 289.129882 55.102735 
L 289.233254 55.054757 
L 289.525774 54.945094 
L 289.633545 54.883409 
L 289.975552 54.773746 
L 290.085522 54.718914 
L 290.523202 54.609251 
L 290.621076 54.550993 
L 291.018067 54.44133 
L 291.101645 54.410487 
L 291.610806 54.300824 
L 291.709779 54.24942 
L 292.127665 54.139757 
L 292.21674 54.095206 
L 292.496064 53.985543 
L 292.595037 53.923858 
L 292.932645 53.814195 
L 293.038216 53.738801 
L 293.546278 53.629138 
L 293.636453 53.598296 
L 293.964164 53.488633 
L 294.062037 53.454363 
L 294.479923 53.3447 
L 294.5635 53.307003 
L 294.949495 53.19734 
L 295.060565 53.166498 
L 295.401472 53.056835 
L 295.500445 53.019138 
L 295.862246 52.909475 
L 295.961219 52.868351 
L 296.296628 52.762115 
L 296.407697 52.703857 
L 296.739807 52.594194 
L 296.842079 52.563351 
L 297.121403 52.453688 
L 297.220376 52.409138 
L 297.599772 52.299475 
L 297.708642 52.227508 
L 298.028655 52.117845 
L 298.12103 52.083576 
L 298.577405 51.973913 
L 298.687375 51.939643 
L 298.938107 51.82998 
L 299.028282 51.792283 
L 299.382386 51.68262 
L 299.493456 51.624362 
L 299.883849 51.518126 
L 299.985021 51.477002 
L 300.248949 51.367339 
L 300.35562 51.333069 
L 300.682231 51.223406 
L 300.792201 51.189137 
L 301.406934 51.079474 
L 301.514704 51.055485 
L 301.93369 50.945822 
L 302.038161 50.884136 
L 302.369171 50.774473 
L 302.478041 50.736777 
L 302.916822 50.627114 
L 303.020194 50.596271 
L 303.320412 50.486608 
L 303.428182 50.455765 
L 303.800981 50.346102 
L 303.905452 50.284417 
L 304.27825 50.174754 
L 304.38822 50.13363 
L 304.798409 50.023967 
L 304.886385 50.003406 
L 305.244887 49.893743 
L 305.344959 49.873181 
L 305.648477 49.763518 
L 305.752948 49.732675 
L 306.126846 49.623012 
L 306.220321 49.588742 
L 306.522738 49.479079 
L 306.577723 49.468798 
L 306.930727 49.359135 
L 307.036298 49.324866 
L 307.256238 49.215203 
L 307.351912 49.187787 
L 307.79839 49.078124 
L 307.90946 49.023292 
L 308.196482 48.913629 
L 308.306452 48.87936 
L 308.686948 48.769697 
L 308.798018 48.735427 
L 309.099335 48.625764 
L 309.187311 48.58464 
L 309.587602 48.474977 
L 309.698672 48.413292 
L 310.113259 48.303629 
L 310.222129 48.259078 
L 310.54874 48.149415 
L 310.65981 48.111719 
L 311.0623 48.002056 
L 311.13708 47.960932 
L 311.480186 47.851269 
L 311.591256 47.834134 
L 311.964054 47.727898 
L 312.074024 47.693629 
L 312.572188 47.583966 
L 312.652466 47.559977 
L 313.127537 47.450314 
L 313.22431 47.402336 
L 313.612504 47.292673 
L 313.708178 47.261831 
L 314.101871 47.152168 
L 314.200844 47.10419 
L 314.69241 46.994527 
L 314.786984 46.960257 
L 315.303843 46.850594 
L 315.403916 46.819752 
L 315.873488 46.710089 
L 315.965862 46.6861 
L 316.470625 46.576437 
L 316.567398 46.549021 
L 317.080958 46.439358 
L 317.189829 46.405088 
L 317.674796 46.295425 
L 317.781467 46.26801 
L 318.083885 46.158347 
L 318.192755 46.124077 
L 318.54026 46.014414 
L 318.646931 45.97329 
L 319.102207 45.863627 
L 319.209978 45.805369 
L 319.450812 45.695706 
L 319.553084 45.671717 
L 319.995163 45.568908 
L 320.105133 45.517504 
L 320.560409 45.407841 
L 320.664881 45.383852 
L 320.918911 45.274189 
L 321.020084 45.253627 
L 321.359891 45.143964 
L 321.455565 45.095986 
L 322.121983 44.986323 
L 322.227554 44.952054 
L 322.613549 44.842391 
L 322.716921 44.794413 
L 323.190892 44.68475 
L 323.287665 44.647053 
L 323.753938 44.53739 
L 323.849612 44.496267 
L 324.349976 44.386604 
L 324.455547 44.355761 
L 324.862436 44.246098 
L 324.95811 44.194694 
L 325.422183 44.085031 
L 325.528854 44.054188 
L 326.030317 43.944525 
L 326.110595 43.913682 
L 326.458101 43.804019 
L 326.565871 43.776603 
L 326.983757 43.670367 
L 327.086029 43.639525 
L 327.572097 43.529862 
L 327.672169 43.499019 
L 328.084557 43.389356 
L 328.18243 43.341378 
L 328.84225 43.231715 
L 328.95332 43.207727 
L 329.526264 43.098064 
L 329.631835 43.067221 
L 329.945249 42.957558 
L 329.995836 42.950704 
L 330.502797 42.841041 
L 330.60397 42.803344 
L 331.107632 42.697108 
L 331.198907 42.652558 
L 331.73996 42.542895 
L 331.85103 42.508625 
L 332.36349 42.398962 
L 332.47236 42.361265 
L 332.910041 42.255029 
L 333.020011 42.231041 
L 333.568761 42.121378 
L 333.652338 42.10767 
L 334.297862 41.998007 
L 334.406732 41.967164 
L 334.852111 41.857501 
L 334.924691 41.819804 
L 335.44045 41.710141 
L 335.543822 41.686153 
L 335.910022 41.57649 
L 336.013394 41.549074 
L 336.658918 41.439411 
L 336.750193 41.418849 
L 337.192273 41.309186 
L 337.303342 41.278343 
L 337.876286 41.16868 
L 337.980758 41.134411 
L 338.231489 41.024748 
L 338.247985 41.004186 
L 338.828626 40.89795 
L 338.9265 40.873961 
L 339.594017 40.764298 
L 339.687492 40.75059 
L 340.247239 40.640927 
L 340.35501 40.627219 
L 340.896062 40.517556 
L 340.958745 40.486714 
L 341.660354 40.377051 
L 341.771424 40.3325 
L 342.331171 40.222837 
L 342.404851 40.198848 
L 342.878822 40.089185 
L 342.953601 40.058342 
L 343.679403 39.948679 
L 343.780576 39.917837 
L 344.334824 39.808174 
L 344.433797 39.794466 
L 344.994644 39.684803 
L 345.085919 39.671095 
L 345.887601 39.561432 
L 345.998671 39.534016 
L 346.561717 39.424353 
L 346.663989 39.403791 
L 347.238032 39.294128 
L 347.342504 39.259859 
L 347.915448 39.153623 
L 347.999025 39.12278 
L 348.636851 39.013117 
L 348.724827 38.989128 
L 349.383547 38.879465 
L 349.466025 38.869184 
L 350.305096 38.759521 
L 350.416166 38.728679 
L 351.052892 38.619016 
L 351.145267 38.595027 
L 351.876567 38.485364 
L 351.986537 38.468229 
L 352.702442 38.358566 
L 352.78272 38.344858 
L 353.321573 38.235195 
L 353.428244 38.200925 
L 354.012185 38.091262 
L 354.106759 38.077555 
L 354.846857 37.967892 
L 354.955727 37.950757 
L 355.552864 37.841094 
L 355.662834 37.817105 
L 356.481011 37.707442 
L 356.585483 37.676599 
L 357.245303 37.566936 
L 357.278294 37.560082 
L 357.87873 37.450419 
L 357.968905 37.419577 
L 358.599034 37.309914 
L 358.693608 37.285925 
L 359.487591 37.176262 
L 359.595362 37.148846 
L 360.395943 37.039183 
L 360.498216 37.022048 
L 361.037069 36.912385 
L 361.129443 36.898677 
L 361.998206 36.789014 
L 362.068587 36.761599 
L 363.070414 36.651936 
L 363.177085 36.631374 
L 364.127226 36.521711 
L 364.142621 36.514857 
L 365.034478 36.405194 
L 365.13675 36.381205 
L 365.941731 36.274969 
L 366.040704 36.247553 
L 366.891872 36.13789 
L 366.991944 36.120755 
L 368.03336 36.011092 
L 368.121336 35.983677 
L 368.884528 35.874014 
L 368.957108 35.863733 
L 370.04911 35.75407 
L 370.110694 35.740362 
L 371.36985 35.630699 
L 371.476521 35.613564 
L 372.415665 35.503901 
L 372.502541 35.486766 
L 373.526362 35.377103 
L 373.562652 35.363395 
L 374.710739 35.253732 
L 374.820709 35.226317 
L 375.943503 35.116654 
L 376.033678 35.099519 
L 377.117982 34.993283 
L 377.158671 34.969294 
L 378.516801 34.859631 
L 378.516801 34.856204 
L 379.854036 34.746541 
L 379.906822 34.739687 
L 381.043911 34.630024 
L 381.078002 34.619743 
L 382.966187 34.51008 
L 383.033269 34.496372 
L 384.668523 34.414125 
L 384.668523 34.414125 
" clip-path="url(#pc4e9418b41)" style="fill: none; stroke: #0000ff; stroke-width: 1.5; stroke-linecap: square"/>
   </g>
   <g id="line2d_14">
    <path d="M 60.013977 276.334125 
L 384.668523 34.414125 
" clip-path="url(#pc4e9418b41)" style="fill: none; stroke-dasharray: 5.55,2.4; stroke-dashoffset: 0; stroke: #ff0000; stroke-width: 1.5"/>
   </g>
   <g id="patch_3">
    <path d="M 43.78125 288.430125 
L 43.78125 22.318125 
" style="fill: none; stroke: #000000; stroke-width: 0.8; stroke-linejoin: miter; stroke-linecap: square"/>
   </g>
   <g id="patch_4">
    <path d="M 400.90125 288.430125 
L 400.90125 22.318125 
" style="fill: none; stroke: #000000; stroke-width: 0.8; stroke-linejoin: miter; stroke-linecap: square"/>
   </g>
   <g id="patch_5">
    <path d="M 43.78125 288.430125 
L 400.90125 288.430125 
" style="fill: none; stroke: #000000; stroke-width: 0.8; stroke-linejoin: miter; stroke-linecap: square"/>
   </g>
   <g id="patch_6">
    <path d="M 43.78125 22.318125 
L 400.90125 22.318125 
" style="fill: none; stroke: #000000; stroke-width: 0.8; stroke-linejoin: miter; stroke-linecap: square"/>
   </g>
   <g id="text_15">
    <!-- Elastic net with 12 selected features -->
    <g transform="translate(112.905 16.318125) scale(0.12 -0.12)">
     <defs>
      <path id="DejaVuSans-45" d="M 628 4666 
L 3578 4666 
L 3578 4134 
L 1259 4134 
L 1259 2753 
L 3481 2753 
L 3481 2222 
L 1259 2222 
L 1259 531 
L 3634 531 
L 3634 0 
L 628 0 
L 628 4666 
z
" transform="scale(0.015625)"/>
      <path id="DejaVuSans-63" d="M 3122 3366 
L 3122 2828 
Q 2878 2963 2633 3030 
Q 2388 3097 2138 3097 
Q 1578 3097 1268 2742 
Q 959 2388 959 1747 
Q 959 1106 1268 751 
Q 1578 397 2138 397 
Q 2388 397 2633 464 
Q 2878 531 3122 666 
L 3122 134 
Q 2881 22 2623 -34 
Q 2366 -91 2075 -91 
Q 1284 -91 818 406 
Q 353 903 353 1747 
Q 353 2603 823 3093 
Q 1294 3584 2113 3584 
Q 2378 3584 2631 3529 
Q 2884 3475 3122 3366 
z
" transform="scale(0.015625)"/>
      <path id="DejaVuSans-6e" d="M 3513 2113 
L 3513 0 
L 2938 0 
L 2938 2094 
Q 2938 2591 2744 2837 
Q 2550 3084 2163 3084 
Q 1697 3084 1428 2787 
Q 1159 2491 1159 1978 
L 1159 0 
L 581 0 
L 581 3500 
L 1159 3500 
L 1159 2956 
Q 1366 3272 1645 3428 
Q 1925 3584 2291 3584 
Q 2894 3584 3203 3211 
Q 3513 2838 3513 2113 
z
" transform="scale(0.015625)"/>
      <path id="DejaVuSans-77" d="M 269 3500 
L 844 3500 
L 1563 769 
L 2278 3500 
L 2956 3500 
L 3675 769 
L 4391 3500 
L 4966 3500 
L 4050 0 
L 3372 0 
L 2619 2869 
L 1863 0 
L 1184 0 
L 269 3500 
z
" transform="scale(0.015625)"/>
      <path id="DejaVuSans-68" d="M 3513 2113 
L 3513 0 
L 2938 0 
L 2938 2094 
Q 2938 2591 2744 2837 
Q 2550 3084 2163 3084 
Q 1697 3084 1428 2787 
Q 1159 2491 1159 1978 
L 1159 0 
L 581 0 
L 581 4863 
L 1159 4863 
L 1159 2956 
Q 1366 3272 1645 3428 
Q 1925 3584 2291 3584 
Q 2894 3584 3203 3211 
Q 3513 2838 3513 2113 
z
" transform="scale(0.015625)"/>
      <path id="DejaVuSans-64" d="M 2906 2969 
L 2906 4863 
L 3481 4863 
L 3481 0 
L 2906 0 
L 2906 525 
Q 2725 213 2448 61 
Q 2172 -91 1784 -91 
Q 1150 -91 751 415 
Q 353 922 353 1747 
Q 353 2572 751 3078 
Q 1150 3584 1784 3584 
Q 2172 3584 2448 3432 
Q 2725 3281 2906 2969 
z
M 947 1747 
Q 947 1113 1208 752 
Q 1469 391 1925 391 
Q 2381 391 2643 752 
Q 2906 1113 2906 1747 
Q 2906 2381 2643 2742 
Q 2381 3103 1925 3103 
Q 1469 3103 1208 2742 
Q 947 2381 947 1747 
z
" transform="scale(0.015625)"/>
      <path id="DejaVuSans-66" d="M 2375 4863 
L 2375 4384 
L 1825 4384 
Q 1516 4384 1395 4259 
Q 1275 4134 1275 3809 
L 1275 3500 
L 2222 3500 
L 2222 3053 
L 1275 3053 
L 1275 0 
L 697 0 
L 697 3053 
L 147 3053 
L 147 3500 
L 697 3500 
L 697 3744 
Q 697 4328 969 4595 
Q 1241 4863 1831 4863 
L 2375 4863 
z
" transform="scale(0.015625)"/>
     </defs>
     <use xlink:href="#DejaVuSans-45"/>
     <use xlink:href="#DejaVuSans-6c" x="63.183594"/>
     <use xlink:href="#DejaVuSans-61" x="90.966797"/>
     <use xlink:href="#DejaVuSans-73" x="152.246094"/>
     <use xlink:href="#DejaVuSans-74" x="204.345703"/>
     <use xlink:href="#DejaVuSans-69" x="243.554688"/>
     <use xlink:href="#DejaVuSans-63" x="271.337891"/>
     <use xlink:href="#DejaVuSans-20" x="326.318359"/>
     <use xlink:href="#DejaVuSans-6e" x="358.105469"/>
     <use xlink:href="#DejaVuSans-65" x="421.484375"/>
     <use xlink:href="#DejaVuSans-74" x="483.007812"/>
     <use xlink:href="#DejaVuSans-20" x="522.216797"/>
     <use xlink:href="#DejaVuSans-77" x="554.003906"/>
     <use xlink:href="#DejaVuSans-69" x="635.791016"/>
     <use xlink:href="#DejaVuSans-74" x="663.574219"/>
     <use xlink:href="#DejaVuSans-68" x="702.783203"/>
     <use xlink:href="#DejaVuSans-20" x="766.162109"/>
     <use xlink:href="#DejaVuSans-31" x="797.949219"/>
     <use xlink:href="#DejaVuSans-32" x="861.572266"/>
     <use xlink:href="#DejaVuSans-20" x="925.195312"/>
     <use xlink:href="#DejaVuSans-73" x="956.982422"/>
     <use xlink:href="#DejaVuSans-65" x="1009.082031"/>
     <use xlink:href="#DejaVuSans-6c" x="1070.605469"/>
     <use xlink:href="#DejaVuSans-65" x="1098.388672"/>
     <use xlink:href="#DejaVuSans-63" x="1159.912109"/>
     <use xlink:href="#DejaVuSans-74" x="1214.892578"/>
     <use xlink:href="#DejaVuSans-65" x="1254.101562"/>
     <use xlink:href="#DejaVuSans-64" x="1315.625"/>
     <use xlink:href="#DejaVuSans-20" x="1379.101562"/>
     <use xlink:href="#DejaVuSans-66" x="1410.888672"/>
     <use xlink:href="#DejaVuSans-65" x="1446.09375"/>
     <use xlink:href="#DejaVuSans-61" x="1507.617188"/>
     <use xlink:href="#DejaVuSans-74" x="1568.896484"/>
     <use xlink:href="#DejaVuSans-75" x="1608.105469"/>
     <use xlink:href="#DejaVuSans-72" x="1671.484375"/>
     <use xlink:href="#DejaVuSans-65" x="1710.347656"/>
     <use xlink:href="#DejaVuSans-73" x="1771.871094"/>
    </g>
   </g>
   <g id="legend_1">
    <g id="patch_7">
     <path d="M 50.78125 44.99625 
L 160.0125 44.99625 
Q 162.0125 44.99625 162.0125 42.99625 
L 162.0125 29.318125 
Q 162.0125 27.318125 160.0125 27.318125 
L 50.78125 27.318125 
Q 48.78125 27.318125 48.78125 29.318125 
L 48.78125 42.99625 
Q 48.78125 44.99625 50.78125 44.99625 
z
" style="fill: #ffffff; opacity: 0.8; stroke: #cccccc; stroke-linejoin: miter"/>
    </g>
    <g id="line2d_15">
     <path d="M 52.78125 35.416562 
L 62.78125 35.416562 
L 72.78125 35.416562 
" style="fill: none; stroke: #0000ff; stroke-width: 1.5; stroke-linecap: square"/>
    </g>
    <g id="text_16">
     <!-- AUC = 0.70920 -->
     <g transform="translate(80.78125 38.916562) scale(0.1 -0.1)">
      <defs>
       <path id="DejaVuSans-41" d="M 2188 4044 
L 1331 1722 
L 3047 1722 
L 2188 4044 
z
M 1831 4666 
L 2547 4666 
L 4325 0 
L 3669 0 
L 3244 1197 
L 1141 1197 
L 716 0 
L 50 0 
L 1831 4666 
z
" transform="scale(0.015625)"/>
       <path id="DejaVuSans-55" d="M 556 4666 
L 1191 4666 
L 1191 1831 
Q 1191 1081 1462 751 
Q 1734 422 2344 422 
Q 2950 422 3222 751 
Q 3494 1081 3494 1831 
L 3494 4666 
L 4128 4666 
L 4128 1753 
Q 4128 841 3676 375 
Q 3225 -91 2344 -91 
Q 1459 -91 1007 375 
Q 556 841 556 1753 
L 556 4666 
z
" transform="scale(0.015625)"/>
       <path id="DejaVuSans-43" d="M 4122 4306 
L 4122 3641 
Q 3803 3938 3442 4084 
Q 3081 4231 2675 4231 
Q 1875 4231 1450 3742 
Q 1025 3253 1025 2328 
Q 1025 1406 1450 917 
Q 1875 428 2675 428 
Q 3081 428 3442 575 
Q 3803 722 4122 1019 
L 4122 359 
Q 3791 134 3420 21 
Q 3050 -91 2638 -91 
Q 1578 -91 968 557 
Q 359 1206 359 2328 
Q 359 3453 968 4101 
Q 1578 4750 2638 4750 
Q 3056 4750 3426 4639 
Q 3797 4528 4122 4306 
z
" transform="scale(0.015625)"/>
       <path id="DejaVuSans-3d" d="M 678 2906 
L 4684 2906 
L 4684 2381 
L 678 2381 
L 678 2906 
z
M 678 1631 
L 4684 1631 
L 4684 1100 
L 678 1100 
L 678 1631 
z
" transform="scale(0.015625)"/>
       <path id="DejaVuSans-37" d="M 525 4666 
L 3525 4666 
L 3525 4397 
L 1831 0 
L 1172 0 
L 2766 4134 
L 525 4134 
L 525 4666 
z
" transform="scale(0.015625)"/>
       <path id="DejaVuSans-39" d="M 703 97 
L 703 672 
Q 941 559 1184 500 
Q 1428 441 1663 441 
Q 2288 441 2617 861 
Q 2947 1281 2994 2138 
Q 2813 1869 2534 1725 
Q 2256 1581 1919 1581 
Q 1219 1581 811 2004 
Q 403 2428 403 3163 
Q 403 3881 828 4315 
Q 1253 4750 1959 4750 
Q 2769 4750 3195 4129 
Q 3622 3509 3622 2328 
Q 3622 1225 3098 567 
Q 2575 -91 1691 -91 
Q 1453 -91 1209 -44 
Q 966 3 703 97 
z
M 1959 2075 
Q 2384 2075 2632 2365 
Q 2881 2656 2881 3163 
Q 2881 3666 2632 3958 
Q 2384 4250 1959 4250 
Q 1534 4250 1286 3958 
Q 1038 3666 1038 3163 
Q 1038 2656 1286 2365 
Q 1534 2075 1959 2075 
z
" transform="scale(0.015625)"/>
      </defs>
      <use xlink:href="#DejaVuSans-41"/>
      <use xlink:href="#DejaVuSans-55" x="68.408203"/>
      <use xlink:href="#DejaVuSans-43" x="141.601562"/>
      <use xlink:href="#DejaVuSans-20" x="211.425781"/>
      <use xlink:href="#DejaVuSans-3d" x="243.212891"/>
      <use xlink:href="#DejaVuSans-20" x="327.001953"/>
      <use xlink:href="#DejaVuSans-30" x="358.789062"/>
      <use xlink:href="#DejaVuSans-2e" x="422.412109"/>
      <use xlink:href="#DejaVuSans-37" x="454.199219"/>
      <use xlink:href="#DejaVuSans-30" x="517.822266"/>
      <use xlink:href="#DejaVuSans-39" x="581.445312"/>
      <use xlink:href="#DejaVuSans-32" x="645.068359"/>
      <use xlink:href="#DejaVuSans-30" x="708.691406"/>
     </g>
    </g>
   </g>
  </g>
 </g>
 <defs>
  <clipPath id="pc4e9418b41">
   <rect x="43.78125" y="22.318125" width="357.12" height="266.112"/>
  </clipPath>
 </defs>
</svg>
