<?xml version="1.0" encoding="utf-8" standalone="no"?>
<!DOCTYPE svg PUBLIC "-//W3C//DTD SVG 1.1//EN"
  "http://www.w3.org/Graphics/SVG/1.1/DTD/svg11.dtd">
<svg xmlns:xlink="http://www.w3.org/1999/xlink" width="408.10125pt" height="325.986375pt" viewBox="0 0 408.10125 325.986375" xmlns="http://www.w3.org/2000/svg" version="1.1">
 <metadata>
  <rdf:RDF xmlns:dc="http://purl.org/dc/elements/1.1/" xmlns:cc="http://creativecommons.org/ns#" xmlns:rdf="http://www.w3.org/1999/02/22-rdf-syntax-ns#">
   <cc:Work>
    <dc:type rdf:resource="http://purl.org/dc/dcmitype/StillImage"/>
    <dc:date>2024-03-10T11:00:14.804179</dc:date>
    <dc:format>image/svg+xml</dc:format>
    <dc:creator>
     <cc:Agent>
      <dc:title>Matplotlib v3.8.0, https://matplotlib.org/</dc:title>
     </cc:Agent>
    </dc:creator>
   </cc:Work>
  </rdf:RDF>
 </metadata>
 <defs>
  <style type="text/css">*{stroke-linejoin: round; stroke-linecap: butt}</style>
 </defs>
 <g id="figure_1">
  <g id="patch_1">
   <path d="M 0 325.986375 
L 408.10125 325.986375 
L 408.10125 0 
L 0 0 
L 0 325.986375 
z
" style="fill: none"/>
  </g>
  <g id="axes_1">
   <g id="patch_2">
    <path d="M 43.78125 288.430125 
L 400.90125 288.430125 
L 400.90125 22.318125 
L 43.78125 22.318125 
L 43.78125 288.430125 
z
" style="fill: none"/>
   </g>
   <g id="matplotlib.axis_1">
    <g id="xtick_1">
     <g id="line2d_1">
      <defs>
       <path id="m42827ad4e3" d="M 0 0 
L 0 3.5 
" style="stroke: #000000; stroke-width: 0.8"/>
      </defs>
      <g>
       <use xlink:href="#m42827ad4e3" x="60.013977" y="288.430125" style="stroke: #000000; stroke-width: 0.8"/>
      </g>
     </g>
     <g id="text_1">
      <!-- 0.0 -->
      <g transform="translate(52.062415 303.028562) scale(0.1 -0.1)">
       <defs>
        <path id="DejaVuSans-30" d="M 2034 4250 
Q 1547 4250 1301 3770 
Q 1056 3291 1056 2328 
Q 1056 1369 1301 889 
Q 1547 409 2034 409 
Q 2525 409 2770 889 
Q 3016 1369 3016 2328 
Q 3016 3291 2770 3770 
Q 2525 4250 2034 4250 
z
M 2034 4750 
Q 2819 4750 3233 4129 
Q 3647 3509 3647 2328 
Q 3647 1150 3233 529 
Q 2819 -91 2034 -91 
Q 1250 -91 836 529 
Q 422 1150 422 2328 
Q 422 3509 836 4129 
Q 1250 4750 2034 4750 
z
" transform="scale(0.015625)"/>
        <path id="DejaVuSans-2e" d="M 684 794 
L 1344 794 
L 1344 0 
L 684 0 
L 684 794 
z
" transform="scale(0.015625)"/>
       </defs>
       <use xlink:href="#DejaVuSans-30"/>
       <use xlink:href="#DejaVuSans-2e" x="63.623047"/>
       <use xlink:href="#DejaVuSans-30" x="95.410156"/>
      </g>
     </g>
    </g>
    <g id="xtick_2">
     <g id="line2d_2">
      <g>
       <use xlink:href="#m42827ad4e3" x="124.944886" y="288.430125" style="stroke: #000000; stroke-width: 0.8"/>
      </g>
     </g>
     <g id="text_2">
      <!-- 0.2 -->
      <g transform="translate(116.993324 303.028562) scale(0.1 -0.1)">
       <defs>
        <path id="DejaVuSans-32" d="M 1228 531 
L 3431 531 
L 3431 0 
L 469 0 
L 469 531 
Q 828 903 1448 1529 
Q 2069 2156 2228 2338 
Q 2531 2678 2651 2914 
Q 2772 3150 2772 3378 
Q 2772 3750 2511 3984 
Q 2250 4219 1831 4219 
Q 1534 4219 1204 4116 
Q 875 4013 500 3803 
L 500 4441 
Q 881 4594 1212 4672 
Q 1544 4750 1819 4750 
Q 2544 4750 2975 4387 
Q 3406 4025 3406 3419 
Q 3406 3131 3298 2873 
Q 3191 2616 2906 2266 
Q 2828 2175 2409 1742 
Q 1991 1309 1228 531 
z
" transform="scale(0.015625)"/>
       </defs>
       <use xlink:href="#DejaVuSans-30"/>
       <use xlink:href="#DejaVuSans-2e" x="63.623047"/>
       <use xlink:href="#DejaVuSans-32" x="95.410156"/>
      </g>
     </g>
    </g>
    <g id="xtick_3">
     <g id="line2d_3">
      <g>
       <use xlink:href="#m42827ad4e3" x="189.875795" y="288.430125" style="stroke: #000000; stroke-width: 0.8"/>
      </g>
     </g>
     <g id="text_3">
      <!-- 0.4 -->
      <g transform="translate(181.924233 303.028562) scale(0.1 -0.1)">
       <defs>
        <path id="DejaVuSans-34" d="M 2419 4116 
L 825 1625 
L 2419 1625 
L 2419 4116 
z
M 2253 4666 
L 3047 4666 
L 3047 1625 
L 3713 1625 
L 3713 1100 
L 3047 1100 
L 3047 0 
L 2419 0 
L 2419 1100 
L 313 1100 
L 313 1709 
L 2253 4666 
z
" transform="scale(0.015625)"/>
       </defs>
       <use xlink:href="#DejaVuSans-30"/>
       <use xlink:href="#DejaVuSans-2e" x="63.623047"/>
       <use xlink:href="#DejaVuSans-34" x="95.410156"/>
      </g>
     </g>
    </g>
    <g id="xtick_4">
     <g id="line2d_4">
      <g>
       <use xlink:href="#m42827ad4e3" x="254.806705" y="288.430125" style="stroke: #000000; stroke-width: 0.8"/>
      </g>
     </g>
     <g id="text_4">
      <!-- 0.6 -->
      <g transform="translate(246.855142 303.028562) scale(0.1 -0.1)">
       <defs>
        <path id="DejaVuSans-36" d="M 2113 2584 
Q 1688 2584 1439 2293 
Q 1191 2003 1191 1497 
Q 1191 994 1439 701 
Q 1688 409 2113 409 
Q 2538 409 2786 701 
Q 3034 994 3034 1497 
Q 3034 2003 2786 2293 
Q 2538 2584 2113 2584 
z
M 3366 4563 
L 3366 3988 
Q 3128 4100 2886 4159 
Q 2644 4219 2406 4219 
Q 1781 4219 1451 3797 
Q 1122 3375 1075 2522 
Q 1259 2794 1537 2939 
Q 1816 3084 2150 3084 
Q 2853 3084 3261 2657 
Q 3669 2231 3669 1497 
Q 3669 778 3244 343 
Q 2819 -91 2113 -91 
Q 1303 -91 875 529 
Q 447 1150 447 2328 
Q 447 3434 972 4092 
Q 1497 4750 2381 4750 
Q 2619 4750 2861 4703 
Q 3103 4656 3366 4563 
z
" transform="scale(0.015625)"/>
       </defs>
       <use xlink:href="#DejaVuSans-30"/>
       <use xlink:href="#DejaVuSans-2e" x="63.623047"/>
       <use xlink:href="#DejaVuSans-36" x="95.410156"/>
      </g>
     </g>
    </g>
    <g id="xtick_5">
     <g id="line2d_5">
      <g>
       <use xlink:href="#m42827ad4e3" x="319.737614" y="288.430125" style="stroke: #000000; stroke-width: 0.8"/>
      </g>
     </g>
     <g id="text_5">
      <!-- 0.8 -->
      <g transform="translate(311.786051 303.028562) scale(0.1 -0.1)">
       <defs>
        <path id="DejaVuSans-38" d="M 2034 2216 
Q 1584 2216 1326 1975 
Q 1069 1734 1069 1313 
Q 1069 891 1326 650 
Q 1584 409 2034 409 
Q 2484 409 2743 651 
Q 3003 894 3003 1313 
Q 3003 1734 2745 1975 
Q 2488 2216 2034 2216 
z
M 1403 2484 
Q 997 2584 770 2862 
Q 544 3141 544 3541 
Q 544 4100 942 4425 
Q 1341 4750 2034 4750 
Q 2731 4750 3128 4425 
Q 3525 4100 3525 3541 
Q 3525 3141 3298 2862 
Q 3072 2584 2669 2484 
Q 3125 2378 3379 2068 
Q 3634 1759 3634 1313 
Q 3634 634 3220 271 
Q 2806 -91 2034 -91 
Q 1263 -91 848 271 
Q 434 634 434 1313 
Q 434 1759 690 2068 
Q 947 2378 1403 2484 
z
M 1172 3481 
Q 1172 3119 1398 2916 
Q 1625 2713 2034 2713 
Q 2441 2713 2670 2916 
Q 2900 3119 2900 3481 
Q 2900 3844 2670 4047 
Q 2441 4250 2034 4250 
Q 1625 4250 1398 4047 
Q 1172 3844 1172 3481 
z
" transform="scale(0.015625)"/>
       </defs>
       <use xlink:href="#DejaVuSans-30"/>
       <use xlink:href="#DejaVuSans-2e" x="63.623047"/>
       <use xlink:href="#DejaVuSans-38" x="95.410156"/>
      </g>
     </g>
    </g>
    <g id="xtick_6">
     <g id="line2d_6">
      <g>
       <use xlink:href="#m42827ad4e3" x="384.668523" y="288.430125" style="stroke: #000000; stroke-width: 0.8"/>
      </g>
     </g>
     <g id="text_6">
      <!-- 1.0 -->
      <g transform="translate(376.71696 303.028562) scale(0.1 -0.1)">
       <defs>
        <path id="DejaVuSans-31" d="M 794 531 
L 1825 531 
L 1825 4091 
L 703 3866 
L 703 4441 
L 1819 4666 
L 2450 4666 
L 2450 531 
L 3481 531 
L 3481 0 
L 794 0 
L 794 531 
z
" transform="scale(0.015625)"/>
       </defs>
       <use xlink:href="#DejaVuSans-31"/>
       <use xlink:href="#DejaVuSans-2e" x="63.623047"/>
       <use xlink:href="#DejaVuSans-30" x="95.410156"/>
      </g>
     </g>
    </g>
    <g id="text_7">
     <!-- False positive rate -->
     <g transform="translate(176.840469 316.706687) scale(0.1 -0.1)">
      <defs>
       <path id="DejaVuSans-46" d="M 628 4666 
L 3309 4666 
L 3309 4134 
L 1259 4134 
L 1259 2759 
L 3109 2759 
L 3109 2228 
L 1259 2228 
L 1259 0 
L 628 0 
L 628 4666 
z
" transform="scale(0.015625)"/>
       <path id="DejaVuSans-61" d="M 2194 1759 
Q 1497 1759 1228 1600 
Q 959 1441 959 1056 
Q 959 750 1161 570 
Q 1363 391 1709 391 
Q 2188 391 2477 730 
Q 2766 1069 2766 1631 
L 2766 1759 
L 2194 1759 
z
M 3341 1997 
L 3341 0 
L 2766 0 
L 2766 531 
Q 2569 213 2275 61 
Q 1981 -91 1556 -91 
Q 1019 -91 701 211 
Q 384 513 384 1019 
Q 384 1609 779 1909 
Q 1175 2209 1959 2209 
L 2766 2209 
L 2766 2266 
Q 2766 2663 2505 2880 
Q 2244 3097 1772 3097 
Q 1472 3097 1187 3025 
Q 903 2953 641 2809 
L 641 3341 
Q 956 3463 1253 3523 
Q 1550 3584 1831 3584 
Q 2591 3584 2966 3190 
Q 3341 2797 3341 1997 
z
" transform="scale(0.015625)"/>
       <path id="DejaVuSans-6c" d="M 603 4863 
L 1178 4863 
L 1178 0 
L 603 0 
L 603 4863 
z
" transform="scale(0.015625)"/>
       <path id="DejaVuSans-73" d="M 2834 3397 
L 2834 2853 
Q 2591 2978 2328 3040 
Q 2066 3103 1784 3103 
Q 1356 3103 1142 2972 
Q 928 2841 928 2578 
Q 928 2378 1081 2264 
Q 1234 2150 1697 2047 
L 1894 2003 
Q 2506 1872 2764 1633 
Q 3022 1394 3022 966 
Q 3022 478 2636 193 
Q 2250 -91 1575 -91 
Q 1294 -91 989 -36 
Q 684 19 347 128 
L 347 722 
Q 666 556 975 473 
Q 1284 391 1588 391 
Q 1994 391 2212 530 
Q 2431 669 2431 922 
Q 2431 1156 2273 1281 
Q 2116 1406 1581 1522 
L 1381 1569 
Q 847 1681 609 1914 
Q 372 2147 372 2553 
Q 372 3047 722 3315 
Q 1072 3584 1716 3584 
Q 2034 3584 2315 3537 
Q 2597 3491 2834 3397 
z
" transform="scale(0.015625)"/>
       <path id="DejaVuSans-65" d="M 3597 1894 
L 3597 1613 
L 953 1613 
Q 991 1019 1311 708 
Q 1631 397 2203 397 
Q 2534 397 2845 478 
Q 3156 559 3463 722 
L 3463 178 
Q 3153 47 2828 -22 
Q 2503 -91 2169 -91 
Q 1331 -91 842 396 
Q 353 884 353 1716 
Q 353 2575 817 3079 
Q 1281 3584 2069 3584 
Q 2775 3584 3186 3129 
Q 3597 2675 3597 1894 
z
M 3022 2063 
Q 3016 2534 2758 2815 
Q 2500 3097 2075 3097 
Q 1594 3097 1305 2825 
Q 1016 2553 972 2059 
L 3022 2063 
z
" transform="scale(0.015625)"/>
       <path id="DejaVuSans-20" transform="scale(0.015625)"/>
       <path id="DejaVuSans-70" d="M 1159 525 
L 1159 -1331 
L 581 -1331 
L 581 3500 
L 1159 3500 
L 1159 2969 
Q 1341 3281 1617 3432 
Q 1894 3584 2278 3584 
Q 2916 3584 3314 3078 
Q 3713 2572 3713 1747 
Q 3713 922 3314 415 
Q 2916 -91 2278 -91 
Q 1894 -91 1617 61 
Q 1341 213 1159 525 
z
M 3116 1747 
Q 3116 2381 2855 2742 
Q 2594 3103 2138 3103 
Q 1681 3103 1420 2742 
Q 1159 2381 1159 1747 
Q 1159 1113 1420 752 
Q 1681 391 2138 391 
Q 2594 391 2855 752 
Q 3116 1113 3116 1747 
z
" transform="scale(0.015625)"/>
       <path id="DejaVuSans-6f" d="M 1959 3097 
Q 1497 3097 1228 2736 
Q 959 2375 959 1747 
Q 959 1119 1226 758 
Q 1494 397 1959 397 
Q 2419 397 2687 759 
Q 2956 1122 2956 1747 
Q 2956 2369 2687 2733 
Q 2419 3097 1959 3097 
z
M 1959 3584 
Q 2709 3584 3137 3096 
Q 3566 2609 3566 1747 
Q 3566 888 3137 398 
Q 2709 -91 1959 -91 
Q 1206 -91 779 398 
Q 353 888 353 1747 
Q 353 2609 779 3096 
Q 1206 3584 1959 3584 
z
" transform="scale(0.015625)"/>
       <path id="DejaVuSans-69" d="M 603 3500 
L 1178 3500 
L 1178 0 
L 603 0 
L 603 3500 
z
M 603 4863 
L 1178 4863 
L 1178 4134 
L 603 4134 
L 603 4863 
z
" transform="scale(0.015625)"/>
       <path id="DejaVuSans-74" d="M 1172 4494 
L 1172 3500 
L 2356 3500 
L 2356 3053 
L 1172 3053 
L 1172 1153 
Q 1172 725 1289 603 
Q 1406 481 1766 481 
L 2356 481 
L 2356 0 
L 1766 0 
Q 1100 0 847 248 
Q 594 497 594 1153 
L 594 3053 
L 172 3053 
L 172 3500 
L 594 3500 
L 594 4494 
L 1172 4494 
z
" transform="scale(0.015625)"/>
       <path id="DejaVuSans-76" d="M 191 3500 
L 800 3500 
L 1894 563 
L 2988 3500 
L 3597 3500 
L 2284 0 
L 1503 0 
L 191 3500 
z
" transform="scale(0.015625)"/>
       <path id="DejaVuSans-72" d="M 2631 2963 
Q 2534 3019 2420 3045 
Q 2306 3072 2169 3072 
Q 1681 3072 1420 2755 
Q 1159 2438 1159 1844 
L 1159 0 
L 581 0 
L 581 3500 
L 1159 3500 
L 1159 2956 
Q 1341 3275 1631 3429 
Q 1922 3584 2338 3584 
Q 2397 3584 2469 3576 
Q 2541 3569 2628 3553 
L 2631 2963 
z
" transform="scale(0.015625)"/>
      </defs>
      <use xlink:href="#DejaVuSans-46"/>
      <use xlink:href="#DejaVuSans-61" x="48.394531"/>
      <use xlink:href="#DejaVuSans-6c" x="109.673828"/>
      <use xlink:href="#DejaVuSans-73" x="137.457031"/>
      <use xlink:href="#DejaVuSans-65" x="189.556641"/>
      <use xlink:href="#DejaVuSans-20" x="251.080078"/>
      <use xlink:href="#DejaVuSans-70" x="282.867188"/>
      <use xlink:href="#DejaVuSans-6f" x="346.34375"/>
      <use xlink:href="#DejaVuSans-73" x="407.525391"/>
      <use xlink:href="#DejaVuSans-69" x="459.625"/>
      <use xlink:href="#DejaVuSans-74" x="487.408203"/>
      <use xlink:href="#DejaVuSans-69" x="526.617188"/>
      <use xlink:href="#DejaVuSans-76" x="554.400391"/>
      <use xlink:href="#DejaVuSans-65" x="613.580078"/>
      <use xlink:href="#DejaVuSans-20" x="675.103516"/>
      <use xlink:href="#DejaVuSans-72" x="706.890625"/>
      <use xlink:href="#DejaVuSans-61" x="748.003906"/>
      <use xlink:href="#DejaVuSans-74" x="809.283203"/>
      <use xlink:href="#DejaVuSans-65" x="848.492188"/>
     </g>
    </g>
   </g>
   <g id="matplotlib.axis_2">
    <g id="ytick_1">
     <g id="line2d_7">
      <defs>
       <path id="mc7034f24fb" d="M 0 0 
L -3.5 0 
" style="stroke: #000000; stroke-width: 0.8"/>
      </defs>
      <g>
       <use xlink:href="#mc7034f24fb" x="43.78125" y="276.334125" style="stroke: #000000; stroke-width: 0.8"/>
      </g>
     </g>
     <g id="text_8">
      <!-- 0.0 -->
      <g transform="translate(20.878125 280.133344) scale(0.1 -0.1)">
       <use xlink:href="#DejaVuSans-30"/>
       <use xlink:href="#DejaVuSans-2e" x="63.623047"/>
       <use xlink:href="#DejaVuSans-30" x="95.410156"/>
      </g>
     </g>
    </g>
    <g id="ytick_2">
     <g id="line2d_8">
      <g>
       <use xlink:href="#mc7034f24fb" x="43.78125" y="227.950125" style="stroke: #000000; stroke-width: 0.8"/>
      </g>
     </g>
     <g id="text_9">
      <!-- 0.2 -->
      <g transform="translate(20.878125 231.749344) scale(0.1 -0.1)">
       <use xlink:href="#DejaVuSans-30"/>
       <use xlink:href="#DejaVuSans-2e" x="63.623047"/>
       <use xlink:href="#DejaVuSans-32" x="95.410156"/>
      </g>
     </g>
    </g>
    <g id="ytick_3">
     <g id="line2d_9">
      <g>
       <use xlink:href="#mc7034f24fb" x="43.78125" y="179.566125" style="stroke: #000000; stroke-width: 0.8"/>
      </g>
     </g>
     <g id="text_10">
      <!-- 0.4 -->
      <g transform="translate(20.878125 183.365344) scale(0.1 -0.1)">
       <use xlink:href="#DejaVuSans-30"/>
       <use xlink:href="#DejaVuSans-2e" x="63.623047"/>
       <use xlink:href="#DejaVuSans-34" x="95.410156"/>
      </g>
     </g>
    </g>
    <g id="ytick_4">
     <g id="line2d_10">
      <g>
       <use xlink:href="#mc7034f24fb" x="43.78125" y="131.182125" style="stroke: #000000; stroke-width: 0.8"/>
      </g>
     </g>
     <g id="text_11">
      <!-- 0.6 -->
      <g transform="translate(20.878125 134.981344) scale(0.1 -0.1)">
       <use xlink:href="#DejaVuSans-30"/>
       <use xlink:href="#DejaVuSans-2e" x="63.623047"/>
       <use xlink:href="#DejaVuSans-36" x="95.410156"/>
      </g>
     </g>
    </g>
    <g id="ytick_5">
     <g id="line2d_11">
      <g>
       <use xlink:href="#mc7034f24fb" x="43.78125" y="82.798125" style="stroke: #000000; stroke-width: 0.8"/>
      </g>
     </g>
     <g id="text_12">
      <!-- 0.8 -->
      <g transform="translate(20.878125 86.597344) scale(0.1 -0.1)">
       <use xlink:href="#DejaVuSans-30"/>
       <use xlink:href="#DejaVuSans-2e" x="63.623047"/>
       <use xlink:href="#DejaVuSans-38" x="95.410156"/>
      </g>
     </g>
    </g>
    <g id="ytick_6">
     <g id="line2d_12">
      <g>
       <use xlink:href="#mc7034f24fb" x="43.78125" y="34.414125" style="stroke: #000000; stroke-width: 0.8"/>
      </g>
     </g>
     <g id="text_13">
      <!-- 1.0 -->
      <g transform="translate(20.878125 38.213344) scale(0.1 -0.1)">
       <use xlink:href="#DejaVuSans-31"/>
       <use xlink:href="#DejaVuSans-2e" x="63.623047"/>
       <use xlink:href="#DejaVuSans-30" x="95.410156"/>
      </g>
     </g>
    </g>
    <g id="text_14">
     <!-- True positive rate -->
     <g transform="translate(14.798438 198.938187) rotate(-90) scale(0.1 -0.1)">
      <defs>
       <path id="DejaVuSans-54" d="M -19 4666 
L 3928 4666 
L 3928 4134 
L 2272 4134 
L 2272 0 
L 1638 0 
L 1638 4134 
L -19 4134 
L -19 4666 
z
" transform="scale(0.015625)"/>
       <path id="DejaVuSans-75" d="M 544 1381 
L 544 3500 
L 1119 3500 
L 1119 1403 
Q 1119 906 1312 657 
Q 1506 409 1894 409 
Q 2359 409 2629 706 
Q 2900 1003 2900 1516 
L 2900 3500 
L 3475 3500 
L 3475 0 
L 2900 0 
L 2900 538 
Q 2691 219 2414 64 
Q 2138 -91 1772 -91 
Q 1169 -91 856 284 
Q 544 659 544 1381 
z
M 1991 3584 
L 1991 3584 
z
" transform="scale(0.015625)"/>
      </defs>
      <use xlink:href="#DejaVuSans-54"/>
      <use xlink:href="#DejaVuSans-72" x="46.333984"/>
      <use xlink:href="#DejaVuSans-75" x="87.447266"/>
      <use xlink:href="#DejaVuSans-65" x="150.826172"/>
      <use xlink:href="#DejaVuSans-20" x="212.349609"/>
      <use xlink:href="#DejaVuSans-70" x="244.136719"/>
      <use xlink:href="#DejaVuSans-6f" x="307.613281"/>
      <use xlink:href="#DejaVuSans-73" x="368.794922"/>
      <use xlink:href="#DejaVuSans-69" x="420.894531"/>
      <use xlink:href="#DejaVuSans-74" x="448.677734"/>
      <use xlink:href="#DejaVuSans-69" x="487.886719"/>
      <use xlink:href="#DejaVuSans-76" x="515.669922"/>
      <use xlink:href="#DejaVuSans-65" x="574.849609"/>
      <use xlink:href="#DejaVuSans-20" x="636.373047"/>
      <use xlink:href="#DejaVuSans-72" x="668.160156"/>
      <use xlink:href="#DejaVuSans-61" x="709.273438"/>
      <use xlink:href="#DejaVuSans-74" x="770.552734"/>
      <use xlink:href="#DejaVuSans-65" x="809.761719"/>
     </g>
    </g>
   </g>
   <g id="line2d_13">
    <path d="M 60.013977 276.334125 
L 60.169358 275.773775 
L 61.066327 273.325931 
L 61.135777 273.156351 
L 62.131625 270.826476 
L 62.242274 270.502062 
L 62.282297 270.391467 
L 62.391769 270.122352 
L 62.542441 269.750014 
L 62.574224 269.639419 
L 62.684873 269.315005 
L 62.895579 268.688298 
L 62.955612 268.588763 
L 63.133358 268.175873 
L 63.355835 267.630269 
L 63.506506 267.125217 
L 63.565363 267.014622 
L 63.674835 266.789745 
L 64.059755 265.94922 
L 64.10684 265.842311 
L 64.273992 265.484719 
L 64.407007 265.193485 
L 64.510594 265.001786 
L 64.517657 265.001786 
L 64.56121 264.891191 
L 64.747196 264.423004 
L 64.786041 264.316095 
L 64.948484 263.995368 
L 64.989684 263.888459 
L 64.989684 263.884773 
L 65.415803 262.91522 
L 65.851339 262.030457 
L 65.961989 261.790834 
L 66.013782 261.683925 
L 66.123255 261.436929 
L 66.183288 261.326333 
L 66.291584 261.057218 
L 66.293938 261.057218 
L 66.383399 260.946622 
L 66.488164 260.743864 
L 66.492872 260.743864 
L 66.562322 260.633269 
L 66.671795 260.386273 
L 66.731828 260.286737 
L 66.731828 260.279364 
L 66.842478 260.0508 
L 66.900157 259.940205 
L 67.276837 259.114426 
L 67.348642 259.007517 
L 67.678237 258.336572 
L 67.737093 258.225976 
L 67.846566 257.96792 
L 68.150264 257.378078 
L 68.191463 257.27117 
L 68.539892 256.544927 
L 68.595217 256.434331 
L 69.018982 255.568001 
L 69.180248 255.258334 
L 69.229687 255.147739 
L 69.337983 254.915488 
L 69.340337 254.915488 
L 69.407433 254.804893 
L 69.515728 254.598448 
L 69.518083 254.598448 
L 69.58047 254.487853 
L 69.69112 254.285095 
L 69.753508 254.174499 
L 69.864157 254.00492 
L 69.90418 253.894324 
L 70.013652 253.68788 
L 70.078394 253.577284 
L 70.18669 253.356094 
L 70.249077 253.249185 
L 70.359727 253.046426 
L 70.398572 252.935831 
L 70.504513 252.740446 
L 70.556307 252.633537 
L 70.664602 252.427092 
L 70.666957 252.427092 
L 70.737584 252.316497 
L 70.848234 252.139544 
L 71.137806 251.590254 
L 71.228445 251.494405 
L 71.228445 251.487032 
L 71.339095 251.276901 
L 71.385003 251.166305 
L 71.495652 250.908249 
L 71.567457 250.797654 
L 71.67693 250.517479 
L 71.678107 250.517479 
L 71.749911 250.41057 
L 71.749911 250.406884 
L 72.025359 249.909204 
L 72.072444 249.805982 
L 72.072444 249.802296 
L 72.221938 249.562672 
L 72.257252 249.452077 
L 72.556242 248.880668 
L 72.633932 248.777445 
L 72.744582 248.519389 
L 73.009435 248.051202 
L 73.091834 247.940607 
L 73.198952 247.737849 
L 73.284882 247.627253 
L 73.676865 246.760923 
L 73.748669 246.650328 
L 74.571479 245.15729 
L 74.676244 245.002457 
L 74.739808 244.891861 
L 74.849281 244.689103 
L 74.92344 244.585881 
L 75.032912 244.416301 
L 75.034089 244.416301 
L 75.101186 244.305706 
L 75.351913 243.881757 
L 75.423718 243.771161 
L 75.527305 243.557344 
L 75.534367 243.557344 
L 75.583807 243.457808 
L 75.686217 243.266109 
L 75.690925 243.266109 
L 75.734479 243.155514 
L 76.061719 242.488255 
L 76.145295 242.381346 
L 76.252414 242.182275 
L 76.343052 242.075366 
L 76.453702 241.828369 
L 76.523152 241.717774 
L 76.633802 241.50027 
L 76.693835 241.389674 
L 76.802131 241.231154 
L 76.803308 241.231154 
L 78.138167 238.938144 
L 78.24764 238.753818 
L 78.346519 238.643223 
L 79.441245 236.726236 
L 79.548363 236.593522 
L 79.551894 236.593522 
L 79.614282 236.482926 
L 79.7214 236.383391 
L 79.722577 236.383391 
L 79.793205 236.272795 
L 79.899146 236.073724 
L 79.962711 235.963128 
L 80.071006 235.823041 
L 80.152228 235.712445 
L 80.366465 235.395405 
L 80.420612 235.288496 
L 80.420612 235.28481 
L 80.596004 235.093111 
L 80.672517 234.982516 
L 80.783167 234.772385 
L 80.857326 234.661789 
L 80.967975 234.425853 
L 81.026832 234.318944 
L 81.126887 234.156737 
L 81.130419 234.156737 
L 81.21988 234.046142 
L 81.325821 233.872876 
L 81.33053 233.872876 
L 81.392918 233.76228 
L 81.503567 233.552149 
L 81.57184 233.441554 
L 81.681313 233.249855 
L 81.894373 232.936502 
L 81.957937 232.825906 
L 82.068587 232.608402 
L 82.162757 232.50518 
L 82.265167 232.331914 
L 82.27223 232.331914 
L 82.34992 232.232378 
L 82.46057 232.025933 
L 82.547677 231.915338 
L 82.658327 231.727326 
L 82.711297 231.61673 
L 82.947899 231.237019 
L 83.043246 231.126424 
L 83.153896 230.931039 
L 83.248066 230.820444 
L 83.35283 230.639804 
L 83.450532 230.529209 
L 83.548233 230.370689 
L 83.560004 230.370689 
L 83.634163 230.26378 
L 83.743636 230.101574 
L 83.826034 229.990978 
L 84.09795 229.48224 
L 84.19212 229.371644 
L 84.30277 229.14308 
L 84.359272 229.032485 
L 84.468745 228.840786 
L 84.544081 228.730191 
L 84.652376 228.542179 
L 84.702992 228.431584 
L 84.811288 228.217766 
L 84.868967 228.10717 
L 84.97844 227.978142 
L 85.049067 227.867547 
L 85.156185 227.686908 
L 85.207979 227.576313 
L 85.311566 227.39936 
L 85.317452 227.39936 
L 85.393965 227.288765 
L 85.504614 227.163423 
L 85.598784 227.052828 
L 85.704726 226.857443 
L 85.709434 226.857443 
L 85.795364 226.757907 
L 85.904837 226.518284 
L 85.987236 226.407688 
L 86.092 226.267601 
L 86.157919 226.160692 
L 86.268568 225.965307 
L 86.336842 225.854711 
L 86.445137 225.674072 
L 86.518119 225.567163 
L 86.628769 225.40127 
L 86.708813 225.290675 
L 86.819463 225.128468 
L 86.895976 225.017873 
L 87.006626 224.892532 
L 87.2138 224.590238 
L 87.306792 224.479642 
L 87.417442 224.287944 
L 87.517498 224.177348 
L 87.628147 223.945098 
L 87.708192 223.834503 
L 87.818842 223.690729 
L 87.907126 223.580133 
L 88.116654 223.281526 
L 88.193167 223.17093 
L 88.303817 222.960799 
L 88.423884 222.850204 
L 88.531002 222.691684 
L 88.583973 222.584775 
L 88.689914 222.407822 
L 88.772313 222.297227 
L 88.882962 222.090782 
L 88.96183 221.98756 
L 88.96183 221.980187 
L 89.205495 221.582044 
L 89.296133 221.475135 
L 89.400897 221.327674 
L 89.478588 221.217079 
L 89.58806 221.010634 
L 89.677522 220.900039 
L 89.78464 220.7194 
L 89.788171 220.7194 
L 89.86233 220.608804 
L 89.971803 220.398673 
L 90.076567 220.288078 
L 90.18604 220.133244 
L 90.257844 220.022649 
L 90.368494 219.801458 
L 90.445007 219.690863 
L 90.555657 219.554462 
L 90.608627 219.443866 
L 90.719277 219.255854 
L 90.794613 219.145259 
L 90.904086 218.946187 
L 90.988839 218.835592 
L 91.216024 218.481687 
L 91.281943 218.371091 
L 91.391415 218.223631 
L 91.472637 218.116722 
L 91.580932 217.943456 
L 91.666863 217.832861 
L 91.777512 217.6854 
L 91.877568 217.574805 
L 91.988218 217.45315 
L 92.12241 217.342554 
L 92.231882 217.184034 
L 92.322521 217.080812 
L 92.433171 216.896486 
L 92.509684 216.785891 
L 92.619157 216.561014 
L 92.707441 216.450418 
L 92.816913 216.277152 
L 92.892249 216.177616 
L 92.892249 216.170243 
L 93.002899 216.019096 
L 93.073527 215.908501 
L 93.178291 215.7721 
L 93.180645 215.7721 
L 93.270107 215.668878 
L 93.379579 215.52879 
L 93.437258 215.429254 
L 93.437258 215.418195 
L 93.649141 215.112214 
L 93.722122 215.008992 
L 93.722122 215.001619 
L 93.961079 214.610849 
L 94.049363 214.500253 
L 94.160013 214.319614 
L 94.251829 214.209019 
L 94.362478 214.006261 
L 94.436637 213.899352 
L 94.542578 213.77401 
L 94.547287 213.77401 
L 94.733273 213.556506 
L 94.782712 213.445911 
L 94.887476 213.316883 
L 94.893362 213.316883 
L 95.066399 213.128871 
L 95.166455 213.018275 
L 95.275927 212.852382 
L 95.364212 212.74916 
L 95.47133 212.557461 
L 95.545489 212.446866 
L 95.647899 212.306778 
L 95.650253 212.306778 
L 95.719703 212.19987 
L 95.829176 212.067155 
L 95.899803 211.95656 
L 96.006922 211.838591 
L 96.094029 211.727996 
L 96.203501 211.587909 
L 96.301203 211.477313 
L 96.409498 211.318793 
L 96.521325 211.208198 
L 96.622558 211.057051 
L 96.712019 210.946455 
L 96.822669 210.769503 
L 96.92037 210.658907 
L 97.135784 210.334494 
L 97.232309 210.223899 
L 97.342958 210.083812 
L 97.401815 209.973216 
L 97.51011 209.79995 
L 97.592509 209.693041 
L 97.700804 209.519775 
L 97.793797 209.40918 
L 97.891498 209.294898 
L 97.985668 209.184303 
L 98.09161 209.018409 
L 98.204614 208.907814 
L 98.315263 208.752981 
L 98.411788 208.649758 
L 98.505958 208.480179 
L 98.616607 208.369583 
L 98.727257 208.163139 
L 98.823781 208.052543 
L 98.933254 207.875591 
L 99.005058 207.764995 
L 99.109823 207.632281 
L 99.201638 207.521685 
L 99.312288 207.388971 
L 99.388801 207.278376 
L 99.6513 206.813875 
L 99.724282 206.70328 
L 99.827869 206.522641 
L 99.912622 206.419418 
L 100.022094 206.246152 
L 100.076242 206.135557 
L 100.186892 205.943858 
L 100.244571 205.840636 
L 100.350512 205.659997 
L 100.417608 205.553088 
L 100.524727 205.420373 
L 100.527081 205.420373 
L 100.618897 205.309778 
L 100.724838 205.143885 
L 100.808414 205.040663 
L 100.915532 204.871083 
L 100.983805 204.760488 
L 101.094455 204.601968 
L 101.188625 204.491372 
L 101.299275 204.30336 
L 101.413456 204.200138 
L 101.524105 204.052677 
L 101.618275 203.942082 
L 101.727748 203.820427 
L 101.833689 203.717205 
L 101.944339 203.577117 
L 102.043218 203.473895 
L 102.15269 203.311688 
L 102.23038 203.201093 
L 102.34103 203.049946 
L 102.396355 202.946724 
L 102.502296 202.80295 
L 102.507005 202.80295 
L 102.571747 202.692354 
L 102.677688 202.552267 
L 102.757732 202.441671 
L 102.867205 202.320017 
L 102.979032 202.209421 
L 103.084973 202.039842 
L 103.20504 201.932933 
L 103.314512 201.789159 
L 103.422808 201.678563 
L 103.53228 201.494238 
L 103.629982 201.383642 
L 103.734746 201.254614 
L 103.787716 201.144019 
L 103.896012 200.981813 
L 104.012547 200.871217 
L 104.123197 200.756935 
L 104.231492 200.64634 
L 104.340965 200.469387 
L 104.450438 200.358792 
L 104.557556 200.237137 
L 104.636423 200.130228 
L 104.743542 200.023319 
L 104.847129 199.91641 
L 104.955424 199.739458 
L 105.035469 199.632549 
L 105.142587 199.5367 
L 105.232049 199.429791 
L 105.341521 199.330255 
L 105.428628 199.21966 
L 105.538101 199.06114 
L 105.644042 198.950544 
L 105.753515 198.828889 
L 105.826497 198.718294 
L 106.00542 198.460238 
L 106.110184 198.349643 
L 106.219656 198.198496 
L 106.315003 198.0879 
L 106.417413 197.851964 
L 106.50452 197.741368 
L 106.668141 197.579162 
L 106.823521 197.468566 
L 106.927108 197.346911 
L 107.011861 197.236316 
L 107.122511 197.103602 
L 107.215504 197.000379 
L 107.326154 196.786561 
L 107.434449 196.675966 
L 107.54039 196.517446 
L 107.619258 196.406851 
L 107.725199 196.240958 
L 107.729907 196.240958 
L 107.826432 196.130362 
L 107.937081 196.012394 
L 108.047731 195.905485 
L 108.156026 195.758025 
L 108.264322 195.647429 
L 108.372617 195.570012 
L 108.497393 195.459417 
L 108.603334 195.356195 
L 108.606865 195.356195 
L 108.706921 195.245599 
L 108.815216 195.109198 
L 108.931752 194.998603 
L 109.036516 194.854829 
L 109.03887 194.854829 
L 109.109498 194.744234 
L 109.220147 194.607833 
L 109.307255 194.497237 
L 109.414373 194.338717 
L 109.525023 194.228122 
L 109.633318 194.102781 
L 109.726311 193.995872 
L 109.831075 193.866844 
L 109.946433 193.756248 
L 110.053552 193.616161 
L 110.130065 193.505566 
L 110.231297 193.39497 
L 110.23836 193.39497 
L 110.298394 193.284375 
L 110.403158 193.133228 
L 110.496151 193.022632 
L 110.604446 192.937843 
L 110.671542 192.827247 
L 110.773952 192.731398 
L 110.865768 192.620803 
L 111.101193 192.230032 
L 111.233031 192.119437 
L 111.430788 191.857694 
L 111.534375 191.747099 
L 111.641493 191.64019 
L 111.723892 191.529595 
L 111.829833 191.400567 
L 111.903992 191.289972 
L 112.014642 191.160944 
L 112.101749 191.050348 
L 112.212398 190.943439 
L 112.279495 190.840217 
L 112.390144 190.674324 
L 112.49844 190.563729 
L 112.60909 190.419955 
L 112.704437 190.309359 
L 112.802138 190.191391 
L 112.815086 190.191391 
L 112.908079 190.080796 
L 113.099951 189.844859 
L 113.203538 189.73795 
L 113.311833 189.575743 
L 113.403649 189.472521 
L 113.513121 189.34718 
L 113.610823 189.236584 
L 113.721472 189.144421 
L 113.823882 189.037513 
L 113.933355 188.912171 
L 114.013399 188.801576 
L 114.120518 188.679921 
L 114.22175 188.569325 
L 114.327692 188.466103 
L 114.407736 188.355508 
L 114.518386 188.237539 
L 114.625504 188.126944 
L 114.730268 187.949991 
L 114.832678 187.843083 
L 114.942151 187.706682 
L 115.035144 187.596086 
L 115.142262 187.481804 
L 115.259975 187.374895 
L 115.364739 187.256927 
L 115.441252 187.153705 
L 115.550724 187.006244 
L 115.653134 186.895649 
L 115.762607 186.770307 
L 115.850891 186.663399 
L 115.956832 186.508565 
L 116.049825 186.401656 
L 116.158121 186.206271 
L 116.282896 186.099362 
L 116.390014 185.98508 
L 116.393546 185.98508 
L 116.528915 185.874485 
L 116.692535 185.701219 
L 116.806716 185.590623 
L 116.910303 185.406298 
L 117.003296 185.295702 
L 117.113946 185.170361 
L 117.185751 185.063452 
L 117.295223 184.94917 
L 117.372914 184.838575 
L 117.481209 184.694801 
L 117.582442 184.584206 
L 117.693091 184.455178 
L 117.79197 184.344582 
L 117.90262 184.200808 
L 117.960299 184.090213 
L 118.070949 183.957499 
L 118.206318 183.846903 
L 118.311082 183.736308 
L 118.313436 183.736308 
L 118.411138 183.633085 
L 118.515902 183.500371 
L 118.61478 183.389776 
L 118.724253 183.246002 
L 118.843142 183.135406 
L 118.951438 182.9732 
L 119.058556 182.87735 
L 119.16332 182.711457 
L 119.279856 182.600862 
L 119.38462 182.49764 
L 119.52352 182.387044 
L 119.632993 182.265389 
L 119.697735 182.15848 
L 119.808385 181.996274 
L 119.943754 181.885679 
L 120.048518 181.756651 
L 120.179179 181.646055 
L 120.289829 181.513341 
L 120.392239 181.406432 
L 120.49818 181.288464 
L 120.630018 181.181555 
L 120.731251 181.085705 
L 120.847786 180.978797 
L 120.947841 180.871888 
L 121.056137 180.761292 
L 121.164432 180.676503 
L 121.270374 180.569594 
L 121.381023 180.440566 
L 121.469308 180.32997 
L 121.579957 180.193569 
L 121.694139 180.082974 
L 121.795371 179.928141 
L 121.862467 179.817545 
L 121.962523 179.725382 
L 122.04139 179.62216 
L 122.04139 179.614787 
L 122.212073 179.434148 
L 122.309775 179.323552 
L 122.419247 179.194525 
L 122.5452 179.083929 
L 122.652318 178.969647 
L 122.767676 178.859052 
L 122.878326 178.704218 
L 122.959548 178.604683 
L 123.064312 178.43879 
L 123.197327 178.331881 
L 123.3068 178.236031 
L 123.412741 178.129122 
L 123.502202 178.048019 
L 123.629332 177.937424 
L 123.725856 177.801023 
L 123.870642 177.690428 
L 123.970698 177.539281 
L 124.116661 177.428685 
L 124.227311 177.281225 
L 124.339138 177.170629 
L 124.449788 177.071093 
L 124.563969 176.960498 
L 124.758194 176.709815 
L 124.862958 176.59922 
L 124.972431 176.484938 
L 125.104269 176.374343 
L 125.211387 176.241628 
L 125.317329 176.131033 
L 125.41503 175.983572 
L 125.538628 175.876663 
L 125.648101 175.714457 
L 125.711665 175.603862 
L 125.814075 175.460088 
L 125.937673 175.356865 
L 126.045969 175.209405 
L 126.12719 175.102496 
L 126.234309 174.955035 
L 126.236663 174.955035 
L 126.359084 174.84444 
L 126.457963 174.730158 
L 126.570967 174.619563 
L 126.678085 174.483162 
L 126.801683 174.372566 
L 126.908801 174.217733 
L 127.034754 174.107138 
L 127.138341 173.996542 
L 127.278419 173.885947 
L 127.380828 173.731113 
L 127.499718 173.624204 
L 127.610368 173.465684 
L 127.688058 173.355089 
L 127.795176 173.207628 
L 127.798708 173.207628 
L 127.971745 173.023303 
L 128.069446 172.912708 
L 128.180096 172.816858 
L 128.307226 172.709949 
L 128.417875 172.562489 
L 128.513222 172.451893 
L 128.620341 172.352358 
L 128.719219 172.241762 
L 128.826338 172.120107 
L 128.962884 172.009512 
L 129.066471 171.862051 
L 129.2348 171.751456 
L 129.330147 171.629801 
L 129.447859 171.519206 
L 129.558509 171.390178 
L 129.642085 171.279583 
L 129.750381 171.135809 
L 129.849259 171.025213 
L 129.959909 170.863007 
L 130.032891 170.756098 
L 130.141186 170.61601 
L 130.284795 170.509101 
L 130.393091 170.3727 
L 130.493146 170.262105 
L 130.59791 170.114645 
L 130.739165 170.004049 
L 130.847461 169.904513 
L 130.942808 169.793918 
L 131.045218 169.631712 
L 131.160576 169.521116 
L 131.261809 169.384715 
L 131.338322 169.27412 
L 131.448972 169.130346 
L 131.559621 169.01975 
L 131.66674 168.931274 
L 131.772681 168.824365 
L 131.883331 168.684278 
L 131.999866 168.577369 
L 132.108161 168.444655 
L 132.110516 168.444655 
L 132.212926 168.334059 
L 132.322398 168.216091 
L 132.417745 168.105495 
L 132.602554 167.876932 
L 132.679067 167.770023 
L 132.782654 167.644681 
L 132.893304 167.534086 
L 133.000422 167.405058 
L 133.129906 167.294463 
L 133.314714 167.062212 
L 133.447729 166.951617 
L 133.556025 166.855768 
L 133.605464 166.756232 
L 133.716114 166.638263 
L 133.862077 166.527668 
L 133.97155 166.406013 
L 134.117513 166.295418 
L 134.225809 166.203255 
L 134.31527 166.09266 
L 134.423566 165.948886 
L 134.523622 165.841977 
L 134.633094 165.716635 
L 134.728441 165.60604 
L 134.815548 165.554429 
L 134.981523 165.443833 
L 135.092173 165.336925 
L 135.186343 165.226329 
L 135.295815 165.078869 
L 135.430008 164.968273 
L 135.532417 164.853992 
L 135.665433 164.743396 
L 135.774905 164.658606 
L 135.912629 164.548011 
L 136.020924 164.407924 
L 136.176305 164.297328 
L 136.277537 164.17936 
L 136.435272 164.068764 
L 136.544745 163.950796 
L 136.715428 163.840201 
L 136.816661 163.740665 
L 136.907299 163.630069 
L 137.014418 163.53422 
L 137.138016 163.423625 
L 137.243957 163.29091 
L 137.352252 163.180315 
L 137.460548 163.080779 
L 137.580615 162.970184 
L 137.68067 162.874334 
L 137.79956 162.763739 
L 137.91021 162.623652 
L 138.078538 162.513056 
L 138.182125 162.420893 
L 138.298661 162.310298 
L 138.397539 162.199703 
L 138.510543 162.089107 
L 138.610599 161.993258 
L 138.690643 161.882663 
L 138.793053 161.797873 
L 138.943725 161.687277 
L 139.048489 161.598801 
L 139.190921 161.488206 
L 139.300394 161.392356 
L 139.431055 161.281761 
L 139.538173 161.152733 
L 139.695908 161.042138 
L 139.803026 160.938915 
L 139.906613 160.82832 
L 140.017263 160.691919 
L 140.133798 160.581324 
L 140.243271 160.448609 
L 140.320961 160.338014 
L 140.430434 160.172121 
L 140.537552 160.068898 
L 140.634076 159.973049 
L 140.754143 159.86614 
L 140.863616 159.770291 
L 141.008402 159.659696 
L 141.11552 159.512235 
L 141.227347 159.40164 
L 141.329757 159.265239 
L 141.455709 159.154643 
L 141.559296 159.062481 
L 141.678186 158.951885 
L 141.788836 158.822857 
L 141.931268 158.712262 
L 142.041918 158.586921 
L 142.138442 158.476325 
L 142.249091 158.358357 
L 142.393878 158.247761 
L 142.50335 158.140853 
L 142.612823 158.030257 
L 142.721119 157.89017 
L 142.816466 157.779574 
L 142.918875 157.64686 
L 143.029525 157.536264 
L 143.140175 157.407237 
L 143.270836 157.296641 
L 143.3756 157.189732 
L 143.474478 157.079137 
L 143.583951 156.994347 
L 143.716966 156.883752 
L 143.827616 156.717859 
L 143.934734 156.607263 
L 144.030081 156.53722 
L 144.266683 156.426624 
L 144.377333 156.301283 
L 144.512702 156.190687 
L 144.616289 156.057973 
L 144.737533 155.951064 
L 144.844652 155.833096 
L 145.004741 155.729873 
L 145.113036 155.611905 
L 145.216623 155.50131 
L 145.322564 155.398087 
L 145.433214 155.287492 
L 145.542687 155.165837 
L 145.62744 155.058928 
L 145.738089 154.944646 
L 145.851093 154.834051 
L 145.955857 154.738202 
L 145.959389 154.738202 
L 146.115946 154.627606 
L 146.225419 154.513324 
L 146.311349 154.402729 
L 146.421999 154.258955 
L 146.546774 154.152046 
L 146.653892 154.041451 
L 146.773959 153.930855 
L 146.883432 153.82026 
L 146.978779 153.709665 
L 147.088251 153.58801 
L 147.257757 153.477414 
L 147.361344 153.355759 
L 147.471994 153.245164 
L 147.567341 153.134569 
L 147.709773 153.02766 
L 147.81336 152.909691 
L 147.942844 152.799096 
L 148.077036 152.71062 
L 148.208874 152.600024 
L 148.31717 152.511548 
L 148.319524 152.511548 
L 148.478436 152.364088 
L 148.622045 152.253492 
L 148.732695 152.124464 
L 148.84923 152.013869 
L 148.95988 151.903274 
L 149.084655 151.792678 
L 149.189419 151.722635 
L 149.378936 151.612039 
L 149.488409 151.51619 
L 149.62731 151.405594 
L 149.719125 151.317118 
L 149.887454 151.210209 
L 149.998104 151.081181 
L 150.124056 150.970586 
L 150.234706 150.852618 
L 150.404212 150.742022 
L 150.501913 150.668292 
L 150.670242 150.557697 
L 150.779715 150.454474 
L 150.897427 150.343879 
L 151.005723 150.23697 
L 151.136384 150.126375 
L 151.242325 150.037898 
L 151.360037 149.927303 
L 151.467156 149.838827 
L 151.602525 149.728231 
L 151.707289 149.613949 
L 151.71082 149.613949 
L 151.830887 149.507041 
L 151.92388 149.392759 
L 152.065135 149.282163 
L 152.17343 149.193687 
L 152.329988 149.083092 
L 152.440638 149.005675 
L 152.555996 148.89508 
L 152.66076 148.751306 
L 152.77141 148.644397 
L 152.88206 148.496936 
L 152.983292 148.386341 
L 153.078639 148.286805 
L 153.181049 148.179896 
L 153.288168 148.08036 
L 153.388223 147.969765 
L 153.49181 147.844424 
L 153.642482 147.733828 
L 153.749601 147.630606 
L 153.897918 147.52001 
L 154.005037 147.405729 
L 154.007391 147.405729 
L 154.178074 147.295133 
L 154.287547 147.162419 
L 154.406436 147.05551 
L 154.512377 146.944915 
L 154.60537 146.841692 
L 154.712489 146.756902 
L 154.827847 146.646307 
L 154.932611 146.557831 
L 155.024427 146.447235 
L 155.132722 146.3477 
L 155.278686 146.237104 
L 155.388158 146.130195 
L 155.549424 146.0196 
L 155.65772 145.927437 
L 155.809569 145.816842 
L 155.90727 145.709933 
L 156.069713 145.603024 
L 156.178009 145.503488 
L 156.180363 145.503488 
L 156.379297 145.230686 
L 156.466405 145.120091 
L 156.573523 144.998436 
L 156.673579 144.891527 
L 156.783051 144.755126 
L 156.903118 144.644531 
L 157.010236 144.548681 
L 157.013768 144.548681 
L 157.169148 144.390161 
L 157.315112 144.279566 
L 157.419876 144.165284 
L 157.541119 144.054689 
L 157.650592 143.93672 
L 157.756533 143.826125 
L 157.866006 143.733962 
L 157.963707 143.623367 
L 158.074357 143.538577 
L 158.213258 143.431668 
L 158.321553 143.317386 
L 158.445151 143.206791 
L 158.553447 143.147807 
L 158.657034 143.037211 
L 158.766506 142.930303 
L 158.866562 142.819707 
L 158.966618 142.701739 
L 159.099633 142.591143 
L 159.210282 142.439996 
L 159.35036 142.329401 
L 159.459833 142.196687 
L 159.604619 142.086091 
L 159.714092 141.968123 
L 159.942454 141.861214 
L 160.044864 141.765365 
L 160.188473 141.654769 
L 160.297946 141.510995 
L 160.466275 141.4004 
L 160.573393 141.311924 
L 160.666386 141.201328 
L 160.768796 141.116538 
L 160.900634 141.00963 
L 161.011283 140.910094 
L 161.130173 140.799498 
L 161.238468 140.67047 
L 161.365598 140.563562 
L 161.47507 140.497204 
L 161.664588 140.386609 
L 161.775237 140.272327 
L 161.914138 140.161732 
L 162.022434 140.032704 
L 162.137792 139.922108 
L 162.248441 139.833632 
L 162.415593 139.723037 
L 162.522712 139.619814 
L 162.632184 139.509219 
L 162.73224 139.435489 
L 162.838181 139.324893 
L 162.948831 139.247477 
L 163.0842 139.136881 
L 163.193673 139.041032 
L 163.286666 138.930437 
L 163.397315 138.823528 
L 163.576238 138.712932 
L 163.686888 138.576531 
L 163.792829 138.465936 
L 163.899948 138.351654 
L 164.04238 138.241059 
L 164.153029 138.126777 
L 164.280159 138.016182 
L 164.381392 137.946138 
L 164.529709 137.839229 
L 164.640359 137.717574 
L 164.736883 137.610665 
L 164.847533 137.492697 
L 164.977017 137.382101 
L 165.085312 137.275193 
L 165.204202 137.168284 
L 165.310143 137.046629 
L 165.445512 136.93972 
L 165.554985 136.832811 
L 165.700948 136.722216 
L 165.809244 136.607934 
L 165.917539 136.497339 
L 166.025835 136.383057 
L 166.174153 136.272461 
L 166.329533 136.14712 
L 166.473142 136.036524 
L 166.577906 135.918556 
L 166.753298 135.807961 
L 166.863948 135.737917 
L 166.966358 135.627322 
L 167.077007 135.509353 
L 167.25593 135.402444 
L 167.364226 135.332401 
L 167.516075 135.225492 
L 167.618485 135.114896 
L 167.769157 135.007988 
L 167.875098 134.893706 
L 167.993988 134.78311 
L 168.104637 134.668828 
L 168.270612 134.558233 
L 168.370667 134.458697 
L 168.49662 134.348102 
L 168.602561 134.281745 
L 168.761473 134.171149 
L 168.847403 134.042121 
L 169.009846 133.931526 
L 169.104016 133.806184 
L 169.232323 133.695589 
L 169.333556 133.570248 
L 169.501884 133.459652 
L 169.609003 133.360116 
L 169.777332 133.249521 
L 169.871502 133.164731 
L 169.996277 133.057822 
L 170.104572 132.961973 
L 170.24465 132.851378 
L 170.354123 132.773961 
L 170.513035 132.663366 
L 170.618976 132.541711 
L 170.755522 132.431115 
L 170.866172 132.368445 
L 170.988593 132.257849 
L 171.085117 132.158313 
L 171.278166 132.047718 
L 171.373513 131.951869 
L 171.551259 131.841273 
L 171.658377 131.741738 
L 171.779621 131.631142 
L 171.887916 131.575845 
L 172.002097 131.465249 
L 172.112747 131.373086 
L 172.258711 131.262491 
L 172.365829 131.170328 
L 172.520032 131.063419 
L 172.625974 130.960197 
L 172.750749 130.849602 
L 172.861398 130.72426 
L 173.015602 130.613665 
L 173.126252 130.517815 
L 173.254558 130.410907 
L 173.365208 130.303998 
L 173.494692 130.193402 
L 173.591216 130.082807 
L 173.741888 129.972212 
L 173.850183 129.891108 
L 174.007918 129.780513 
L 174.097379 129.706783 
L 174.251583 129.599874 
L 174.358701 129.518771 
L 174.483476 129.408175 
L 174.591772 129.312326 
L 174.716547 129.201731 
L 174.82602 129.087449 
L 174.943732 128.976853 
L 175.052028 128.814647 
L 175.18622 128.704051 
L 175.29687 128.637694 
L 175.525232 128.527099 
L 175.634704 128.423876 
L 175.761834 128.313281 
L 175.871307 128.217432 
L 175.981956 128.106836 
L 176.089075 127.999928 
L 176.243278 127.889332 
L 176.348042 127.793483 
L 176.510485 127.682887 
L 176.614072 127.568606 
L 176.776515 127.45801 
L 176.884811 127.340042 
L 177.031952 127.229446 
L 177.140247 127.133597 
L 177.254428 127.026688 
L 177.365078 126.945585 
L 177.526344 126.83499 
L 177.636994 126.687529 
L 177.754706 126.58062 
L 177.865356 126.492144 
L 177.983068 126.381549 
L 178.093718 126.296759 
L 178.203191 126.18985 
L 178.309132 126.10506 
L 178.444501 125.994465 
L 178.550443 125.891242 
L 178.668155 125.784334 
L 178.761148 125.670052 
L 178.955373 125.559456 
L 179.061315 125.485726 
L 179.208455 125.378817 
L 179.319105 125.235043 
L 179.429755 125.124448 
L 179.53805 125.047031 
L 179.699316 124.936436 
L 179.805258 124.873765 
L 179.90649 124.766856 
L 180.01714 124.623082 
L 180.166635 124.512487 
L 180.261982 124.44613 
L 180.407945 124.335534 
L 180.511532 124.265491 
L 180.633953 124.154895 
L 180.741072 124.070105 
L 180.923526 123.95951 
L 181.029467 123.88578 
L 181.184848 123.782557 
L 181.293143 123.668276 
L 181.432044 123.561367 
L 181.540339 123.461831 
L 181.663938 123.358608 
L 181.663938 123.351235 
L 181.768702 123.2517 
L 181.940562 123.141104 
L 182.045326 123.067374 
L 182.234843 122.956779 
L 182.345493 122.871989 
L 182.50205 122.761393 
L 182.606815 122.672917 
L 182.805749 122.562322 
L 182.912867 122.473846 
L 183.051768 122.36325 
L 183.160063 122.274774 
L 183.293078 122.164178 
L 183.400197 122.075702 
L 183.596776 121.968793 
L 183.707426 121.843452 
L 183.872224 121.732857 
L 183.982873 121.65544 
L 184.199464 121.544844 
L 184.30776 121.460055 
L 184.439598 121.349459 
L 184.547893 121.24255 
L 184.666783 121.131955 
L 184.769193 121.061911 
L 184.965773 120.951316 
L 185.071714 120.859153 
L 185.209437 120.748558 
L 185.320087 120.667454 
L 185.493124 120.560546 
L 185.595534 120.475756 
L 185.750915 120.36516 
L 185.852148 120.280371 
L 185.99458 120.169775 
L 186.082864 120.084986 
L 186.292392 119.97439 
L 186.437179 119.878541 
L 186.574902 119.771632 
L 186.685552 119.683156 
L 186.866829 119.57256 
L 186.968062 119.484084 
L 187.109317 119.373489 
L 187.203487 119.303445 
L 187.376524 119.196536 
L 187.482465 119.104373 
L 187.712005 118.997464 
L 187.813237 118.912675 
L 187.982743 118.802079 
L 188.087507 118.698857 
L 188.200511 118.588262 
L 188.308807 118.514531 
L 188.470073 118.403936 
L 188.577191 118.297027 
L 188.771417 118.190118 
L 188.873827 118.101642 
L 188.945631 117.991047 
L 189.050396 117.924689 
L 189.149274 117.814094 
L 189.251684 117.729304 
L 189.402356 117.618709 
L 189.513006 117.5118 
L 189.649552 117.404891 
L 189.755493 117.334847 
L 189.933239 117.224252 
L 190.03918 117.154208 
L 190.165133 117.043613 
L 190.273428 116.947764 
L 190.437049 116.837168 
L 190.540636 116.756065 
L 190.696016 116.645469 
L 190.80078 116.590172 
L 190.936149 116.479576 
L 191.042091 116.372668 
L 191.196294 116.265759 
L 191.305767 116.144104 
L 191.48469 116.037195 
L 191.594162 115.959778 
L 191.704812 115.849183 
L 191.815462 115.742274 
L 191.950831 115.631679 
L 192.060304 115.535829 
L 192.148588 115.425234 
L 192.252175 115.373623 
L 192.373419 115.263027 
L 192.482891 115.192984 
L 192.653575 115.082388 
L 192.763047 115.001285 
L 192.899594 114.894376 
L 193.009066 114.824332 
L 193.171509 114.713737 
L 193.279805 114.621574 
L 193.397517 114.510979 
L 193.505813 114.448308 
L 193.717695 114.337713 
L 193.824814 114.252923 
L 193.989611 114.142328 
L 194.094375 114.072284 
L 194.196785 113.961689 
L 194.302726 113.895331 
L 194.489889 113.784736 
L 194.597008 113.666768 
L 194.78417 113.556172 
L 194.888934 113.482442 
L 195.031367 113.371847 
L 195.140839 113.28337 
L 195.299751 113.172775 
L 195.409224 113.095358 
L 195.583438 112.984763 
L 195.676431 112.918406 
L 195.882428 112.80781 
L 195.982483 112.719334 
L 196.186126 112.608738 
L 196.292067 112.535008 
L 196.3933 112.424413 
L 196.494533 112.350683 
L 196.644028 112.240087 
L 196.7535 112.16267 
L 196.862973 112.052075 
L 196.968914 111.963599 
L 197.106638 111.853003 
L 197.212579 111.775587 
L 197.405627 111.664991 
L 197.511568 111.565455 
L 197.654001 111.45486 
L 197.757588 111.392189 
L 197.912968 111.281594 
L 198.022441 111.193118 
L 198.16605 111.082522 
L 198.275522 110.99036 
L 198.420309 110.883451 
L 198.523896 110.776542 
L 198.688693 110.665946 
L 198.79228 110.570097 
L 198.960609 110.459502 
L 199.070082 110.400518 
L 199.214868 110.289922 
L 199.312569 110.201446 
L 199.490315 110.090851 
L 199.572714 110.046612 
L 199.796368 109.936017 
L 199.903486 109.862287 
L 200.054158 109.751691 
L 200.160099 109.641096 
L 200.339022 109.530501 
L 200.448495 109.464143 
L 200.560322 109.353548 
L 200.669794 109.279818 
L 200.838123 109.169222 
L 200.948773 109.095492 
L 201.186552 108.988583 
L 201.290139 108.892734 
L 201.503199 108.782139 
L 201.605608 108.704722 
L 201.738624 108.594127 
L 201.849273 108.51671 
L 202.003477 108.409801 
L 202.114126 108.280773 
L 202.22713 108.170178 
L 202.33778 108.078015 
L 202.51788 107.967419 
L 202.623821 107.897376 
L 202.770962 107.78678 
L 202.867486 107.753602 
L 203.079369 107.643006 
L 203.188841 107.547157 
L 203.398369 107.436562 
L 203.509019 107.377577 
L 203.64792 107.266982 
L 203.753861 107.182192 
L 203.93043 107.071597 
L 204.036371 106.986807 
L 204.210586 106.876212 
L 204.29063 106.791422 
L 204.509575 106.680827 
L 204.611985 106.584977 
L 204.729698 106.474382 
L 204.840347 106.389592 
L 205.018093 106.278997 
L 205.125212 106.168401 
L 205.278238 106.057806 
L 205.384179 105.954584 
L 205.540737 105.847675 
L 205.651386 105.755512 
L 205.791464 105.644917 
L 205.89976 105.560127 
L 206.044546 105.449531 
L 206.148133 105.375801 
L 206.349421 105.268892 
L 206.460071 105.17673 
L 206.655474 105.066134 
L 206.764946 104.948166 
L 206.917973 104.83757 
L 207.012143 104.778586 
L 207.261693 104.667991 
L 207.367634 104.597947 
L 207.588934 104.487352 
L 207.699583 104.398875 
L 207.874975 104.28828 
L 207.983271 104.170312 
L 208.097452 104.059716 
L 208.205747 103.967554 
L 208.385847 103.856958 
L 208.475309 103.820093 
L 208.663649 103.713184 
L 208.767236 103.635767 
L 208.936742 103.525172 
L 209.040329 103.447755 
L 209.194532 103.33716 
L 209.294588 103.267116 
L 209.499407 103.156521 
L 209.606526 103.079104 
L 209.753666 102.972195 
L 209.864316 102.891092 
L 210.080907 102.780497 
L 210.184494 102.70308 
L 210.335166 102.592484 
L 210.429336 102.540873 
L 210.610613 102.430278 
L 210.718908 102.345488 
L 210.91902 102.234893 
L 211.027315 102.153789 
L 211.192113 102.043194 
L 211.299231 101.943658 
L 211.472268 101.833063 
L 211.581741 101.766706 
L 211.763018 101.65611 
L 211.865428 101.600813 
L 212.03258 101.490217 
L 212.139698 101.394368 
L 212.309204 101.283773 
L 212.385717 101.221102 
L 212.582297 101.110506 
L 212.685884 101.029403 
L 212.867161 100.918808 
L 212.96604 100.856137 
L 213.133191 100.749228 
L 213.236778 100.686558 
L 213.426295 100.575962 
L 213.526351 100.516978 
L 213.762953 100.406383 
L 213.873603 100.328966 
L 214.026629 100.21837 
L 214.121976 100.140954 
L 214.331504 100.030358 
L 214.436269 99.945569 
L 214.601066 99.834973 
L 214.710539 99.746497 
L 214.903587 99.635902 
L 215.014237 99.573231 
L 215.175503 99.462635 
L 215.27909 99.374159 
L 215.412105 99.263564 
L 215.514515 99.175087 
L 215.718157 99.068179 
L 215.82763 99.012881 
L 216.005376 98.902286 
L 216.113671 98.817496 
L 216.240801 98.7069 
L 216.339679 98.625797 
L 216.472694 98.526261 
L 216.582167 98.452531 
L 216.759913 98.345622 
L 216.865854 98.282951 
L 217.0436 98.172356 
L 217.149541 98.091253 
L 217.271962 97.980657 
L 217.361424 97.895868 
L 217.536815 97.785272 
L 217.645111 97.704169 
L 217.811085 97.593574 
L 217.917027 97.549336 
L 218.121846 97.43874 
L 218.232496 97.324458 
L 218.433784 97.213863 
L 218.537371 97.140133 
L 218.742191 97.029537 
L 218.848132 96.966867 
L 219.035295 96.856271 
L 219.141236 96.775168 
L 219.313097 96.664573 
L 219.422569 96.609275 
L 219.63916 96.49868 
L 219.743924 96.424949 
L 219.934618 96.314354 
L 220.028788 96.25537 
L 220.197117 96.144774 
L 220.300704 96.063671 
L 220.500815 95.953076 
L 220.611465 95.875659 
L 220.775085 95.765064 
L 220.87985 95.706079 
L 221.071721 95.595484 
L 221.180016 95.514381 
L 221.38719 95.403785 
L 221.495486 95.318996 
L 221.679117 95.2084 
L 221.78859 95.105178 
L 221.97693 94.994582 
L 222.073454 94.924539 
L 222.311233 94.821316 
L 222.421883 94.7439 
L 222.609046 94.636991 
L 222.718518 94.57432 
L 222.889202 94.463725 
L 222.998674 94.378935 
L 223.190546 94.26834 
L 223.29531 94.179863 
L 223.596654 94.069268 
L 223.701418 94.010284 
L 223.888581 93.899688 
L 223.981573 93.837018 
L 224.202873 93.726422 
L 224.299397 93.660065 
L 224.508925 93.54947 
L 224.611335 93.479426 
L 224.740819 93.372517 
L 224.850291 93.317219 
L 225.015089 93.206624 
L 225.113967 93.155013 
L 225.324673 93.044417 
L 225.434145 92.959628 
L 225.643674 92.856405 
L 225.749615 92.749496 
L 225.977977 92.638901 
L 226.08745 92.535679 
L 226.246361 92.425083 
L 226.352303 92.358726 
L 226.554768 92.248131 
L 226.661887 92.18546 
L 226.873769 92.074865 
L 226.980887 92.004821 
L 227.137445 91.894226 
L 227.24574 91.827868 
L 227.246918 91.827868 
L 227.417601 91.717273 
L 227.525896 91.617737 
L 227.769561 91.510828 
L 227.868439 91.444471 
L 228.053248 91.333876 
L 228.159189 91.256459 
L 228.333404 91.145864 
L 228.444053 91.068447 
L 228.567652 90.965224 
L 228.678301 90.913613 
L 228.893715 90.803018 
L 228.997302 90.744034 
L 229.124432 90.633438 
L 229.235081 90.552335 
L 229.371628 90.44174 
L 229.479923 90.342204 
L 229.720057 90.235295 
L 229.825998 90.143132 
L 229.995504 90.032537 
L 230.081434 89.962493 
L 230.253294 89.855584 
L 230.36159 89.785541 
L 230.515793 89.674945 
L 230.620557 89.597528 
L 230.760635 89.486933 
L 230.870108 89.391084 
L 231.104355 89.280488 
L 231.204411 89.195699 
L 231.316238 89.085103 
L 231.426888 89.033492 
L 231.563434 88.926583 
L 231.672907 88.84548 
L 231.863601 88.734884 
L 231.968365 88.672214 
L 232.154351 88.568991 
L 232.254406 88.487888 
L 232.566344 88.377293 
L 232.668754 88.310936 
L 232.82178 88.20034 
L 232.931253 88.11555 
L 233.071331 88.004955 
L 233.144313 87.942284 
L 233.443302 87.831689 
L 233.551598 87.780078 
L 233.725812 87.669482 
L 233.824691 87.625244 
L 234.050699 87.514649 
L 234.158994 87.463038 
L 234.330854 87.352442 
L 234.434441 87.26028 
L 234.622781 87.149684 
L 234.72166 87.094386 
L 234.946491 86.983791 
L 235.047723 86.924807 
L 235.279617 86.814212 
L 235.38085 86.777346 
L 235.605681 86.666751 
L 235.701028 86.61514 
L 235.916442 86.504545 
L 236.02356 86.449247 
L 236.221317 86.338651 
L 236.32255 86.261235 
L 236.565037 86.150639 
L 236.675687 86.087969 
L 236.858141 85.977373 
L 236.960551 85.925762 
L 237.220696 85.815167 
L 237.327814 85.741436 
L 237.577365 85.630841 
L 237.68566 85.571857 
L 237.897543 85.461262 
L 238.001129 85.40965 
L 238.249503 85.299055 
L 238.356621 85.243757 
L 238.597932 85.133162 
L 238.707404 85.088924 
L 238.912224 84.982015 
L 239.021697 84.919344 
L 239.337166 84.808749 
L 239.477244 84.709213 
L 239.676178 84.598618 
L 239.784474 84.535947 
L 239.961042 84.425352 
L 240.056389 84.362681 
L 240.240021 84.252085 
L 240.347139 84.174669 
L 240.603752 84.064073 
L 240.714402 83.971911 
L 240.863897 83.861315 
L 240.967484 83.813391 
L 241.154647 83.702795 
L 241.260588 83.632751 
L 241.430094 83.525843 
L 241.537212 83.455799 
L 241.732615 83.345203 
L 241.827962 83.286219 
L 242.038667 83.17931 
L 242.146963 83.090834 
L 242.337657 82.980239 
L 242.440067 82.932314 
L 242.747297 82.821719 
L 242.855592 82.718496 
L 243.09808 82.611587 
L 243.207552 82.523111 
L 243.407664 82.412516 
L 243.517136 82.360905 
L 243.73255 82.250309 
L 243.8432 82.161833 
L 244.079802 82.054924 
L 244.188097 81.98488 
L 244.428231 81.874285 
L 244.520047 81.818987 
L 244.804911 81.708392 
L 244.914383 81.630975 
L 245.135683 81.52038 
L 245.241624 81.465082 
L 245.479403 81.354487 
L 245.590053 81.306562 
L 245.778393 81.195967 
L 245.876094 81.148042 
L 246.085622 81.041133 
L 246.191564 80.982149 
L 246.389321 80.871554 
L 246.487022 80.794137 
L 246.645934 80.683542 
L 246.744812 80.628244 
L 246.753052 80.628244 
L 247.026145 80.517648 
L 247.135618 80.447605 
L 247.29453 80.337009 
L 247.401648 80.292771 
L 247.624125 80.182176 
L 247.731243 80.141624 
L 247.981971 80.031029 
L 248.09262 79.968358 
L 248.231521 79.861449 
L 248.338639 79.798779 
L 248.578773 79.688183 
L 248.667057 79.621826 
L 248.871877 79.511231 
L 248.966047 79.444873 
L 249.160272 79.334278 
L 249.268568 79.286353 
L 249.468679 79.175758 
L 249.575797 79.098341 
L 249.765315 78.995119 
L 249.867724 78.917702 
L 250.032522 78.807107 
L 250.136109 78.74075 
L 250.372711 78.630154 
L 250.481006 78.552737 
L 250.616376 78.442142 
L 250.724671 78.416336 
L 250.967159 78.305741 
L 251.077809 78.250443 
L 251.314411 78.139848 
L 251.422706 78.058745 
L 251.687559 77.948149 
L 251.792323 77.848614 
L 252.053645 77.738018 
L 252.158409 77.667974 
L 252.338509 77.557379 
L 252.447982 77.494708 
L 252.704595 77.384113 
L 252.815245 77.339875 
L 253.107172 77.232966 
L 253.217822 77.166609 
L 253.450892 77.056013 
L 253.555656 76.98597 
L 253.719277 76.875374 
L 253.829926 76.823763 
L 254.058289 76.713168 
L 254.16423 76.632064 
L 254.356101 76.521469 
L 254.459688 76.432993 
L 254.680988 76.322397 
L 254.78222 76.25604 
L 255.080033 76.145445 
L 255.177734 76.090147 
L 255.324875 75.979552 
L 255.422576 75.924254 
L 255.643876 75.813659 
L 255.754525 75.725182 
L 255.939334 75.614587 
L 256.042921 75.544543 
L 256.2807 75.433948 
L 256.390173 75.363904 
L 256.545553 75.256995 
L 256.652672 75.179579 
L 256.863377 75.068983 
L 256.968141 75.009999 
L 257.227109 74.899404 
L 257.33305 74.869912 
L 257.575537 74.759316 
L 257.67677 74.696645 
L 257.941623 74.58605 
L 258.015782 74.541812 
L 258.275927 74.431217 
L 258.385399 74.361173 
L 258.564322 74.250577 
L 258.674972 74.176847 
L 258.898626 74.069938 
L 259.005744 74.029387 
L 259.187021 73.918791 
L 259.296494 73.837688 
L 259.582535 73.727093 
L 259.686122 73.671795 
L 259.902713 73.5612 
L 260.008654 73.491156 
L 260.254673 73.380561 
L 260.350021 73.328949 
L 260.580737 73.225727 
L 260.685501 73.155683 
L 260.977428 73.045088 
L 261.073952 72.986104 
L 261.279949 72.875508 
L 261.381182 72.83127 
L 261.553042 72.724361 
L 261.66016 72.617452 
L 261.874397 72.506857 
L 261.981515 72.455246 
L 262.156907 72.344651 
L 262.259317 72.278293 
L 262.528879 72.167698 
L 262.638351 72.086595 
L 262.853765 71.975999 
L 262.947935 71.924388 
L 263.142161 71.813793 
L 263.232799 71.747436 
L 263.414076 71.63684 
L 263.517663 71.588916 
L 263.7319 71.482007 
L 263.835487 71.426709 
L 264.077975 71.316114 
L 264.183916 71.257129 
L 264.441706 71.146534 
L 264.540585 71.080177 
L 264.747759 70.969581 
L 264.858408 70.921657 
L 265.062051 70.811061 
L 265.172701 70.715212 
L 265.382229 70.604617 
L 265.483462 70.549319 
L 265.672979 70.438724 
L 265.767149 70.350247 
L 266.066138 70.243339 
L 266.167371 70.140116 
L 266.36042 70.029521 
L 266.46283 69.955791 
L 266.750048 69.845195 
L 266.841864 69.786211 
L 267.08906 69.675616 
L 267.198533 69.609258 
L 267.393935 69.498663 
L 267.497522 69.439679 
L 267.729416 69.329083 
L 267.831826 69.281159 
L 268.107273 69.170563 
L 268.214391 69.096833 
L 268.492193 68.986238 
L 268.600488 68.916194 
L 268.880644 68.809285 
L 268.987762 68.77242 
L 269.247907 68.661825 
L 269.357379 68.617587 
L 269.658723 68.506991 
L 269.759956 68.45538 
L 269.917691 68.348471 
L 270.021278 68.289487 
L 270.304965 68.178892 
L 270.406198 68.134653 
L 270.636914 68.024058 
L 270.747564 67.939268 
L 271.08069 67.832359 
L 271.177214 67.780748 
L 271.445599 67.670153 
L 271.553894 67.603796 
L 271.818747 67.4932 
L 271.921157 67.456335 
L 272.200136 67.34574 
L 272.299014 67.308875 
L 272.410841 67.201966 
L 272.494417 67.17616 
L 272.774573 67.069251 
L 272.875805 67.01764 
L 273.098282 66.907045 
L 273.193629 66.851747 
L 273.386677 66.744838 
L 273.482025 66.685854 
L 273.79514 66.575259 
L 273.891664 66.519961 
L 274.172997 66.409366 
L 274.278938 66.339322 
L 274.471987 66.232413 
L 274.581459 66.199234 
L 274.813353 66.088639 
L 274.909877 66.033341 
L 275.178261 65.926433 
L 275.279494 65.885881 
L 275.523159 65.775286 
L 275.6291 65.712615 
L 275.949278 65.602019 
L 276.055219 65.513543 
L 276.295353 65.402948 
L 276.389523 65.362396 
L 276.622594 65.251801 
L 276.729712 65.218622 
L 276.968668 65.108027 
L 277.053421 65.045356 
L 277.348879 64.934761 
L 277.452466 64.88315 
L 277.680829 64.772554 
L 277.791478 64.728316 
L 278.058686 64.617721 
L 278.169335 64.55505 
L 278.361207 64.451828 
L 278.471857 64.378097 
L 278.763783 64.267502 
L 278.849714 64.212204 
L 279.11339 64.101609 
L 279.221685 64.072117 
L 279.45711 63.961521 
L 279.561874 63.898851 
L 279.772579 63.788255 
L 279.869104 63.710839 
L 280.045672 63.60393 
L 280.146905 63.556005 
L 280.440009 63.44541 
L 280.550659 63.386426 
L 280.802564 63.27583 
L 280.904973 63.198413 
L 281.163941 63.087818 
L 281.272236 63.028834 
L 281.592414 62.918238 
L 281.701887 62.877687 
L 281.947906 62.767091 
L 282.055024 62.730226 
L 282.302221 62.619631 
L 282.409339 62.575393 
L 282.651827 62.464797 
L 282.753059 62.416873 
L 282.992016 62.306277 
L 283.090894 62.25098 
L 283.360456 62.140384 
L 283.468751 62.09246 
L 283.730073 61.981864 
L 283.83366 61.911821 
L 284.135004 61.801225 
L 284.244476 61.745928 
L 284.558769 61.635332 
L 284.665887 61.550542 
L 284.851873 61.439947 
L 284.962523 61.366217 
L 285.287409 61.255621 
L 285.394527 61.196637 
L 285.65938 61.086042 
L 285.757082 61.030744 
L 286.03606 60.923835 
L 286.116105 60.88697 
L 286.14671 60.88697 
L 286.270308 60.861165 
L 286.603435 60.750569 
L 286.704667 60.710018 
L 287.000126 60.599422 
L 287.103713 60.558871 
L 287.443902 60.448275 
L 287.546311 60.396664 
L 287.852364 60.286069 
L 287.961836 60.245517 
L 288.237284 60.134922 
L 288.347933 60.086997 
L 288.584536 59.976402 
L 288.683414 59.92479 
L 288.96357 59.814195 
L 289.067157 59.747838 
L 289.320238 59.637243 
L 289.430888 59.552453 
L 289.789911 59.441857 
L 289.88055 59.38656 
L 290.199551 59.279651 
L 290.309023 59.231726 
L 290.652744 59.121131 
L 290.755154 59.091639 
L 291.09652 58.981043 
L 291.205992 58.944178 
L 291.489679 58.833583 
L 291.600329 58.774599 
L 291.867537 58.664003 
L 291.973478 58.597646 
L 292.360752 58.487051 
L 292.461985 58.439126 
L 292.723306 58.328531 
L 292.82807 58.284292 
L 293.174145 58.173697 
L 293.271846 58.129459 
L 293.613213 58.018864 
L 293.70856 57.963566 
L 294.048749 57.852971 
L 294.139387 57.793986 
L 294.485462 57.683391 
L 294.576101 57.646526 
L 294.858611 57.539617 
L 294.963375 57.491692 
L 295.25177 57.381097 
L 295.361243 57.336859 
L 295.708495 57.22995 
L 295.803842 57.178339 
L 296.300588 57.067743 
L 296.410061 57.038251 
L 296.703165 56.927656 
L 296.799689 56.91291 
L 297.170484 56.802315 
L 297.274071 56.747017 
L 297.277602 56.747017 
L 297.525975 56.636421 
L 297.627208 56.566378 
L 297.900301 56.455782 
L 298.009774 56.411544 
L 298.23225 56.304635 
L 298.331129 56.241965 
L 298.333483 56.241965 
L 298.644244 56.131369 
L 298.751362 56.065012 
L 299.07154 55.954417 
L 299.181013 55.921238 
L 299.554161 55.810643 
L 299.664811 55.766405 
L 300.005 55.655809 
L 300.112118 55.618944 
L 300.392274 55.508349 
L 300.50057 55.449364 
L 300.74188 55.338769 
L 300.85253 55.298217 
L 301.185656 55.187622 
L 301.292775 55.128638 
L 301.567045 55.018043 
L 301.674163 54.970118 
L 301.929599 54.863209 
L 302.033186 54.818971 
L 302.374552 54.708375 
L 302.482848 54.67151 
L 302.747701 54.560915 
L 302.851288 54.520363 
L 303.15734 54.409768 
L 303.265636 54.347097 
L 303.461038 54.236502 
L 303.564625 54.170145 
L 303.900106 54.059549 
L 304.008401 54.022684 
L 304.388613 53.912089 
L 304.493377 53.867851 
L 304.699374 53.757255 
L 304.801784 53.709331 
L 305.19612 53.598735 
L 305.29029 53.57293 
L 305.552789 53.462334 
L 305.663439 53.425469 
L 305.951834 53.314874 
L 306.050713 53.285382 
L 306.368537 53.174786 
L 306.469769 53.148981 
L 306.798187 53.038385 
L 306.893534 53.00152 
L 307.311414 52.890925 
L 307.409115 52.85406 
L 307.703396 52.743464 
L 307.810515 52.673421 
L 308.271947 52.566512 
L 308.377889 52.533333 
L 308.63097 52.422738 
L 308.715723 52.385873 
L 309.091226 52.275277 
L 309.183042 52.234726 
L 309.454958 52.12413 
L 309.562076 52.076206 
L 309.861066 51.96561 
L 309.968184 51.917686 
L 310.362521 51.80709 
L 310.467285 51.762852 
L 310.799234 51.652257 
L 310.895759 51.619078 
L 311.214759 51.508483 
L 311.324232 51.467931 
L 311.623222 51.357336 
L 311.727986 51.324157 
L 312.094072 51.213562 
L 312.202367 51.176697 
L 312.513128 51.066101 
L 312.615538 51.029236 
L 312.943956 50.918641 
L 313.039303 50.863343 
L 313.372429 50.752748 
L 313.483079 50.686391 
L 313.875061 50.575795 
L 313.956283 50.542617 
L 314.434196 50.432021 
L 314.536606 50.38041 
L 314.994507 50.273501 
L 315.072197 50.244009 
L 315.348822 50.133414 
L 315.413563 50.100235 
L 315.873819 49.98964 
L 315.983292 49.949088 
L 316.339961 49.842179 
L 316.427068 49.801628 
L 316.926169 49.691032 
L 317.028579 49.665227 
L 317.251055 49.554631 
L 317.333454 49.528826 
L 317.76075 49.41823 
L 317.833732 49.388738 
L 318.185692 49.278143 
L 318.293988 49.241278 
L 318.570612 49.130682 
L 318.674199 49.086444 
L 319.013211 48.975849 
L 319.116798 48.964789 
L 319.442862 48.854194 
L 319.547626 48.79521 
L 319.770102 48.684614 
L 319.876044 48.662495 
L 320.231535 48.5519 
L 320.341008 48.489229 
L 320.695322 48.378634 
L 320.801264 48.330709 
L 321.167349 48.220114 
L 321.276822 48.183249 
L 321.584052 48.072653 
L 321.694701 48.017356 
L 322.104341 47.90676 
L 322.21499 47.873582 
L 322.59991 47.762986 
L 322.698789 47.737181 
L 322.989539 47.626585 
L 323.029561 47.615526 
L 323.047218 47.615526 
L 323.505119 47.50493 
L 323.606352 47.468065 
L 323.997157 47.35747 
L 324.088973 47.34641 
L 324.473893 47.235815 
L 324.566886 47.195263 
L 324.97064 47.084668 
L 325.075404 47.047803 
L 325.395582 46.937207 
L 325.488574 46.911402 
L 325.913517 46.800806 
L 326.013572 46.775001 
L 326.378481 46.664406 
L 326.489131 46.620167 
L 326.929375 46.509572 
L 327.032962 46.48008 
L 327.379037 46.369485 
L 327.474384 46.325246 
L 327.487332 46.325246 
L 327.922869 46.214651 
L 328.025278 46.188845 
L 328.284246 46.07825 
L 328.384301 46.037698 
L 328.823369 45.927103 
L 328.930487 45.890238 
L 329.317761 45.779643 
L 329.358961 45.77227 
L 329.422525 45.77227 
L 329.841582 45.665361 
L 329.931043 45.610063 
L 330.191188 45.499468 
L 330.297129 45.473662 
L 330.744437 45.363067 
L 330.832721 45.344634 
L 331.255309 45.234039 
L 331.355364 45.204547 
L 331.663771 45.093951 
L 331.772067 45.031281 
L 332.135798 44.920685 
L 332.246448 44.869074 
L 332.610179 44.758479 
L 332.703172 44.732673 
L 333.086915 44.622078 
L 333.182262 44.588899 
L 333.534222 44.478304 
L 333.607204 44.452498 
L 334.132202 44.345589 
L 334.232257 44.293978 
L 334.625417 44.183383 
L 334.717233 44.16495 
L 335.079787 44.054355 
L 335.173957 44.010117 
L 335.641276 43.899521 
L 335.740154 43.884775 
L 336.173336 43.77418 
L 336.265152 43.741001 
L 336.650072 43.630406 
L 336.759544 43.6046 
L 337.067951 43.494005 
L 337.149173 43.449767 
L 337.532915 43.339171 
L 337.614137 43.302306 
L 338.084987 43.191711 
L 338.146197 43.158532 
L 338.658246 43.047937 
L 338.765365 43.018445 
L 339.27506 42.907849 
L 339.372761 42.89679 
L 339.757681 42.793568 
L 339.862445 42.764075 
L 340.293273 42.65348 
L 340.383911 42.635048 
L 340.85123 42.524452 
L 340.935983 42.476528 
L 341.33856 42.365932 
L 341.448032 42.340127 
L 341.911819 42.229531 
L 342.017761 42.192666 
L 342.428577 42.082071 
L 342.514507 42.063638 
L 342.99242 41.953043 
L 343.09483 41.897745 
L 343.563325 41.78715 
L 343.662204 41.757658 
L 344.160128 41.650749 
L 344.264892 41.624943 
L 344.754576 41.514348 
L 344.858163 41.492229 
L 345.273688 41.381633 
L 345.354909 41.355828 
L 345.817519 41.245232 
L 345.892855 41.219427 
L 346.368414 41.108831 
L 346.476709 41.060907 
L 346.883994 40.950311 
L 346.97581 40.90976 
L 347.476088 40.799164 
L 347.570258 40.754926 
L 347.878665 40.644331 
L 347.972835 40.625898 
L 348.503718 40.515303 
L 348.603774 40.474751 
L 349.03931 40.364156 
L 349.140543 40.330977 
L 349.58785 40.220382 
L 349.680843 40.201949 
L 350.081065 40.091354 
L 350.179944 40.065548 
L 350.799111 39.95864 
L 350.909761 39.918088 
L 351.636047 39.811179 
L 351.719623 39.781687 
L 352.186942 39.671092 
L 352.27758 39.656346 
L 352.668386 39.54575 
L 352.775504 39.501512 
L 353.404089 39.390917 
L 353.51003 39.368798 
L 354.084467 39.258202 
L 354.190408 39.243456 
L 354.773085 39.132861 
L 354.870786 39.084936 
L 355.332219 38.974341 
L 355.392252 38.933789 
L 355.924313 38.823194 
L 356.024368 38.793702 
L 356.638827 38.683106 
L 356.734175 38.649928 
L 357.240338 38.539332 
L 357.350988 38.517213 
L 357.865392 38.406618 
L 357.968978 38.380812 
L 358.60698 38.270217 
L 358.697619 38.240725 
L 359.109612 38.130129 
L 359.210845 38.10801 
L 359.854732 37.997415 
L 359.963028 37.971609 
L 360.619863 37.861014 
L 360.718742 37.831522 
L 361.379109 37.720927 
L 361.469748 37.691434 
L 362.184262 37.580839 
L 362.264307 37.555034 
L 362.982353 37.444438 
L 363.074169 37.426006 
L 363.675679 37.31541 
L 363.773381 37.289605 
L 364.377246 37.179009 
L 364.478479 37.153204 
L 365.555548 37.042608 
L 365.66502 37.020489 
L 366.30773 36.909894 
L 366.344221 36.898834 
L 366.387775 36.898834 
L 366.998703 36.788239 
L 367.088164 36.758747 
L 367.83093 36.648151 
L 367.876838 36.633405 
L 368.501891 36.52281 
L 368.599592 36.500691 
L 369.42358 36.390096 
L 369.530698 36.356917 
L 370.346446 36.246322 
L 370.448855 36.220516 
L 370.977384 36.113607 
L 370.977384 36.106234 
L 371.023292 36.106234 
L 371.682482 35.995639 
L 371.755464 35.980893 
L 372.604171 35.870297 
L 372.693632 35.837119 
L 373.381073 35.726523 
L 373.429335 35.708091 
L 374.195644 35.597495 
L 374.303939 35.575376 
L 375.122041 35.464781 
L 375.218565 35.446348 
L 375.955445 35.33944 
L 376.060209 35.313634 
L 376.87478 35.203039 
L 376.918333 35.184606 
L 377.950672 35.074011 
L 378.05779 35.066638 
L 379.063055 34.956042 
L 379.167819 34.930237 
L 380.125998 34.819641 
L 380.229585 34.804895 
L 381.119492 34.6943 
L 381.211307 34.68324 
L 382.408443 34.572645 
L 382.408443 34.568959 
L 383.597339 34.458363 
L 383.680915 34.45099 
L 384.668523 34.414125 
L 384.668523 34.414125 
" clip-path="url(#p834653059a)" style="fill: none; stroke: #0000ff; stroke-width: 1.5; stroke-linecap: square"/>
   </g>
   <g id="line2d_14">
    <path d="M 60.013977 276.334125 
L 384.668523 34.414125 
" clip-path="url(#p834653059a)" style="fill: none; stroke-dasharray: 5.55,2.4; stroke-dashoffset: 0; stroke: #ff0000; stroke-width: 1.5"/>
   </g>
   <g id="patch_3">
    <path d="M 43.78125 288.430125 
L 43.78125 22.318125 
" style="fill: none; stroke: #000000; stroke-width: 0.8; stroke-linejoin: miter; stroke-linecap: square"/>
   </g>
   <g id="patch_4">
    <path d="M 400.90125 288.430125 
L 400.90125 22.318125 
" style="fill: none; stroke: #000000; stroke-width: 0.8; stroke-linejoin: miter; stroke-linecap: square"/>
   </g>
   <g id="patch_5">
    <path d="M 43.78125 288.430125 
L 400.90125 288.430125 
" style="fill: none; stroke: #000000; stroke-width: 0.8; stroke-linejoin: miter; stroke-linecap: square"/>
   </g>
   <g id="patch_6">
    <path d="M 43.78125 22.318125 
L 400.90125 22.318125 
" style="fill: none; stroke: #000000; stroke-width: 0.8; stroke-linejoin: miter; stroke-linecap: square"/>
   </g>
   <g id="text_15">
    <!-- XGBoost -->
    <g transform="translate(196.645313 16.318125) scale(0.12 -0.12)">
     <defs>
      <path id="DejaVuSans-58" d="M 403 4666 
L 1081 4666 
L 2241 2931 
L 3406 4666 
L 4084 4666 
L 2584 2425 
L 4184 0 
L 3506 0 
L 2194 1984 
L 872 0 
L 191 0 
L 1856 2491 
L 403 4666 
z
" transform="scale(0.015625)"/>
      <path id="DejaVuSans-47" d="M 3809 666 
L 3809 1919 
L 2778 1919 
L 2778 2438 
L 4434 2438 
L 4434 434 
Q 4069 175 3628 42 
Q 3188 -91 2688 -91 
Q 1594 -91 976 548 
Q 359 1188 359 2328 
Q 359 3472 976 4111 
Q 1594 4750 2688 4750 
Q 3144 4750 3555 4637 
Q 3966 4525 4313 4306 
L 4313 3634 
Q 3963 3931 3569 4081 
Q 3175 4231 2741 4231 
Q 1884 4231 1454 3753 
Q 1025 3275 1025 2328 
Q 1025 1384 1454 906 
Q 1884 428 2741 428 
Q 3075 428 3337 486 
Q 3600 544 3809 666 
z
" transform="scale(0.015625)"/>
      <path id="DejaVuSans-42" d="M 1259 2228 
L 1259 519 
L 2272 519 
Q 2781 519 3026 730 
Q 3272 941 3272 1375 
Q 3272 1813 3026 2020 
Q 2781 2228 2272 2228 
L 1259 2228 
z
M 1259 4147 
L 1259 2741 
L 2194 2741 
Q 2656 2741 2882 2914 
Q 3109 3088 3109 3444 
Q 3109 3797 2882 3972 
Q 2656 4147 2194 4147 
L 1259 4147 
z
M 628 4666 
L 2241 4666 
Q 2963 4666 3353 4366 
Q 3744 4066 3744 3513 
Q 3744 3084 3544 2831 
Q 3344 2578 2956 2516 
Q 3422 2416 3680 2098 
Q 3938 1781 3938 1306 
Q 3938 681 3513 340 
Q 3088 0 2303 0 
L 628 0 
L 628 4666 
z
" transform="scale(0.015625)"/>
     </defs>
     <use xlink:href="#DejaVuSans-58"/>
     <use xlink:href="#DejaVuSans-47" x="68.505859"/>
     <use xlink:href="#DejaVuSans-42" x="145.996094"/>
     <use xlink:href="#DejaVuSans-6f" x="214.599609"/>
     <use xlink:href="#DejaVuSans-6f" x="275.78125"/>
     <use xlink:href="#DejaVuSans-73" x="336.962891"/>
     <use xlink:href="#DejaVuSans-74" x="389.0625"/>
    </g>
   </g>
   <g id="legend_1">
    <g id="patch_7">
     <path d="M 50.78125 44.99625 
L 160.0125 44.99625 
Q 162.0125 44.99625 162.0125 42.99625 
L 162.0125 29.318125 
Q 162.0125 27.318125 160.0125 27.318125 
L 50.78125 27.318125 
Q 48.78125 27.318125 48.78125 29.318125 
L 48.78125 42.99625 
Q 48.78125 44.99625 50.78125 44.99625 
z
" style="fill: #ffffff; opacity: 0.8; stroke: #cccccc; stroke-linejoin: miter"/>
    </g>
    <g id="line2d_15">
     <path d="M 52.78125 35.416562 
L 62.78125 35.416562 
L 72.78125 35.416562 
" style="fill: none; stroke: #0000ff; stroke-width: 1.5; stroke-linecap: square"/>
    </g>
    <g id="text_16">
     <!-- AUC = 0.67804 -->
     <g transform="translate(80.78125 38.916562) scale(0.1 -0.1)">
      <defs>
       <path id="DejaVuSans-41" d="M 2188 4044 
L 1331 1722 
L 3047 1722 
L 2188 4044 
z
M 1831 4666 
L 2547 4666 
L 4325 0 
L 3669 0 
L 3244 1197 
L 1141 1197 
L 716 0 
L 50 0 
L 1831 4666 
z
" transform="scale(0.015625)"/>
       <path id="DejaVuSans-55" d="M 556 4666 
L 1191 4666 
L 1191 1831 
Q 1191 1081 1462 751 
Q 1734 422 2344 422 
Q 2950 422 3222 751 
Q 3494 1081 3494 1831 
L 3494 4666 
L 4128 4666 
L 4128 1753 
Q 4128 841 3676 375 
Q 3225 -91 2344 -91 
Q 1459 -91 1007 375 
Q 556 841 556 1753 
L 556 4666 
z
" transform="scale(0.015625)"/>
       <path id="DejaVuSans-43" d="M 4122 4306 
L 4122 3641 
Q 3803 3938 3442 4084 
Q 3081 4231 2675 4231 
Q 1875 4231 1450 3742 
Q 1025 3253 1025 2328 
Q 1025 1406 1450 917 
Q 1875 428 2675 428 
Q 3081 428 3442 575 
Q 3803 722 4122 1019 
L 4122 359 
Q 3791 134 3420 21 
Q 3050 -91 2638 -91 
Q 1578 -91 968 557 
Q 359 1206 359 2328 
Q 359 3453 968 4101 
Q 1578 4750 2638 4750 
Q 3056 4750 3426 4639 
Q 3797 4528 4122 4306 
z
" transform="scale(0.015625)"/>
       <path id="DejaVuSans-3d" d="M 678 2906 
L 4684 2906 
L 4684 2381 
L 678 2381 
L 678 2906 
z
M 678 1631 
L 4684 1631 
L 4684 1100 
L 678 1100 
L 678 1631 
z
" transform="scale(0.015625)"/>
       <path id="DejaVuSans-37" d="M 525 4666 
L 3525 4666 
L 3525 4397 
L 1831 0 
L 1172 0 
L 2766 4134 
L 525 4134 
L 525 4666 
z
" transform="scale(0.015625)"/>
      </defs>
      <use xlink:href="#DejaVuSans-41"/>
      <use xlink:href="#DejaVuSans-55" x="68.408203"/>
      <use xlink:href="#DejaVuSans-43" x="141.601562"/>
      <use xlink:href="#DejaVuSans-20" x="211.425781"/>
      <use xlink:href="#DejaVuSans-3d" x="243.212891"/>
      <use xlink:href="#DejaVuSans-20" x="327.001953"/>
      <use xlink:href="#DejaVuSans-30" x="358.789062"/>
      <use xlink:href="#DejaVuSans-2e" x="422.412109"/>
      <use xlink:href="#DejaVuSans-36" x="454.199219"/>
      <use xlink:href="#DejaVuSans-37" x="517.822266"/>
      <use xlink:href="#DejaVuSans-38" x="581.445312"/>
      <use xlink:href="#DejaVuSans-30" x="645.068359"/>
      <use xlink:href="#DejaVuSans-34" x="708.691406"/>
     </g>
    </g>
   </g>
  </g>
 </g>
 <defs>
  <clipPath id="p834653059a">
   <rect x="43.78125" y="22.318125" width="357.12" height="266.112"/>
  </clipPath>
 </defs>
</svg>
